<?xml version="1.0" standalone="no"?>
<!DOCTYPE svg PUBLIC "-//W3C//DTD SVG 1.1//EN" "http://www.w3.org/Graphics/SVG/1.1/DTD/svg11.dtd" >
<!--
2013-9-30: Created.
-->
<svg>
<metadata>
Created by iconfont
</metadata>
<defs>

<font id="widash-icon" horiz-adv-x="1024" >
  <font-face
    font-family="widash-icon"
    font-weight="500"
    font-stretch="normal"
    units-per-em="1024"
    ascent="896"
    descent="-128"
  />
    <missing-glyph />
    
    <glyph glyph-name="left-system" unicode="&#58893;" d="M640 810.666667v-256H384V810.666667h256m42.666667 85.333333H341.333333a42.666667 42.666667 0 0 1-42.666666-42.666667v-341.333333a42.666667 42.666667 0 0 1 42.666666-42.666667h341.333334a42.666667 42.666667 0 0 1 42.666666 42.666667V853.333333a42.666667 42.666667 0 0 1-42.666666 42.666667zM256 128v-170.666667H85.333333v170.666667h170.666667m42.666667 85.333333H42.666667a42.666667 42.666667 0 0 1-42.666667-42.666666v-256a42.666667 42.666667 0 0 1 42.666667-42.666667h256a42.666667 42.666667 0 0 1 42.666666 42.666667v256a42.666667 42.666667 0 0 1-42.666666 42.666666zM938.666667 128v-170.666667h-170.666667v170.666667h170.666667m42.666666 85.333333h-256a42.666667 42.666667 0 0 1-42.666666-42.666666v-256a42.666667 42.666667 0 0 1 42.666666-42.666667h256a42.666667 42.666667 0 0 1 42.666667 42.666667v256a42.666667 42.666667 0 0 1-42.666667 42.666666zM210.346667 213.33333300000004v85.333334h604.16v-85.333334h85.333333v128a42.666667 42.666667 0 0 1-42.666667 42.666667H167.68a42.666667 42.666667 0 0 1-42.666667-42.666667v-128zM469.76 512h85.333333v-213.333333h-85.333333z"  horiz-adv-x="1024" />

    
    <glyph glyph-name="top-fullscreen" unicode="&#58904;" d="M921.6 793.6a51.2 51.2 0 0 0 51.2-51.2v-560.128a51.2 51.2 0 0 0-51.2-51.2H102.4a51.2 51.2 0 0 0-51.2 51.2V742.4a51.2 51.2 0 0 0 51.2 51.2h819.2m0 51.2H102.4a102.4 102.4 0 0 1-102.4-102.4v-560.128a102.4 102.4 0 0 1 102.4-102.4h819.2a102.4 102.4 0 0 1 102.4 102.4V742.4a102.4 102.4 0 0 1-102.4 102.4zM896 521.7280000000001a25.6 25.6 0 0 0-25.6 25.6V640a54.784 54.784 0 0 1-55.296 51.2h-89.6a25.6 25.6 0 0 0 0 51.2h90.112A105.984 105.984 0 0 0 921.6 640v-92.672a25.6 25.6 0 0 0-25.6-25.6zM128 521.7280000000001a25.6 25.6 0 0 0-25.6 25.6V640a105.984 105.984 0 0 0 106.496 102.4h89.6a25.6 25.6 0 0 0 0-51.2H208.896A54.784 54.784 0 0 1 153.6 640v-92.672a25.6 25.6 0 0 0-25.6-25.6zM815.104 181.76h-89.6a25.6 25.6 0 0 0 0 51.2h90.112A54.784 54.784 0 0 1 870.4 287.23199999999997v90.112a25.6 25.6 0 1 0 51.2 0v-90.112a105.984 105.984 0 0 0-106.496-105.472zM298.496 181.76H208.896A105.984 105.984 0 0 0 102.4 287.23199999999997v90.112a25.6 25.6 0 1 0 51.2 0v-90.112a54.784 54.784 0 0 1 55.296-54.272h89.6a25.6 25.6 0 1 0 0-51.2zM747.008-25.600000000000023H276.992a20.992 20.992 0 0 1-20.992-20.48v-9.728a20.992 20.992 0 0 1 20.992-20.992h470.016a20.992 20.992 0 0 1 20.992 20.992v9.728a20.992 20.992 0 0 1-20.992 20.992z"  horiz-adv-x="1024" />

    
    <glyph glyph-name="top-fullscreen_solid" unicode="&#58921;" d="M921.6 844.8H102.4a102.4 102.4 0 0 1-102.4-102.4v-560.128a102.4 102.4 0 0 1 102.4-102.4h819.2a102.4 102.4 0 0 1 102.4 102.4V742.4a102.4 102.4 0 0 1-102.4 102.4zM298.496 181.76H208.896A105.984 105.984 0 0 0 102.4 287.23199999999997v90.112a25.6 25.6 0 0 0 51.2 0v-90.112a54.784 54.784 0 0 1 55.296-54.272h89.6a25.6 25.6 0 1 0 0-51.2z m0 512H208.896A54.784 54.784 0 0 1 153.6 640v-92.672a25.6 25.6 0 1 0-51.2 0V640a105.984 105.984 0 0 0 106.496 102.4h89.6a25.6 25.6 0 0 0 0-51.2zM921.6 287.23199999999997a105.984 105.984 0 0 0-106.496-105.472h-89.6a25.6 25.6 0 0 0 0 51.2h90.112A54.784 54.784 0 0 1 870.4 287.23199999999997v90.112a25.6 25.6 0 0 0 51.2 0z m0 260.096a25.6 25.6 0 1 0-51.2 0V640a54.784 54.784 0 0 1-55.296 51.2h-89.6a25.6 25.6 0 0 0 0 51.2h90.112A105.984 105.984 0 0 0 921.6 640zM281.6-50.68799999999999h460.8v-0.512h-460.8zM747.008-25.600000000000023H276.992a20.992 20.992 0 0 1-20.992-20.48v-9.728a20.992 20.992 0 0 1 20.992-20.992h470.016a20.992 20.992 0 0 1 20.992 20.992v9.728a20.992 20.992 0 0 1-20.992 20.992z"  horiz-adv-x="1024" />

    
    <glyph glyph-name="top-search" unicode="&#58900;" d="M435.046379 208.41201a241.294819 241.294819 0 0 0-150.298044 51.121783A272.479107 272.479107 0 0 0 220.334888 333.66038000000003a25.560892 25.560892 0 1 0 44.475951 25.049674 221.357323 221.357323 0 0 1 51.121784-57.767616 193.240342 193.240342 0 0 1 156.432658-38.341338 25.560892 25.560892 0 0 0 8.179486-51.121783 293.950256 293.950256 0 0 0-45.498388-3.067307zM157.966312 402.16357A25.560892 25.560892 0 1 1 144.674648 435.903947a25.560892 25.560892 0 0 1 13.802881-33.229159z m14.314099 39.363773M425.844458 844.878216A374.722674 374.722674 0 1 0 51.121784 470.155542 375.233892 375.233892 0 0 0 425.844458 844.878216m0 51.121784a425.844458 425.844458 0 1 1 425.844458-425.844458A425.844458 425.844458 0 0 1 425.844458 896zM784.719379 204.322267l167.168233-167.168233a65.435883 65.435883 0 0 0-92.530428-93.041646l-167.168233 167.168233 92.530428 92.530428m0 72.081715l-165.123361-165.123361 204.487135-204.487135a116.557667 116.557667 0 0 1 165.123361 0 116.557667 116.557667 0 0 1 0 165.123361l-204.487135 204.487135z"  horiz-adv-x="1025" />

    
    <glyph glyph-name="top-theme_solid" unicode="&#58919;" d="M517.25568-128c-175.616 0-284.672 24.576-330.24 73.216a75.264 75.264 0 0 0-23.04 57.856c0 7.168 17.408 398.848 30.72 487.936a107.008 107.008 0 0 1-20.992 8.704l-15.36 5.12c-20.992 8.704-62.976 28.16-62.976 28.16C41.60768 555.52 10.88768 585.216 1.67168 618.496a66.56 66.56 0 0 0 18.944 62.976l3.584 3.584L272.51968 884.224a47.616 47.616 0 0 0 40.448 8.704 51.2 51.2 0 0 0 30.72-26.112 148.992 148.992 0 0 1 150.528-87.552h51.2A142.848 142.848 0 0 1 690.82368 868.352a40.96 40.96 0 0 0 30.72 26.112 47.616 47.616 0 0 0 39.936-8.704l242.688-197.632 3.584-3.584A67.584 67.584 0 0 0 1025.67168 622.0799999999999c-10.24-33.28-40.448-62.976-94.208-84.48 0 0-39.936-19.456-60.928-28.16l-15.36-5.12c-5.632 0-17.408-7.168-20.992-8.704 13.312-89.088 30.72-480.768 30.72-489.472a74.24 74.24 0 0 0-23.04-55.808c-46.08-53.76-151.04-78.336-324.608-78.336z"  horiz-adv-x="1027" />

    
    <glyph glyph-name="top-logout_solid" unicode="&#58920;" d="M512 896a512 512 0 1 1 512-512A512 512 0 0 1 512 896zM460.8 669.184a51.2 51.2 0 0 0 102.4 0v-307.2a51.2 51.2 0 0 0-102.4 0z m51.2-672.768a358.4 358.4 0 0 0-358.4 352.768 349.696 349.696 0 0 0 167.936 299.008 51.2 51.2 0 0 0 71.68-16.384 51.2 51.2 0 0 0-16.384-70.656A248.32 248.32 0 0 1 256 349.18399999999997a256 256 0 0 1 508.928 0 249.344 249.344 0 0 1-112.128 207.872 51.2 51.2 0 0 0-13.824 71.168A51.2 51.2 0 0 0 712.704 640 351.232 351.232 0 0 0 870.4 349.18399999999997a358.4 358.4 0 0 0-358.4-352.768z"  horiz-adv-x="1024" />

    
    <glyph glyph-name="top-theme" unicode="&#58902;" d="M735.420416 841.216l235.52-191.488a16.384 16.384 0 0 0 3.072-12.8v-3.072c-3.584-16.384-27.136-35.328-64-51.2 0 0-38.912-18.944-59.904-27.648l-9.216-3.072a235.008 235.008 0 0 1-27.136-11.264l-34.816-15.872 5.632-37.888c12.8-84.992 29.696-468.992 30.208-483.84 0-3.072 0-9.216-10.24-20.48-23.552-27.136-92.672-59.392-286.208-59.392-209.408 0-274.432 35.84-294.4 57.344a26.112 26.112 0 0 0-8.704 21.504c0 14.848 17.408 396.288 30.208 481.28l5.12 33.792-29.184 17.92a153.6 153.6 0 0 1-32.768 13.824h-5.12L175.804416 552.96l-60.928 27.136c-34.816 14.848-57.856 33.28-61.44 51.2a17.92 17.92 0 0 0 0 14.848H52.924416h2.56L299.196416 839.68a196.608 196.608 0 0 1 195.072-111.616h51.2a192.512 192.512 0 0 1 191.488 111.616M732.348416 896h-10.752a40.96 40.96 0 0 1-30.72-26.112 142.848 142.848 0 0 0-146.944-87.552h-51.2A148.992 148.992 0 0 0 343.228416 866.816a51.2 51.2 0 0 1-30.72 26.112L302.268416 896a51.2 51.2 0 0 1-29.696-10.24L24.252416 685.056l-3.584-3.584A66.048 66.048 0 0 1 1.724416 618.496c7.68-33.28 38.4-62.976 91.648-85.504 0 0 41.984-19.456 62.976-28.16l15.36-5.12a107.008 107.008 0 0 0 20.992-8.704c-13.312-89.088-30.72-480.768-30.72-487.936a75.264 75.264 0 0 1 23.04-57.856c46.08-51.2 153.6-73.216 330.24-73.216s279.04 24.576 324.608 76.8a74.24 74.24 0 0 1 23.04 55.808c0 8.704-17.408 400.384-30.72 489.472 3.584 0 15.36 7.168 20.992 8.704l15.36 5.12c23.04 9.216 62.976 29.696 62.976 29.696 51.2 22.528 83.968 51.2 91.648 85.504a67.584 67.584 0 0 1-15.36 62.976l-3.584 3.584L761.532416 885.76a51.2 51.2 0 0 1-29.696 10.24z"  horiz-adv-x="1025" />

    
    <glyph glyph-name="top-logout" unicode="&#58903;" d="M512-127.93190900000002a453.08987 453.08987 0 0 0-460.769359 443.362517 438.754823 438.754823 0 0 0 201.714586 367.079589 24.574366 24.574366 0 0 0 33.277787-6.143591 22.526502 22.526502 0 0 0-6.143591-31.74189 393.701819 393.701819 0 0 1-181.235948-329.194108A405.989002 405.989002 0 0 1 512-82.366939a405.989002 405.989002 0 0 1 413.156525 397.797547 392.677887 392.677887 0 0 1-190.963301 335.3377 22.526502 22.526502 0 0 0-7.167523 31.741889 24.574366 24.574366 0 0 0 32.765821 8.703421A438.242857 438.242857 0 0 0 972.769359 315.430608 453.08987 453.08987 0 0 0 512-127.93190900000002zM483.329907 896m25.598297 0l0 0q25.598298 0 25.598298-25.598298l0-564.698447q0-25.598298-25.598298-25.598298l0 0q-25.598298 0-25.598297 25.598298l0 564.698447q0 25.598298 25.598297 25.598298Z"  horiz-adv-x="1024" />

    
    <glyph glyph-name="top-message" unicode="&#58901;" d="M512 844.8c207.872 0 301.056-170.496 301.056-338.944v-265.216l29.696-13.824a46.592 46.592 0 0 0 27.648-41.472 48.128 48.128 0 0 0-51.2-46.592H204.8a48.128 48.128 0 0 0-51.2 46.592 46.08 46.08 0 0 0 27.648 41.472l29.696 13.824V505.856C210.944 674.304 304.128 844.8 512 844.8m0 51.2C289.28 896 159.744 721.408 159.744 505.856v-232.448A97.28 97.28 0 0 1 102.4 185.34400000000005a99.328 99.328 0 0 1 102.4-97.792h614.4a99.328 99.328 0 0 1 102.4 97.792 97.28 97.28 0 0 1-57.344 88.064V505.856C864.256 721.408 734.72 896 512 896zM626.688-17.408000000000015A127.488 127.488 0 0 0 512-76.79999999999995a127.488 127.488 0 0 0-114.688 58.88h229.888m31.232 51.2H365.568a24.064 24.064 0 0 1-26.112-23.04c0-76.288 77.312-138.24 172.544-138.24s173.056 61.952 173.056 138.24a24.064 24.064 0 0 1-26.624 23.552z"  horiz-adv-x="1024" />

    
    <glyph glyph-name="top-message_solid" unicode="&#58918;" d="M864.256 273.408V505.856C864.256 721.408 734.72 896 512 896S159.744 721.408 159.744 505.856v-232.448A97.28 97.28 0 0 1 102.4 185.34400000000005a99.328 99.328 0 0 1 102.4-97.792h614.4a99.328 99.328 0 0 1 102.4 97.792 97.28 97.28 0 0 1-57.344 88.064zM657.92 33.79200000000003H365.568a24.576 24.576 0 0 1-26.624-23.04C339.456-66.048 416.768-128 512-128s173.056 61.952 173.056 138.24a24.064 24.064 0 0 1-27.136 23.552z"  horiz-adv-x="1024" />

    
    <glyph glyph-name="top-search_solid" unicode="&#58917;" d="M426.483206 793.603072A324.086277 324.086277 0 1 0 102.396928 469.516794 324.598262 324.598262 0 0 0 426.483206 793.603072m0 102.396928a426.483206 426.483206 0 1 1 426.483205-426.483206A426.483206 426.483206 0 0 1 426.483206 896zM989.66631-93.66630999999995a116.732498 116.732498 0 0 0-165.371039 0l-204.793856 204.793856 165.371039 165.371039 204.793856-204.793856a116.732498 116.732498 0 0 0 0-165.371039zM435.698929 207.38065900000004a241.65675 241.65675 0 0 0-150.523484 51.198464A272.887813 272.887813 0 0 0 220.66538 332.81689500000005a25.599232 25.599232 0 0 0 44.542664 25.087248 221.689349 221.689349 0 0 1 51.198464-57.854264 194.042179 194.042179 0 0 1 156.6673-38.398849 25.599232 25.599232 0 0 0 8.191754-51.198464 294.391168 294.391168 0 0 0-45.566633-3.071907zM183.802486 427.022069a25.599232 25.599232 0 1 1-13.823585 33.279002 25.599232 25.599232 0 0 1 13.823585-33.279002z m14.33557 39.422818"  horiz-adv-x="1024" />

    
    <glyph glyph-name="base-trend" unicode="&#58925;" d="M512 809.690759l266.23981-302.811212h-219.428415V-54.85719500000005h-95.085646V506.879547h-219.428415L512 809.690759M512 895.999269a47.542823 47.542823 0 0 1-35.839974-16.091418L159.45168 519.313823a51.199963 51.199963 0 0 1 35.839975-86.308509h195.291289v-511.999635A49.737107 49.737107 0 0 1 438.857195-128h146.28561a49.737107 49.737107 0 0 1 49.005679 51.199963v511.999635h195.291289a51.199963 51.199963 0 0 1 35.839975 86.308509L547.839974 879.907851A47.542823 47.542823 0 0 1 512 895.999269z"  horiz-adv-x="1024" />

    
    <glyph glyph-name="base-unfold_solid" unicode="&#58938;" d="M575.488 153.60000000000002L894.976 486.4a89.088 89.088 0 0 1-62.464 153.6H191.488A89.088 89.088 0 0 1 129.024 486.4l319.488-332.8a90.112 90.112 0 0 1 126.976 0z"  horiz-adv-x="1024" />

    
    <glyph glyph-name="base-male_solid" unicode="&#58942;" d="M436.045047 308.16972499999997m-308.336269-308.336269a436.053333 436.053333 0 1 1 616.672538 616.672538 436.053333 436.053333 0 1 1-616.672538-616.672538ZM736.99072 546.986667l-61.44 61.525333L907.060053 840.192l61.610667-61.44zM718.04672 810.666667H939.060053v-221.013334a43.52 43.52 0 0 1 85.333334 0V852.48a43.52 43.52 0 0 1-43.52 43.52H718.04672a43.52 43.52 0 0 1 0-85.333333z"  horiz-adv-x="1024" />

    
    <glyph glyph-name="base-trend_solid" unicode="&#58939;" d="M864.179538 518.636703L547.802484 878.853533a47.493091 47.493091 0 0 1-73.066294 0L159.820462 518.636703a51.146406 51.146406 0 0 1 35.802485-86.218227h195.087005v-511.464059A49.68508 49.68508 0 0 1 438.933706-128h146.132588a49.68508 49.68508 0 0 1 48.954417 51.146406v511.464059h195.087005a51.146406 51.146406 0 0 1 35.071822 84.026238z"  horiz-adv-x="1024" />

    
    <glyph glyph-name="base-male" unicode="&#58928;" d="M436.771568 659.178298A350.121293 350.121293 0 1 0 188.875471 555.24935a347.565663 347.565663 0 0 0 247.044221 102.225195m0 85.187663a435.308955 435.308955 0 1 1 307.527461-127.781494A433.605202 433.605202 0 0 1 435.919692 742.662208zM736.802515 547.582461l-61.335117 61.420304L906.581527 840.287269l61.505492-61.335117zM717.890854 810.812338H938.5269v-220.636046a43.445708 43.445708 0 0 1 85.187663 0V852.554292a43.445708 43.445708 0 0 1-43.445708 43.445708H717.890854a43.445708 43.445708 0 0 1 0-85.187662z"  horiz-adv-x="1025" />

    
    <glyph glyph-name="base-fixed_solid" unicode="&#58940;" d="M762.883171 228.945243L754.106135 237.72227899999996l254.534052 326.944601a73.141969 73.141969 0 0 1-5.851358 95.08456L787.020021 874.788829a73.141969 73.141969 0 0 1-95.08456 5.851358L365.722279 626.837554l-8.777036 8.777036a73.141969 73.141969 0 0 1-101.667337 0L152.14773 533.947253a73.141969 73.141969 0 0 1 0-101.667336l407.400767-406.669348a73.141969 73.141969 0 0 1 98.741658 0l101.667337 101.667337a73.141969 73.141969 0 0 1 2.925679 101.667337zM17.566507-119.21052999999995l-8.777036 8.777037a29.988207 29.988207 0 0 0 0 42.422342l263.311088 261.848249a29.988207 29.988207 0 0 0 42.422342 0l8.777036-8.777037a29.988207 29.988207 0 0 0 0-42.422342l-263.311088-261.848249a29.988207 29.988207 0 0 0-42.422342 0z"  horiz-adv-x="1024" />

    
    <glyph glyph-name="base-calendar" unicode="&#58930;" d="M0 490.788571h1024v-67.291428H0zM279.405714 822.857143m24.137143 0l24.868572 0q24.137143 0 24.137142-24.137143l0-221.622857q0-24.137143-24.137142-24.137143l-24.868572 0q-24.137143 0-24.137143 24.137143l0 221.622857q0 24.137143 24.137143 24.137143ZM663.405714 822.857143m24.137143 0l24.868572 0q24.137143 0 24.137142-24.137143l0-221.622857q0-24.137143-24.137142-24.137143l-24.868572 0q-24.137143 0-24.137143 24.137143l0 221.622857q0 24.137143 24.137143 24.137143ZM877.714286 681.691429a73.142857 73.142857 0 0 0 73.142857-73.142858V91.42857100000003a73.142857 73.142857 0 0 0-73.142857-73.142857H146.285714a73.142857 73.142857 0 0 0-73.142857 73.142857V608.548571a73.142857 73.142857 0 0 0 73.142857 73.142858h731.428572m0 73.142857H146.285714a146.285714 146.285714 0 0 1-146.285714-146.285715V91.42857100000003a146.285714 146.285714 0 0 1 146.285714-146.285714h731.428572a146.285714 146.285714 0 0 1 146.285714 146.285714V608.548571a146.285714 146.285714 0 0 1-146.285714 146.285715z"  horiz-adv-x="1024" />

    
    <glyph glyph-name="base-fixed" unicode="&#58926;" d="M736.552062 822.858031L950.858031 610.014901 696.323979 283.0703l-38.033824-51.199378 46.079441-45.348021 8.777036-7.314197-102.398757-101.667337-407.400767 404.475089 100.935917 101.667336 8.777037-8.777036 45.34802-44.616601 51.199379 39.496663L736.552062 822.858031m0 73.141969a73.141969 73.141969 0 0 1-43.885181-15.359813L365.722279 626.837554l-8.777036 8.777036a73.141969 73.141969 0 0 1-101.667337 0L152.14773 533.947253a73.141969 73.141969 0 0 1 0-101.667336l407.400767-406.669348a73.141969 73.141969 0 0 1 98.741658 0l101.667337 101.667337a73.141969 73.141969 0 0 1 0 101.667337L754.106135 237.72227899999996l254.534052 326.944601a73.141969 73.141969 0 0 1-5.851358 95.08456L787.020021 874.788829a73.141969 73.141969 0 0 1-51.199379 21.211171zM17.566507-119.21052999999995l-8.777036 8.777037a29.988207 29.988207 0 0 0 0 42.422342l263.311088 261.848249a29.988207 29.988207 0 0 0 42.422342 0l8.777036-8.777037a29.988207 29.988207 0 0 0 0-42.422342l-263.311088-261.848249a29.988207 29.988207 0 0 0-42.422342 0z"  horiz-adv-x="1024" />

    
    <glyph glyph-name="base-female" unicode="&#58929;" d="M584.533333 810.666667a354.133333 354.133333 0 0 0 250.026667-605.013334 354.133333 354.133333 0 0 0-500.906667 500.906667A352.426667 352.426667 0 0 0 584.533333 810.666667m0 85.333333a439.466667 439.466667 0 1 1 310.613334-128.853333A438.613333 438.613333 0 0 1 584.533333 896zM45.737112-19.212106999999946m31.376685 31.376685l171.364972 171.364971q31.376685 31.376685 62.753369 0l-0.603397 0.603398q31.376685-31.376685 0-62.75337l-171.364972-171.364971q-31.376685-31.376685-62.75337 0l0.603398-0.603398q-31.376685 31.376685 0 62.75337ZM-17.977406 219.128242m30.16989 30.16989l0.603397 0.603397q30.169889 30.169889 60.339779 0l304.715882-304.715882q30.169889-30.169889 0-60.339779l-0.603398-0.603397q-30.169889-30.169889-60.339778 0l-304.715882 304.715882q-30.169889 30.169889 0 60.339779Z"  horiz-adv-x="1024" />

    
    <glyph glyph-name="base-unfixed" unicode="&#58927;" d="M736.552062 822.858031L950.858031 610.014901 696.323979 283.0703l-38.033824-51.199378 46.079441-45.348021 8.777036-7.314197-102.398757-101.667337-407.400767 404.475089 100.935917 101.667336 8.777037-8.777036 45.34802-44.616601 51.199379 39.496663L736.552062 822.858031m0 73.141969a73.141969 73.141969 0 0 1-43.885181-15.359813L365.722279 626.837554l-8.777036 8.777036a73.141969 73.141969 0 0 1-101.667337 0L152.14773 533.947253a73.141969 73.141969 0 0 1 0-101.667336l407.400767-406.669348a73.141969 73.141969 0 0 1 98.741658 0l101.667337 101.667337a73.141969 73.141969 0 0 1 0 101.667337L754.106135 237.72227899999996l254.534052 326.944601a73.141969 73.141969 0 0 1-5.851358 95.08456L787.020021 874.788829a73.141969 73.141969 0 0 1-51.199379 21.211171zM17.566507-119.21052999999995l-8.777036 8.777037a29.988207 29.988207 0 0 0 0 42.422342l263.311088 261.848249a29.988207 29.988207 0 0 0 42.422342 0l8.777036-8.777037a29.988207 29.988207 0 0 0 0-42.422342l-263.311088-261.848249a29.988207 29.988207 0 0 0-42.422342 0zM256.714001 852.361448m25.859591-25.859591l672.34937-672.34937q25.859591-25.859591 0-51.719182l0 0q-25.859591-25.859591-51.719183 0l-672.349369 672.34937q-25.859591 25.859591 0 51.719182l0 0q25.859591 25.859591 51.719182 0Z"  horiz-adv-x="1024" />

    
    <glyph glyph-name="base-calendar_solid" unicode="&#58944;" d="M0 81.18857100000002A141.165714 141.165714 0 0 1 146.285714-54.85714299999995h731.428572a141.165714 141.165714 0 0 1 146.285714 136.045714v365.714286H0zM877.714286 759.222857h-141.165715v-163.84a23.405714 23.405714 0 0 0-24.137142-22.674286H687.542857a23.405714 23.405714 0 0 0-24.137143 22.674286V759.222857H352.548571v-163.84a23.405714 23.405714 0 0 0-24.137142-22.674286h-24.868572a23.405714 23.405714 0 0 0-24.137143 22.674286V759.222857H146.285714a141.165714 141.165714 0 0 1-146.285714-135.314286v-108.982857h1024V623.9085709999999a141.165714 141.165714 0 0 1-146.285714 135.314286zM352.548571 800.182857A23.405714 23.405714 0 0 1 327.68 822.857143h-24.137143a23.405714 23.405714 0 0 1-24.137143-22.674286v-40.96h73.142857zM736.548571 800.182857A23.405714 23.405714 0 0 1 711.68 822.857143H687.542857a23.405714 23.405714 0 0 1-24.137143-22.674286v-40.96h73.142857z"  horiz-adv-x="1024" />

    
    <glyph glyph-name="base-female_solid" unicode="&#58943;" d="M584.090566 456.579508m-310.680474-310.680474a439.368541 439.368541 0 1 1 621.360949 621.360949 439.368541 439.368541 0 1 1-621.360949-621.360949ZM45.841221-19.23639800000001m31.369679 31.369679l171.326709 171.326709q31.369679 31.369679 62.739358 0l-0.603264 0.603263q31.369679-31.369679 0-62.739358l-171.326708-171.326709q-31.369679-31.369679-62.739358 0l0.603263-0.603263q-31.369679 31.369679 0 62.739358ZM-17.859071 219.05073400000003m30.163153 30.163153l0.603263 0.603263q30.163153 30.163153 60.326306 0l304.647844-304.647844q30.163153-30.163153 0-60.326306l-0.603263-0.603263q-30.163153-30.163153-60.326305 0l-304.647845 304.647844q-30.163153 30.163153 0 60.326306Z"  horiz-adv-x="1024" />

    
    <glyph glyph-name="chart-line" unicode="&#58934;" d="M0 832m32 0l0 0q32 0 32-32l0-832q0-32-32-32l0 0q-32 0-32 32l0 832q0 32 32 32ZM0 0m32 0l960 0q32 0 32-32l0 0q0-32-32-32l-960 0q-32 0-32 32l0 0q0 32 32 32ZM224 160.64a31.36 31.36 0 0 0-24.96 49.92l259.84 348.8L635.52 320l203.52 272.64a31.36 31.36 0 1 0 50.56-37.76l-256-339.84L458.88 454.4l-209.92-280.96a31.36 31.36 0 0 0-24.96-12.8z"  horiz-adv-x="1024" />

    
    <glyph glyph-name="chart-pie" unicode="&#58935;" d="M411.57184 757.76v-474.24h474.24a412.16 412.16 0 0 0-405.76-343.04h-5.76a419.2 419.2 0 0 0-405.76 405.76 411.52 411.52 0 0 0 343.04 411.52M480.05184 832A480 480 0 0 1 0.05184 344.96000000000004 486.4 486.4 0 0 1 473.01184-128h7.04A480 480 0 0 1 960.05184 352H480.05184V832zM640.05184 826.88A384 384 0 0 0 954.93184 512H640.05184V826.88M576.05184 896v-448h448a448 448 0 0 1-448 448z"  horiz-adv-x="1024" />

    
    <glyph glyph-name="base-setup" unicode="&#58922;" d="M667.794286 796.525714l126.537143-73.142857-18.285715-31.451428a146.285714 146.285714 0 0 1 0-146.285715l8.045715-13.165714a146.285714 146.285714 0 0 1 126.537142-73.142857H950.857143V310.85714299999995h-38.765714a146.285714 146.285714 0 0 1-126.537143-73.142857l-8.045715-13.897143a146.285714 146.285714 0 0 1 0-146.285714l18.285715-31.451429-126.537143-73.142857-40.96 73.142857-24.868572 42.422857-48.274285-6.582857h-8.777143a245.76 245.76 0 0 0-32.914286 0 245.76 245.76 0 0 0-32.914286 0h-8.777142l-48.274286 6.582857-24.868572-42.422857-40.96-73.142857-126.537142 73.142857 18.285714 31.451429a146.285714 146.285714 0 0 1 0 146.285714L238.445714 237.71428600000002a146.285714 146.285714 0 0 1-126.537143 73.142857H73.142857V457.142857h38.765714a146.285714 146.285714 0 0 1 126.537143 73.142857l8.045715 13.165715a146.285714 146.285714 0 0 1 0 146.285714l-18.285715 31.451428 126.537143 73.142858 40.96-73.142858 24.868572-42.422857 48.274285 6.582857h8.777143a245.76 245.76 0 0 0 32.914286 0 245.76 245.76 0 0 0 32.914286 0h8.777142l48.274286-6.582857 24.868572 42.422857 40.96 73.142858m0 73.142857a73.142857 73.142857 0 0 1-62.902858-36.571429l-40.96-73.142857A381.074286 381.074286 0 0 1 512 768a381.074286 381.074286 0 0 1-51.931429-5.12l-40.96 73.142857A73.142857 73.142857 0 0 1 319.634286 860.16l-126.537143-73.142857a73.142857 73.142857 0 0 1-27.062857-100.205714l18.285714-31.451429a73.142857 73.142857 0 0 0 0-73.142857l-10.24-16.822857a73.142857 73.142857 0 0 0-62.171429-35.108572H73.142857a73.142857 73.142857 0 0 1-73.142857-73.142857v-146.285714a73.142857 73.142857 0 0 1 73.142857-73.142857h38.765714a73.142857 73.142857 0 0 0 62.902858-35.84l10.24-16.822857a73.142857 73.142857 0 0 0 0-73.142858l-18.285715-31.451428a73.142857 73.142857 0 0 1 27.062857-100.205714l126.537143-73.142858a73.142857 73.142857 0 0 1 99.474286 26.331429l40.96 73.142857a379.611429 379.611429 0 0 1 51.931429-5.12 379.611429 379.611429 0 0 1 51.931428 5.12l40.96-73.142857a73.142857 73.142857 0 0 1 99.474286-26.331429l126.537143 73.142858a73.142857 73.142857 0 0 1 27.062857 100.205714l-18.285714 31.451428a73.142857 73.142857 0 0 0 0 73.142858l10.24 16.822857a73.142857 73.142857 0 0 0 61.44 35.84H950.857143a73.142857 73.142857 0 0 1 73.142857 73.142857V457.142857a73.142857 73.142857 0 0 1-73.142857 73.142857h-38.765714a73.142857 73.142857 0 0 0-62.902858 35.84l-10.24 16.822857a73.142857 73.142857 0 0 0 0 73.142858l18.285715 31.451428a73.142857 73.142857 0 0 1-27.062857 100.205714L704.365714 860.16a73.142857 73.142857 0 0 1-36.571428 9.508571zM512 462.262857a82.651429 82.651429 0 1 0-82.651429-82.651428A82.651429 82.651429 0 0 0 512 462.262857m0 73.142857a155.794286 155.794286 0 1 1 155.794286-155.794285A155.794286 155.794286 0 0 1 512 535.405714z"  horiz-adv-x="1024" />

    
    <glyph glyph-name="base-setup_solid" unicode="&#58937;" d="M950.857143 530.285714h-38.765714a73.142857 73.142857 0 0 0-62.902858 35.84l-10.24 16.822857a73.142857 73.142857 0 0 0 0 73.142858l18.285715 31.451428a73.142857 73.142857 0 0 1-27.062857 100.205714L704.365714 860.16a73.142857 73.142857 0 0 1-99.474285-27.062857l-40.96-73.142857A381.074286 381.074286 0 0 1 512 768a381.074286 381.074286 0 0 1-51.931429-5.12l-40.96 73.142857A73.142857 73.142857 0 0 1 319.634286 860.16l-126.537143-73.142857a73.142857 73.142857 0 0 1-27.062857-100.205714l18.285714-31.451429a73.142857 73.142857 0 0 0 0-73.142857l-10.24-16.822857a73.142857 73.142857 0 0 0-62.171429-35.108572H73.142857a73.142857 73.142857 0 0 1-73.142857-73.142857v-146.285714a73.142857 73.142857 0 0 1 73.142857-73.142857h38.765714a73.142857 73.142857 0 0 0 62.902858-35.84l10.24-16.822857a73.142857 73.142857 0 0 0 0-73.142858l-18.285715-31.451428a73.142857 73.142857 0 0 1 27.062857-100.205714l126.537143-73.142858a73.142857 73.142857 0 0 1 99.474286 26.331429l40.96 73.142857a379.611429 379.611429 0 0 1 51.931429-5.12 379.611429 379.611429 0 0 1 51.931428 5.12l40.96-73.142857a73.142857 73.142857 0 0 1 99.474286-26.331429l126.537143 73.142858a73.142857 73.142857 0 0 1 27.062857 100.205714l-18.285714 31.451428a73.142857 73.142857 0 0 0 0 73.142858l10.24 16.822857a73.142857 73.142857 0 0 0 61.44 35.84H950.857143a73.142857 73.142857 0 0 1 73.142857 73.142857V457.142857a73.142857 73.142857 0 0 1-73.142857 73.142857zM512 223.817143a155.794286 155.794286 0 1 0 155.794286 155.794286A155.794286 155.794286 0 0 0 512 223.817143z"  horiz-adv-x="1024" />

    
    <glyph glyph-name="base-unfixed_solid" unicode="&#58941;" d="M17.566507-119.21052999999995l-8.777036 8.777037a29.988207 29.988207 0 0 0 0 42.422342l263.311088 261.848249a29.988207 29.988207 0 0 0 42.422342 0l8.777036-8.777037a29.988207 29.988207 0 0 0 0-42.422342l-263.311088-261.848249a29.988207 29.988207 0 0 0-42.422342 0zM754.106135 237.72227899999996l5.119937 7.314197-386.921016 387.652436-6.582777-5.851358-8.777036 8.777036a73.141969 73.141969 0 0 1-101.667337 0L152.14773 533.947253a73.141969 73.141969 0 0 1 0-101.667336l407.400767-406.669348a73.141969 73.141969 0 0 1 98.741658 0l101.667337 101.667337a73.141969 73.141969 0 0 1 0 101.667337zM1002.788829 659.75144L787.020021 874.788829a73.141969 73.141969 0 0 1-95.08456 5.851358L430.087212 676.574093 804.574093 302.818631l204.066094 261.848249a73.141969 73.141969 0 0 1-5.851358 95.08456zM372.305056 632.6889120000001l57.782156 43.885181-146.283938 146.283938a36.570984 36.570984 0 0 1-51.930798-51.930798zM804.574093 302.818631l-45.348021-57.782155 146.283938-146.283938a36.570984 36.570984 0 1 1 51.930798 51.930798z"  horiz-adv-x="1024" />

    
    <glyph glyph-name="base64_no-installed-device_solid" unicode="&#58950;" d="M896 896H128a128 128 0 0 1-128-128v-768a128 128 0 0 1 128-128h768a128 128 0 0 1 128 128V768a128 128 0 0 1-128 128zM320 0a32 32 0 1 0 32 32 32 32 0 0 0-32-32z m192 0a32 32 0 1 0 32 32 32 32 0 0 0-32-32z m192 0a32 32 0 1 0 32 32 32 32 0 0 0-32-32z m-192 192a256 256 0 1 0 256 256 256 256 0 0 0-256-256zM350.08 550.4A192 192 0 0 1 614.4 286.08000000000004zM512 640a192 192 0 0 1-119.04-42.24l268.8-268.8A192 192 0 0 1 512 640z m128-208A16 16 0 0 0 624 448 112 112 0 0 1 512 560a16 16 0 0 0 0 32A144 144 0 0 0 656 448a16 16 0 0 0-16-16z"  horiz-adv-x="1024" />

    
    <glyph glyph-name="chart-base64-male_solid" unicode="&#58947;" d="M515.072 742.4m-153.6 0a153.6 153.6 0 1 1 307.2 0 153.6 153.6 0 1 1-307.2 0ZM773.632 557.056H250.368a46.08 46.08 0 0 1-45.568-46.592v-325.632a46.08 46.08 0 0 1 45.568-46.592h102.4v-219.648a46.08 46.08 0 0 1 45.568-46.592h228.864a46.08 46.08 0 0 1 45.568 46.592V138.24h102.4a46.08 46.08 0 0 1 45.568 46.592V510.464a46.08 46.08 0 0 1-47.104 46.592z"  horiz-adv-x="1024" />

    
    <glyph glyph-name="left-system_solid" unicode="&#58914;" d="M298.666667 896m42.666666 0l341.333334 0q42.666667 0 42.666666-42.666667l0-340.906666q0-42.666667-42.666666-42.666667l-341.333334 0q-42.666667 0-42.666666 42.666667l0 340.906666q0 42.666667 42.666666 42.666667ZM0 213.33333300000004m42.666667 0l256 0q42.666667 0 42.666666-42.666666l0-256q0-42.666667-42.666666-42.666667l-256 0q-42.666667 0-42.666667 42.666667l0 256q0 42.666667 42.666667 42.666666ZM682.666667 213.33333300000004m42.666666 0l256 0q42.666667 0 42.666667-42.666666l0-256q0-42.666667-42.666667-42.666667l-256 0q-42.666667 0-42.666666 42.666667l0 256q0 42.666667 42.666666 42.666666ZM210.346667 213.33333300000004v85.333334h604.16v-85.333334h85.333333v128a42.666667 42.666667 0 0 1-42.666667 42.666667H167.68a42.666667 42.666667 0 0 1-42.666667-42.666667v-128zM469.76 512h85.333333v-213.333333h-85.333333z"  horiz-adv-x="1024" />

    
    <glyph glyph-name="chart-scatter" unicode="&#58936;" d="M896 832a64 64 0 0 0 64-64v-768a64 64 0 0 0-64-64H128a64 64 0 0 0-64 64V768a64 64 0 0 0 64 64h768m0 64H128a128 128 0 0 1-128-128v-768a128 128 0 0 1 128-128h768a128 128 0 0 1 128 128V768a128 128 0 0 1-128 128zM768 576a64 64 0 1 1 64-64 64 64 0 0 1-64 64zM320 640a64 64 0 1 1 64-64 64 64 0 0 1-64 64zM320 160a32 32 0 1 1 32-32 32 32 0 0 1-32 32zM576 448a64 64 0 1 1 64-64 64 64 0 0 1-64 64zM384 352a32 32 0 1 1 32-32 32 32 0 0 1-32 32zM576 672a32 32 0 1 1 32-32 32 32 0 0 1-32 32zM640 192a64 64 0 1 1 64-64 64 64 0 0 1-64 64z"  horiz-adv-x="1024" />

    
    <glyph glyph-name="chart-area" unicode="&#58933;" d="M0 832m32 0l0 0q32 0 32-32l0-832q0-32-32-32l0 0q-32 0-32 32l0 832q0 32 32 32ZM0 0m32 0l960 0q32 0 32-32l0 0q0-32-32-32l-960 0q-32 0-32 32l0 0q0 32 32 32ZM896 533.76V192H256V341.12l157.44 136.32 221.44-97.28a94.72 94.72 0 0 1 99.2 14.72L896 533.76M932.48 640a29.44 29.44 0 0 1-19.2-7.04l-220.8-192a30.08 30.08 0 0 0-19.2-7.04 30.72 30.72 0 0 0-12.16 0L420.48 544.64a30.72 30.72 0 0 1-12.16 0 30.08 30.08 0 0 1-19.2-7.04L200.32 377.6a22.4 22.4 0 0 1-8.32-17.28v-208.64a26.24 26.24 0 0 1 27.52-23.68h712.96a26.24 26.24 0 0 1 27.52 23.68V616.3199999999999a26.24 26.24 0 0 1-27.52 23.68z"  horiz-adv-x="1024" />

    
    <glyph glyph-name="left-user" unicode="&#58915;" d="M512 810.665564a234.666178 234.666178 0 1 0-236.372841-234.666177A235.946175 235.946175 0 0 0 512 810.665564m0 85.333156a319.999333 319.999333 0 1 1 321.705996-319.999333A320.852665 320.852665 0 0 1 512 895.99872zM512 213.33347600000002h35.41326a346.879277 346.879277 0 0 0 298.666044-255.999467H179.200693a341.332622 341.332622 0 0 0 332.799307 255.999467m0 85.333155a426.665778 426.665778 0 0 1-426.665778-379.305876A42.666578 42.666578 0 0 1 128.0008-127.999147h767.9984a42.666578 42.666578 0 0 1 42.666578 45.653239c0 10.239979-2.133329 20.479957-4.266658 31.146601a430.079104 430.079104 0 0 1-379.732542 347.732609q-20.906623 2.133329-42.666578 2.133329z"  horiz-adv-x="1024" />

    
    <glyph glyph-name="chart-table" unicode="&#58931;" d="M896 832a64 64 0 0 0 64-64v-768a64 64 0 0 0-64-64H128a64 64 0 0 0-64 64V768a64 64 0 0 0 64 64h768m0 64H128a128 128 0 0 1-128-128v-768a128 128 0 0 1 128-128h768a128 128 0 0 1 128 128V768a128 128 0 0 1-128 128zM1024 576H0v-64h1024V576zM1024 256H0v-64h1024v64zM384 576H320v-704h64V576zM704 576h-64v-704h64V576z"  horiz-adv-x="1024" />

    
    <glyph glyph-name="base-download" unicode="&#58923;" d="M12.16-64m32 0l938.88 0q32 0 32-32l0 0q0-32-32-32l-938.88 0q-32 0-32 32l0 0q0 32 32 32ZM0 320m32 0l0 0q32 0 32-32l0-384q0-32-32-32l0 0q-32 0-32 32l0 384q0 32 32 32ZM713.6 533.76L512 309.12 310.4 533.76a29.44 29.44 0 0 1-44.8 0 38.4 38.4 0 0 1 0-49.92l224.64-249.6a29.44 29.44 0 0 1 44.8 0l224 248.96a38.4 38.4 0 0 1 0 49.92 29.44 29.44 0 0 1-45.44 0.64zM960 320m32 0l0 0q32 0 32-32l0-384q0-32-32-32l0 0q-32 0-32 32l0 384q0 32 32 32ZM480 896m32 0l0 0q32 0 32-32l0-576q0-32-32-32l0 0q-32 0-32 32l0 576q0 32 32 32Z"  horiz-adv-x="1024" />

    
    <glyph glyph-name="chart-base64-male" unicode="&#58945;" d="M515.072 844.8a102.4 102.4 0 1 0-102.4-102.4 102.4 102.4 0 0 0 102.4 102.4m0 51.2a153.6 153.6 0 1 1 153.6-153.6 153.6 153.6 0 0 1-153.6 153.6zM768 505.856v-316.416h-146.944V-76.79999999999995H403.968v266.24H256V505.856h512m5.632 51.2H250.368a46.08 46.08 0 0 1-45.568-46.592v-325.632a46.08 46.08 0 0 1 45.568-46.592h102.4v-219.648a46.08 46.08 0 0 1 45.568-46.592h228.864a46.08 46.08 0 0 1 45.568 46.592V138.24h102.4a46.08 46.08 0 0 1 45.568 46.592V510.464a46.08 46.08 0 0 1-45.568 46.592z"  horiz-adv-x="1024" />

    
    <glyph glyph-name="left-user_solid" unicode="&#58916;" d="M190.293601 576.000267a321.706399 319.999733 0 1 1 643.412798 0 321.706399 319.999733 0 1 1-643.412798 0ZM934.399648-51.19921099999999a429.652975 429.652975 0 0 1-849.065959-29.439975A42.666631 42.666631 0 0 1 128.00032-127.999147h767.99936a42.666631 42.666631 0 0 1 42.666631 45.653296c0 10.239991-2.559998 20.906649-4.266663 31.14664z"  horiz-adv-x="1024" />

    
    <glyph glyph-name="chart-bar" unicode="&#58932;" d="M0 832m32 0l0 0q32 0 32-32l0-832q0-32-32-32l0 0q-32 0-32 32l0 832q0 32 32 32ZM0 0m32 0l960 0q32 0 32-32l0 0q0-32-32-32l-960 0q-32 0-32 32l0 0q0 32 32 32ZM512 640m32 0l0 0q32 0 32-32l0-448q0-32-32-32l0 0q-32 0-32 32l0 448q0 32 32 32ZM256 384m32 0l0 0q32 0 32-32l0-192q0-32-32-32l0 0q-32 0-32 32l0 192q0 32 32 32ZM768 512m32 0l0 0q32 0 32-32l0-320q0-32-32-32l0 0q-32 0-32 32l0 320q0 32 32 32Z"  horiz-adv-x="1024" />

    
    <glyph glyph-name="chart-base64-female_solid" unicode="&#58948;" d="M357.888 742.4a153.6 152.576 90 1 1 305.152 0 153.6 152.576 90 1 1-305.152 0ZM670.208 557.056H353.28c-25.088 0-36.864-19.968-45.056-46.592L204.8 184.832c-7.168-27.136 11.264-48.128 45.056-46.592h102.4v-219.648a46.08 46.08 0 0 1 45.056-46.592h227.328a46.08 46.08 0 0 1 45.056 46.592V138.24h102.4c34.304 0 51.2 15.872 45.056 46.592L716.8 510.464c-10.24 31.232-21.504 46.592-46.592 46.592z"  horiz-adv-x="1024" />

    
    <glyph glyph-name="left-device" unicode="&#58905;" d="M341.333333 128a42.666667 42.666667 0 1 1 42.666667-42.666667 42.666667 42.666667 0 0 1-42.666667 42.666667zM512 128a42.666667 42.666667 0 1 1 42.666667-42.666667 42.666667 42.666667 0 0 1-42.666667 42.666667zM682.666667 128a42.666667 42.666667 0 1 1 42.666666-42.666667 42.666667 42.666667 0 0 1-42.666666 42.666667zM896-42.66666699999996H128a42.666667 42.666667 0 0 0-42.666667 42.666667V768a42.666667 42.666667 0 0 0 42.666667 42.666667h768a42.666667 42.666667 0 0 0 42.666667-42.666667v-768a42.666667 42.666667 0 0 0-42.666667-42.666667z m42.666667 938.666667H85.333333a85.333333 85.333333 0 0 1-85.333333-85.333333v-853.333334a85.333333 85.333333 0 0 1 85.333333-85.333333h853.333334a85.333333 85.333333 0 0 1 85.333333 85.333333V810.666667a85.333333 85.333333 0 0 1-85.333333 85.333333zM512 640a170.666667 170.666667 0 1 0-170.666667-170.666667 170.666667 170.666667 0 0 0 170.666667 170.666667m0 85.333333a256 256 0 1 1 256-256 256 256 0 0 1-256 256zM585.386667 435.626667a21.333333 21.333333 0 0 0-21.333334 21.333333c0 85.333333-55.04 88.746667-61.44 88.746667a21.333333 21.333333 0 0 0 0 42.666666s104.106667 0 104.106667-131.413333a21.333333 21.333333 0 0 0-21.333333-21.333333z"  horiz-adv-x="1024" />

    
    <glyph glyph-name="left-device_solid" unicode="&#58912;" d="M512 640a170.666667 170.666667 0 1 1 170.666667-170.666667 170.666667 170.666667 0 0 1-170.666667 170.666667z m73.386667-204.373333a21.333333 21.333333 0 0 0-21.333334 21.333333c0 85.333333-55.04 88.746667-61.44 88.746667a21.333333 21.333333 0 0 0 0 42.666666s104.106667 0 104.106667-131.413333a21.333333 21.333333 0 0 0-21.333333-21.333333zM938.666667 896H85.333333a85.333333 85.333333 0 0 1-85.333333-85.333333v-853.333334a85.333333 85.333333 0 0 1 85.333333-85.333333h853.333334a85.333333 85.333333 0 0 1 85.333333 85.333333V810.666667a85.333333 85.333333 0 0 1-85.333333 85.333333zM341.333333 42.66666699999996a42.666667 42.666667 0 1 0 42.666667 42.666666 42.666667 42.666667 0 0 0-42.666667-42.666666z m170.666667 0a42.666667 42.666667 0 1 0 42.666667 42.666666 42.666667 42.666667 0 0 0-42.666667-42.666666z m170.666667 0a42.666667 42.666667 0 1 0 42.666666 42.666666 42.666667 42.666667 0 0 0-42.666666-42.666666z m-170.666667 170.666666a256 256 0 1 0 256 256 256 256 0 0 0-256-256z"  horiz-adv-x="1024" />

    
    <glyph glyph-name="left-report" unicode="&#58906;" d="M414.275381 757.744658v-481.259146h490.645406a412.995437 412.995437 0 0 0-405.31577-319.132837A410.0089 410.0089 0 0 0 85.329636 361.815148a407.449011 407.449011 0 0 0 328.945745 395.92951m85.329636 93.862599A494.911887 494.911887 0 0 1 0 361.815148 494.911887 494.911887 0 0 1 499.605017-127.97696099999996a494.911887 494.911887 0 0 1 499.605017 489.792109H499.605017V853.31385zM674.957419 800.409476A346.438321 346.438321 0 0 0 927.53314 554.660125h-252.575721V800.409476m-85.329636 95.569192v-426.648179H1023.955629A430.061364 430.061364 0 0 1 589.627783 895.978668z"  horiz-adv-x="1024" />

    
    <glyph glyph-name="chart-base64-female" unicode="&#58946;" d="M512 844.8a102.4 102.4 0 1 0-102.4-102.4 102.4 102.4 0 0 0 102.4 102.4m0 51.2a153.6 153.6 0 1 1 153.6-153.6 153.6 153.6 0 0 1-153.6 153.6zM665.6 505.856s0-5.632 3.584-10.752l95.744-307.2h-144.384V-76.79999999999995H404.48v266.24H261.632L358.4 495.616a95.744 95.744 0 0 0 0 10.24h307.2m7.168 51.2H353.28c-25.088 0-36.864-19.968-45.056-46.592L204.8 184.832c-6.656-26.112 9.728-46.592 41.472-46.592H353.28v-219.648a46.08 46.08 0 0 1 45.056-46.592h227.328a46.08 46.08 0 0 1 45.056 46.592V138.24h102.4c34.304 0 51.2 15.872 45.056 46.592L716.8 510.464c-8.704 30.72-20.48 46.592-45.056 46.592z"  horiz-adv-x="1024" />

    
    <glyph glyph-name="base64_no-installed-device" unicode="&#58949;" d="M896 832a64 64 0 0 0 64-64v-768a64 64 0 0 0-64-64H128a64 64 0 0 0-64 64V768a64 64 0 0 0 64 64h768m0 64H128a128 128 0 0 1-128-128v-768a128 128 0 0 1 128-128h768a128 128 0 0 1 128 128V768a128 128 0 0 1-128 128zM512 640a192 192 0 1 0-192-192 192 192 0 0 0 192 192m0 64a256 256 0 1 1 256-256 256 256 0 0 1-256 256zM704 32m-32 0a32 32 0 1 1 64 0 32 32 0 1 1-64 0ZM512 32m-32 0a32 32 0 1 1 64 0 32 32 0 1 1-64 0ZM320 32m-32 0a32 32 0 1 1 64 0 32 32 0 1 1-64 0ZM640 432A16 16 0 0 0 624 448 112 112 0 0 1 512 560a16 16 0 0 0 0 32A144 144 0 0 0 656 448a16 16 0 0 0-16-16zM329.344 570.1759999999999l45.248 45.248 300.032-300.032-45.248-45.312z"  horiz-adv-x="1024" />

    
    <glyph glyph-name="left-report_solid" unicode="&#58907;" d="M490.666667 832a469.333333 469.333333 0 1 1 469.333333-469.333333h-469.333333zM576 874.666667v-426.666667h426.666667a426.666667 426.666667 0 0 1-426.666667 426.666667z"  horiz-adv-x="1024" />

    
    <glyph glyph-name="left-app" unicode="&#58908;" d="M341.333333 213.33333300000004v-256H85.333333v256h256m42.666667 85.333334H42.666667a42.666667 42.666667 0 0 1-42.666667-42.666667v-341.333333a42.666667 42.666667 0 0 1 42.666667-42.666667h341.333333a42.666667 42.666667 0 0 1 42.666667 42.666667v341.333333a42.666667 42.666667 0 0 1-42.666667 42.666667zM853.333333 213.33333300000004v-256h-256v256h256m42.666667 85.333334h-341.333333a42.666667 42.666667 0 0 1-42.666667-42.666667v-341.333333a42.666667 42.666667 0 0 1 42.666667-42.666667h341.333333a42.666667 42.666667 0 0 1 42.666667 42.666667v341.333333a42.666667 42.666667 0 0 1-42.666667 42.666667zM341.333333 725.333333v-256H85.333333V725.333333h256m42.666667 85.333334H42.666667a42.666667 42.666667 0 0 1-42.666667-42.666667v-341.333333a42.666667 42.666667 0 0 1 42.666667-42.666667h341.333333a42.666667 42.666667 0 0 1 42.666667 42.666667V768a42.666667 42.666667 0 0 1-42.666667 42.666667zM919.466667 640L768 488.533333 616.533333 640 768 791.466667zM768 896a39.253333 39.253333 0 0 1-27.733333-11.52l-216.746667-216.746667a39.253333 39.253333 0 0 1 0-55.466666l216.746667-216.746667a39.253333 39.253333 0 0 1 55.466666 0l216.746667 216.746667a39.253333 39.253333 0 0 1 0 55.466666L795.733333 884.48A39.253333 39.253333 0 0 1 768 896z"  horiz-adv-x="1024" />

    
    <glyph glyph-name="left-collect" unicode="&#58909;" d="M587.946097 564.048143a127.99904 127.99904 0 0 1 103.679222-77.652751l193.705214-21.759837-149.758876-142.078934a127.99904 127.99904 0 0 1-37.546386-118.18578L738.131637-0.0009599999999636566l-160.425463 98.132597a127.99904 127.99904 0 0 1-133.119002 0l-160.852127-95.145953 42.666347 202.238483a127.99904 127.99904 0 0 1-37.119722 118.185781l-149.332213 142.505598 193.705214 20.90651a127.99904 127.99904 0 0 1 104.105886 77.226087L512 743.673462zM512 895.99232a42.666347 42.666347 0 0 1-39.253039-26.026471L357.974489 597.327893a42.666347 42.666347 0 0 0-34.559741-25.599808l-285.437859-31.146433A42.666347 42.666347 0 0 1 13.230407 469.328853l215.891715-205.651791a42.666347 42.666347 0 0 0 12.37324-39.253039l-60.586212-298.664426a42.666347 42.666347 0 0 1 42.666347-51.199616 42.666347 42.666347 0 0 1 22.1865 6.399952l244.051503 148.052223a42.666347 42.666347 0 0 0 42.666346 0l243.62484-148.90555a42.666347 42.666347 0 0 1 22.1865-6.399952 42.666347 42.666347 0 0 1 42.666347 51.199616l-59.306222 298.664427a42.666347 42.666347 0 0 0 12.37324 39.253038l216.318378 204.798465a42.666347 42.666347 0 0 1-24.746481 73.386116l-285.011196 32.426423a42.666347 42.666347 0 0 0-34.133077 23.893154L552.106366 869.965849A42.666347 42.666347 0 0 1 512 895.99232z"  horiz-adv-x="1024" />

    
    <glyph glyph-name="base-unfold" unicode="&#58924;" d="M960 629.76L512 213.33333300000004 64 629.76a39.253333 39.253333 0 0 1-52.906667 0 33.28 33.28 0 0 1 0-49.493333l474.453334-442.026667a39.253333 39.253333 0 0 1 52.906666 0l474.453334 442.026667a33.28 33.28 0 0 1 0 49.493333 39.253333 39.253333 0 0 1-52.906667 0z"  horiz-adv-x="1024" />

    
    <glyph glyph-name="left-app_solid" unicode="&#58913;" d="M0 298.66666699999996m42.666667 0l341.333333 0q42.666667 0 42.666667-42.666667l0-341.333333q0-42.666667-42.666667-42.666667l-341.333333 0q-42.666667 0-42.666667 42.666667l0 341.333333q0 42.666667 42.666667 42.666667ZM512 298.66666699999996m42.666667 0l341.333333 0q42.666667 0 42.666667-42.666667l0-341.333333q0-42.666667-42.666667-42.666667l-341.333333 0q-42.666667 0-42.666667 42.666667l0 341.333333q0 42.666667 42.666667 42.666667ZM0 810.666667m42.666667 0l341.333333 0q42.666667 0 42.666667-42.666667l0-341.333333q0-42.666667-42.666667-42.666667l-341.333333 0q-42.666667 0-42.666667 42.666667l0 341.333333q0 42.666667 42.666667 42.666667ZM495.883127 640.21851m27.756298 27.756298l216.921505 216.921504q27.756298 27.756298 55.512596 0l216.921504-216.921504q27.756298-27.756298 0-55.512597l-216.921504-216.921504q-27.756298-27.756298-55.512596 0l-216.921505 216.921504q-27.756298 27.756298 0 55.512597Z"  horiz-adv-x="1024" />

    
    <glyph glyph-name="left-collect_solid" unicode="&#58910;" d="M552.106667 866.986667L666.453333 597.333333a42.666667 42.666667 0 0 1 34.56-25.6l285.013334-32a42.666667 42.666667 0 0 0 24.746666-72.96l-216.32-203.946666a42.666667 42.666667 0 0 1-12.373333-39.253334l59.306667-296.106666a42.666667 42.666667 0 0 0-64-42.666667l-244.053334 144.64a42.666667 42.666667 0 0 1-42.666666 0l-245.76-147.2a42.666667 42.666667 0 0 0-64 42.666667l60.586666 295.68a42.666667 42.666667 0 0 1-12.373333 39.253333L13.226667 466.773333a42.666667 42.666667 0 0 0 24.746666 72.96l285.013334 30.72A42.666667 42.666667 0 0 1 357.973333 597.333333l115.2 269.653334a42.666667 42.666667 0 0 0 78.933334 0z"  horiz-adv-x="1024" />

    
    <glyph glyph-name="logo" unicode="&#58911;" d="M1024 704c0 12.8-8.533333 21.333333-21.333333 21.333333h-256c-59.733333 0-76.8-29.866667-93.866667-59.733333-21.333333-51.2-59.733333-132.266667-89.6-204.8-8.533333-21.333333-29.866667-34.133333-51.2-34.133333s-42.666667 12.8-51.2 34.133333c-29.866667 68.266667-68.266667 153.6-89.6 204.8C354.133333 695.466667 337.066667 725.333333 277.333333 725.333333h-256c-12.8 0-21.333333-8.533333-21.333333-21.333333 0-4.266667 0-8.533333 4.266667-8.533333l315.733333-682.666667c0-8.533333 8.533333-12.8 17.066667-12.8s12.8 4.266667 17.066666 12.8l136.533334 290.133333c4.266667 12.8 12.8 17.066667 25.6 17.066667s21.333333-8.533333 25.6-17.066667l136.533333-290.133333c0-8.533333 8.533333-12.8 17.066667-12.8s12.8 4.266667 17.066666 12.8l311.466667 682.666667v8.533333"  horiz-adv-x="1024" />

    
    <glyph glyph-name="base-right" unicode="&#58962;" d="M358.4 40.22857099999999c-7.314286 0-21.942857 7.314286-21.942857 7.314286L21.942857 362.057143c-14.628571 14.628571-14.628571 36.571429 0 51.2 14.628571 14.628571 36.571429 14.628571 51.2 0l285.257143-285.257143L950.857143 720.457143c14.628571 14.628571 36.571429 14.628571 51.2 0s14.628571-36.571429 0-51.2l-621.714286-621.714286c-7.314286-7.314286-14.628571-7.314286-21.942857-7.314286z"  horiz-adv-x="1024" />

    
    <glyph glyph-name="base-edit" unicode="&#58956;" d="M848.457143-54.85714299999995H175.542857c-58.514286 0-102.4 43.885714-102.4 102.4V720.457143C73.142857 778.971429 117.028571 822.857143 175.542857 822.857143h446.171429c21.942857 0 36.571429-14.628571 36.571428-36.571429s-21.942857-29.257143-36.571428-29.257143H175.542857c-21.942857 0-36.571429-14.628571-36.571428-36.571428v-672.914286c0-21.942857 14.628571-36.571429 36.571428-36.571428h672.914286c21.942857 0 36.571429 14.628571 36.571428 36.571428V493.714286c0 21.942857 14.628571 36.571429 36.571429 36.571428s29.257143-21.942857 29.257143-36.571428v-446.171429c0-58.514286-43.885714-102.4-102.4-102.4M629.028571 501.028571c-14.628571 14.628571-14.628571 36.571429 0 51.2L965.485714 888.685714c14.628571 14.628571 36.571429 14.628571 51.2 0s14.628571-36.571429 0-51.2L680.228571 501.028571c-14.628571-14.628571-43.885714-14.628571-51.2 0 0-7.314286 0-7.314286 0 0"  horiz-adv-x="1027" />

    
    <glyph glyph-name="base-filter" unicode="&#58959;" d="M582.4-108.79999999999995c-19.2 0-32 6.4-51.2 12.8l-140.8 83.2c-25.6 19.2-44.8 44.8-44.8 83.2V409.6L89.6 704c-19.2 19.2-25.6 38.4-25.6 64C64 819.2 102.4 857.6 147.2 864h723.2c51.2-6.4 89.6-44.8 89.6-96 0-19.2-6.4-44.8-19.2-57.6l-262.4-281.6v-441.6c0-32-19.2-64-51.2-83.2-12.8-12.8-25.6-12.8-44.8-12.8zM147.2 800c-12.8-6.4-19.2-19.2-19.2-32 0-6.4 0-12.8 6.4-19.2l6.4-6.4 249.6-281.6c12.8-12.8 19.2-32 19.2-44.8v-345.6c0-12.8 6.4-19.2 12.8-25.6l140.8-83.2c12.8-6.4 32-6.4 44.8 12.8 0 6.4 6.4 12.8 6.4 12.8V422.4c0 19.2 6.4 32 19.2 44.8l256 281.6 25.6-19.2-25.6 19.2c0 6.4 6.4 12.8 6.4 19.2 0 12.8-6.4 25.6-25.6 32H147.2z m768-70.4l25.6-19.2-25.6 19.2z"  horiz-adv-x="1024" />

    
    <glyph glyph-name="base-sort" unicode="&#58958;" d="M608 704h-512c-19.2 0-32 12.8-32 32s12.8 32 32 32h512c19.2 0 32-12.8 32-32s-12.8-32-32-32zM608 352h-384c-19.2 0-32 12.8-32 32s12.8 32 32 32h384c19.2 0 32-12.8 32-32s-12.8-32-32-32zM608 0h-256c-19.2 0-32 12.8-32 32s12.8 32 32 32h256c19.2 0 32-12.8 32-32s-12.8-32-32-32zM800 0c-19.2 0-32 12.8-32 32v704c0 19.2 12.8 32 32 32s32-12.8 32-32v-704c0-19.2-12.8-32-32-32zM800 0c-19.2 0-32 12.8-32 32 0 6.4 6.4 19.2 6.4 19.2l128 128c12.8 12.8 32 12.8 44.8 0s12.8-32 0-44.8l-128-128c0-6.4-12.8-6.4-19.2-6.4z"  horiz-adv-x="1024" />

    
    <glyph glyph-name="base-add" unicode="&#58961;" d="M928 416h-832c-19.2 0-32-12.8-32-32s12.8-32 32-32h832c19.2 0 32 12.8 32 32s-12.8 32-32 32zM512 832c-19.2 0-32-12.8-32-32v-832c0-19.2 12.8-32 32-32s32 12.8 32 32v832c0 19.2-12.8 32-32 32z"  horiz-adv-x="1024" />

    
    <glyph glyph-name="base-back" unicode="&#58963;" d="M665.6-25.600000000000023v51.2c143.36 0 256 112.64 256 256s-112.64 256-256 256V588.8c168.96 0 307.2-138.24 307.2-307.2s-138.24-307.2-307.2-307.2zM665.6-25.600000000000023H353.28c-15.36 0-25.6 10.24-25.6 25.6s10.24 25.6 25.6 25.6H665.6c15.36 0 25.6-10.24 25.6-25.6s-10.24-25.6-25.6-25.6zM665.6 537.6H76.8c-15.36 0-25.6 10.24-25.6 25.6s10.24 25.6 25.6 25.6H665.6c15.36 0 25.6-10.24 25.6-25.6s-10.24-25.6-25.6-25.6zM76.8 537.6c-15.36 0-25.6 10.24-25.6 25.6 0 5.12 5.12 15.36 5.12 15.36l204.8 204.8c10.24 10.24 30.72 10.24 40.96 0s10.24-25.6 0-35.84l-204.8-204.8c-5.12-5.12-15.36-5.12-20.48-5.12zM281.6 332.79999999999995c-5.12 0-15.36 5.12-15.36 5.12l-204.8 204.8c-10.24 10.24-10.24 25.6 0 35.84s25.6 10.24 35.84 0l204.8-204.8c10.24-10.24 10.24-25.6 0-35.84-10.24 0-15.36-5.12-20.48-5.12z"  horiz-adv-x="1024" />

    
    <glyph glyph-name="base-delete" unicode="&#58960;" d="M694.857143 822.857143h-365.714286C307.2 822.857143 292.571429 837.485714 292.571429 859.428571s14.628571 36.571429 36.571428 36.571429h365.714286c21.942857 0 36.571429-14.628571 36.571428-36.571429s-14.628571-36.571429-36.571428-36.571428M914.285714 640h-804.571428c-21.942857 0-36.571429 14.628571-36.571429 36.571429s14.628571 36.571429 36.571429 36.571428h804.571428c21.942857 0 36.571429-21.942857 36.571429-36.571428s-14.628571-36.571429-36.571429-36.571429M804.571429-128H219.428571c-43.885714 0-73.142857 29.257143-73.142857 73.142857V501.028571c0 14.628571 14.628571 29.257143 29.257143 29.257143s29.257143-14.628571 29.257143-29.257143v-519.314285c0-21.942857 14.628571-36.571429 36.571429-36.571429h526.628571c21.942857 0 36.571429 14.628571 36.571429 36.571429V501.028571c0 14.628571 14.628571 29.257143 29.257142 29.257143 29.257143 0 43.885714-14.628571 43.885715-29.257143V-54.85714299999995c0-43.885714-29.257143-73.142857-73.142857-73.142857M402.285714 530.285714c-21.942857 0-36.571429-14.628571-36.571428-36.571428v-365.714286c0-21.942857 14.628571-36.571429 36.571428-36.571429s36.571429 14.628571 36.571429 36.571429v365.714286c0 21.942857-14.628571 36.571429-36.571429 36.571428M621.714286 530.285714c-21.942857 0-36.571429-14.628571-36.571429-36.571428v-365.714286c0-21.942857 14.628571-36.571429 36.571429-36.571429s36.571429 14.628571 36.571428 36.571429v365.714286c0 21.942857-14.628571 36.571429-36.571428 36.571428"  horiz-adv-x="1024" />

    
    <glyph glyph-name="base-retract" unicode="&#58957;" d="M85.333333 0h853.333334c25.6 0 42.666667-17.066667 42.666666-42.666667s-17.066667-42.666667-42.666666-42.666666H85.333333c-25.6 0-42.666667 17.066667-42.666666 42.666666s17.066667 42.666667 42.666666 42.666667zM85.333333 853.333333h853.333334c25.6 0 42.666667-17.066667 42.666666-42.666666s-17.066667-42.666667-42.666666-42.666667H85.333333c-25.6 0-42.666667 17.066667-42.666666 42.666667 0 21.333333 17.066667 42.666667 42.666666 42.666666zM85.333333 422.4h469.333334c25.6 0 42.666667-17.066667 42.666666-42.666667s-17.066667-42.666667-42.666666-42.666666H85.333333c-25.6 0-42.666667 17.066667-42.666666 42.666666s17.066667 42.666667 42.666666 42.666667zM964.266667 418.133333l-187.733334 170.666667c-21.333333 12.8-46.933333 4.266667-59.733333-17.066667-4.266667-8.533333-4.266667-12.8-4.266667-21.333333V213.33333300000004c0-25.6 17.066667-42.666667 42.666667-42.666666 8.533333 0 17.066667 0 21.333333 4.266666l187.733334 170.666667c21.333333 17.066667 21.333333 46.933333 8.533333 64l-8.533333 8.533333z"  horiz-adv-x="1024" />

    
    <glyph glyph-name="base-analysis_com" unicode="&#58953;" d="M960 896H320c-38.4 0-64-25.6-64-64v-192H64c-38.4 0-64-25.6-64-64v-640c0-38.4 25.6-64 64-64h640c38.4 0 64 25.6 64 64v192h192c38.4 0 64 25.6 64 64V832c0 38.4-25.6 64-64 64z m-256-960H64V576h192v-384c0-38.4 25.6-64 64-64h384v-192z m0 256H320V576h384v-384z m256 0h-192V576c0 38.4-25.6 64-64 64H320V832h640v-640z"  horiz-adv-x="1024" />

    
    <glyph glyph-name="base-export" unicode="&#58955;" d="M908.8 819.2c19.2 0 32-12.8 32-32v-256c0-19.2-12.8-32-32-32s-32 12.8-32 32v256c6.4 12.8 19.2 32 32 32zM652.8 819.2h256c19.2 0 32-12.8 32-32s-12.8-32-32-32h-256c-12.8 0-25.6 12.8-25.6 25.6 0 19.2 12.8 38.4 25.6 38.4zM460.8 307.20000000000005c-12.8 0-25.6 12.8-25.6 32 0 6.4 6.4 19.2 6.4 19.2l448 448c12.8 12.8 32 12.8 44.8 0s12.8-32 0-44.8l-448-448c-6.4-6.4-12.8-12.8-25.6-6.4zM780.8-76.79999999999995H147.2c-57.6 0-102.4 44.8-102.4 102.4V652.8c0 57.6 44.8 102.4 102.4 102.4h345.6c19.2 0 32-12.8 32-32s-6.4-32-25.6-32H147.2c-19.2 0-32-19.2-32-38.4v-627.2c0-19.2 19.2-38.4 38.4-38.4h627.2c19.2 0 38.4 19.2 38.4 38.4V371.20000000000005c0 19.2 12.8 32 32 32s32-12.8 32-32v-352c0-51.2-51.2-96-102.4-96z"  horiz-adv-x="1024" />

    
    <glyph glyph-name="base-visible" unicode="&#58951;" d="M512 640c185.6 0 358.4-96 448-256-89.6-160-262.4-256-448-256-185.6 0-358.4 96-448 256 89.6 160 262.4 256 448 256m0 64C300.8 704 108.8 595.2 6.4 416c-6.4-19.2-6.4-44.8 0-64C108.8 172.79999999999995 300.8 64 512 64c211.2 0 403.2 108.8 505.6 288 6.4 19.2 6.4 38.4 0 57.6C915.2 595.2 723.2 704 512 704zM512 512c70.4 0 128-57.6 128-128s-57.6-128-128-128-128 57.6-128 128 57.6 128 128 128m0 64C403.2 576 320 492.8 320 384s83.2-192 192-192 192 83.2 192 192-83.2 192-192 192z"  horiz-adv-x="1024" />

    
    <glyph glyph-name="base-analysis_ind" unicode="&#58954;" d="M832 704v-512h64V704c0 38.4-25.6 64-64 64H320v-64h512zM832-64H64V704h192V768H64c-38.4 0-64-25.6-64-64v-768c0-38.4 25.6-64 64-64h768c38.4 0 64 25.6 64 64v192h-64v-192zM960 896H320c-38.4 0-64-25.6-64-64v-64h64V832h640v-640h-64v-64h64c38.4 0 64 25.6 64 64V832c0 38.4-25.6 64-64 64zM832 192h64v-64h-64zM256 768h64v-64H256z"  horiz-adv-x="1024" />

    
    <glyph glyph-name="base-invisible" unicode="&#58952;" d="M512 313.6C307.2 307.20000000000005 108.8 409.6 6.4 588.8c-6.4 12.8 0 32 12.8 38.4 12.8 6.4 32 0 38.4-12.8C153.6 460.8 326.4 364.79999999999995 512 371.20000000000005c185.6-6.4 358.4 89.6 454.4 249.6 6.4 12.8 25.6 19.2 38.4 12.8 19.2-12.8 25.6-32 19.2-44.8-108.8-179.2-307.2-281.6-512-275.2zM294.4 390.4L211.2 256c-6.4-12.8-6.4-32 12.8-44.8 12.8-6.4 32-6.4 44.8 12.8l83.2 147.2-57.6 19.2zM102.4 512l-76.8-44.8c-12.8-6.4-19.2-25.6-12.8-44.8 6.4-12.8 25.6-19.2 44.8-12.8l83.2 51.2-38.4 51.2zM998.4 467.2L921.6 512l-57.6-44.8 102.4-57.6c12.8-6.4 32-6.4 44.8 12.8 6.4 12.8 6.4 32-12.8 44.8zM480 352v-185.6c0-19.2 12.8-32 32-32s32 12.8 32 32v192l-64-6.4zM742.4 384l-70.4-6.4 83.2-147.2c6.4-12.8 25.6-19.2 44.8-12.8 12.8 6.4 19.2 25.6 12.8 44.8L742.4 384z"  horiz-adv-x="1026" />

    
    <glyph glyph-name="base-decline" unicode="&#58964;" d="M512-40.22857099999999L241.371429 259.657143h219.428571V822.857143h95.085714v-563.2h219.428572L512-40.22857099999999m36.571429-73.142858l314.514285 358.4c7.314286 7.314286 14.628571 21.942857 14.628572 36.571429 0 29.257143-21.942857 51.2-51.2 51.2H636.342857v512C636.342857 874.057143 614.4 896 585.142857 896H438.857143c-29.257143 0-51.2-21.942857-51.2-51.2v-512H197.485714c-14.628571 0-21.942857-7.314286-36.571428-14.628571-21.942857-21.942857-21.942857-51.2 0-73.142858l314.514285-358.4c7.314286-7.314286 21.942857-14.628571 36.571429-14.628571s29.257143 7.314286 36.571429 14.628571z"  horiz-adv-x="1024" />

    
    <glyph glyph-name="base-decline_solid" unicode="&#58965;" d="M876.688209 283.323808c0 29.175057-21.881293 51.056349-43.762585 58.350114H635.993991v510.563493C635.993991 874.118707 614.112699 896 584.937642 896H439.062358c-29.175057 0-51.056349-21.881293-51.056349-51.056349v-510.563493H198.36814c-14.587528 0-21.881293-7.293764-36.468821-14.587529-21.881293-21.881293-21.881293-51.056349 0-72.937642l313.63186-357.394445 7.293764-7.293764c21.881293-14.587528 51.056349-14.587528 65.643878 7.293764l313.63186 357.394445c7.293764 14.587528 14.587528 21.881293 14.587528 36.468821z"  horiz-adv-x="1024" />

    
    <glyph glyph-name="left-buyer_solid" unicode="&#59005;" d="M333.994667 682.666667A85.333333 85.333333 0 1 0 213.333333 562.0053330000001 85.333333 85.333333 0 0 0 333.994667 682.666667z m469.333333-469.333334A85.333333 85.333333 0 1 0 682.666667 92.67200000000003 85.333333 85.333333 0 0 0 803.328 213.33333300000004zM213.333333 213.33333300000004a85.333333 85.333333 0 1 0 120.661334-120.661333A85.333333 85.333333 0 0 0 213.333333 213.33333300000004zM682.666667 682.666667a85.333333 85.333333 0 1 0 120.661333-120.661334A85.333333 85.333333 0 0 0 682.666667 682.666667z m-170.666667-469.333334a170.666667 170.666667 0 1 0 0 341.333334 170.666667 170.666667 0 0 0 0-341.333334z m384 42.666667a128 128 0 1 0 0 256 128 128 0 0 0 0-256z m-384-384a128 128 0 1 0 0 256 128 128 0 0 0 0-256z m0 768a128 128 0 1 0 0 256 128 128 0 0 0 0-256z m-384-384a128 128 0 1 0 0 256 128 128 0 0 0 0-256z"  horiz-adv-x="1024" />

    
    <glyph glyph-name="left-buyer" unicode="&#59006;" d="M512 298.66666699999996a85.333333 85.333333 0 1 1 0 170.666666 85.333333 85.333333 0 0 1 0-170.666666z m0-85.333334a170.666667 170.666667 0 1 0 0 341.333334 170.666667 170.666667 0 0 0 0-341.333334z m384 128a42.666667 42.666667 0 1 1 0 85.333334 42.666667 42.666667 0 0 1 0-85.333334z m0-85.333333a128 128 0 1 0 0 256 128 128 0 0 0 0-256zM128 341.33333300000004a42.666667 42.666667 0 1 1 0 85.333334 42.666667 42.666667 0 0 1 0-85.333334z m0-85.333333a128 128 0 1 0 0 256 128 128 0 0 0 0-256zM554.666667 768a42.666667 42.666667 0 1 1-85.333334 0 42.666667 42.666667 0 0 1 85.333334 0z m85.333333 0a128 128 0 1 0-256 0 128 128 0 0 0 256 0z m-85.333333-768a42.666667 42.666667 0 1 1-85.333334 0 42.666667 42.666667 0 0 1 85.333334 0z m85.333333 0a128 128 0 1 0-256 0 128 128 0 0 0 256 0zM303.829333 652.5013329999999a42.666667 42.666667 0 1 1-60.330666-60.330666 42.666667 42.666667 0 0 1 60.330666 60.330666zM333.994667 682.666667A85.333333 85.333333 0 1 0 213.333333 562.0053330000001 85.333333 85.333333 0 0 0 333.994667 682.666667z m439.168-499.498667a42.666667 42.666667 0 1 1-60.330667-60.330667 42.666667 42.666667 0 0 1 60.330667 60.330667z m30.165333 30.165333A85.333333 85.333333 0 1 0 682.666667 92.67200000000003 85.333333 85.333333 0 0 0 803.328 213.33333300000004z m-559.786667-30.165333a42.666667 42.666667 0 1 1 60.288-60.330667 42.666667 42.666667 0 0 1-60.330666 60.330667zM213.333333 213.33333300000004a85.333333 85.333333 0 1 0 120.661334-120.661333A85.333333 85.333333 0 0 0 213.333333 213.33333300000004zM712.832 652.5013329999999a42.666667 42.666667 0 1 1 60.330667-60.330666 42.666667 42.666667 0 0 1-60.330667 60.330666zM682.666667 682.666667a85.333333 85.333333 0 1 0 120.661333-120.661334A85.333333 85.333333 0 0 0 682.666667 682.666667z"  horiz-adv-x="1024" />

    
    <glyph glyph-name="left-ai_solid" unicode="&#59007;" d="M442.469557-119.46668299999999h-267.702347c-22.381672 12.190453-33.596888 34.913457-33.596888 68.120251v301.347998c-171.202722-3.023232-186.708978 55.490942-46.372484 175.591284-1.852949 135.557837 16.774063 207.188939 103.179994 306.711797 82.651271 97.621147 330.800132 260.193028 673.644432 88.405165 353.523136-212.991594 157.646938-641.607921 61.976262-740.35059-57.929033-79.286706-53.589231-145.895341 13.019404-199.825905H442.420795z m-137.605833 311.63674l69.144249-0.243809 44.860867 134.241268h192.852966l41.98392-134.241268h71.192246l-109.177697 359.374553c-6.826654 22.137863-16.969111 40.228495-30.281085 54.320659-16.969111 17.700538-41.057446 26.575187-72.313767 26.575187-31.402607 0-56.368655-11.361502-74.849382-33.986983-13.702069-16.579016-24.771-39.00945-33.158032-67.145015l-100.254285-338.894592z m128.877469 197.144005l42.812871 140.287733c2.291805 7.80189 6.19275 14.969876 11.702835 21.455197 7.314272 8.923412 16.042636 13.409498 26.331378 13.409499a29.257087 29.257087 0 0 0 23.113099-10.581314c6.875415-7.996937 11.556549-16.091398 13.99464-24.283382l42.032682-140.287733H433.741193z m321.096531 240.883351v-436.564502h70.899675V630.197413H754.837724z"  horiz-adv-x="1074" />

    
    <glyph glyph-name="left-ai" unicode="&#59008;" d="M309.418667 237.482667l87.765333 296.533333c7.296 24.661333 16.981333 44.245333 29.013333 58.752 16.128 19.797333 37.973333 29.738667 65.450667 29.738667 27.349333 0 48.426667-7.765333 63.274667-23.253334 11.648-12.373333 20.48-28.16 26.496-47.488l95.488-314.496h-62.250667l-36.736 117.461334H409.173333l-39.253333-117.461334-60.501333 0.213334z m112.768 172.501333h139.946666l-36.693333 122.752a59.392 59.392 0 0 1-12.288 21.248 25.6 25.6 0 0 1-20.224 9.258667c-9.002667 0-16.64-3.925333-23.04-11.733334-4.821333-5.674667-8.234667-11.946667-10.24-18.773333l-37.461333-122.752z m280.96 210.773333h62.037333v-381.994666H703.146667V620.757333z m-273.322667-613.290666v-85.333334H184.704l-9.557333 5.205334c-34.56 18.858667-51.626667 53.504-51.626667 97.066666V246.613333c-147.072 11.690667-163.498667 101.546667-40.661333 214.272 0.682667 121.685333 25.002667 189.866667 100.48 276.821334 130.133333 153.642667 376.192 220.629333 644.010666 86.272 153.941333-92.714667 213.888-236.672 194.858667-402.773334-13.653333-119.594667-71.594667-247.168-129.749333-308.906666-37.546667-52.949333-34.218667-107.221333 13.098666-172.629334l-69.162666-50.005333c-68.650667 94.933333-73.472 190.08-11.264 275.157333l3.797333 4.48c45.525333 47.018667 96.768 158.805333 108.501333 261.632 15.445333 134.741333-30.72 245.632-151.210666 318.378667C558.677333 863.317333 354.474667 807.765333 248.149333 682.154667c-65.28-75.178667-81.450667-125.44-79.872-239.829334l0.256-20.010666-15.189333-12.970667c-44.245333-37.888-65.066667-65.237333-68.053333-72.362667-0.256 2.048 1.578667 1.493333 6.229333 0.085334 15.530667-4.608 40.448-6.912 73.941333-6.314667l43.392 0.768v-307.114667c0-8.277333 0.853333-13.525333 2.432-16.938666h218.538667z"  horiz-adv-x="1025" />

    
    <glyph glyph-name="left-marketing" unicode="&#59009;" d="M737.024 435.669333v-22.826666h81.237333l0.213334-56.149334-81.450667 0.213334v-67.242667l-64.128 0.426667v66.816h-81.237333v55.893333h81.237333v22.869333h-81.237333V491.605333l72.021333 0.213334L554.666667 596.48h85.802666l67.242667-60.672L768.64 597.333333h83.114667l-105.301334-105.514666 72.704-0.213334v-55.893333zM341.333333 85.33333300000004h85.333334-85.333334z m0 42.666667h85.333334a42.666667 42.666667 0 0 0 0-85.333333H341.333333a42.666667 42.666667 0 0 0 0 85.333333zM704 128a320 320 0 1 0 0 640 320 320 0 0 0 0-640z m0 85.333333a234.666667 234.666667 0 1 1 0 469.333334 234.666667 234.666667 0 0 1 0-469.333334zM682.666667 128.68266700000004a324.778667 324.778667 0 0 1 85.333333 5.717333V42.66666699999996a170.666667 170.666667 0 0 0-170.666667-170.666667H170.666667a170.666667 170.666667 0 0 0-170.666667 170.666667V725.333333a170.666667 170.666667 0 0 0 170.666667 170.666667h426.666666c81.493333 0 149.717333-57.173333 166.613334-133.589333a321.706667 321.706667 0 0 1-91.818667 4.010666A85.333333 85.333333 0 0 1 597.333333 810.666667H170.666667a85.333333 85.333333 0 0 1-85.333334-85.333334v-682.666666a85.333333 85.333333 0 0 1 85.333334-85.333334h426.666666a85.333333 85.333333 0 0 1 85.333334 85.333334v86.016z"  horiz-adv-x="1024" />

    
    <glyph glyph-name="left-marketing_solid" unicode="&#59010;" d="M341.333333 85.33333300000004h85.333334-85.333334z m0 42.666667h85.333334a42.666667 42.666667 0 0 0 0-85.333333H341.333333a42.666667 42.666667 0 0 0 0 85.333333zM682.666667 128.68266700000004a324.778667 324.778667 0 0 1 85.333333 5.717333V42.66666699999996a170.666667 170.666667 0 0 0-170.666667-170.666667H170.666667a170.666667 170.666667 0 0 0-170.666667 170.666667V725.333333a170.666667 170.666667 0 0 0 170.666667 170.666667h426.666666c81.493333 0 149.717333-57.173333 166.613334-133.589333a321.706667 321.706667 0 0 1-91.818667 4.010666A85.333333 85.333333 0 0 1 597.333333 810.666667H170.666667a85.333333 85.333333 0 0 1-85.333334-85.333334v-682.666666a85.333333 85.333333 0 0 1 85.333334-85.333334h426.666666a85.333333 85.333333 0 0 1 85.333334 85.333334v86.016zM704 128a320 320 0 1 0 0 640 320 320 0 0 0 0-640z m33.024 307.669333H819.2V491.605333l-72.704 0.213334L851.754667 597.333333h-83.114667l-60.928-61.525333L640.426667 596.48H554.666667l109.013333-104.661333-72.021333-0.213334v-55.893333h81.237333v-22.869333h-81.237333v-55.936h81.237333v-66.816l64.128-0.426667v67.242667l81.493333-0.213334-0.256 56.149334h-81.237333v22.826666z"  horiz-adv-x="1024" />

    
    <glyph glyph-name="base64-auditing_reject" unicode="&#59013;" d="M678.061992 696.623652c101.597309 0 191.723062-48.709143 247.890793-123.862369l39.299422-10.447558A335.581088 335.581088 0 0 1 678.061992 723.2061140000001c-58.866106 0-114.18973-15.069391-162.276171-41.499637l39.230233-10.406044A309.565977 309.565977 0 0 0 678.061992 696.623652z m202.48889 17.297281l21.517817-17.297281 6.642156 25.918246 24.077815 13.962365-24.077815 13.948528-6.642156 25.918245-21.517817-17.297281-28.187649 2.075674 10.793503-24.645166-10.793503-24.659003 28.187649 2.075673zM507.164856 771.915257l-22.140519 15.276958-4.829401-27.039109-22.666357-16.743768 24.437599-11.623773 8.136641-25.627651 19.926467 19.871116 27.703325 0.913296-12.121934 23.884086 8.980748 26.195002-27.426569-5.106157z m207.276777 37.362127l-16.41166 21.227223-12.896852-24.29922-26.734678-9.132965 19.732738-18.431982-0.110702-26.859218 25.087976 12.91069 26.65165-7.472425-4.220536 26.416407 16.60539 22.251223-27.703326 3.390267z m300.004041-166.884167l-23.247546 15.941174-3.30724-26.665488-21.905276-15.816634 25.350895-12.384853 9.714153-25.738354 18.957819 18.999334 27.910893-0.06919-13.61642 24.133167 7.527777 25.669165-27.398893-4.082159z m301.927498-200.869864l-1165.559978 309.621329c-28.602784 7.596966-58.008161-9.229829-65.674317-37.59737L1.84901 405.420468c-7.666155-28.367541 9.312856-57.51 37.91564-65.120803l1165.559978-309.607491c28.602784-7.596966 58.008161 9.229829 65.674317 37.59737l83.276029 308.126844c7.666155 28.367541-9.312856 57.51-37.91564 65.106965z m8.537938-71.071068L1248.567831 88.00844400000005c-5.756535-21.268737-27.814028-33.902671-49.262656-28.201487L59.663442 362.550887a39.852935 39.852935 0 0 0-28.450568 48.847522L107.556153 693.828412c5.756535 21.268737 27.814028 33.902671 49.262657 28.201487L1296.47438 419.285969a39.839097 39.839097 0 0 0 28.43673-48.847522zM678.061992 869.4304079999999c223.370167 0 411.260152-150.430993 466.307018-354.677286l29.682135-7.88756C1121.190654 729.917459 919.199926 895.999031 678.061992 895.999031a510.103734 510.103734 0 0 1-370.93673-158.858228l29.640621-7.873722A483.286029 483.286029 0 0 0 678.061992 869.4304079999999z m123.045938-758.866309A309.55214 309.55214 0 0 0 678.061992 85.21320400000002a308.763384 308.763384 0 0 0-247.890792 123.876207l-39.299423 10.43372A335.581088 335.581088 0 0 1 678.061992 58.630742000000055c58.879944 0 114.18973 15.069391 162.276171 41.485799l-39.230233 10.43372z m-287.688377-55.212921l-21.351763 17.269605-6.572967-25.862894-23.897923-13.920852 23.897923-13.920852 6.572967-25.876732 21.351763 17.269605 27.952406-2.061836-10.696638 24.589815 10.710476 24.589815-27.966244-2.075674z m164.559412-81.864571l16.273282-21.171872 12.799988 24.243869 26.499434 9.105288-19.552846 18.39047 0.110703 26.803866-24.880409-12.896853-26.444083 7.472426 4.179023-26.361056-16.453174-22.195871 27.468082-3.390267zM339.021448 140.56450299999995l21.863763-17.491011 5.161509 26.305705 22.790897 14.211446-24.202355 14.100744-7.76302 26.278029-20.134035-17.601713-27.592623 2.020322 11.762151-24.963436-9.299018-25.018787 27.398893 2.158701z m339.026706-228.144217c-223.342491 0-411.260152 150.444831-466.29318 354.677286l-29.682134 7.88756C234.93333 51.919397000000004 436.924058-114.16217500000005 678.061992-114.16217500000005a510.103734 510.103734 0 0 1 370.93673 158.858228l-29.64062 7.873722A483.272191 483.272191 0 0 0 678.061992-87.59355200000005z m193.867925 97.556665l22.002141-15.276959 4.732536 26.96992 22.45879 16.660741-24.285382 11.623773-8.108966 25.558463-19.746576-19.78809-27.48192-0.871783 12.066584-23.828734-8.856208-26.111975 27.205163 5.050806zM204.670007 500.83227l-6.669831-24.852733 53.732273-14.391338 6.655994 24.852733-53.732273 14.391338z m40.821583-62.505454l-53.732273 14.391337-3.874591-14.432851-24.852733 6.655994 35.743101 133.39663 78.598845-21.061169 6.227021 23.261384 25.12949-6.739021-6.227022-23.247546 79.387601-21.282574-35.521696-132.594037-24.866571 6.669832 3.653186 13.630257-54.52103 14.612743-14.197608-52.92968-25.12949 6.725183 14.18377 52.943518z m31.370349 16.522362l54.52103-14.612743 6.669831 24.852734-54.521029 14.612743-6.669832-24.852734z m67.141126 32.435862l6.725183 25.129489-54.52103 14.612743-6.73902-25.129489 54.521029-14.612743z m-72.925337 46.467415l-53.746111 14.391338-6.725183-25.115652 53.732274-14.391338 6.725183 25.115652z m146.805483 47.477577l-13.533392-50.521898-24.603653 6.586804 7.306372 27.260515-178.577129 47.865036-7.652317-28.616622-24.603652 6.600643 13.893176 51.864167 99.992121-26.790029c-0.830269 6.905075-1.868106 13.007555-3.127348 18.307442l28.146136-2.961294c0.747243-9.368207 1.134702-16.826795 1.176215-22.375763l101.569633-27.219001z m31.785484-253.481274l-24.326896 6.503778 33.086239 123.516423c-14.363662-21.559331-29.751323-40.157367-46.176821-55.821785l-3.404105 28.990243c24.326896 20.2309 44.834552 45.48493 61.550644 75.762091l-33.681265 9.036099 6.517615 24.326896 34.760616-9.312856 13.395014 49.982223 24.326896-6.503778-13.395014-49.99606 29.405377-7.88756-6.517615-24.326896-29.419215 7.88756-3.860754-14.446689a648.523495 648.523495 0 0 0 24.908085-55.669569l-19.967981-17.850794A1214.905662 1214.905662 0 0 1 484.332446 457.132419l-34.663751-129.383661z m93.294614 210.224234l63.349562-16.979011a154.098016 154.098016 0 0 1-5.258374 26.347218l27.080623-2.6707c1.508323-8.620965 2.518484-18.736415 3.044322-30.332512l58.27108-15.609066-6.227021-23.261384-73.243607 19.622036c-19.08236-19.137712-35.009697-32.643429-47.809684-40.475638 12.966042-2.905943 27.675649-5.798049 44.087309-8.662478a305.428468 305.428468 0 0 1 25.461598 24.409923l17.643227-16.467012c-40.959961-45.955416-89.779807-71.652257-146.4457-77.104359l-8.233505 24.852733c32.352834 2.407782 61.758212 11.623773 88.202294 27.647974-12.66161 2.629187-30.996727 6.586805-54.977677 11.859016l0.428972 21.94679c2.103349 0.013838 3.902267 0.290594 5.396752 0.857945 11.07026 3.528645 27.744839 16.245606 50.051412 38.164721l-47.048604 12.59242 6.227021 23.261384zM584.518297 346.637389c-30.858349-15.415337-64.539615-24.534463-101.016121-27.371217l-8.108965 25.37857c67.293342 3.736213 124.152964 30.249485 170.578866 79.498303l18.182901-16.605389c-18.736415-20.009495-38.635207-36.545695-59.710214-49.62244 14.585067-21.863763 25.987435-42.011636 34.234779-60.471294l-23.73187-13.699447c-6.877399 19.234576-17.020524 40.198881-30.429376 62.892914z m362.177387 99.49396a244.237607 244.237607 0 0 0-38.67672-32.034564 596.825381 596.825381 0 0 0 35.466345-43.035635l-19.289928-17.449497a591.42863 591.42863 0 0 1-38.469153 47.83736c-24.354572-11.803665-50.729466-18.598036-79.083168-20.341603l-8.053614 24.49295c24.991111 1.328431 48.100279 6.310048 69.327502 14.944851a509.508707 509.508707 0 0 1-45.471092 41.98396l18.667225 16.190255a624.916166 624.916166 0 0 0 50.037574-46.356713 223.674599 223.674599 0 0 1 37.638884 30.332512l17.906145-16.550038z m-29.502242-101.541958c-16.467011-26.52711-34.802129-48.252495-55.005354-65.189993 12.204961-19.317603 28.215325-36.213587 48.017252-50.687952l-21.587007-18.57036c-19.829603 15.816634-35.867642 33.681265-48.100278 53.580057-20.936629-12.537069-42.786554-20.632197-65.535938-24.285382l-10.572098 25.766029c23.316735 2.905943 44.65466 10.184639 63.999939 21.808412-10.073936 22.956951-16.508525 48.847521-19.303766 77.657873l24.354572 6.365399c1.895782-24.949598 7.334047-47.795847 16.300958-68.538746 17.394146 15.01404 33.072401 34.317805 47.020928 57.883621l20.410792-15.77512z m-133.285928 121.675993l-68.178963 18.265928 6.448426 24.063978 94.373965-25.281706-42.080825-106.772656 19.78809-5.299887c-16.812957-62.740697-29.585269-98.290069-38.330775-106.634277-8.620965-8.012101-22.832411-9.35437-42.6205-4.054483-4.275888 1.148539-11.305503 3.417943-21.102683 6.794372l-0.512 24.783544c12.135772-4.594158 19.372955-7.195669 21.683872-7.818371 13.713284-3.667024 22.915438-2.131025 27.592622 4.635671 5.189184 7.209507 12.647772 28.990243 22.389601 65.356047l-74.0462 19.84344 37.638883 91.329644 23.98095-7.846047-28.588946-67.127288 27.537272-7.37556 34.027211 83.137651zM740.470582 316.000445c-22.112844-0.553513-46.273686 0.844107-72.496364 4.248212l3.390267 25.44776c27.011434-3.985294 52.140924-6.047129 75.416145-6.17167l-6.310048-23.524302z m297.873015 40.240394l107.201629-28.727324-26.84538-100.241202-107.215467 28.713486 26.859218 100.25504z m61.841239-99.660014l14.668094 54.797786-57.994323 15.553715-14.681932-54.797786 58.008161-15.553715z m117.123349 114.162055l-60.81724-226.940326-25.392408 6.780534 2.35243 8.828532-168.946003 45.277363-2.35243-8.828533-25.406246 6.80821 60.81724 226.968002 219.744657-58.879945zM970.676634 227.68744700000002l168.95984-45.263524 46.12147 172.142539-168.95984 45.277363-46.12147-172.14254z"  horiz-adv-x="1356" />

    
    <glyph glyph-name="base64-auditing_pass" unicode="&#59014;" d="M678.061992 696.623652c101.597309 0 191.723062-48.709143 247.890793-123.862369l39.299422-10.447558A335.581088 335.581088 0 0 1 678.061992 723.2061140000001c-58.866106 0-114.18973-15.069391-162.276171-41.499637l39.230233-10.406044A309.565977 309.565977 0 0 0 678.061992 696.623652z m202.48889 17.297281l21.517817-17.297281 6.642156 25.918246 24.077815 13.962365-24.077815 13.948528-6.642156 25.918245-21.517817-17.297281-28.187649 2.075674 10.793503-24.645166-10.793503-24.659003 28.187649 2.075673zM507.164856 771.915257l-22.140519 15.276958-4.829401-27.039109-22.666357-16.743768 24.437599-11.623773 8.136641-25.627651 19.926467 19.871116 27.703325 0.913296-12.121934 23.884086 8.980748 26.195002-27.426569-5.106157z m207.276777 37.362127l-16.41166 21.227223-12.896852-24.29922-26.734678-9.132965 19.732738-18.431982-0.110702-26.859218 25.087976 12.91069 26.65165-7.472425-4.220536 26.416407 16.60539 22.251223-27.703326 3.390267z m300.004041-166.884167l-23.247546 15.941174-3.30724-26.665488-21.905276-15.816634 25.350895-12.384853 9.714153-25.738354 18.957819 18.999334 27.910893-0.06919-13.61642 24.133167 7.527777 25.669165-27.398893-4.082159z m301.927498-200.869864l-1165.559978 309.621329c-28.602784 7.596966-58.008161-9.229829-65.674317-37.59737L1.84901 405.420468c-7.666155-28.367541 9.312856-57.51 37.91564-65.120803l1165.559978-309.607491c28.602784-7.596966 58.008161 9.229829 65.674317 37.59737l83.276029 308.126844c7.666155 28.367541-9.312856 57.51-37.91564 65.106965z m8.537938-71.071068L1248.567831 88.00844400000005c-5.756535-21.268737-27.814028-33.902671-49.262656-28.201487L59.663442 362.550887a39.852935 39.852935 0 0 0-28.450568 48.847522L107.556153 693.828412c5.756535 21.268737 27.814028 33.902671 49.262657 28.201487L1296.47438 419.285969a39.839097 39.839097 0 0 0 28.43673-48.847522zM678.061992 869.4304079999999c223.370167 0 411.260152-150.430993 466.307018-354.677286l29.682135-7.88756C1121.190654 729.917459 919.199926 895.999031 678.061992 895.999031a510.103734 510.103734 0 0 1-370.93673-158.858228l29.640621-7.873722A483.286029 483.286029 0 0 0 678.061992 869.4304079999999z m123.045938-758.866309A309.55214 309.55214 0 0 0 678.061992 85.21320400000002a308.763384 308.763384 0 0 0-247.890792 123.876207l-39.299423 10.43372A335.581088 335.581088 0 0 1 678.061992 58.630742000000055c58.879944 0 114.18973 15.069391 162.276171 41.485799l-39.230233 10.43372z m-287.688377-55.212921l-21.351763 17.269605-6.572967-25.862894-23.897923-13.920852 23.897923-13.920852 6.572967-25.876732 21.351763 17.269605 27.952406-2.061836-10.696638 24.589815 10.710476 24.589815-27.966244-2.075674z m164.559412-81.864571l16.273282-21.171872 12.799988 24.243869 26.499434 9.105288-19.552846 18.39047 0.110703 26.803866-24.880409-12.896853-26.444083 7.472426 4.179023-26.361056-16.453174-22.195871 27.468082-3.390267zM339.021448 140.56450299999995l21.863763-17.491011 5.161509 26.305705 22.790897 14.211446-24.202355 14.100744-7.76302 26.278029-20.134035-17.601713-27.592623 2.020322 11.762151-24.963436-9.299018-25.018787 27.398893 2.158701z m339.026706-228.144217c-223.342491 0-411.260152 150.444831-466.29318 354.677286l-29.682134 7.88756C234.93333 51.919397000000004 436.924058-114.16217500000005 678.061992-114.16217500000005a510.103734 510.103734 0 0 1 370.93673 158.858228l-29.64062 7.873722A483.272191 483.272191 0 0 0 678.061992-87.59355200000005z m193.867925 97.556665l22.002141-15.276959 4.732536 26.96992 22.45879 16.660741-24.285382 11.623773-8.108966 25.558463-19.746576-19.78809-27.48192-0.871783 12.066584-23.828734-8.856208-26.111975 27.205163 5.050806zM205.057467 502.783403l-6.655994-24.852733 53.732273-14.391338 6.655994 24.852734-53.732273 14.391337z m40.83542-62.505454l-53.732273 14.391338-3.874591-14.432852-24.852733 6.655994 35.743101 133.396631 78.598845-21.06117 6.227021 23.261384 25.12949-6.739021-6.227022-23.247545 79.387601-21.282575-35.521696-132.594037-24.866571 6.669832 3.653185 13.630257-54.521029 14.612743-14.197608-52.929679-25.115652 6.725182 14.169932 52.943518z m31.370349 16.522363l54.52103-14.612743 6.669831 24.852733-54.521029 14.612743-6.669832-24.852733z m67.141126 32.435861l6.725183 25.12949-54.52103 14.612743-6.739021-25.12949 54.52103-14.612743z m-72.925337 46.467415l-53.746111 14.391338-6.725183-25.115652 53.732274-14.391338 6.725183 25.115652z m146.805483 47.477577l-13.533392-50.521898-24.603653 6.586805 7.306372 27.260514-178.563291 47.865036-7.666155-28.616621-24.603652 6.600642 13.907014 51.850329 99.978283-26.776191c-0.830269 6.905075-1.868106 13.007555-3.11351 18.307442l28.146135-2.961294c0.733405-9.368207 1.120864-16.826795 1.162378-22.375763l101.569633-27.219001z m31.785484-253.481274l-24.326896 6.503778 33.086239 123.516424c-14.363662-21.559331-29.751323-40.157367-46.176822-55.821785l-3.404104 28.990243c24.326896 20.2309 44.834552 45.48493 61.550644 75.76209l-33.681265 9.0361 6.517615 24.326895 34.760616-9.312856 13.395014 49.982223 24.326896-6.503777-13.395014-49.996061 29.405377-7.88756-6.517615-24.326896-29.405378 7.88756-3.874591-14.446689a648.523495 648.523495 0 0 0 24.908085-55.669569l-19.967981-17.850794a1214.905662 1214.905662 0 0 1-12.537069 45.194336l-34.663751-129.383662z m93.294614 210.224234l63.349562-16.979011a154.098016 154.098016 0 0 1-5.258374 26.347218l27.080623-2.6707c1.508323-8.620965 2.518484-18.736415 3.044322-30.332512l58.27108-15.609066-6.227021-23.261383-73.243607 19.622035c-19.08236-19.151549-35.009697-32.643429-47.809684-40.475637 12.97988-2.905943 27.675649-5.798049 44.087309-8.662479a305.428468 305.428468 0 0 1 25.461598 24.409923l17.643227-16.467011c-40.959961-45.955416-89.779807-71.652257-146.431862-77.10436l-8.247344 24.852734c32.352834 2.407782 61.758212 11.623773 88.202295 27.647973-12.66161 2.629187-30.996727 6.586805-54.977677 11.859016l0.428972 21.94679c2.103349 0.013838 3.902267 0.290594 5.396752 0.857945 11.07026 3.528645 27.744839 16.245606 50.051412 38.164721l-47.048604 12.592421 6.227021 23.261383z m41.554988-191.349441c-30.858349-15.415337-64.539615-24.534463-101.016121-27.371217l-8.108965 25.378571c67.293342 3.736213 124.152964 30.249485 170.578865 79.498303l18.182902-16.60539c-18.722577-20.009495-38.635207-36.559533-59.710214-49.62244 14.585067-21.863763 25.987435-42.011636 34.234779-60.471294l-23.73187-13.699446c-6.877399 19.234576-17.020524 40.198881-30.429376 62.892913z m161.252172 163.369359c14.280635-18.722577 25.738354-36.877803 34.386994-54.479516l-22.624843-12.855339c-7.25102 16.467011-18.44582 34.940507-33.584401 55.420488l21.82225 11.914367z m89.530726-280.714113c-9.091451 2.435457-24.991111 6.891237-47.71282 13.353501-16.882146 4.718698-30.719971 10.060099-41.554988 16.010364-9.644964 6.033292-17.338794 14.764959-23.053816 26.236515-2.54616 5.452103-5.327563 8.579451-8.358046 9.409721-5.53513 1.480647-18.376631-7.970587-38.55218-28.367541l-14.045392 22.403439c19.179225 18.155226 34.843643 28.478243 46.965577 30.955214l20.272414 75.651388-35.812291 9.60345 6.29621 23.524302 59.613349-15.96885-27.080623-101.057634c1.148539-1.439134 2.131025-3.141186 2.947457-5.078482 4.317401-8.800857 9.299018-15.871985 14.944851-21.199547 7.334047-6.157832 18.584199-11.568421 33.764292-16.204093 20.217062-5.811886 38.178558-10.793503 53.856814-15.01404 8.731667-2.338592 22.057493-5.715022 39.977476-10.129287 11.803665-2.975132 22.26506-5.299887 31.370348-6.974264l-12.883014-23.482789-60.955618 16.328633z m10.835016 225.459679l-51.58741 13.823987 5.65967 21.116521 146.763969-39.327098-4.801725-17.906146a302.42566 302.42566 0 0 0-58.893782-20.895115l1.245404-1.771242 53.732274-14.391337-31.799322-118.700861c-4.248212-15.858147-15.110905-21.448628-32.574239-16.771444l-20.590683 5.521293 0.31827 22.555654 18.681063-6.157832c6.074805-1.632863 9.894045 0.498162 11.471557 6.379237l3.653186 13.630257-38.496829 10.323018-11.762151-43.838229-23.247545 6.227021 11.748313 43.838229-37.694235 10.101612-11.900529-44.377904-24.05014 6.448426 38.676721 144.356188 61.495293-16.467011a377.855643 377.855643 0 0 1-24.880409 25.849056l18.833279 10.43372z m24.866571-27.011434a216.423579 216.423579 0 0 1 36.351966 10.599774l-59.876268 16.051877a632.942104 632.942104 0 0 0 23.524302-26.651651z m-72.510201-59.931619l-5.009293-18.708739 37.694235-10.101612 5.009292 18.708739-37.694234 10.101612z m60.955618-16.328633l-5.023131-18.722577 38.496829-10.309179 5.02313 18.708739-38.496828 10.323017z m44.073472 10.530585l5.02313 18.708739-38.496828 10.323017-5.023131-18.722577 38.496829-10.309179z m-61.744374 16.550038l5.009292 18.708739-37.694234 10.101612-5.009293-18.708739 37.694235-10.101612z m170.246757 60.097673c14.280635-18.722577 25.793705-36.697911 34.539211-53.939841l-23.385924-13.505717c-7.583128 17.311119-18.570361 35.826128-32.961698 55.531191l21.808411 11.914367z m96.214396-282.499192c-9.271343 2.490808-25.793705 7.098804-49.580926 13.8655-17.947659 4.995455-32.338996 10.475233-43.160175 16.425498-10.184639 6.17167-18.307442 15.041716-24.382248 26.596299-2.54616 5.452103-5.521292 8.634803-8.911559 9.548099-5.701184 1.522161-18.819442-8.233506-39.354773-29.280837l-14.05923 22.389601c19.469819 18.473496 35.397156 29.100945 47.795846 31.896186l20.203224 75.388469-36.351965 9.741828 6.434588 24.05014 60.6927-16.259444-27.149812-101.320553c1.190053-1.27308 2.255565-2.98897 3.196537-5.147671 4.566482-8.676316 9.92172-15.747445 16.09339-21.213385 7.375561-5.991778 19.193063-11.443881 35.438669-16.370147 20.936629-5.991778 39.686881-11.208638 56.264596-15.65058l36.96083-9.617288a888.526727 888.526727 0 0 1 29.571431-6.213183l-13.021393-24.008626-56.67973 15.180094z m-35.037372 47.782009l0.968647 26.098137c11.305503-4.165185 22.112844-7.638479 32.449699-10.406044 6.780534-1.812755 10.931882 0.138378 12.454043 5.825724l28.934891 108.004222-95.425639 25.5723 6.586804 24.589815 95.439478-25.5723 11.028746 41.167528 25.655327-6.877399-11.028746-41.167528 35.826128-9.589613-6.586805-24.603652-35.839966 9.60345-30.581592-114.148216c-4.524969-16.937497-15.802796-22.984627-33.791968-18.155226l-36.089047 9.658802z m7.56929 126.616096c10.11545-23.524302 17.435659-43.630661 21.932952-60.30524l-25.392408-9.243667c-4.040645 17.712416-10.835017 38.330775-20.369278 61.89659l23.828734 7.666155z"  horiz-adv-x="1356" />

    
    <glyph glyph-name="base64-auditing_in" unicode="&#59015;" d="M678.061992 696.623652c101.597309 0 191.723062-48.709143 247.890793-123.862369l39.299422-10.447558A335.581088 335.581088 0 0 1 678.061992 723.2061140000001c-58.866106 0-114.18973-15.069391-162.276171-41.499637l39.230233-10.406044A309.565977 309.565977 0 0 0 678.061992 696.623652z m202.48889 17.297281l21.517817-17.297281 6.642156 25.918246 24.077815 13.962365-24.077815 13.948528-6.642156 25.918245-21.517817-17.297281-28.187649 2.075674 10.793503-24.645166-10.793503-24.659003 28.187649 2.075673zM507.164856 771.915257l-22.140519 15.276958-4.829401-27.039109-22.666357-16.743768 24.437599-11.623773 8.136641-25.627651 19.926467 19.871116 27.703325 0.913296-12.121934 23.884086 8.980748 26.195002-27.426569-5.106157z m207.276777 37.362127l-16.41166 21.227223-12.896852-24.29922-26.734678-9.132965 19.732738-18.431982-0.110702-26.859218 25.087976 12.91069 26.65165-7.472425-4.220536 26.416407 16.60539 22.251223-27.703326 3.390267z m300.004041-166.884167l-23.247546 15.941174-3.30724-26.665488-21.905276-15.816634 25.350895-12.384853 9.714153-25.738354 18.957819 18.999334 27.910893-0.06919-13.61642 24.133167 7.527777 25.669165-27.398893-4.082159z m301.927498-200.869864l-1165.559978 309.621329c-28.602784 7.596966-58.008161-9.229829-65.674317-37.59737L1.84901 405.420468c-7.666155-28.367541 9.312856-57.51 37.91564-65.120803l1165.559978-309.607491c28.602784-7.596966 58.008161 9.229829 65.674317 37.59737l83.276029 308.126844c7.666155 28.367541-9.312856 57.51-37.91564 65.106965z m8.537938-71.071068L1248.567831 88.00844400000005c-5.756535-21.268737-27.814028-33.902671-49.262656-28.201487L59.663442 362.550887a39.852935 39.852935 0 0 0-28.450568 48.847522L107.556153 693.828412c5.756535 21.268737 27.814028 33.902671 49.262657 28.201487L1296.47438 419.285969a39.839097 39.839097 0 0 0 28.43673-48.847522zM678.061992 869.4304079999999c223.370167 0 411.260152-150.430993 466.307018-354.677286l29.682135-7.88756C1121.190654 729.917459 919.199926 895.999031 678.061992 895.999031a510.103734 510.103734 0 0 1-370.93673-158.858228l29.640621-7.873722A483.286029 483.286029 0 0 0 678.061992 869.4304079999999z m123.045938-758.866309A309.55214 309.55214 0 0 0 678.061992 85.21320400000002a308.763384 308.763384 0 0 0-247.890792 123.876207l-39.299423 10.43372A335.581088 335.581088 0 0 1 678.061992 58.630742000000055c58.879944 0 114.18973 15.069391 162.276171 41.485799l-39.230233 10.43372z m-287.688377-55.212921l-21.351763 17.269605-6.572967-25.862894-23.897923-13.920852 23.897923-13.920852 6.572967-25.876732 21.351763 17.269605 27.952406-2.061836-10.696638 24.589815 10.710476 24.589815-27.966244-2.075674z m164.559412-81.864571l16.273282-21.171872 12.799988 24.243869 26.499434 9.105288-19.552846 18.39047 0.110703 26.803866-24.880409-12.896853-26.444083 7.472426 4.179023-26.361056-16.453174-22.195871 27.468082-3.390267zM339.021448 140.56450299999995l21.863763-17.491011 5.161509 26.305705 22.790897 14.211446-24.202355 14.100744-7.76302 26.278029-20.134035-17.601713-27.592623 2.020322 11.762151-24.963436-9.299018-25.018787 27.398893 2.158701z m339.026706-228.144217c-223.342491 0-411.260152 150.444831-466.29318 354.677286l-29.682134 7.88756C234.93333 51.919397000000004 436.924058-114.16217500000005 678.061992-114.16217500000005a510.103734 510.103734 0 0 1 370.93673 158.858228l-29.64062 7.873722A483.272191 483.272191 0 0 0 678.061992-87.59355200000005z m193.867925 97.556665l22.002141-15.276959 4.732536 26.96992 22.45879 16.660741-24.285382 11.623773-8.108966 25.558463-19.746576-19.78809-27.48192-0.871783 12.066584-23.828734-8.856208-26.111975 27.205163 5.050806zM343.117444 459.097391l-6.669831-24.866571 53.732273-14.391338 6.669832 24.852733-53.732274 14.391338z m40.835421-62.519293l-53.732274 14.391338-3.874591-14.432851-24.852733 6.669831 35.743102 133.396631 78.598844-21.061169 6.227021 23.247545 25.12949-6.725183-6.227021-23.247545 79.3876-21.282575-35.521696-132.594036-24.866571 6.655993 3.653186 13.630258-54.534867 14.612743-14.183771-52.92968-25.129489 6.739021 14.18377 52.929679z m31.356511 16.522363l54.534867-14.612743 6.669832 24.866571-54.534868 14.612743-6.669831-24.866571z m67.141125 32.435861l6.739021 25.12949-54.534867 14.612743-6.739021-25.12949 54.534867-14.612743z m-72.925336 46.481254l-53.732273 14.391337-6.739021-25.129489 53.732273-14.391338 6.739021 25.12949z m146.819321 47.463739l-13.547231-50.508061-24.589814 6.586805 7.306371 27.260515L346.922846 570.6717719999999l-7.666155-28.602784-24.589815 6.586804 13.893176 51.864168 99.978284-26.790029c-0.830269 6.918912-1.854269 13.007555-3.11351 18.307442l28.146135-2.947457c0.733405-9.368207 1.134702-16.826795 1.176215-22.375762l101.569634-27.219002zM588.116131 286.013879l-24.326896 6.517615 33.086239 123.502586c-14.363662-21.545493-29.765161-40.157367-46.190659-55.807947l-3.404105 28.990243c24.326896 20.217062 44.84839 45.471092 61.564483 75.76209l-33.681266 9.022262 6.503778 24.326896 34.760616-9.312856 13.395014 49.996061 24.326896-6.517616-13.395014-49.996061 29.405377-7.88756-6.503777-24.313058-29.419216 7.88756-3.874591-14.446689a648.523495 648.523495 0 0 0 24.908085-55.669569l-19.954144-17.850794a1214.905662 1214.905662 0 0 1-12.537069 45.180498l-34.663751-129.383661z m93.294615 210.238071l63.349561-16.979011a154.098016 154.098016 0 0 1-5.258373 26.333381l27.066785-2.670701c1.522161-8.620965 2.532322-18.722577 3.044322-30.318674l58.284917-15.622904-6.227021-23.247545-73.257444 19.622035c-19.068523-19.151549-35.009697-32.657266-47.795847-40.489475 12.966042-2.905943 27.675649-5.784211 44.08731-8.662478a305.428468 305.428468 0 0 1 25.461598 24.409922l17.643226-16.467011c-40.959961-45.941578-89.779807-71.652257-146.445699-77.090522l-8.233506 24.838896c32.352834 2.407782 61.744374 11.623773 88.202295 27.647974-12.66161 2.629187-30.996727 6.586805-54.977678 11.872853l0.428973 21.94679c2.103349 0 3.902267 0.276756 5.396752 0.844108 11.07026 3.528645 27.744839 16.245606 50.037574 38.16472l-47.048604 12.606259 6.227021 23.247545z m41.554987-191.363278c-30.872187-15.415337-64.553452-24.534463-101.01612-27.371218l-8.108966 25.378571c67.279504 3.750051 124.139126 30.249485 170.578866 79.512141L802.602415 365.77509999999995c-18.736415-20.009495-38.635207-36.545695-59.710214-49.622439 14.571229-21.863763 25.987435-42.011636 34.220941-60.457456l-23.718032-13.699447c-6.891237 19.234576-17.020524 40.185043-30.443214 62.879076z m246.728416 144.480728l26.195002-7.015777-12.398691-46.246011 95.176559-25.503111-34.594562-129.106905-25.406247 6.794372 4.082159 15.235445-69.770313 18.694902-23.994788-89.544564-26.195002 7.015777 23.994788 89.544564-69.507394 18.625712-4.082158-15.221607-25.392408 6.780534 34.594562 129.13458 94.899802-25.433922 12.398691 46.246011z m-105.748657-116.639025l69.493556-18.625712 17.200416 64.165993-69.507394 18.611875-17.186578-64.152156z m95.702396-25.641489l69.770312-18.694902 17.186579 64.152156-69.770313 18.694901-17.186578-64.152155z"  horiz-adv-x="1356" />

    
    <glyph glyph-name="icon-excel" unicode="&#59016;" d="M136.533333 896h512L938.666667 605.866667v-682.666667c0-12.8-5.12-25.6-15.36-35.84-9.386667-10.24-23.04-15.36-35.84-15.36H136.533333c-12.8 0-25.6 5.12-35.84 15.36-10.24 9.386667-15.36 23.04-15.36 35.84V844.8C85.333333 857.6 91.306667 870.4 100.693333 880.64 110.08 890.88 123.733333 896 136.533333 896z m334.592-549.034667L341.333333 170.66666699999996h82.688l87.082667 125.952 87.125333-125.098667H682.666667l-129.792 175.445333L676.437333 512h-80.896l-82.645333-118.101333L433.792 512H350.208l120.917333-165.034667zM896 597.333333l-256 256v-210.816c0-11.306667 4.522667-23.338667 13.568-31.616 8.277333-9.045333 20.309333-13.568 31.573333-13.568H896z"  horiz-adv-x="1024" />

    
    <glyph glyph-name="base-play_circle-solid" unicode="&#58966;" d="M512 896C230.4 896 0 665.6 0 384s230.4-512 512-512 512 230.4 512 512S793.6 896 512 896z m145.067-546.133L469.333 187.73299999999995c-29.866-17.066-64 4.267-64 34.134V546.133c0 29.867 34.134 51.2 64 34.134l187.734-162.134c21.333-17.066 25.6-46.933 0-68.266z"  horiz-adv-x="1024" />

    
    <glyph glyph-name="base-pause_circle-solid" unicode="&#58967;" d="M512 896C230.4 896 0 665.6 0 384s230.4-512 512-512 512 230.4 512 512S793.6 896 512 896z m-76.8-691.2c0-17.067-8.533-25.6-25.6-25.6s-25.6 8.533-25.6 25.6V563.2c0 17.067 8.533 25.6 25.6 25.6s25.6-8.533 25.6-25.6v-358.4z m204.8 0c0-17.067-8.533-25.6-25.6-25.6s-25.6 8.533-25.6 25.6V563.2c0 17.067 8.533 25.6 25.6 25.6s25.6-8.533 25.6-25.6v-358.4z"  horiz-adv-x="1024" />

    
    <glyph glyph-name="base-wall" unicode="&#59011;" d="M512-128c282.7776 0 512 229.2224 512 512S794.7776 896 512 896 0 666.7776 0 384v-512h512z"  horiz-adv-x="1024" />

    
    <glyph glyph-name="base-network" unicode="&#59026;" d="M283.125014-28.806799999999953c-126.280191-20.620159-222.507598-2.412997-260.749948 62.737929-43.36083 73.852341-24.495578 142.805566 63.615383 238.15552A511.847908 511.847908 0 0 0 941.800151 751.541896c138.637662 30.710874 207.371524 18.060919 250.220506-54.913968 40.070379-68.295135-1.31618-167.00866-96.154286-272.010603a511.847908 511.847908 0 0 0-812.741357-453.497246z m-77.06967 69.465073a512.213514 512.213514 0 0 0-92.059503 144.121747c-39.119804-49.503005-42.70274-80.433243-24.495578-111.436602 14.843589-25.373032 56.668876-35.975596 116.555081-32.612024z m794.82668 642.73473c34.220689-47.455613 60.544295-100.907159 76.996549-158.526609 44.457647 57.61945 62.884172 105.294427 47.016887 132.349245-17.549071 29.906542-47.821219 39.339168-123.940315 26.104243z m-608.514042-686.973014a433.169572 433.169572 0 0 1 624.746932 350.615818c-79.336426-70.927496-179.366131-141.854992-291.899549-205.616617-115.604506-65.662774-230.185316-115.092658-332.847383-144.999201z m-88.549688 58.789389c107.926787 23.983731 244.224573 76.192217 382.569751 154.651189 133.738546 75.899733 247.88063 163.645088 326.924571 242.615909A433.242694 433.242694 0 1 1 170.006627 261.922812l8.043324-8.40893-4.241026-4.021663a433.608299 433.608299 0 0 1 130.009369-194.282841z"  horiz-adv-x="1243" />

    
    <glyph glyph-name="base-router" unicode="&#59027;" d="M192 832a128 128 0 0 1-128-128v-640a128 128 0 0 1 128-128h640a128 128 0 0 1 128 128V704a128 128 0 0 1-128 128H192z m0 64h640a192 192 0 0 0 192-192v-640a192 192 0 0 0-192-192H192a192 192 0 0 0-192 192V704a192 192 0 0 0 192 192zM512 256a192 192 0 1 1 0 384 192 192 0 0 1 0-384z m0-64a256 256 0 1 0 0 512 256 256 0 0 0 0-512zM640 64m-64 0a64 64 0 1 1 128 0 64 64 0 1 1-128 0ZM384 64m-64 0a64 64 0 1 1 128 0 64 64 0 1 1-128 0Z"  horiz-adv-x="1024" />

    
    <glyph glyph-name="base-cash" unicode="&#59029;" d="M748.407467 84.44586700000002c21.981867-4.983467 44.8512-7.645867 68.266666-7.645867v-68.266667a136.533333 136.533333 0 0 0-136.533333-136.533333h-477.866667a136.533333 136.533333 0 0 0-136.533333 136.533333V759.466667a136.533333 136.533333 0 0 0 136.533333 136.533333h477.866667a136.533333 136.533333 0 0 0 136.533333-136.533333v-68.266667c-23.415467 0-46.2848-2.6624-68.266666-7.645867V759.466667a68.266667 68.266667 0 0 1-68.266667 68.266666h-477.866667a68.266667 68.266667 0 0 1-68.266666-68.266666v-750.933334a68.266667 68.266667 0 0 1 68.266666-68.266666h477.866667a68.266667 68.266667 0 0 1 68.266667 68.266666v75.912534zM341.333333 145.06666700000005m34.133334 0l136.533333 0q34.133333 0 34.133333-34.133334l0 0q0-34.133333-34.133333-34.133333l-136.533333 0q-34.133333 0-34.133334 34.133333l0 0q0 34.133333 34.133334 34.133334ZM785.066667 76.79999999999995a307.2 307.2 0 1 0 0 614.4 307.2 307.2 0 0 0 0-614.4z m0 68.266667a238.933333 238.933333 0 1 1 0 477.866666 238.933333 238.933333 0 0 1 0-477.866666zM932.522667 486.4L851.968 417.041067h57.002667v-41.3696h-70.314667v-31.402667h70.314667v-41.7792h-70.314667v-57.412267h-63.624533v57.344h-72.840534v41.847467h72.840534v31.402667h-72.840534v41.3696h58.641067L682.666667 486.4h67.9936c41.915733-41.915733 42.666667-42.1888 58.436266-57.7536h1.365334c0.682667 1.979733 19.933867 21.162667 57.617066 57.7536h64.375467z"  horiz-adv-x="1092" />

    
    <glyph glyph-name="base-app" unicode="&#59031;" d="M60.235294 775.710118v-301.176471h301.176471v301.176471H60.235294z m0 60.235294h301.176471a60.235294 60.235294 0 0 0 60.235294-60.235294v-301.176471a60.235294 60.235294 0 0 0-60.235294-60.235294H60.235294a60.235294 60.235294 0 0 0-60.235294 60.235294v301.176471a60.235294 60.235294 0 0 0 60.235294 60.235294zM539.949176 624.941176L752.941176 413.515294l212.992 211.425882L752.941176 836.367059 539.949176 624.941176z m169.261177 252.867765a62.042353 62.042353 0 0 0 87.461647 0l210.341647-208.835765a62.042353 62.042353 0 0 0 0.361412-87.762823l-0.361412-0.301177-210.341647-208.835764a62.042353 62.042353 0 0 0-87.461647 0L498.868706 580.909176a62.042353 62.042353 0 0 0-0.361412 87.762824L709.210353 877.808941zM60.235294 233.59247100000005v-301.176471h301.176471v301.176471H60.235294z m0 60.235294h301.176471a60.235294 60.235294 0 0 0 60.235294-60.235294v-301.176471a60.235294 60.235294 0 0 0-60.235294-60.235294H60.235294a60.235294 60.235294 0 0 0-60.235294 60.235294v301.176471a60.235294 60.235294 0 0 0 60.235294 60.235294zM602.352941 233.59247100000005v-301.176471h301.176471v301.176471h-301.176471z m0 60.235294h301.176471a60.235294 60.235294 0 0 0 60.235294-60.235294v-301.176471a60.235294 60.235294 0 0 0-60.235294-60.235294h-301.176471a60.235294 60.235294 0 0 0-60.235294 60.235294v301.176471a60.235294 60.235294 0 0 0 60.235294 60.235294z"  horiz-adv-x="1025" />

    
    <glyph glyph-name="base-cloud" unicode="&#59033;" d="M1219.783712 372.89808200000004l-33.785665 11.347205 5.11904 35.321378a341.269345 341.269345 0 0 1-633.481222 219.948093l-19.964257-34.553522-35.833281 17.575372a170.634673 170.634673 0 0 1-239.997667-197.168365l10.408715-39.245974-38.563436-12.371014A213.378658 213.378658 0 0 1 298.868384-42.682664000000045h853.173363a213.293341 213.293341 0 0 1 67.741965 415.580746zM1450.652424 170.610677a298.610677 298.610677 0 0 0-298.610677-298.610677h-853.173363a298.610677 298.610677 0 0 0-126.440293 569.237268A255.952009 255.952009 0 0 0 503.629991 713.399571a426.586682 426.586682 0 0 0 775.534587-272.503572A298.695995 298.695995 0 0 0 1450.652424 170.610677z"  horiz-adv-x="1450" />

    
    <glyph glyph-name="base-narrow" unicode="&#58881;" d="M248.972005 435.199648a31.99998 31.99998 0 0 0 0 63.99996h359.039775a31.99998 31.99998 0 0 0 0-63.99996H248.972005zM427.531893 831.9994A362.879773 362.879773 0 1 0 64.65212 469.119627 362.879773 362.879773 0 0 0 427.531893 831.9994m0 63.99996a426.879733 426.879733 0 1 1 426.239734-426.879733A426.239734 426.239734 0 0 1 427.531893 895.99936zM786.571669 184.95980399999996l158.719901-158.7199a53.119967 53.119967 0 0 0 0-74.879954 55.679965 55.679965 0 0 0-37.759977-15.35999 53.119967 53.119967 0 0 0-37.119977 15.35999l-158.7199 158.719901 74.879953 74.879953m0 90.239944L621.451772 110.07985099999996l203.519873-203.519873a117.119927 117.119927 0 0 1 82.559948-34.559978 117.119927 117.119927 0 0 1 82.559949 199.679875L786.571669 275.199748z"  horiz-adv-x="1024" />

    
    <glyph glyph-name="base-enlarge" unicode="&#58883;" d="M424.331366 261.76054899999997a31.99994 31.99994 0 0 0-31.99994 31.99994V649.599822a31.359941 31.359941 0 0 0 31.99994 31.359941 31.99994 31.99994 0 0 0 31.99994-31.99994v-355.839333a31.359941 31.359941 0 0 0-31.99994-31.359941zM248.971694 435.200224a31.99994 31.99994 0 0 0 0 63.99988h359.039327a31.99994 31.99994 0 0 0 0-63.99988H248.971694zM427.53136 831.99948A362.87932 362.87932 0 1 0 64.65204 469.12016 362.87932 362.87932 0 0 0 427.53136 831.99948m0 63.99988a426.8792 426.8792 0 1 1 426.2392-426.8792A426.239201 426.239201 0 0 1 427.53136 895.99936zM786.570686 184.960693l158.719703-158.719702a53.1199 53.1199 0 0 0 0-74.87986 55.679896 55.679896 0 0 0-37.759929-15.359971 53.1199 53.1199 0 0 0-37.119931 15.359971l-158.719702 158.719703 74.879859 74.879859m0 90.239831L621.450996 110.08083399999998l203.519618-203.519619a117.11978 117.11978 0 0 1 82.559846-34.559935 114.559785 114.559785 0 0 1 82.559845 34.559935 115.839783 115.839783 0 0 1 0 165.119691L786.570686 275.200524z"  horiz-adv-x="1024" />

    
    <glyph glyph-name="base-help" unicode="&#58886;" d="M512 822.857143a438.857143 438.857143 0 1 0-438.857143-438.857143 438.857143 438.857143 0 0 0 438.857143 438.857143m0 73.142857a512 512 0 1 1 512-512 512 512 0 0 1-512 512zM520.045714 175.54285700000003a47.542857 47.542857 0 0 1 0-95.085714 47.542857 47.542857 0 0 1 0 95.085714zM520.045714 232.594286a36.571429 36.571429 0 0 0-36.571428 36.571428v73.142857C482.011429 349.62285699999995 479.085714 373.02857100000006 585.142857 457.142857a82.651429 82.651429 0 0 1 15.36 54.125714 91.428571 91.428571 0 0 1-182.857143 0 36.571429 36.571429 0 0 0-36.571428-36.571428 36.571429 36.571429 0 0 0-36.571429 36.571428 164.571429 164.571429 0 0 0 329.142857 0 146.285714 146.285714 0 0 0-39.497143-107.52 665.6 665.6 0 0 1-80.457142-73.142857v-62.171428a36.571429 36.571429 0 0 0-36.571429-36.571429z m36.571429 110.445714z"  horiz-adv-x="1024" />

    
    </font>
</defs>
</svg>
