<?xml version="1.0" standalone="no"?><!DOCTYPE svg PUBLIC "-//W3C//DTD SVG 1.1//EN" "http://www.w3.org/Graphics/SVG/1.1/DTD/svg11.dtd"><svg t="1656317254679" class="icon" viewBox="0 0 1126 1024" version="1.1" xmlns="http://www.w3.org/2000/svg" p-id="7521" xmlns:xlink="http://www.w3.org/1999/xlink" width="219.921875" height="200"><defs><style type="text/css">@font-face { font-family: feedback-iconfont; src: url("//at.alicdn.com/t/font_1031158_u69w8yhxdu.woff2?t=1630033759944") format("woff2"), url("//at.alicdn.com/t/font_1031158_u69w8yhxdu.woff?t=1630033759944") format("woff"), url("//at.alicdn.com/t/font_1031158_u69w8yhxdu.ttf?t=1630033759944") format("truetype"); }
</style></defs><path d="M87.04 287.232c-2.56 5.12-2.56 10.24-2.56 14.848s2.56 10.24 5.12 14.848c10.24-2.56 19.968-12.288 22.528-22.528 5.12-12.288 7.68-27.648 7.68-39.936v-7.68c-14.848 12.8-25.088 25.6-32.768 40.448zM44.544 332.8c0 5.12 0 10.24 2.56 14.848 2.56 12.288 7.68 19.968 17.408 27.648 5.12-7.68 7.68-14.848 7.68-22.528v-10.24c-5.12-15.36-12.8-29.696-22.528-42.496-3.584 10.752-5.12 21.504-5.12 32.768z m50.176 14.848c-7.68 7.68-12.288 17.408-12.288 27.648v2.56c12.288 2.56 22.528-2.56 30.208-10.24 12.288-12.288 19.968-25.088 27.648-39.936-16.896 2.56-32.768 9.216-45.568 19.968zM27.136 385.536c0 12.288 2.56 22.528 5.12 35.328s12.288 22.528 25.088 25.088c2.56-5.12 5.12-12.288 5.12-19.968 0-5.12 0-10.24-2.56-14.848-7.168-16.896-17.408-32.256-30.208-45.056-2.56 6.656-2.56 11.776-2.56 19.456z m55.296 29.696c-7.68 7.68-10.24 17.408-10.24 27.648V450.56c12.288 0 25.088-5.12 32.768-14.848 10.24-14.848 17.408-30.72 22.528-47.616-17.408 4.608-32.768 14.848-45.056 27.136zM27.136 508.416c5.12 12.288 17.408 22.528 30.208 25.088 2.56-5.12 2.56-10.24 2.56-17.408 0-7.68-2.56-14.848-5.12-22.528C44.544 476.16 30.72 461.824 14.336 450.56c0 19.968 5.12 37.888 12.8 57.856z m55.296-15.36c-4.608 7.68-7.168 16.384-7.68 25.088 0 5.12 0 10.24 2.56 12.8 14.848-2.56 27.648-10.24 32.768-22.528 10.24-17.408 14.848-37.888 17.408-57.856-16.896 12.288-32.256 26.624-45.056 42.496z m9.728 82.944c-2.56 5.12-2.56 12.288-2.56 17.408 0 7.68 2.56 17.408 7.68 25.088 14.848-5.12 25.088-17.408 30.208-30.208 5.12-12.288 5.12-25.088 5.12-39.936 0-7.68 0-17.408-2.56-25.088-15.36 15.36-28.16 33.28-37.888 52.736z m-52.736 27.648c10.24 12.288 25.088 17.408 39.936 17.408v-7.68c0-12.288-5.12-25.088-12.288-32.768-15.872-15.36-34.816-27.136-55.296-35.328 5.12 20.992 12.8 40.96 27.648 58.368z m82.944 50.176v12.288c0 12.288 5.12 25.088 12.288 32.768 14.848-7.68 25.088-22.528 27.648-37.888 0-5.12 2.56-12.288 2.56-17.408 0-17.408-2.56-35.328-7.68-52.736-17.408 20.48-29.696 40.448-34.816 62.976z m-52.736 40.448c12.8 12.288 27.648 17.408 45.056 12.288v-2.56c0-14.848-7.68-30.208-19.968-39.936-19.968-14.848-39.936-25.088-62.976-30.208 7.68 22.528 20.992 43.52 37.888 60.416z m95.232 37.376c-10.24 12.288-7.68 30.208 2.56 39.936 12.288 10.24 27.648 7.68 37.888-2.56 9.728-9.216 10.24-24.576 1.024-34.304l-1.024-1.024c-2.56-25.6-10.24-50.176-22.528-72.704-10.24 20.48-17.92 45.568-17.92 70.656z m55.296 43.008c0 10.24 0 19.968 2.56 30.208 2.56 19.968 17.408 35.328 35.328 42.496 7.68-10.24 12.288-22.528 12.288-37.376 0-5.12 0-12.8-2.56-17.408-10.24-27.648-22.528-50.176-42.496-72.704-2.56 19.456-5.12 36.864-5.12 54.784z m-102.912 7.168c14.848 10.24 32.768 10.24 50.176 5.12-2.56-17.408-12.288-32.768-30.208-39.936-22.528-10.24-47.616-17.408-72.704-17.408 12.8 19.968 30.208 39.936 52.736 52.224z m173.568 12.8c0 22.528 2.56 45.056 10.24 65.024 7.68 19.968 22.528 35.328 42.496 39.936 5.12-10.24 10.24-19.968 7.68-30.208 0-10.24-2.56-19.968-5.12-27.648-12.288-27.648-32.768-50.176-55.296-70.144v23.04z m100.352 110.592c10.24 19.968 30.208 30.208 52.736 32.768 2.56-7.68 5.12-14.848 5.12-19.968 0-14.848-5.12-27.648-12.288-39.936-19.968-25.088-42.496-45.056-70.144-60.416 2.048 29.696 9.216 59.904 24.576 87.552z m-273.92-77.824c19.968 19.968 45.056 35.328 70.144 45.056 10.24 14.848 27.648 17.408 42.496 10.24 14.848-10.24 17.408-27.648 10.24-42.496-7.68-12.288-25.088-17.408-37.888-10.24-27.648-7.168-56.832-8.192-84.992-2.56zM496.64 930.304c14.848 17.408 37.888 25.088 60.416 19.968v-7.68c0-19.968-10.24-39.936-25.088-52.736-25.6-20.48-55.808-35.328-88.064-42.496 12.288 32.768 30.208 60.416 52.736 82.944z m-306.688-30.208c25.088 17.408 53.248 30.208 82.944 37.376 12.288 12.8 32.768 14.848 45.056 2.56 12.288-12.288 14.848-32.768 2.56-45.056-10.24-12.288-27.648-14.848-42.496-5.12-30.208-5.12-60.416 0-88.064 10.24z m185.856 35.328c-30.72 5.12-60.416 15.36-88.064 30.208 27.648 12.288 60.416 19.968 90.112 19.968 14.848 12.288 35.328 10.24 47.616-5.12 12.288-14.848 10.24-35.328-5.12-47.616-14.336-10.24-31.744-7.68-44.544 2.56z m110.592 29.696c-30.208 12.8-58.368 30.72-82.944 52.736 32.768 5.12 65.024 5.12 97.792-2.56 17.408 7.68 37.888 0 47.616-17.408 7.68-17.408 0-37.888-17.408-47.616-17.408-5.12-34.816 2.56-45.056 14.848zM1008.64 247.296v7.68c0 14.848 2.56 27.648 7.68 39.936 5.12 10.24 12.288 19.968 22.528 22.528 2.56-5.12 5.12-10.24 5.12-14.848 0-5.12 0-10.24-2.56-14.848-9.728-14.848-20.48-28.16-32.768-40.448z m67.584 50.176c-9.728 12.8-17.408 27.136-22.528 42.496v10.24c0 7.68 2.56 14.848 7.68 22.528 10.24-5.12 17.408-14.848 17.408-27.648 0-5.12 2.56-10.24 2.56-14.848 0-10.24-2.56-22.528-5.12-32.768zM988.672 327.68c5.12 15.872 14.848 29.696 27.648 39.936 7.68 7.68 19.968 12.288 30.208 10.24v-2.56c0-10.24-5.12-19.968-12.288-27.648-15.36-10.24-30.72-17.408-45.568-19.968z m110.08 39.936c-12.288 12.288-25.088 27.648-30.208 45.056-2.56 5.12-2.56 10.24-2.56 14.848 0 7.68 2.56 14.848 5.12 19.968 12.288-5.12 19.968-14.848 25.088-25.088 2.56-10.24 5.12-22.528 5.12-35.328 0-9.216 0-14.336-2.56-19.456zM998.4 385.536c5.12 17.408 12.288 35.328 22.528 47.616 7.68 10.24 19.968 14.848 32.768 14.848V440.32c0-10.24-5.12-19.968-10.24-27.648-13.312-10.752-28.672-20.48-45.056-27.136z m113.152 62.464c-17.408 12.288-30.208 27.648-39.936 42.496-5.12 7.68-5.12 14.848-5.12 22.528 0 5.12 0 12.288 2.56 17.408 12.288-2.56 25.088-12.288 30.208-25.088 7.168-16.896 12.288-37.376 12.288-57.344z m-113.152 5.12c2.56 19.968 7.68 39.936 17.408 57.856 7.68 12.288 19.968 19.968 32.768 22.528 2.56-5.12 2.56-7.68 2.56-12.288 0-10.24-2.56-17.408-7.68-25.088-12.288-17.92-27.136-32.768-45.056-43.008z m-2.56 70.144c0 7.68-2.56 17.408-2.56 25.088 0 12.8 2.56 27.648 5.12 39.936 5.12 14.848 14.848 25.088 30.208 30.208 5.12-7.68 7.68-14.848 7.68-25.088 0-7.68 0-12.8-2.56-17.408-9.728-19.456-22.528-37.376-37.888-52.736z m120.832 22.528c-20.48 7.68-39.424 19.968-55.296 35.328-7.68 10.24-12.288 19.968-12.288 32.768v7.68c14.848 0 30.208-5.12 39.936-17.408 12.288-17.92 22.528-37.888 27.648-58.368z m-143.36 48.128c-5.12 16.896-7.68 34.816-7.68 52.736 0 5.12 0 12.288 2.56 17.408 2.56 14.848 12.288 30.208 27.648 37.888 7.68-10.24 12.288-19.968 12.288-32.768v-12.288c-9.728-25.6-19.456-45.568-34.816-62.976z m123.392 39.936c-22.528 5.12-45.056 14.848-62.976 30.208-12.288 10.24-19.968 25.088-19.968 39.936v2.56c14.848 2.56 32.768-2.56 45.056-12.288 15.36-18.432 28.16-38.4 37.888-60.416z m-153.6 25.088c-12.288 22.528-19.968 47.104-22.528 72.704-10.24 12.288-7.68 27.648 2.56 37.888 12.288 10.24 27.648 7.68 37.888-2.56 7.68-10.24 7.68-25.088 0-35.328 0-25.088-7.68-50.176-17.92-72.704z m-45.056 62.976c-18.432 21.504-32.768 46.08-42.496 72.704-2.56 5.12-2.56 12.288-2.56 17.408 0 12.288 5.12 25.088 12.288 37.888 17.408-7.68 30.208-25.088 35.328-42.496 2.56-10.24 2.56-19.968 2.56-30.208 2.56-20.48 0-37.888-5.12-55.296z m165.888 7.168c-25.088 0-50.176 7.68-72.704 17.408-14.848 7.68-27.648 22.528-30.208 39.936 17.408 7.68 35.328 5.12 50.176-5.12 19.968-11.776 37.376-31.744 52.736-52.224z m-228.352 43.008c-22.528 19.968-42.496 42.496-55.296 70.144-2.56 10.24-5.12 17.408-5.12 27.648 0 10.24 2.56 22.528 7.68 30.208 19.968-5.12 35.328-19.968 42.496-39.936 7.68-19.968 10.24-42.496 10.24-65.024v-23.04z m-73.216 42.496c-27.648 14.848-52.736 35.328-70.144 60.416-7.68 12.288-12.288 25.088-12.288 39.936 0 7.68 0 14.848 5.12 19.968 22.528-2.56 42.496-14.848 52.736-32.768 12.288-24.576 22.016-54.784 24.576-87.552z m163.328 12.8c-14.848-7.68-32.768 0-39.936 14.848-7.68 14.848 0 32.768 14.848 39.936 12.288 7.68 30.208 2.56 37.888-10.24 26.624-9.728 50.688-25.088 70.144-45.056-25.088-4.608-55.296-4.608-82.944 0.512z m-243.2 19.968c-32.768 7.68-60.416 22.528-88.064 42.496-14.848 12.288-25.088 32.768-25.088 52.736v7.68c22.016 5.12 45.568-2.56 60.416-19.968 22.528-22.528 39.936-50.176 52.736-82.944z m165.376 39.936c-14.848-10.24-35.328-5.12-45.056 10.24-10.24 14.848-5.12 35.328 10.24 45.056 12.288 7.68 32.768 5.12 42.496-5.12 29.696-7.168 57.856-19.968 82.944-37.888-30.208-9.728-60.416-14.848-90.624-12.288z m-155.648 70.656c12.288 17.408 32.768 27.648 55.296 27.648 31.232 0 61.952-7.168 90.112-19.968-27.648-14.848-57.344-25.088-88.064-30.208-19.456-2.56-41.984 7.168-57.344 22.528z m-117.76 17.408c7.68 19.968 25.088 37.888 47.616 42.496 32.768 7.68 65.024 7.68 97.792 2.56-22.528-22.528-50.176-39.936-82.944-52.736-19.968-9.728-42.496-5.12-62.464 7.68z" fill="#ACC1F0" p-id="7522"></path><path d="M361.472 391.68l203.264 203.264 376.832-378.88c7.68-8.192 12.288-18.944 12.288-30.208l-2.56-145.408c0-22.528-19.968-39.936-42.496-39.936H768c-11.264 0.512-22.016 4.608-30.208 12.288l-376.32 378.88z" fill="#7BA3FF" p-id="7523"></path><path d="M765.952 391.68l-203.264 203.264-376.32-378.88c-7.68-8.192-12.288-18.944-12.288-30.208l2.56-145.408c1.536-23.04 19.456-40.448 41.984-40.448h140.8c10.24 0 22.528 5.12 30.208 12.288l376.32 379.392z" fill="#B9CEFF" p-id="7524"></path><path d="M740.864 416.768l-378.88-378.88c-7.68-7.68-17.408-10.24-27.648-10.24l-140.8-2.56c-5.12 0-10.24 0-14.848 2.56C185.856 12.8 200.704 0 218.624 0h140.8c10.24 0 22.528 5.12 30.208 12.288l378.88 378.88-27.648 25.6z" fill="#E2EBFF" p-id="7525"></path><path d="M218.624 647.68c-0.512 189.44 152.576 343.552 342.016 344.064h2.048c189.44 0.512 343.552-152.576 344.064-342.016v-2.048c0.512-189.44-152.576-343.552-342.016-344.064h-2.048c-188.416 0-344.064 153.088-344.064 344.064z" fill="#CFDAF3" p-id="7526"></path><path d="M218.624 660.48v-12.288c0-90.624 35.328-178.176 100.352-243.712C383.488 339.968 471.04 303.616 562.176 303.616c90.112 0 178.176 35.328 243.712 100.352C870.4 468.48 906.24 556.032 906.24 647.68v12.288c-2.56-88.064-39.936-173.056-105.472-233.472C735.744 363.52 650.24 328.704 562.176 328.704c-90.112 0-175.616 35.328-238.592 97.792-65.024 60.416-102.4 145.92-104.96 233.984z" fill="#F2F6FF" p-id="7527"></path><path d="M697.856 529.92l100.352 133.12V650.24c0-130.56-105.472-236.032-236.032-236.032-130.048 0-236.032 105.472-236.032 235.52v0.512c0 108.032 75.264 203.264 180.736 228.352l-97.792-133.12 288.768-215.552z" fill="#8794BF" p-id="7528"></path><path d="M798.208 663.04c-7.68 130.56-117.76 228.352-248.32 220.672-12.288 0-27.648-2.56-39.936-5.12l85.504 115.712c128-12.288 241.152-95.232 288.768-216.064l-86.016-115.2z" fill="#769AED" p-id="7529"></path><path d="M798.208 663.04l-100.352-133.12-288.768 216.064 97.792 133.12c125.44 30.208 253.44-47.616 283.648-175.616 5.12-15.36 7.68-28.16 7.68-40.448z" fill="#658ADD" p-id="7530"></path><path d="M384 647.68c-0.512 99.328 79.872 180.224 179.2 180.736h1.536c99.328 0.512 180.224-79.872 180.736-179.2v-1.536c0.512-99.328-79.872-180.224-179.2-180.736h-1.536c-100.352 0-180.736 82.944-180.736 180.736z" fill="#CFDAF3" p-id="7531"></path><path d="M630.272 592.384c0 12.288-2.56 25.088-7.68 39.936l-22.528 45.056c-10.24 17.408-22.528 37.888-32.768 55.296h57.856v39.936H509.952v-32.768c17.408-30.208 27.648-50.176 32.768-62.976 7.68-12.288 14.848-27.648 25.088-47.616 5.12-12.288 10.24-22.528 12.288-27.648 2.56-5.12 2.56-10.24 2.56-17.408 0-12.288-5.12-17.408-12.288-17.408-5.12 0-7.68 2.56-10.24 7.68s-2.56 10.24-2.56 19.968v22.528h-47.616v-32.768c2.56-14.848 7.68-27.648 17.408-37.888 10.24-7.68 22.528-12.288 37.888-12.288 7.68 0 14.848 0 22.528 2.56 7.68 2.56 12.288 5.12 17.408 7.68 14.848 10.752 25.088 28.16 25.088 48.128z" fill="#8794BF" p-id="7532"></path></svg>