<?xml version="1.0" standalone="no"?><!DOCTYPE svg PUBLIC "-//W3C//DTD SVG 1.1//EN" "http://www.w3.org/Graphics/SVG/1.1/DTD/svg11.dtd"><svg t="1656317269836" class="icon" viewBox="0 0 1155 1024" version="1.1" xmlns="http://www.w3.org/2000/svg" p-id="7946" xmlns:xlink="http://www.w3.org/1999/xlink" width="225.5859375" height="200"><defs><style type="text/css">@font-face { font-family: feedback-iconfont; src: url("//at.alicdn.com/t/font_1031158_u69w8yhxdu.woff2?t=1630033759944") format("woff2"), url("//at.alicdn.com/t/font_1031158_u69w8yhxdu.woff?t=1630033759944") format("woff"), url("//at.alicdn.com/t/font_1031158_u69w8yhxdu.ttf?t=1630033759944") format("truetype"); }
</style></defs><path d="M88.064 264.704c-2.56 5.12-2.56 10.24-2.56 15.36s2.56 10.24 5.12 15.36c10.24-2.56 20.48-12.8 23.04-23.04 5.12-12.8 7.68-28.16 7.68-41.472v-7.68c-14.848 12.8-25.6 26.112-33.28 41.472z m-43.52 46.08c0 5.12 0 10.24 2.56 15.36 2.56 12.8 7.68 20.48 17.92 28.16 5.12-7.68 7.68-15.36 7.68-23.04v-10.24c-5.12-15.872-12.8-30.72-23.04-43.52-3.584 10.752-5.12 22.016-5.12 33.28z m51.2 15.36c-7.68 7.68-12.8 17.92-12.8 28.16v2.56c12.8 2.56 23.04-2.56 30.72-10.24 12.8-12.8 20.48-25.6 28.16-41.472-16.384 3.072-32.768 10.24-46.08 20.992zM26.624 365.056c0 12.8 2.56 23.04 5.12 35.84s12.8 23.04 25.6 25.6c2.56-5.12 5.12-12.8 5.12-20.48 0-5.12 0-10.24-2.56-15.36-7.168-17.408-17.92-32.768-30.72-46.592-2.56 8.192-2.56 13.312-2.56 20.992z m56.32 30.72c-7.68 7.68-10.24 17.92-10.24 28.16v7.68c12.8 0 25.6-5.12 33.28-15.36 10.24-14.848 17.92-31.744 23.04-49.152-17.408 5.632-33.28 15.872-46.08 28.672z m-56.32 95.232c5.12 12.8 17.92 23.04 30.72 25.6 2.56-5.12 2.56-10.24 2.56-17.92s-2.56-15.36-5.12-23.04c-10.24-17.408-24.576-32.256-40.96-43.52-0.512 20.48 5.12 38.4 12.8 58.88z m56.32-15.36c-5.12 7.68-7.68 16.384-7.68 25.6 0 5.12 0 10.24 2.56 12.8 15.36-2.56 28.16-10.24 33.28-23.04 10.24-17.92 15.36-38.4 17.92-59.392-16.896 12.8-32.256 27.648-46.08 44.032z m10.24 84.992c-2.56 5.12-2.56 12.8-2.56 17.92 0 7.68 2.56 17.92 7.68 25.6 15.36-5.12 25.6-17.92 30.72-30.72s5.12-25.6 5.12-41.472c0-7.68 0-17.92-2.56-25.6-15.36 15.872-28.16 34.304-38.4 54.272zM39.424 588.8c10.24 12.8 25.6 17.92 41.472 17.92V599.04c0-12.8-5.12-25.6-12.8-33.28-16.384-15.872-35.328-28.16-56.832-35.84 5.12 20.48 12.8 40.96 28.16 58.88z m84.992 51.712v12.8c0 12.8 5.12 25.6 12.8 33.28 15.36-7.68 25.6-23.04 28.16-38.4 0-5.12 2.56-12.8 2.56-17.92 0-17.92-2.56-35.84-7.68-54.272-17.92 20.992-30.72 41.472-35.84 64.512z m-54.272 40.96c12.8 12.8 28.16 17.92 46.592 12.8v-2.56c0-15.36-7.68-30.72-20.48-40.96-20.48-15.36-40.96-25.6-64.512-30.72 7.68 23.04 20.992 44.544 38.4 61.44z m97.792 38.912c-10.24 12.8-7.68 30.72 2.56 41.472 12.8 10.24 28.16 7.68 38.4-2.56 9.728-9.728 10.24-25.088 1.024-35.328l-1.024-1.024c-2.56-26.112-10.24-51.712-23.04-74.752-10.24 20.48-17.92 46.592-17.92 72.192z m56.832 43.52c0 10.24 0 20.48 2.56 30.72 2.56 20.48 17.92 35.84 35.84 43.52 7.68-10.24 12.8-23.04 12.8-38.4 0-5.12 0-12.8-2.56-17.92-10.24-28.16-23.04-51.712-43.52-74.752-2.56 20.992-5.12 38.912-5.12 56.832z m-105.472 7.68c15.36 10.24 33.28 10.24 51.712 5.12-2.56-17.92-12.8-33.28-30.72-41.472-23.04-10.24-49.152-17.92-74.752-17.92 12.288 20.992 30.208 41.472 53.76 54.272z m177.664 13.312c0 23.04 2.56 46.592 10.24 67.072s23.04 35.84 43.52 41.472c5.12-10.24 10.24-20.48 7.68-30.72 0-10.24-2.56-20.48-5.12-28.16-12.8-28.16-33.28-51.712-56.832-72.192v22.528h0.512z m102.912 113.152c10.24 20.48 30.72 30.72 54.272 33.28 2.56-7.68 5.12-15.36 5.12-20.48 0-15.36-5.12-28.16-12.8-40.96-20.48-25.6-44.032-46.592-72.192-61.952 2.56 30.72 10.24 61.952 25.6 90.112z m-280.576-79.872c20.48 20.48 46.592 35.84 72.192 46.592 10.24 15.36 28.16 17.92 43.52 10.24 15.36-10.24 17.92-28.16 10.24-43.52-7.68-12.8-25.6-17.92-38.4-10.24-28.672-7.68-58.88-8.704-87.552-3.072z m388.608 105.472c15.36 17.92 38.912 26.112 61.952 20.48v-7.68c0-20.48-10.24-41.472-25.6-54.272-26.624-20.992-57.344-35.84-90.112-43.52 12.8 33.792 30.72 61.952 53.76 84.992z m-313.856-30.72c25.6 17.92 54.272 31.232 84.992 38.4 12.8 12.8 33.28 15.36 46.592 2.56 12.8-12.8 15.36-33.28 2.56-46.592-10.24-12.8-28.16-15.36-43.52-5.12-31.744-4.608-62.464 0.512-90.624 10.752z m190.464 35.84c-31.744 5.12-61.952 15.872-90.112 30.72 28.16 12.8 61.952 20.48 92.672 20.48 15.36 12.8 35.84 10.24 49.152-5.12 12.8-15.36 10.24-35.84-5.12-49.152-15.872-9.728-33.792-7.168-46.592 3.072z m113.152 31.232c-31.232 13.312-59.904 31.232-84.992 54.272 33.28 5.12 67.072 5.12 100.352-2.56 17.92 7.68 38.4 0 49.152-17.92 7.68-17.92 0-38.4-17.92-49.152-18.432-5.632-36.352 2.56-46.592 15.36zM1033.216 223.232v7.68c0 15.36 2.56 28.16 7.68 41.472 5.12 10.24 12.8 20.48 23.04 23.04 2.56-5.12 5.12-10.24 5.12-15.36s0-10.24-2.56-15.36c-9.728-14.848-20.48-28.672-33.28-41.472z m69.632 51.712c-10.24 13.312-17.92 28.16-23.04 43.52v10.24c0 7.68 2.56 15.36 7.68 23.04 10.24-5.12 17.92-15.36 17.92-28.16 0-5.12 2.56-10.24 2.56-15.36 0-10.24-2.56-23.04-5.12-33.28z m-90.112 30.72c5.632 15.872 15.36 30.208 28.16 41.472 7.68 7.68 20.48 12.8 30.72 10.24v-2.56c0-10.24-5.12-20.48-12.8-28.16-15.36-10.752-30.72-18.432-46.08-20.992z m113.152 41.472c-12.8 12.8-25.6 28.16-30.72 46.592-2.56 5.12-2.56 10.24-2.56 15.36 0 7.68 2.56 15.36 5.12 20.48 12.8-5.12 20.48-15.36 25.6-25.6 2.56-10.24 5.12-23.04 5.12-35.84 0-10.752 0-15.872-2.56-20.992z m-102.912 17.92c5.12 17.92 12.8 35.84 23.04 49.152 7.68 10.24 20.48 15.36 33.28 15.36v-7.68c0-10.24-5.12-20.48-10.24-28.16-13.824-11.776-29.184-21.504-46.08-28.672z m115.712 64.512c-17.92 12.8-30.72 28.16-41.472 43.52-5.12 7.68-5.12 15.36-5.12 23.04 0 5.12 0 12.8 2.56 17.92 12.8-2.56 25.6-12.8 30.72-25.6 8.192-17.92 13.312-38.4 13.312-58.88z m-115.712 5.12c2.56 20.48 7.68 41.472 17.92 59.392 7.68 12.8 20.48 20.48 33.28 23.04 2.56-5.12 2.56-7.68 2.56-12.8 0-10.24-2.56-17.92-7.68-25.6-12.8-18.432-28.16-33.792-46.08-44.032z m-2.56 71.68c0 7.68-2.56 17.92-2.56 25.6 0 12.8 2.56 28.16 5.12 41.472 5.12 15.36 15.36 25.6 30.72 30.72 5.12-7.68 7.68-15.36 7.68-25.6 0-7.68 0-12.8-2.56-17.92-9.728-19.968-22.528-38.4-38.4-54.272z m123.392 23.552c-20.992 8.192-40.448 20.48-56.832 35.84-7.68 10.24-12.8 20.48-12.8 33.28v7.68c15.36 0 30.72-5.12 40.96-17.92 13.312-17.92 23.552-38.4 28.672-58.88z m-146.432 48.64c-5.12 17.408-7.68 35.84-7.68 54.272 0 5.12 0 12.8 2.56 17.92 2.56 15.36 12.8 30.72 28.16 38.4 7.68-10.24 12.8-20.48 12.8-33.28v-12.8c-10.24-25.6-20.48-46.08-35.84-64.512z m125.952 41.472c-23.04 5.12-46.592 15.36-64.512 30.72-12.8 10.24-20.48 25.6-20.48 41.472v2.56c15.36 2.56 33.28-2.56 46.592-12.8 15.872-18.944 28.672-39.936 38.4-61.952z m-157.184 25.6c-12.8 23.04-20.48 48.64-23.04 74.752-10.24 12.8-7.68 28.16 2.56 38.4 12.8 10.24 28.16 7.68 38.4-2.56 7.68-10.24 7.68-25.6 0-35.84 0.512-25.6-7.68-51.712-17.92-74.752z m-46.08 64.512c-18.944 22.016-33.792 47.104-43.52 74.752-2.56 5.12-2.56 12.8-2.56 17.92 0 12.8 5.12 25.6 12.8 38.4 17.92-7.68 30.72-25.6 35.84-43.52 2.56-10.24 2.56-20.48 2.56-30.72 2.56-20.992 0-38.912-5.12-56.832z m169.984 7.68c-25.6 0-51.712 7.68-74.752 17.92-15.36 7.68-28.16 23.04-30.72 41.472 17.92 7.68 35.84 5.12 51.712-5.12 19.968-13.312 38.4-33.792 53.76-54.272z m-234.496 43.52c-23.04 20.48-44.032 43.52-56.832 72.192-2.56 10.24-5.12 17.92-5.12 28.16s2.56 23.04 7.68 30.72c20.48-5.12 35.84-20.48 43.52-41.472 7.68-20.48 10.24-43.52 10.24-67.072v-22.528z m-74.752 44.032c-28.16 15.36-54.272 35.84-72.192 61.952-7.68 12.8-12.8 25.6-12.8 41.472 0 7.68 0 15.36 5.12 20.48 23.04-2.56 44.032-15.36 54.272-33.28 12.8-26.112 23.04-57.344 25.6-90.624z m167.424 12.8c-15.36-7.68-33.28 0-40.96 15.36s0 33.28 15.36 40.96c12.8 7.68 30.72 2.56 38.4-10.24 27.136-9.728 51.712-25.6 72.192-46.592-25.6-4.608-56.832-4.608-84.992 0.512z m-249.856 20.48c-33.28 7.68-61.952 23.04-90.112 44.032-15.36 12.8-25.6 33.28-25.6 54.272v7.68c23.04 5.12 46.592-2.56 61.952-20.48 23.04-23.552 40.96-51.712 53.76-85.504z m169.984 41.472c-15.36-10.24-35.84-5.12-46.592 10.24-10.24 15.36-5.12 35.84 10.24 46.592 12.8 7.68 33.28 5.12 43.52-5.12 30.72-7.68 59.392-20.48 84.992-38.4-30.208-10.752-60.928-15.872-92.16-13.312zM708.608 952.32c12.8 17.92 33.28 28.16 56.832 28.16 32.256 0 63.488-7.168 92.672-20.48-28.16-15.36-58.368-25.6-90.112-30.72-20.48-3.072-43.52 7.168-59.392 23.04z m-120.832 17.92c7.68 20.48 25.6 38.4 49.152 43.52 33.28 7.68 67.072 7.68 100.352 2.56-23.04-23.04-51.712-40.96-84.992-54.272-20.48-9.728-44.032-4.608-64.512 8.192z m5.12-400.896c28.16-0.512 52.736-7.168 73.216-19.456 20.992-12.288 36.864-25.6 48.128-39.936 12.8-14.848 21.504-32.256 27.136-51.2 5.12-19.456 7.68-47.616 7.68-83.968 0-23.552-0.512-43.52-2.048-59.392-1.536-15.872-4.096-29.184-7.68-40.448-7.168-20.48-18.432-38.4-33.792-53.248-10.752-11.776-24.064-21.504-40.96-29.184-18.944-7.168-38.912-11.264-59.392-11.776-32.768-0.512-64 10.752-89.6 30.72V84.48h223.232V4.096H438.784V307.2h75.776c9.728-17.408 20.48-29.184 32.256-36.352 12.288-6.656 25.6-10.24 39.936-10.24 16.384 0 30.208 2.56 40.96 7.168 11.264 5.632 19.456 13.312 25.088 22.528 10.752 19.968 15.36 46.08 14.848 77.824 0 13.312 0 26.624-0.512 40.448-1.024 13.312-3.584 26.624-8.704 39.424-4.608 12.288-12.288 22.016-23.04 29.184-11.776 7.68-27.136 11.776-46.08 11.776-45.056-0.512-71.68-22.528-80.384-65.536H429.056c7.68 51.712 27.648 88.576 59.392 112.128 31.744 22.528 66.048 33.792 104.448 33.792z" fill="#DCDCE5" p-id="7947"></path></svg>