<?xml version="1.0" standalone="no"?><!DOCTYPE svg PUBLIC "-//W3C//DTD SVG 1.1//EN" "http://www.w3.org/Graphics/SVG/1.1/DTD/svg11.dtd"><svg t="1656317311238" class="icon" viewBox="0 0 1155 1024" version="1.1" xmlns="http://www.w3.org/2000/svg" p-id="8486" xmlns:xlink="http://www.w3.org/1999/xlink" width="225.5859375" height="200"><defs><style type="text/css">@font-face { font-family: feedback-iconfont; src: url("//at.alicdn.com/t/font_1031158_u69w8yhxdu.woff2?t=1630033759944") format("woff2"), url("//at.alicdn.com/t/font_1031158_u69w8yhxdu.woff?t=1630033759944") format("woff"), url("//at.alicdn.com/t/font_1031158_u69w8yhxdu.ttf?t=1630033759944") format("truetype"); }
</style></defs><path d="M89.271795 267.211487c-2.625641 5.251282-2.625641 10.502564-2.625641 15.753846s2.625641 10.502564 5.251282 15.753846c10.502564-2.625641 21.005128-13.128205 23.630769-23.630769 5.251282-13.128205 7.876923-28.882051 7.876923-42.010256v-7.876923c-15.753846 13.128205-26.25641 26.25641-34.133333 42.010256z m-44.635898 44.635898c0 5.251282 0 10.502564 2.625641 15.753846 2.625641 13.128205 7.876923 21.005128 18.379488 28.882051 5.251282-7.876923 7.876923-15.753846 7.876923-23.630769v-10.502564c-5.251282-15.753846-13.128205-31.507692-23.63077-44.635898-2.625641 7.876923-5.251282 21.005128-5.251282 34.133334z m52.512821 15.753846c-7.876923 7.876923-13.128205 18.379487-13.128205 28.882051v2.625641c13.128205 2.625641 23.630769-2.625641 31.507692-10.502564 13.128205-13.128205 21.005128-26.25641 28.882051-42.010256-21.005128 2.625641-34.133333 10.502564-47.261538 21.005128z m-70.892308 39.384615c0 13.128205 2.625641 23.630769 5.251282 36.758975 2.625641 13.128205 13.128205 23.630769 26.256411 26.25641 2.625641-5.251282 5.251282-13.128205 5.251282-21.005128 0-5.251282 0-10.502564-2.625641-15.753847-7.876923-18.379487-18.379487-34.133333-31.507693-47.261538-2.625641 7.876923-2.625641 13.128205-2.625641 21.005128z m57.764103 31.507692c-7.876923 7.876923-10.502564 18.379487-10.502564 28.882052v7.876923c13.128205 0 26.25641-5.251282 34.133333-15.753846 10.502564-15.753846 18.379487-31.507692 23.630769-49.88718-21.005128 5.251282-34.133333 15.753846-47.261538 28.882051z m-57.764103 94.523077c5.251282 13.128205 18.379487 23.630769 31.507693 26.256411 2.625641-5.251282 2.625641-10.502564 2.625641-18.379488s-2.625641-15.753846-5.251282-23.630769c-10.502564-18.379487-26.25641-34.133333-42.010257-44.635897 0 21.005128 5.251282 39.384615 13.128205 60.389743z m57.764103-15.753846c-5.251282 7.876923-7.876923 18.379487-7.876923 26.25641 0 5.251282 0 10.502564 2.625641 13.128206 15.753846-2.625641 28.882051-10.502564 34.133333-23.63077 10.502564-18.379487 15.753846-39.384615 18.379487-60.389743-21.005128 13.128205-34.133333 28.882051-47.261538 44.635897z m10.502564 84.020513c-2.625641 5.251282-2.625641 13.128205-2.625641 18.379487 0 7.876923 2.625641 18.379487 7.876923 26.25641 15.753846-5.251282 26.25641-18.379487 31.507692-31.507692 5.251282-13.128205 5.251282-26.25641 5.251282-42.010256 0-7.876923 0-18.379487-2.625641-26.25641-18.379487 18.379487-28.882051 36.758974-39.384615 55.138461z m-55.138462 28.882051c10.502564 13.128205 26.25641 18.379487 42.010257 18.379488v-7.876924c0-13.128205-5.251282-26.25641-13.128205-34.133333-15.753846-15.753846-36.758974-28.882051-57.764103-36.758974 5.251282 21.005128 13.128205 42.010256 28.882051 60.389743z m84.020513 52.512821v13.128205c0 13.128205 5.251282 26.25641 13.128205 34.133333 15.753846-7.876923 26.25641-23.630769 28.882052-39.384615 0-5.251282 2.625641-13.128205 2.625641-18.379487 0-18.379487-2.625641-36.758974-7.876923-55.138462-18.379487 21.005128-31.507692 42.010256-36.758975 65.641026z m-52.51282 39.384615c13.128205 13.128205 28.882051 18.379487 47.261538 13.128205v-2.625641c0-15.753846-7.876923-31.507692-21.005128-42.010256-21.005128-15.753846-42.010256-26.25641-65.641026-31.507692 7.876923 26.25641 21.005128 47.261538 39.384616 63.015384z m97.148718 39.384616c-10.502564 13.128205-7.876923 31.507692 2.625641 42.010256 13.128205 10.502564 28.882051 7.876923 39.384615-2.625641s10.502564-26.25641 0-36.758974c-2.625641-26.25641-10.502564-52.512821-23.630769-73.517949-10.502564 21.005128-18.379487 44.635897-18.379487 70.892308z m57.764102 44.635897c0 10.502564 0 21.005128 2.625641 31.507692 2.625641 21.005128 18.379487 36.758974 36.758975 44.635898 7.876923-10.502564 13.128205-23.630769 13.128205-39.384616 0-5.251282 0-13.128205-2.625641-18.379487-10.502564-28.882051-23.630769-52.512821-44.635898-73.517948-2.625641 18.379487-5.251282 36.758974-5.251282 55.138461z m-107.651282 7.876923c15.753846 10.502564 34.133333 10.502564 52.512821 5.251282-2.625641-18.379487-13.128205-34.133333-31.507693-42.010256-23.630769-10.502564-49.887179-18.379487-73.517948-18.379487 13.128205 21.005128 31.507692 42.010256 52.51282 55.138461z m178.54359 13.128205c0 23.630769 2.625641 47.261538 10.502564 65.641026s23.630769 36.758974 44.635897 42.010256c5.251282-10.502564 10.502564-21.005128 7.876924-31.507692 0-10.502564-2.625641-21.005128-5.251283-28.882051-13.128205-28.882051-34.133333-52.512821-57.764102-70.892308v23.630769z m102.4 112.902564c10.502564 21.005128 31.507692 31.507692 55.138461 34.133334 2.625641-7.876923 5.251282-15.753846 5.251282-21.005129 0-15.753846-5.251282-28.882051-13.128205-42.010256-21.005128-26.25641-44.635897-47.261538-70.892307-63.015385 2.625641 31.507692 7.876923 63.015385 23.630769 91.897436z m-280.94359-81.394871c21.005128 21.005128 47.261538 36.758974 70.892308 47.261538 10.502564 15.753846 28.882051 18.379487 44.635897 10.502564 15.753846-10.502564 18.379487-28.882051 10.502564-44.635897-7.876923-13.128205-26.25641-18.379487-39.384615-10.502564-28.882051-7.876923-57.764103-7.876923-86.646154-2.625641z m391.220513 107.651282c15.753846 18.379487 39.384615 26.25641 63.015385 21.005128v-7.876923c0-21.005128-10.502564-42.010256-26.256411-55.138462-26.25641-21.005128-57.764103-36.758974-89.271795-44.635897 10.502564 34.133333 28.882051 63.015385 52.512821 86.646154z m-315.076923-31.507693c26.25641 18.379487 55.138462 31.507692 84.020513 39.384616 13.128205 13.128205 34.133333 15.753846 47.261538 2.625641s15.753846-34.133333 2.625641-47.261539c-10.502564-13.128205-28.882051-15.753846-44.635897-5.251282-31.507692-5.251282-60.389744 0-89.271795 10.502564z m189.046154 36.758975c-31.507692 5.251282-63.015385 15.753846-89.271795 31.507692 28.882051 13.128205 63.015385 21.005128 91.897436 21.005128 15.753846 13.128205 36.758974 10.502564 49.887179-5.251282 13.128205-15.753846 10.502564-36.758974-5.251282-49.887179-15.753846-10.502564-34.133333-7.876923-47.261538 2.625641z m115.528205 28.882051c-31.507692 13.128205-60.389744 31.507692-84.020513 55.138461 34.133333 5.251282 65.641026 5.251282 99.774359-2.625641 18.379487 7.876923 39.384615 0 49.88718-18.379487 7.876923-18.379487 0-39.384615-18.379488-49.887179-21.005128-2.625641-36.758974 2.625641-47.261538 15.753846z m535.630769-735.179487v7.876923c0 15.753846 2.625641 28.882051 7.876923 42.010256 5.251282 10.502564 13.128205 21.005128 23.630769 23.630769 2.625641-5.251282 5.251282-10.502564 5.251282-15.753846s0-10.502564-2.625641-15.753846c-13.128205-15.753846-23.630769-28.882051-34.133333-42.010256z m68.266667 52.51282c-10.502564 13.128205-18.379487 28.882051-23.630769 44.635898v10.502564c0 7.876923 2.625641 15.753846 7.876923 23.630769 10.502564-5.251282 18.379487-15.753846 18.379487-28.882051 0-5.251282 2.625641-10.502564 2.625641-15.753846 0-13.128205-2.625641-26.25641-5.251282-34.133334z m-89.271795 28.882052c5.251282 15.753846 15.753846 31.507692 28.882051 42.010256 7.876923 7.876923 21.005128 13.128205 31.507692 10.502564v-2.625641c0-10.502564-5.251282-21.005128-13.128205-28.882051-15.753846-10.502564-31.507692-18.379487-47.261538-21.005128z m112.902564 42.010256c-13.128205 13.128205-26.25641 28.882051-31.507692 47.261538-2.625641 5.251282-2.625641 10.502564-2.625641 15.753847 0 7.876923 2.625641 15.753846 5.251282 21.005128 13.128205-5.251282 21.005128-15.753846 26.25641-26.25641 2.625641-10.502564 5.251282-23.630769 5.251282-36.758975 0-10.502564 0-15.753846-2.625641-21.005128z m-102.4 18.379487c5.251282 18.379487 13.128205 36.758974 23.630769 49.88718 7.876923 10.502564 21.005128 15.753846 34.133334 15.753846v-7.876923c0-10.502564-5.251282-21.005128-10.502565-28.882052-15.753846-10.502564-28.882051-21.005128-47.261538-28.882051z m115.528205 63.015385c-18.379487 13.128205-31.507692 28.882051-42.010256 44.635897-5.251282 7.876923-5.251282 15.753846-5.251282 23.630769 0 5.251282 0 13.128205 2.625641 18.379488 13.128205-2.625641 26.25641-13.128205 31.507692-26.256411 7.876923-18.379487 13.128205-39.384615 13.128205-60.389743z m-115.528205 5.251282c2.625641 21.005128 7.876923 42.010256 18.379487 60.389743 7.876923 13.128205 21.005128 21.005128 34.133334 23.63077 2.625641-5.251282 2.625641-7.876923 2.625641-13.128205 0-10.502564-2.625641-18.379487-7.876924-26.256411-15.753846-18.379487-28.882051-34.133333-47.261538-44.635897z m-2.625641 73.517949c0 7.876923-2.625641 18.379487-2.625641 26.25641 0 13.128205 2.625641 28.882051 5.251282 42.010256 5.251282 15.753846 15.753846 26.25641 31.507692 31.507693 5.251282-7.876923 7.876923-15.753846 7.876923-26.256411 0-7.876923 0-13.128205-2.625641-18.379487-13.128205-21.005128-23.630769-39.384615-39.384615-55.138461z m123.405128 23.630769c-21.005128 7.876923-42.010256 21.005128-57.764102 36.758974-7.876923 10.502564-13.128205 21.005128-13.128206 34.133333v5.251283c15.753846 0 31.507692-5.251282 42.010257-18.379488 13.128205-18.379487 23.630769-39.384615 28.882051-57.764102z m-147.035897 47.261538c-5.251282 18.379487-7.876923 36.758974-7.876923 55.138462 0 5.251282 0 13.128205 2.625641 18.379487 2.625641 15.753846 13.128205 31.507692 28.882051 39.384615 7.876923-10.502564 13.128205-21.005128 13.128205-34.133333v-13.128205c-10.502564-26.25641-21.005128-47.261538-36.758974-65.641026z m126.030769 42.010257c-23.630769 5.251282-47.261538 15.753846-65.641026 31.507692-13.128205 10.502564-21.005128 26.25641-21.005128 42.010256v2.625641c15.753846 2.625641 34.133333-2.625641 47.261539-13.128205 15.753846-18.379487 28.882051-39.384615 39.384615-63.015384z m-157.538462 26.25641c-13.128205 23.630769-21.005128 49.887179-23.630769 73.517949-10.502564 13.128205-7.876923 28.882051 2.625641 39.384615 13.128205 10.502564 28.882051 7.876923 39.384616-2.625641 7.876923-10.502564 7.876923-26.25641 0-36.758974 0-26.25641-7.876923-49.887179-18.379488-73.517949z m-47.261538 63.015385c-18.379487 21.005128-34.133333 47.261538-44.635897 73.517948-2.625641 5.251282-2.625641 13.128205-2.625641 18.379487 0 13.128205 5.251282 26.25641 13.128205 39.384616 18.379487-7.876923 31.507692-26.25641 36.758974-44.635898 2.625641-10.502564 2.625641-21.005128 2.625641-31.507692 2.625641-18.379487 0-36.758974-5.251282-55.138461z m170.666667 7.876923c-26.25641 0-52.512821 7.876923-73.517949 18.379487-15.753846 7.876923-28.882051 23.630769-31.507692 42.010256 18.379487 7.876923 36.758974 5.251282 52.51282-5.251282 18.379487-13.128205 36.758974-34.133333 52.512821-55.138461z m-233.682052 44.635897c-23.630769 21.005128-44.635897 44.635897-57.764102 70.892308-2.625641 10.502564-5.251282 18.379487-5.251282 28.882051s2.625641 23.630769 7.876923 31.507692c21.005128-5.251282 36.758974-21.005128 44.635897-42.010256 7.876923-21.005128 10.502564-44.635897 10.502564-65.641026v-23.630769z m-76.143589 44.635897c-28.882051 15.753846-55.138462 36.758974-70.892308 63.015385-7.876923 13.128205-13.128205 26.25641-13.128205 42.010256 0 7.876923 0 15.753846 5.251282 21.005129 23.630769-2.625641 44.635897-15.753846 55.138461-34.133334 13.128205-28.882051 21.005128-60.389744 23.63077-91.897436z m168.041025 10.502565c-15.753846-7.876923-34.133333 0-42.010256 15.753846s0 34.133333 15.753846 42.010256c13.128205 7.876923 31.507692 2.625641 39.384615-10.502564 28.882051-10.502564 52.512821-26.25641 70.892308-47.261538-23.630769-5.251282-55.138462-5.251282-84.020513 0z m-249.435897 21.005128c-34.133333 7.876923-63.015385 23.630769-89.271795 44.635897-15.753846 13.128205-26.25641 34.133333-26.25641 55.138462v7.876923c23.630769 5.251282 47.261538-2.625641 63.015384-21.005128 21.005128-23.630769 39.384615-52.512821 52.512821-86.646154z m170.666666 42.010256c-15.753846-10.502564-36.758974-5.251282-47.261538 10.502564-10.502564 15.753846-5.251282 36.758974 10.502564 47.261539 13.128205 7.876923 34.133333 5.251282 44.635898-5.251282 31.507692-7.876923 60.389744-21.005128 84.020512-39.384616-31.507692-10.502564-60.389744-15.753846-91.897436-13.128205z m-160.164102 70.892308c13.128205 18.379487 34.133333 28.882051 57.764102 28.882051 34.133333 0 65.641026-7.876923 91.897436-21.005128-28.882051-15.753846-60.389744-26.25641-89.271794-31.507692-21.005128 0-44.635897 10.502564-60.389744 23.630769z m-120.779487 18.379487c7.876923 21.005128 26.25641 39.384615 49.887179 44.635897 34.133333 7.876923 65.641026 7.876923 99.774359 2.625642-23.630769-23.630769-52.512821-42.010256-84.020513-55.138462-21.005128-10.502564-44.635897-5.251282-65.641025 7.876923zM575.015385 566.534564c23.630769-49.887179 47.261538-94.523077 65.641025-133.907692 7.876923-15.753846 15.753846-34.133333 23.630769-49.88718s15.753846-31.507692 21.005129-44.635897 13.128205-26.25641 15.753846-34.133333 7.876923-15.753846 7.876923-18.379488c5.251282-10.502564 7.876923-21.005128 10.502564-28.882051s5.251282-18.379487 7.876923-26.25641 5.251282-18.379487 5.251282-28.882051 2.625641-21.005128 5.251282-34.133334v-31.507692c0-13.128205-5.251282-23.630769-10.502564-36.758974s-10.502564-26.25641-21.005128-36.758975-10.502564-23.630769-23.630769-34.133333-28.882051-15.753846-47.261539-21.005128-39.384615-5.251282-63.015384-5.251282c-21.005128 2.625641-39.384615 7.876923-55.138462 15.753846s-28.882051 15.753846-42.010256 26.25641-21.005128 21.005128-26.256411 34.133333-13.128205 21.005128-18.379487 31.507693-5.251282 18.379487-7.876923 26.25641 0 13.128205-2.625641 13.128205V198.944821c0 5.251282 0 10.502564 2.625641 21.005128 2.625641 7.876923 5.251282 18.379487 7.876923 28.882051s7.876923 21.005128 15.753846 31.507692 13.128205 21.005128 23.63077 28.882052 21.005128 15.753846 34.133333 21.005128 26.25641 7.876923 44.635897 10.502564h31.507693c7.876923 0 18.379487-2.625641 26.25641-7.876923-5.251282 7.876923-10.502564 21.005128-18.379487 34.133333s-15.753846 31.507692-26.256411 49.88718-18.379487 36.758974-26.25641 55.138461-18.379487 34.133333-26.25641 49.88718l-2.625641 5.251282c-5.251282 13.128205-10.502564 21.005128-15.753846 28.882051-5.251282 10.502564-7.876923 13.128205-5.251282 13.128205h89.271795z m10.502564-299.323077h-5.251282c-18.379487 0-34.133333-5.251282-44.635898-13.128205s-18.379487-15.753846-23.630769-26.25641-7.876923-21.005128-7.876923-34.133334-5.251282-23.630769-5.251282-34.133333c0-2.625641 0-7.876923 2.625641-15.753846s5.251282-15.753846 13.128205-26.25641 13.128205-15.753846 23.630769-23.63077 23.630769-10.502564 39.384616-13.128205c13.128205 0 26.25641 0 36.758974 2.625641s18.379487 7.876923 23.630769 13.128206 10.502564 13.128205 13.128205 21.005128l7.876923 23.630769c2.625641 7.876923 2.625641 15.753846 2.625641 23.630769v21.005128c0 2.625641 0 7.876923-2.625641 13.128206s-2.625641 13.128205-5.251282 18.379487c-2.625641 5.251282-7.876923 13.128205-10.502564 18.379487s-10.502564 10.502564-15.753846 15.753846-13.128205 7.876923-21.005128 10.502564-15.753846 5.251282-26.25641 2.625641l5.251282 2.625641z" fill="#DCDCE5" p-id="8487"></path></svg>