<?xml version="1.0" standalone="no"?><!DOCTYPE svg PUBLIC "-//W3C//DTD SVG 1.1//EN" "http://www.w3.org/Graphics/SVG/1.1/DTD/svg11.dtd"><svg t="1656317158410" class="icon" viewBox="0 0 1100 1024" version="1.1" xmlns="http://www.w3.org/2000/svg" p-id="7376" xmlns:xlink="http://www.w3.org/1999/xlink" width="214.84375" height="200"><defs><style type="text/css">@font-face { font-family: feedback-iconfont; src: url("//at.alicdn.com/t/font_1031158_u69w8yhxdu.woff2?t=1630033759944") format("woff2"), url("//at.alicdn.com/t/font_1031158_u69w8yhxdu.woff?t=1630033759944") format("woff"), url("//at.alicdn.com/t/font_1031158_u69w8yhxdu.ttf?t=1630033759944") format("truetype"); }
</style></defs><path d="M84.48 305.152c-2.56 5.12-2.56 9.728-2.56 14.848s2.56 9.728 5.12 14.848c9.728-2.56 19.456-12.288 22.016-22.016 4.608-12.288 7.168-25.6 7.168-39.424V266.24c-14.848 11.776-24.576 24.064-31.744 38.912z m-41.984 44.032c0 5.12 0 9.728 2.56 14.848 2.56 12.288 7.168 19.456 16.896 27.136 5.12-7.168 7.168-14.848 7.168-22.016v-9.728c-5.12-14.848-12.288-29.184-22.016-41.472-2.56 9.728-4.096 20.48-4.608 31.232z m49.152 14.848c-7.168 7.168-12.288 16.896-12.288 27.136v2.56c12.288 2.56 22.016-2.56 29.184-9.728 12.288-12.288 19.456-24.576 27.136-39.424-15.872 2.048-31.232 8.704-44.032 19.456zM25.6 400.384c0 12.288 2.56 22.016 5.12 34.304 2.56 12.288 12.288 22.016 24.576 24.576 2.56-5.12 5.12-12.288 5.12-19.456 0-5.12 0-9.728-2.56-14.848-6.656-16.384-16.896-31.232-29.184-44.032-3.072 7.168-3.072 12.288-3.072 19.456zM79.36 430.08c-7.168 7.168-9.728 16.896-9.728 27.136v7.168c12.288 0 24.576-5.12 31.744-14.848 9.728-14.848 16.896-29.184 22.016-46.592-16.896 5.12-31.744 14.848-44.032 27.136zM25.6 520.704c5.12 12.288 16.896 22.016 29.184 24.576 2.56-5.12 2.56-9.728 2.56-16.896s-2.56-14.848-5.12-22.016c-9.728-16.896-23.04-30.72-39.424-41.472 0.512 18.944 5.632 36.352 12.8 55.808z m53.76-14.848c-5.12 7.168-7.168 16.896-7.168 24.576 0 5.12 0 9.728 2.56 12.288 14.848-2.56 27.136-9.728 31.744-22.016 9.728-16.896 14.848-36.864 16.896-56.32-16.384 11.776-31.232 26.112-44.032 41.472z m9.728 80.896c-2.048 5.12-2.048 12.288-2.048 17.408 0 7.168 2.56 16.896 7.168 24.576 14.848-5.12 24.576-16.896 29.184-29.184 5.12-12.288 5.12-24.576 5.12-38.912 0-7.168 0-16.896-2.56-24.576-14.848 14.336-27.136 31.744-36.864 50.688z m-51.2 27.136c9.728 12.288 24.576 16.896 39.424 16.896v-7.168c0-12.288-5.12-24.576-12.288-31.744-15.36-14.848-33.792-26.624-53.76-34.304 4.608 19.456 11.776 38.912 26.624 56.32z m80.896 49.152v12.288c0 12.288 5.12 24.576 12.288 31.744 14.336-7.168 24.064-20.992 27.136-36.864 0-5.12 2.56-12.288 2.56-16.896 0-16.896-2.56-34.304-7.168-51.2-17.92 18.944-30.208 38.4-34.816 60.928z m-51.712 38.912c12.288 12.288 27.136 16.896 44.032 12.288v-2.56c0-14.848-7.168-29.184-19.456-39.424-19.456-14.848-39.424-24.576-61.44-29.184 7.68 22.528 20.48 42.496 36.864 58.88z m93.184 36.864c-9.728 12.288-7.168 29.184 2.56 39.424 12.288 9.728 27.136 7.168 36.864-2.56 9.728-9.216 9.728-24.064 1.024-33.28l-1.024-1.024c-2.56-25.088-9.728-49.152-22.016-71.168-9.728 19.456-17.408 44.032-17.408 68.608z m54.272 41.472c0 9.728 0 19.456 2.56 29.184 2.56 19.456 16.896 34.304 34.304 41.472 7.168-9.728 12.288-22.016 12.288-36.864 0-5.12 0-12.288-2.56-16.896-9.728-27.136-22.016-49.152-41.472-71.168-3.072 19.968-5.12 37.376-5.12 54.272z m-100.864 7.68c14.848 9.728 31.744 9.728 49.152 5.12-2.56-16.896-12.288-31.744-29.184-39.424-22.016-9.728-46.592-16.896-71.168-16.896 12.288 18.944 29.184 38.912 51.2 51.2z m169.472 12.288c0 22.016 2.56 44.032 9.728 63.488 7.168 19.456 22.016 34.304 41.472 38.912 5.12-9.728 9.728-19.456 7.168-29.184 0-9.728-2.56-19.456-5.12-27.136-12.288-27.136-31.744-49.152-53.76-68.608v22.528h0.512z m97.792 107.52c9.728 19.456 29.184 29.184 51.2 31.744 2.56-7.168 5.12-14.848 5.12-19.456 0-14.848-5.12-27.136-12.288-39.424-19.456-24.576-41.472-44.032-68.608-58.88 2.56 29.696 9.728 58.88 24.576 86.016z m-267.264-75.776c19.456 19.456 44.032 34.304 68.608 44.032 9.728 14.848 27.136 16.896 41.472 9.728 14.848-9.728 16.896-27.136 9.728-41.472-7.168-12.288-24.576-16.896-36.864-9.728-26.624-7.168-55.296-8.192-82.944-2.56z m370.176 100.352c14.848 16.896 36.864 24.576 58.88 19.456v-7.168c0-19.456-9.728-39.424-24.576-51.2-25.088-19.968-54.272-34.304-85.504-41.472 11.776 31.232 29.184 58.368 51.2 80.384z m-299.008-29.184c24.576 16.896 51.712 29.696 80.896 36.864 12.288 12.288 31.744 14.848 44.032 2.56 12.288-12.288 14.848-31.744 2.56-44.032-9.728-12.288-27.136-14.848-41.472-5.12-29.696-5.12-58.88-0.512-86.016 9.728z m181.248 34.304c-30.208 5.12-58.88 14.848-85.504 29.184 27.136 12.288 58.88 19.456 88.064 19.456 14.848 12.288 34.304 9.728 46.592-5.12 12.288-14.848 9.728-34.304-5.12-46.592-14.336-9.216-31.744-7.168-44.032 3.072z m108.032 29.184c-29.696 12.288-56.832 29.696-80.896 51.2 31.744 5.12 63.488 5.12 95.744-2.56 16.896 7.168 36.864 0 46.592-16.896 7.168-16.896 0-36.864-16.896-46.592-17.92-4.608-34.816 2.56-44.544 14.848z m509.44-700.928v7.168c0 14.848 2.56 27.136 7.168 39.424 5.12 9.728 12.288 19.456 22.016 22.016 2.56-5.12 5.12-9.728 5.12-14.848s0-9.728-2.56-14.848c-8.704-13.824-19.456-27.136-31.744-38.912z m66.56 49.152c-9.728 12.288-17.408 26.624-22.016 41.472v9.728c0 7.168 2.56 14.848 7.168 22.016 9.728-5.12 16.896-14.848 16.896-27.136 0-5.12 2.56-9.728 2.56-14.848 0-9.216-2.56-21.504-4.608-31.232z m-86.016 29.184c5.12 15.36 14.336 28.672 27.136 39.424 7.168 7.168 19.456 12.288 29.184 9.728v-2.56c0-9.728-5.12-19.456-12.288-27.136-14.336-9.728-29.184-16.896-44.032-19.456z m108.032 39.424c-12.288 12.288-24.576 27.136-29.184 44.032-2.56 5.12-2.56 9.728-2.56 14.848 0 7.168 2.56 14.848 5.12 19.456 12.288-5.12 19.456-14.848 24.576-24.576 2.56-9.728 5.12-22.016 5.12-34.304-1.024-9.728-1.024-14.848-3.072-19.456z m-98.304 16.896c5.12 16.896 12.288 34.304 22.016 46.592 7.168 9.728 19.456 14.848 31.744 14.848v-7.168c0-9.728-5.12-19.456-9.728-27.136-13.312-10.752-28.16-19.968-44.032-27.136z m110.592 61.44c-16.896 12.288-29.184 27.136-39.424 41.472-5.12 7.168-5.12 14.848-5.12 22.016 0 5.12 0 12.288 2.56 16.896 13.312-3.072 24.064-12.288 29.184-24.576 7.68-16.384 12.8-36.352 12.8-55.808z m-110.592 5.12c2.56 19.456 7.168 39.424 16.896 56.32 7.168 11.264 18.432 19.456 31.744 22.016 2.56-5.12 2.56-7.168 2.56-12.288 0-9.728-2.56-16.896-7.168-24.576-12.288-17.408-26.624-31.744-44.032-41.472z m-2.56 68.608c0 7.168-2.56 16.896-2.56 24.576 0 12.288 2.56 27.136 5.12 39.424 5.12 14.848 14.848 24.576 29.184 29.184 5.12-7.168 7.168-14.848 7.168-24.576 0-7.168 0-12.288-2.56-16.896-8.704-19.456-20.992-36.864-36.352-51.712z m117.76 22.016c-19.968 7.68-38.4 19.456-53.76 34.304-7.168 9.728-12.288 19.456-12.288 31.744v7.168c14.848 0 29.184-5.12 39.424-16.896 11.776-17.408 22.016-36.864 26.624-56.32z m-139.776 46.592c-4.608 16.896-7.168 33.792-7.168 51.2 0 5.12 0 12.288 2.56 16.896 2.56 15.872 12.8 29.184 27.136 36.864 7.168-9.728 12.288-19.456 12.288-31.744v-12.288c-10.24-24.576-19.968-44.032-34.816-60.928z m120.32 38.912c-22.016 5.12-44.032 14.848-61.44 29.184-12.288 9.728-19.456 24.576-19.456 39.424v2.56c14.848 2.56 31.744-2.56 44.032-12.288 14.848-17.92 27.648-37.376 36.864-58.88z m-149.504 24.576c-12.288 22.016-19.456 46.08-22.016 71.168-9.728 12.288-7.168 27.136 2.56 36.864 12.288 9.728 27.136 7.168 36.864-2.56 7.168-10.24 7.168-24.064 0-34.304-0.512-24.576-7.68-49.152-17.408-71.168z m-44.032 61.44c-17.92 20.992-32.256 45.056-41.472 71.168-2.56 5.12-2.56 12.288-2.56 16.896 0 12.288 5.12 24.576 12.288 36.864 16.896-7.168 29.184-24.576 34.304-41.472 2.56-9.728 2.56-19.456 2.56-29.184 2.048-19.968-0.512-37.376-5.12-54.272z m161.792 7.168c-24.576 0-49.152 7.168-71.168 16.896-14.848 7.168-27.136 22.016-29.184 39.424 16.896 7.168 34.304 5.12 49.152-5.12 18.944-11.776 36.352-31.744 51.2-51.2z m-223.232 41.472c-22.016 19.456-41.472 41.472-53.76 68.608-2.56 9.728-5.12 16.896-5.12 27.136 0 9.728 2.56 22.016 7.168 29.184 19.456-5.12 34.304-19.456 41.472-39.424 7.168-19.456 9.728-41.472 9.728-63.488l0.512-22.016z m-71.168 41.984c-27.136 14.848-51.2 34.304-68.608 58.88-7.168 12.288-12.288 24.576-12.288 39.424 0 7.168 0 14.848 5.12 19.456 22.016-2.56 41.472-14.848 51.2-31.744 12.288-25.088 22.528-54.272 24.576-86.016z m159.232 12.288c-14.848-7.168-31.744 0-39.424 14.848-7.168 14.848 0 31.744 14.848 39.424 12.288 7.168 29.184 2.56 36.864-9.728 26.112-9.216 49.152-24.576 68.608-44.032-24.064-5.632-53.76-5.632-80.896-0.512z m-237.568 19.456c-31.744 7.168-58.88 22.016-85.504 41.472-14.848 12.288-24.576 31.744-24.576 51.2v7.168c21.504 5.12 44.544-2.56 58.88-19.456 22.016-21.504 38.912-48.64 51.2-80.384z m161.792 39.424c-14.848-9.728-34.304-5.12-44.032 9.728-9.728 14.848-5.12 34.304 9.728 44.032 12.288 7.168 31.744 5.12 41.472-5.12 29.184-7.168 56.32-19.456 80.896-36.864-29.184-9.728-58.88-14.336-88.064-11.776z m-152.064 68.608c12.288 16.896 31.744 27.136 53.76 27.136 30.72 0 60.416-6.656 88.064-19.456-26.624-14.336-55.808-24.576-85.504-29.184-19.456-3.072-41.472 6.656-56.32 21.504z m-115.2 16.896c7.168 19.456 24.576 36.864 46.592 41.472 31.744 7.168 63.488 7.168 95.744 2.56-22.016-22.016-49.152-39.424-80.896-51.2-19.456-9.728-41.472-5.12-61.44 7.168z" fill="#FFC936" p-id="7377"></path><path d="M352.256 382.464l198.656 198.656 367.616-370.176c7.168-7.168 12.288-19.456 12.288-29.184l-2.56-142.336c0-22.016-19.456-39.424-41.472-39.424h-137.216c-9.728 0-22.016 5.12-29.184 12.288L352.256 382.464z" fill="#D11111" p-id="7378"></path><path d="M746.496 382.464L547.84 581.12 180.736 210.944c-7.68-8.192-11.776-18.432-12.288-29.184l2.56-142.336c2.048-22.528 19.456-39.424 41.472-39.424h137.216c9.728 0 22.016 5.12 29.184 12.288 0.512 0 367.616 370.176 367.616 370.176z" fill="#F44336" p-id="7379"></path><path d="M722.432 406.528L352.256 36.864c-7.168-7.168-16.896-9.728-27.136-9.728l-137.216-2.56c-5.12 0-9.728 0-14.848 2.56C180.736 12.288 195.584 0 212.48 0h137.216c9.728 0 22.016 5.12 29.184 12.288l370.176 370.176-26.624 24.064z" fill="#FFB99F" p-id="7380"></path><path d="M212.48 632.32c0 186.368 149.504 335.872 335.872 335.872s335.872-149.504 335.872-335.872-149.504-335.872-335.872-335.872c-183.808 0-335.872 149.504-335.872 335.872z" fill="#FFD138" p-id="7381"></path><path d="M212.48 644.608v-12.288c0-88.064 34.304-174.08 97.792-237.568C373.248 331.776 458.752 296.448 547.84 296.96c88.064 0 174.08 34.304 237.568 97.792 62.976 62.976 98.304 148.48 97.792 237.568v12.288c-2.56-85.504-39.424-168.96-102.912-227.84-63.488-61.44-146.944-95.744-232.96-95.744-88.064 0-171.52 34.304-232.96 95.744-62.464 58.88-99.328 141.824-101.888 227.84z" fill="#FFF9B5" p-id="7382"></path><path d="M680.448 517.12l97.792 130.048V634.88c0-126.976-102.912-230.4-229.888-230.4h-0.512c-126.976 0-230.4 102.912-230.4 229.888v0.512c0 105.472 73.728 198.656 176.64 222.72l-95.744-130.048 282.112-210.432z" fill="#FF8900" p-id="7383"></path><path d="M778.752 647.168c-7.168 127.488-115.2 223.232-242.688 215.552-12.288 0-27.136-2.56-39.424-5.12l83.456 112.64c124.928-12.288 235.008-93.184 281.6-210.944l-82.944-112.128z" fill="#FFB300" p-id="7384"></path><path d="M778.752 647.168L680.448 517.12l-281.6 210.944 95.744 130.048c122.368 29.184 247.296-46.592 276.992-171.52 4.608-15.36 7.168-27.648 7.168-39.424z" fill="#ED5B00" p-id="7385"></path><path d="M374.272 632.32c-0.512 97.28 77.824 176.128 175.104 176.64h1.536c97.28 0.512 176.128-77.824 176.64-175.104v-1.536c0.512-97.28-77.824-176.128-175.104-176.64h-1.536c-98.304 0-176.64 80.896-176.64 176.64z" fill="#FFCA28" p-id="7386"></path><path d="M582.656 754.688h-56.32v-144.384c0-7.168-2.56-14.848-5.12-16.896-5.12-5.12-12.288-5.12-22.016-5.12h-7.168v-27.136c12.288-2.56 24.064-7.168 34.304-14.848 7.168-5.12 16.896-12.288 24.576-22.016h34.304v230.4h-2.56z" fill="#ED5B00" p-id="7387"></path></svg>