<?xml version="1.0" standalone="no"?><!DOCTYPE svg PUBLIC "-//W3C//DTD SVG 1.1//EN" "http://www.w3.org/Graphics/SVG/1.1/DTD/svg11.dtd"><svg t="1656317276095" class="icon" viewBox="0 0 1155 1024" version="1.1" xmlns="http://www.w3.org/2000/svg" p-id="8081" xmlns:xlink="http://www.w3.org/1999/xlink" width="225.5859375" height="200"><defs><style type="text/css">@font-face { font-family: feedback-iconfont; src: url("//at.alicdn.com/t/font_1031158_u69w8yhxdu.woff2?t=1630033759944") format("woff2"), url("//at.alicdn.com/t/font_1031158_u69w8yhxdu.woff?t=1630033759944") format("woff"), url("//at.alicdn.com/t/font_1031158_u69w8yhxdu.ttf?t=1630033759944") format("truetype"); }
</style></defs><path d="M88.064 267.264c-2.56 5.12-2.56 10.24-2.56 15.36s2.56 10.24 5.12 15.36c10.24-2.56 20.48-12.8 23.04-23.04 5.12-12.8 7.68-28.16 7.68-41.472v-7.68c-14.848 13.312-25.6 26.112-33.28 41.472z m-43.52 46.592c0 5.12 0 10.24 2.56 15.36 2.56 12.8 7.68 20.48 17.92 28.16 5.12-7.68 7.68-15.36 7.68-23.04v-10.24c-5.12-15.872-12.8-30.72-23.04-43.52-3.584 10.752-5.12 22.016-5.12 33.28z m51.2 15.36c-7.68 7.68-12.8 17.92-12.8 28.16v2.56c12.8 2.56 23.04-2.56 30.72-10.24 12.8-12.8 20.48-25.6 28.16-41.472-16.384 3.072-32.768 10.24-46.08 20.992zM26.624 368.128c0 12.8 2.56 23.04 5.12 35.84s12.8 23.04 25.6 25.6c2.56-5.12 5.12-12.8 5.12-20.48 0-5.12 0-10.24-2.56-15.36-7.168-17.408-17.92-32.768-30.72-46.592-2.56 7.68-2.56 12.8-2.56 20.992z m56.32 30.72c-7.68 7.68-10.24 17.92-10.24 28.16v7.68c12.8 0 25.6-5.12 33.28-15.36 10.24-14.848 17.92-31.744 23.04-49.152-17.408 5.632-33.28 15.872-46.08 28.672z m-56.32 95.232c5.12 12.8 17.92 23.04 30.72 25.6 2.56-5.12 2.56-10.24 2.56-17.92s-2.56-15.36-5.12-23.04c-10.24-17.408-24.576-32.256-40.96-43.52-0.512 20.48 5.12 38.4 12.8 58.88z m56.32-15.36c-5.12 7.68-7.68 16.384-7.68 25.6 0 5.12 0 10.24 2.56 12.8 15.36-2.56 28.16-10.24 33.28-23.04 10.24-17.92 15.36-38.4 17.92-59.392-16.896 12.8-32.256 27.648-46.08 44.032z m10.24 84.992c-2.56 5.12-2.56 12.8-2.56 17.92 0 7.68 2.56 17.92 7.68 25.6 15.36-5.12 25.6-17.92 30.72-30.72s5.12-25.6 5.12-41.472c0-7.68 0-17.92-2.56-25.6-15.36 15.872-28.16 34.304-38.4 54.272z m-53.76 28.16c10.24 12.8 25.6 17.92 41.472 17.92v-7.68c0-12.8-5.12-25.6-12.8-33.28-16.384-15.872-35.328-28.16-56.832-35.84 5.12 20.48 12.8 40.96 28.16 58.88z m84.992 51.712v12.8c0 12.8 5.12 25.6 12.8 33.28 15.36-7.68 25.6-23.04 28.16-38.4 0-5.12 2.56-12.8 2.56-17.92 0-17.92-2.56-35.84-7.68-54.272-17.92 20.48-30.72 40.96-35.84 64.512z m-54.272 40.96c12.8 12.8 28.16 17.92 46.592 12.8v-2.56c0-15.36-7.68-30.72-20.48-40.96-20.48-15.36-40.96-25.6-64.512-30.72 7.68 23.04 20.992 44.032 38.4 61.44z m97.792 38.912c-10.24 12.8-7.68 30.72 2.56 41.472 12.8 10.24 28.16 7.68 38.4-2.56 9.728-9.728 10.24-25.088 1.024-35.328l-1.024-1.024c-2.56-26.112-10.24-51.712-23.04-74.752-10.24 20.48-17.92 46.08-17.92 72.192z m56.832 43.52c0 10.24 0 20.48 2.56 30.72 2.56 20.48 17.92 35.84 35.84 43.52 7.68-10.24 12.8-23.04 12.8-38.4 0-5.12 0-12.8-2.56-17.92-10.24-28.16-23.04-51.712-43.52-74.752-2.56 20.992-5.12 38.912-5.12 56.832z m-105.472 7.68c15.36 10.24 33.28 10.24 51.712 5.12-2.56-17.92-12.8-33.28-30.72-41.472-23.04-10.24-49.152-17.92-74.752-17.92 12.288 20.992 30.208 41.472 53.76 54.272z m177.664 12.8c0 23.04 2.56 46.592 10.24 67.072s23.04 35.84 43.52 41.472c5.12-10.24 10.24-20.48 7.68-30.72 0-10.24-2.56-20.48-5.12-28.16-12.8-28.16-33.28-51.712-56.832-72.192v22.528h0.512zM399.872 901.12c10.24 20.48 30.72 30.72 54.272 33.28 2.56-7.68 5.12-15.36 5.12-20.48 0-15.36-5.12-28.16-12.8-40.96-20.48-25.6-44.032-46.592-72.192-61.952 2.56 30.72 10.24 61.44 25.6 90.112z m-280.576-79.872c20.48 20.48 46.592 35.84 72.192 46.592 10.24 15.36 28.16 17.92 43.52 10.24 15.36-10.24 17.92-28.16 10.24-43.52-7.68-12.8-25.6-17.92-38.4-10.24-28.672-7.68-58.88-8.704-87.552-3.072zM507.904 926.72c15.36 17.92 38.912 26.112 61.952 20.48v-7.68c0-20.48-10.24-41.472-25.6-54.272-26.624-20.992-57.344-35.84-90.112-43.52 12.8 33.28 30.72 61.952 53.76 84.992z m-313.856-30.72c25.6 17.92 54.272 31.232 84.992 38.4 12.8 12.8 33.28 15.36 46.592 2.56 12.8-12.8 15.36-33.28 2.56-46.592-10.24-12.8-28.16-15.36-43.52-5.12-31.744-5.12-62.464 0-90.624 10.752z m190.464 35.84c-31.744 5.12-61.952 15.872-90.112 30.72 28.16 12.8 61.952 20.48 92.672 20.48 15.36 12.8 35.84 10.24 49.152-5.12 12.8-15.36 10.24-35.84-5.12-49.152-15.872-9.728-33.792-7.168-46.592 3.072z m113.152 30.72c-31.232 13.312-59.904 31.232-84.992 54.272 33.28 5.12 67.072 5.12 100.352-2.56 17.92 7.68 38.4 0 49.152-17.92 7.68-17.92 0-38.4-17.92-49.152-18.432-5.12-36.352 2.56-46.592 15.36zM1033.216 226.304v7.68c0 15.36 2.56 28.16 7.68 41.472 5.12 10.24 12.8 20.48 23.04 23.04 2.56-5.12 5.12-10.24 5.12-15.36s0-10.24-2.56-15.36c-9.728-15.36-20.48-29.184-33.28-41.472z m69.632 51.712c-10.24 13.312-17.92 28.16-23.04 43.52v10.24c0 7.68 2.56 15.36 7.68 23.04 10.24-5.12 17.92-15.36 17.92-28.16 0-5.12 2.56-10.24 2.56-15.36 0-10.24-2.56-23.04-5.12-33.28z m-90.112 30.72c5.632 15.872 15.36 30.208 28.16 41.472 7.68 7.68 20.48 12.8 30.72 10.24v-2.56c0-10.24-5.12-20.48-12.8-28.16-15.36-10.752-30.72-18.432-46.08-20.992z m113.152 40.96c-12.8 12.8-25.6 28.16-30.72 46.592-2.56 5.12-2.56 10.24-2.56 15.36 0 7.68 2.56 15.36 5.12 20.48 12.8-5.12 20.48-15.36 25.6-25.6 2.56-10.24 5.12-23.04 5.12-35.84 0-10.752 0-15.872-2.56-20.992z m-102.912 18.432c5.12 17.92 12.8 35.84 23.04 49.152 7.68 10.24 20.48 15.36 33.28 15.36V424.96c0-10.24-5.12-20.48-10.24-28.16-13.824-12.288-29.184-21.504-46.08-28.672z m115.712 64c-17.92 12.8-30.72 28.16-41.472 43.52-5.12 7.68-5.12 15.36-5.12 23.04 0 5.12 0 12.8 2.56 17.92 12.8-2.56 25.6-12.8 30.72-25.6 8.192-17.408 13.312-38.4 13.312-58.88z m-115.712 5.12c2.56 20.48 7.68 41.472 17.92 59.392 7.68 12.8 20.48 20.48 33.28 23.04 2.56-5.12 2.56-7.68 2.56-12.8 0-10.24-2.56-17.92-7.68-25.6-12.8-17.92-28.16-33.792-46.08-44.032z m-2.56 72.192c0 7.68-2.56 17.92-2.56 25.6 0 12.8 2.56 28.16 5.12 41.472 5.12 15.36 15.36 25.6 30.72 30.72 5.12-7.68 7.68-15.36 7.68-25.6 0-7.68 0-12.8-2.56-17.92-9.728-19.968-22.528-38.4-38.4-54.272z m123.392 23.04c-20.992 8.192-40.448 20.48-56.832 35.84-7.68 10.24-12.8 20.48-12.8 33.28v7.68c15.36 0 30.72-5.12 40.96-17.92 13.312-17.408 23.552-37.888 28.672-58.88z m-146.432 49.152c-5.12 17.408-7.68 35.84-7.68 54.272 0 5.12 0 12.8 2.56 17.92 2.56 15.36 12.8 30.72 28.16 38.4 7.68-10.24 12.8-20.48 12.8-33.28v-12.8c-10.24-26.112-20.48-46.592-35.84-64.512z m125.952 40.96c-23.04 5.12-46.592 15.36-64.512 30.72-12.8 10.24-20.48 25.6-20.48 41.472v2.56c15.36 2.56 33.28-2.56 46.592-12.8 15.872-18.432 28.672-39.424 38.4-61.952z m-157.184 26.112c-12.8 23.04-20.48 48.64-23.04 74.752-10.24 12.8-7.68 28.16 2.56 38.4 12.8 10.24 28.16 7.68 38.4-2.56 7.68-10.24 7.68-25.6 0-35.84 0.512-26.112-7.68-51.712-17.92-74.752z m-46.08 64c-18.944 22.016-33.792 47.104-43.52 74.752-2.56 5.12-2.56 12.8-2.56 17.92 0 12.8 5.12 25.6 12.8 38.4 17.92-7.68 30.72-25.6 35.84-43.52 2.56-10.24 2.56-20.48 2.56-30.72 2.56-20.48 0-38.4-5.12-56.832z m169.984 8.192c-25.6 0-51.712 7.68-74.752 17.92-15.36 7.68-28.16 23.04-30.72 41.472 17.92 7.68 35.84 5.12 51.712-5.12 19.968-13.312 38.4-33.792 53.76-54.272z m-234.496 43.52c-23.04 20.48-44.032 43.52-56.832 72.192-2.56 10.24-5.12 17.92-5.12 28.16s2.56 23.04 7.68 30.72c20.48-5.12 35.84-20.48 43.52-41.472 7.68-20.48 10.24-43.52 10.24-67.072v-22.528z m-74.752 44.032c-28.16 15.36-54.272 35.84-72.192 61.952-7.68 12.8-12.8 25.6-12.8 41.472 0 7.68 0 15.36 5.12 20.48 23.04-2.56 44.032-15.36 54.272-33.28 12.8-26.624 23.04-57.344 25.6-90.624z m167.424 12.8c-15.36-7.68-33.28 0-40.96 15.36s0 33.28 15.36 40.96c12.8 7.68 30.72 2.56 38.4-10.24 27.136-9.728 51.712-25.6 72.192-46.592-25.6-4.608-56.832-4.608-84.992 0.512z m-249.856 20.48c-33.28 7.68-61.952 23.04-90.112 44.032-15.36 12.8-25.6 33.28-25.6 54.272v7.68c23.04 5.12 46.592-2.56 61.952-20.48 23.04-23.552 40.96-52.224 53.76-85.504z m169.984 40.96c-15.36-10.24-35.84-5.12-46.592 10.24-10.24 15.36-5.12 35.84 10.24 46.592 12.8 7.68 33.28 5.12 43.52-5.12 30.72-7.68 59.392-20.48 84.992-38.4-30.208-10.752-60.928-15.872-92.16-13.312z m-159.744 72.192c12.8 17.92 33.28 28.16 56.832 28.16 32.256 0 63.488-7.168 92.672-20.48-28.16-15.36-58.368-25.6-90.112-30.72-20.48-2.56-43.52 7.68-59.392 23.04z m-120.832 17.92c7.68 20.48 25.6 38.4 49.152 43.52 33.28 7.68 67.072 7.68 100.352 2.56-23.04-23.04-51.712-40.96-84.992-54.272-20.48-9.728-44.032-4.608-64.512 8.192z m-47.616-405.504c17.92 5.12 38.4 6.656 61.952 4.608 22.528-1.536 41.472-6.656 57.856-14.336 14.848-7.168 29.184-16.384 40.96-27.648 11.264-10.752 20.48-22.016 27.136-33.792 6.656-11.776 12.288-23.04 15.872-33.28 3.584-10.24 6.144-19.456 7.68-27.136 1.536-7.68 2.048-12.288 2.56-13.824 0.512-3.584 0.512-7.68 0.512-13.312v-37.376c-0.512-16.384-4.096-32.768-9.728-48.128-4.096-10.752-8.704-20.992-14.848-30.208-6.656-10.752-14.336-19.968-23.552-28.16-10.24-8.704-21.504-15.872-33.792-20.992-13.312-5.632-28.672-8.704-46.592-9.216-10.752-0.512-21.504-0.512-32.256 0.512-8.704 0.512-17.408 3.584-25.088 7.68 3.584-6.144 8.192-14.336 13.312-24.576 5.632-10.24 11.264-21.504 17.92-34.304 13.824-26.624 27.648-53.76 40.96-80.896 6.656-13.824 13.312-26.624 19.456-38.912 6.144-12.288 11.776-23.04 16.384-32.768l10.752-22.528c2.56-5.632 4.096-8.192 3.584-8.192h-90.624c-25.088 50.176-47.104 95.232-67.072 135.68-8.704 17.408-16.896 34.816-25.6 51.712-8.704 16.896-15.872 32.256-23.04 46.592l-16.896 35.328c-4.608 9.728-7.68 15.872-8.704 18.432-4.096 10.24-7.68 19.968-10.752 28.672-6.144 17.92-11.264 36.352-14.848 54.784-1.536 9.728-3.584 20.992-5.12 33.792-1.024 8.704-0.512 18.944 1.024 30.72 4.096 27.136 14.336 53.248 30.72 75.776 8.704 12.288 19.456 23.552 32.768 32.768 13.824 9.728 29.184 17.408 47.104 22.528z m54.272-77.824c-14.336 0-26.112-2.048-35.84-5.632-8.704-3.072-16.896-7.68-23.552-13.824-6.144-5.632-10.752-12.288-14.336-19.456-3.072-7.168-5.632-14.848-7.168-22.528-1.536-7.68-2.048-15.36-2.56-23.552-0.512-7.68-0.512-14.848-0.512-21.504 0-3.072 0.512-6.656 2.048-12.288 1.536-5.12 3.584-10.752 6.144-16.896 3.072-6.144 6.656-12.288 11.264-18.432 4.608-6.144 9.728-11.776 15.872-16.896 6.144-5.12 13.312-8.704 20.992-11.776 8.192-2.56 16.896-3.584 26.624-3.072 20.992 1.536 36.864 6.144 48.128 13.824 11.264 7.68 19.456 16.896 24.576 27.648 5.12 10.752 7.68 22.016 8.704 33.792 1.024 11.776 1.024 22.528 1.024 32.256-0.512 9.216-2.56 17.92-5.632 26.624-2.56 6.144-5.632 12.288-9.216 17.92-4.096 6.144-9.216 11.776-14.848 16.896-6.656 5.12-13.824 9.728-22.016 12.288-8.192 3.584-18.432 5.12-29.696 4.608z" fill="#DCDCE5" p-id="8082"></path></svg>