<?xml version="1.0" standalone="no"?><!DOCTYPE svg PUBLIC "-//W3C//DTD SVG 1.1//EN" "http://www.w3.org/Graphics/SVG/1.1/DTD/svg11.dtd"><svg t="1658905328545" class="icon" viewBox="0 0 1155 1024" version="1.1" xmlns="http://www.w3.org/2000/svg" p-id="7370" xmlns:xlink="http://www.w3.org/1999/xlink" width="225.5859375" height="200"><defs><style type="text/css">@font-face { font-family: feedback-iconfont; src: url("//at.alicdn.com/t/font_1031158_u69w8yhxdu.woff2?t=1630033759944") format("woff2"), url("//at.alicdn.com/t/font_1031158_u69w8yhxdu.woff?t=1630033759944") format("woff"), url("//at.alicdn.com/t/font_1031158_u69w8yhxdu.ttf?t=1630033759944") format("truetype"); }
</style></defs><path d="M88.064 264.704c-2.56 5.12-2.56 10.24-2.56 15.36s2.56 10.24 5.12 15.36c10.24-2.56 20.48-12.8 23.04-23.04 5.12-12.8 7.68-28.16 7.68-41.472v-7.68c-14.848 12.8-25.6 26.112-33.28 41.472zM44.544 310.784c0 5.12 0 10.24 2.56 15.36 2.56 12.8 7.68 20.48 17.92 28.16 5.12-7.68 7.68-15.36 7.68-23.04v-10.24c-5.12-15.872-12.8-30.72-23.04-43.52-3.584 10.752-5.12 22.016-5.12 33.28zM95.744 326.144c-7.68 7.68-12.8 17.92-12.8 28.16v2.56c12.8 2.56 23.04-2.56 30.72-10.24 12.8-12.8 20.48-25.6 28.16-41.472-16.384 3.072-32.768 10.24-46.08 20.992zM26.624 365.056c0 12.8 2.56 23.04 5.12 35.84s12.8 23.04 25.6 25.6c2.56-5.12 5.12-12.8 5.12-20.48 0-5.12 0-10.24-2.56-15.36-7.168-17.408-17.92-32.768-30.72-46.592-2.56 8.192-2.56 13.312-2.56 20.992zM82.944 395.776c-7.68 7.68-10.24 17.92-10.24 28.16v7.68c12.8 0 25.6-5.12 33.28-15.36 10.24-14.848 17.92-31.744 23.04-49.152-17.408 5.632-33.28 15.872-46.08 28.672zM26.624 491.008c5.12 12.8 17.92 23.04 30.72 25.6 2.56-5.12 2.56-10.24 2.56-17.92s-2.56-15.36-5.12-23.04c-10.24-17.408-24.576-32.256-40.96-43.52-0.512 20.48 5.12 38.4 12.8 58.88zM82.944 475.648c-5.12 7.68-7.68 16.384-7.68 25.6 0 5.12 0 10.24 2.56 12.8 15.36-2.56 28.16-10.24 33.28-23.04 10.24-17.92 15.36-38.4 17.92-59.392-16.896 12.8-32.256 27.648-46.08 44.032zM93.184 560.64c-2.56 5.12-2.56 12.8-2.56 17.92 0 7.68 2.56 17.92 7.68 25.6 15.36-5.12 25.6-17.92 30.72-30.72s5.12-25.6 5.12-41.472c0-7.68 0-17.92-2.56-25.6-15.36 15.872-28.16 34.304-38.4 54.272zM39.424 588.8c10.24 12.8 25.6 17.92 41.472 17.92V599.04c0-12.8-5.12-25.6-12.8-33.28-16.384-15.872-35.328-28.16-56.832-35.84 5.12 20.48 12.8 40.96 28.16 58.88zM124.416 640.512v12.8c0 12.8 5.12 25.6 12.8 33.28 15.36-7.68 25.6-23.04 28.16-38.4 0-5.12 2.56-12.8 2.56-17.92 0-17.92-2.56-35.84-7.68-54.272-17.92 20.992-30.72 41.472-35.84 64.512zM70.144 681.472c12.8 12.8 28.16 17.92 46.592 12.8v-2.56c0-15.36-7.68-30.72-20.48-40.96-20.48-15.36-40.96-25.6-64.512-30.72 7.68 23.04 20.992 44.544 38.4 61.44zM167.936 720.384c-10.24 12.8-7.68 30.72 2.56 41.472 12.8 10.24 28.16 7.68 38.4-2.56 9.728-9.728 10.24-25.088 1.024-35.328l-1.024-1.024c-2.56-26.112-10.24-51.712-23.04-74.752-10.24 20.48-17.92 46.592-17.92 72.192zM224.768 763.904c0 10.24 0 20.48 2.56 30.72 2.56 20.48 17.92 35.84 35.84 43.52 7.68-10.24 12.8-23.04 12.8-38.4 0-5.12 0-12.8-2.56-17.92-10.24-28.16-23.04-51.712-43.52-74.752-2.56 20.992-5.12 38.912-5.12 56.832z" fill="#DCDCE5" p-id="7371"></path><path d="M119.296 771.584c15.36 10.24 33.28 10.24 51.712 5.12-2.56-17.92-12.8-33.28-30.72-41.472-23.04-10.24-49.152-17.92-74.752-17.92 12.288 20.992 30.208 41.472 53.76 54.272zM296.96 784.896c0 23.04 2.56 46.592 10.24 67.072s23.04 35.84 43.52 41.472c5.12-10.24 10.24-20.48 7.68-30.72 0-10.24-2.56-20.48-5.12-28.16-12.8-28.16-33.28-51.712-56.832-72.192v22.528h0.512zM399.872 898.048c10.24 20.48 30.72 30.72 54.272 33.28 2.56-7.68 5.12-15.36 5.12-20.48 0-15.36-5.12-28.16-12.8-40.96-20.48-25.6-44.032-46.592-72.192-61.952 2.56 30.72 10.24 61.952 25.6 90.112zM119.296 818.176c20.48 20.48 46.592 35.84 72.192 46.592 10.24 15.36 28.16 17.92 43.52 10.24 15.36-10.24 17.92-28.16 10.24-43.52-7.68-12.8-25.6-17.92-38.4-10.24-28.672-7.68-58.88-8.704-87.552-3.072zM507.904 923.648c15.36 17.92 38.912 26.112 61.952 20.48v-7.68c0-20.48-10.24-41.472-25.6-54.272-26.624-20.992-57.344-35.84-90.112-43.52 12.8 33.792 30.72 61.952 53.76 84.992zM194.048 892.928c25.6 17.92 54.272 31.232 84.992 38.4 12.8 12.8 33.28 15.36 46.592 2.56 12.8-12.8 15.36-33.28 2.56-46.592-10.24-12.8-28.16-15.36-43.52-5.12-31.744-4.608-62.464 0.512-90.624 10.752z" fill="#DCDCE5" p-id="7372"></path><path d="M384.512 928.768c-31.744 5.12-61.952 15.872-90.112 30.72 28.16 12.8 61.952 20.48 92.672 20.48 15.36 12.8 35.84 10.24 49.152-5.12 12.8-15.36 10.24-35.84-5.12-49.152-15.872-9.728-33.792-7.168-46.592 3.072zM497.664 960c-31.232 13.312-59.904 31.232-84.992 54.272 33.28 5.12 67.072 5.12 100.352-2.56 17.92 7.68 38.4 0 49.152-17.92 7.68-17.92 0-38.4-17.92-49.152-18.432-5.632-36.352 2.56-46.592 15.36zM1033.216 223.232v7.68c0 15.36 2.56 28.16 7.68 41.472 5.12 10.24 12.8 20.48 23.04 23.04 2.56-5.12 5.12-10.24 5.12-15.36s0-10.24-2.56-15.36c-9.728-14.848-20.48-28.672-33.28-41.472zM1102.848 274.944c-10.24 13.312-17.92 28.16-23.04 43.52v10.24c0 7.68 2.56 15.36 7.68 23.04 10.24-5.12 17.92-15.36 17.92-28.16 0-5.12 2.56-10.24 2.56-15.36 0-10.24-2.56-23.04-5.12-33.28zM1012.736 305.664c5.632 15.872 15.36 30.208 28.16 41.472 7.68 7.68 20.48 12.8 30.72 10.24v-2.56c0-10.24-5.12-20.48-12.8-28.16-15.36-10.752-30.72-18.432-46.08-20.992zM1125.888 347.136c-12.8 12.8-25.6 28.16-30.72 46.592-2.56 5.12-2.56 10.24-2.56 15.36 0 7.68 2.56 15.36 5.12 20.48 12.8-5.12 20.48-15.36 25.6-25.6 2.56-10.24 5.12-23.04 5.12-35.84 0-10.752 0-15.872-2.56-20.992zM1022.976 365.056c5.12 17.92 12.8 35.84 23.04 49.152 7.68 10.24 20.48 15.36 33.28 15.36v-7.68c0-10.24-5.12-20.48-10.24-28.16-13.824-11.776-29.184-21.504-46.08-28.672zM1138.688 429.568c-17.92 12.8-30.72 28.16-41.472 43.52-5.12 7.68-5.12 15.36-5.12 23.04 0 5.12 0 12.8 2.56 17.92 12.8-2.56 25.6-12.8 30.72-25.6 8.192-17.92 13.312-38.4 13.312-58.88zM1022.976 434.688c2.56 20.48 7.68 41.472 17.92 59.392 7.68 12.8 20.48 20.48 33.28 23.04 2.56-5.12 2.56-7.68 2.56-12.8 0-10.24-2.56-17.92-7.68-25.6-12.8-18.432-28.16-33.792-46.08-44.032zM1020.416 506.368c0 7.68-2.56 17.92-2.56 25.6 0 12.8 2.56 28.16 5.12 41.472 5.12 15.36 15.36 25.6 30.72 30.72 5.12-7.68 7.68-15.36 7.68-25.6 0-7.68 0-12.8-2.56-17.92-9.728-19.968-22.528-38.4-38.4-54.272zM1143.808 529.92c-20.992 8.192-40.448 20.48-56.832 35.84-7.68 10.24-12.8 20.48-12.8 33.28v7.68c15.36 0 30.72-5.12 40.96-17.92 13.312-17.92 23.552-38.4 28.672-58.88zM997.376 578.56c-5.12 17.408-7.68 35.84-7.68 54.272 0 5.12 0 12.8 2.56 17.92 2.56 15.36 12.8 30.72 28.16 38.4 7.68-10.24 12.8-20.48 12.8-33.28v-12.8c-10.24-25.6-20.48-46.08-35.84-64.512zM1123.328 620.032c-23.04 5.12-46.592 15.36-64.512 30.72-12.8 10.24-20.48 25.6-20.48 41.472v2.56c15.36 2.56 33.28-2.56 46.592-12.8 15.872-18.944 28.672-39.936 38.4-61.952zM966.144 645.632c-12.8 23.04-20.48 48.64-23.04 74.752-10.24 12.8-7.68 28.16 2.56 38.4 12.8 10.24 28.16 7.68 38.4-2.56 7.68-10.24 7.68-25.6 0-35.84 0.512-25.6-7.68-51.712-17.92-74.752zM920.064 710.144c-18.944 22.016-33.792 47.104-43.52 74.752-2.56 5.12-2.56 12.8-2.56 17.92 0 12.8 5.12 25.6 12.8 38.4 17.92-7.68 30.72-25.6 35.84-43.52 2.56-10.24 2.56-20.48 2.56-30.72 2.56-20.992 0-38.912-5.12-56.832zM1090.048 717.824c-25.6 0-51.712 7.68-74.752 17.92-15.36 7.68-28.16 23.04-30.72 41.472 17.92 7.68 35.84 5.12 51.712-5.12 19.968-13.312 38.4-33.792 53.76-54.272zM855.552 761.344c-23.04 20.48-44.032 43.52-56.832 72.192-2.56 10.24-5.12 17.92-5.12 28.16s2.56 23.04 7.68 30.72c20.48-5.12 35.84-20.48 43.52-41.472 7.68-20.48 10.24-43.52 10.24-67.072v-22.528h0.512zM780.8 805.376c-28.16 15.36-54.272 35.84-72.192 61.952-7.68 12.8-12.8 25.6-12.8 41.472 0 7.68 0 15.36 5.12 20.48 23.04-2.56 44.032-15.36 54.272-33.28 12.8-26.112 23.04-57.344 25.6-90.624zM948.224 818.176c-15.36-7.68-33.28 0-40.96 15.36s0 33.28 15.36 40.96c12.8 7.68 30.72 2.56 38.4-10.24 27.136-9.728 51.712-25.6 72.192-46.592-25.6-4.608-56.832-4.608-84.992 0.512zM698.368 838.656c-33.28 7.68-61.952 23.04-90.112 44.032-15.36 12.8-25.6 33.28-25.6 54.272v7.68c23.04 5.12 46.592-2.56 61.952-20.48 23.04-23.552 40.96-51.712 53.76-85.504zM868.352 880.128c-15.36-10.24-35.84-5.12-46.592 10.24-10.24 15.36-5.12 35.84 10.24 46.592 12.8 7.68 33.28 5.12 43.52-5.12 30.72-7.68 59.392-20.48 84.992-38.4-30.208-10.752-60.928-15.872-92.16-13.312zM708.608 952.32c12.8 17.92 33.28 28.16 56.832 28.16 32.256 0 63.488-7.168 92.672-20.48-28.16-15.36-58.368-25.6-90.112-30.72-20.48-3.072-43.52 7.168-59.392 23.04zM587.776 970.24c7.68 20.48 25.6 38.4 49.152 43.52 33.28 7.68 67.072 7.68 100.352 2.56-23.04-23.04-51.712-40.96-84.992-54.272-20.48-9.728-44.032-4.608-64.512 8.192z" fill="#DCDCE5" p-id="7373"></path><path d="M588.8 89.6L510.976 148.48V62.464L588.8 4.096h78.336v565.248H588.8V89.6z" fill="#DCDCE5" p-id="7374"></path></svg>