<?xml version="1.0" encoding="UTF-8"?>
<svg width="46px" height="42px" viewBox="0 0 46 42" version="1.1" xmlns="http://www.w3.org/2000/svg" xmlns:xlink="http://www.w3.org/1999/xlink">
    <title>箭头</title>
    <defs>
        <path d="M0.639387691,20.4392305 L12.1393877,0.939230485 C12.4393877,0.439230485 13.0393877,0.339230485 13.5393877,0.539230485 C13.6393877,0.639230485 13.8393877,0.739230485 13.9393877,0.939230485 L25.4393877,20.4392305 C25.7393877,20.9392305 25.5393877,21.5392305 25.0393877,21.8392305 C24.7393877,22.0392305 24.4393877,22.0392305 24.1393877,21.9392305 L12.9393877,17.0392305 L12.9393877,17.0392305 L1.93938769,21.8392305 C1.43938769,22.0392305 0.839387691,21.8392305 0.639387691,21.3392305 C0.439387691,21.0392305 0.439387691,20.7392305 0.639387691,20.4392305 Z" id="path-1"></path>
        <filter x="-63.8%" y="-64.9%" width="227.5%" height="248.4%" filterUnits="objectBoundingBox" id="filter-2">
            <feOffset dx="0" dy="2" in="SourceAlpha" result="shadowOffsetOuter1"></feOffset>
            <feGaussianBlur stdDeviation="5" in="shadowOffsetOuter1" result="shadowBlurOuter1"></feGaussianBlur>
            <feColorMatrix values="0 0 0 0 0   0 0 0 0 0   0 0 0 0 0  0 0 0 0.2 0" type="matrix" in="shadowBlurOuter1"></feColorMatrix>
        </filter>
    </defs>
    <g id="游逛分析" stroke="none" stroke-width="1" fill="none" fill-rule="evenodd">
        <g id="画板" transform="translate(5.000000, 1.000000)" fill-rule="nonzero">
            <g id="箭头" transform="translate(5.000000, 7.000000)">
                <g id="路径">
                    <use fill="black" fill-opacity="1" filter="url(#filter-2)" xlink:href="#path-1"></use>
                    <use fill="#577CFF" xlink:href="#path-1"></use>
                </g>
                <path d="M26.0393877,21.0392305 C26.0393877,21.5392305 25.7393877,22.0392305 25.3393877,22.3392305 C24.9393877,22.5392305 24.4393877,22.6392305 23.9393877,22.4392305 L12.9393877,17.6392305 L2.13938769,22.4392305 C1.33938769,22.7392305 0.539387691,22.4392305 0.139387691,21.6392305 C-0.0606123087,21.2392305 -0.0606123087,20.7392305 0.239387691,20.2392305 L11.7393877,0.739230485 C11.9393877,0.439230485 12.2393877,0.139230485 12.6393877,0.0392304845 C13.0393877,-0.0607695155 13.4393877,0.0392304845 13.7393877,0.239230485 C13.9393877,0.339230485 14.1393877,0.539230485 14.2393877,0.739230485 L25.7393877,20.2392305 C25.9393877,20.4392305 26.0393877,20.7392305 26.0393877,21.0392305 Z M1.03938769,20.9392305 C1.03938769,21.0392305 1.03938769,21.0392305 1.03938769,21.1392305 C1.13938769,21.2392305 1.23938769,21.3392305 1.33938769,21.4392305 C1.43938769,21.5392305 1.63938769,21.4392305 1.73938769,21.4392305 L12.9393877,16.5392305 L24.3393877,21.5392305 C24.4393877,21.6392305 24.6393877,21.6392305 24.8393877,21.5392305 C25.0393877,21.4392305 25.1393877,21.1392305 25.0393877,20.8392305 L13.5393877,1.33923048 C13.5393877,1.23923048 13.4393877,1.23923048 13.3393877,1.13923048 C13.2393877,1.03923048 13.1393877,1.03923048 12.9393877,1.03923048 C12.8393877,1.03923048 12.7393877,1.13923048 12.6393877,1.23923048 L1.13938769,20.7392305 C1.03938769,20.8392305 1.03938769,20.8392305 1.03938769,20.9392305 Z" id="形状" fill="#FFFFFF"></path>
            </g>
        </g>
    </g>
</svg>