<?xml version="1.0" encoding="UTF-8"?>
<svg width="49px" height="45px" viewBox="0 0 49 45" version="1.1" xmlns="http://www.w3.org/2000/svg" xmlns:xlink="http://www.w3.org/1999/xlink">
    <title>箭头-蓝色</title>
    <defs>
        <path d="M34.2010834,20.7892292 L13.3244463,20.7892292 L20.3330316,14.153441 C20.8400357,13.6762607 20.8549475,12.9008428 20.3926791,12.3938387 C19.9154989,11.8868347 19.1400809,11.8719228 18.6330769,12.3341912 L9.40262086,21.0874669 C9.38770898,21.1023788 9.38770898,21.1172907 9.37279709,21.1322026 C9.35788521,21.1471145 9.34297332,21.1471145 9.32806144,21.1620263 C9.28332579,21.2216739 9.25350202,21.2813214 9.20876637,21.3558808 C9.16403072,21.4155284 9.11929507,21.4751759 9.0894713,21.5497353 C9.05964753,21.6392066 9.04473565,21.7286779 9.02982377,21.8181492 C9.01491188,21.8777968 9,21.9374443 9,22.0120037 C9,22.1312988 9.02982377,22.2655057 9.05964753,22.3848008 C9.07455942,22.4146246 9.05964753,22.4295365 9.07455942,22.4593602 C9.13420695,22.6383028 9.22367826,22.8023335 9.37279709,22.9365405 L18.6032531,31.6599925 C19.1102571,32.1371727 19.8856751,32.107349 20.3628554,31.6003449 C20.8400357,31.0933409 20.8102119,30.3179229 20.3032078,29.8407426 L13.3691819,23.2795138 L34.1563478,23.2795138 C34.8422944,23.2795138 35.3940341,22.7277741 35.3940341,22.0418275 C35.4387698,21.3558808 34.8870301,20.7892292 34.2010834,20.7892292 Z" id="path-1"></path>
        <filter x="-64.4%" y="-75.0%" width="228.8%" height="270.0%" filterUnits="objectBoundingBox" id="filter-2">
            <feMorphology radius="1" operator="dilate" in="SourceAlpha" result="shadowSpreadOuter1"></feMorphology>
            <feOffset dx="0" dy="2" in="shadowSpreadOuter1" result="shadowOffsetOuter1"></feOffset>
            <feGaussianBlur stdDeviation="5" in="shadowOffsetOuter1" result="shadowBlurOuter1"></feGaussianBlur>
            <feComposite in="shadowBlurOuter1" in2="SourceAlpha" operator="out" result="shadowBlurOuter1"></feComposite>
            <feColorMatrix values="0 0 0 0 0   0 0 0 0 0   0 0 0 0 0  0 0 0 0.2 0" type="matrix" in="shadowBlurOuter1"></feColorMatrix>
        </filter>
    </defs>
    <g id="游逛分析" stroke="none" stroke-width="1" fill="none" fill-rule="evenodd">
        <g id="箭头备份-3" transform="translate(2.000000, 1.000000)" fill-rule="nonzero">
            <g id="路径" transform="translate(22.198288, 22.000000) rotate(180.000000) translate(-22.198288, -22.000000) ">
                <use fill="black" fill-opacity="1" filter="url(#filter-2)" xlink:href="#path-1"></use>
                <path stroke="#FFFFFF" stroke-width="1" d="M19.5465719,11.5010012 C19.9879568,11.5159634 20.4241869,11.6977771 20.7621571,12.0569618 C21.0864072,12.412591 21.2409242,12.8632098 21.2258692,13.3073338 C21.210907,13.7487186 21.0290932,14.1849487 20.6767968,14.5165188 L20.6767968,14.5165188 L14.5797768,20.2892292 L34.2010834,20.2892292 C34.6886292,20.2892292 35.127768,20.4923016 35.4364816,20.8164508 C35.742106,21.1373565 35.9207884,21.5766899 35.8939592,22.0582087 C35.8896113,22.533197 35.6963575,22.9610709 35.3859743,23.271454 C35.0720271,23.5854012 34.6378753,23.7795138 34.1563478,23.7795138 L34.1563478,23.7795138 L14.6250631,23.7795138 L20.6458902,29.4766426 C21.001127,29.8109832 21.1868375,30.2505863 21.2018728,30.6941276 C21.2169184,31.1379746 21.0614438,31.5876333 20.7269554,31.9430273 C20.3926148,32.2982641 19.9530117,32.4839745 19.5094704,32.4990098 C19.0656234,32.5140555 18.6159647,32.3585809 18.2598207,32.023385 L18.2598207,32.023385 L9.03831473,23.3081876 C8.8289284,23.1197399 8.69590711,22.893279 8.60881477,22.6427783 C8.58410183,22.584062 8.57360565,22.5337639 8.56948698,22.4854925 C8.53209132,22.332626 8.5,22.1629528 8.5,22.0120037 C8.5,21.8993727 8.51781544,21.8071953 8.53986134,21.7166692 C8.55819749,21.6081679 8.57897646,21.500081 8.61512965,21.3916214 C8.61660682,21.3871899 8.61810415,21.3827743 8.61962596,21.3783947 L8.61962596,21.3783947 L8.62523296,21.36404 C8.66821703,21.2565798 8.72715668,21.1664809 8.79106211,21.0796929 L8.79106211,21.0796929 L8.81210086,21.0436065 C8.8657934,20.9501647 8.91312741,20.8727089 8.98983851,20.7865831 L8.98983851,20.7865831 L18.2961999,11.9647133 C18.6518291,11.6404631 19.102448,11.4859461 19.5465719,11.5010012 Z" fill="#577CFF" fill-rule="evenodd"></path>
            </g>
        </g>
    </g>
</svg>