<?xml version="1.0" encoding="UTF-8"?>
<svg width="254px" height="160px" viewBox="0 0 254 160" version="1.1" xmlns="http://www.w3.org/2000/svg" xmlns:xlink="http://www.w3.org/1999/xlink">
    <title>暂无数据</title>
    <defs>
        <rect id="path-1" x="0" y="0" width="253.393665" height="57.918552"></rect>
        <linearGradient x1="50%" y1="0%" x2="50%" y2="92.1298574%" id="linearGradient-3">
            <stop stop-color="#E2E8FF" offset="0%"></stop>
            <stop stop-color="#FFFFFF" stop-opacity="0" offset="100%"></stop>
        </linearGradient>
        <linearGradient x1="81.7510782%" y1="46.1523016%" x2="11.4532066%" y2="49.9410753%" id="linearGradient-4">
            <stop stop-color="#F2F5FF" offset="0%"></stop>
            <stop stop-color="#EDF1FF" offset="100%"></stop>
        </linearGradient>
        <linearGradient x1="81.7510782%" y1="47.623352%" x2="11.4532066%" y2="49.9636034%" id="linearGradient-5">
            <stop stop-color="#F2F5FF" offset="0%"></stop>
            <stop stop-color="#EDF1FF" offset="100%"></stop>
        </linearGradient>
        <polygon id="path-6" points="15.5281404 0 0 23.9628639 60.0177491 40.0342053 77.4345813 14.2791784"></polygon>
    </defs>
    <g id="缺省页面" stroke="none" stroke-width="1" fill="none" fill-rule="evenodd">
        <g id="1-图表无数据" transform="translate(-240.000000, -537.000000)">
            <g id="main" transform="translate(106.000000, 182.000000)">
                <g id="客流KPI" transform="translate(1.000000, 214.000000)">
                    <g id="暂无数据" transform="translate(133.000000, 141.000000)">
                        <g id="bg" transform="translate(0.000000, 102.081448)">
                            <mask id="mask-2" fill="white">
                                <use xlink:href="#path-1"></use>
                            </mask>
                            <g id="矩形"></g>
                            <path d="M252.669683,60.0904977 C252.669683,25.9038219 196.269717,-1.80995475 126.696833,-1.80995475 C57.1239482,-1.80995475 0.7239819,25.9038219 0.7239819,60.0904977 C0.7239819,94.2771736 252.669683,94.2771736 252.669683,60.0904977 Z" id="椭圆形" fill="url(#linearGradient-3)" fill-rule="nonzero" mask="url(#mask-2)"></path>
                            <g id="树" opacity="0.8" mask="url(#mask-2)">
                                <g transform="translate(20.995475, -3.619910)">
                                    <g id="树1">
                                        <line x1="11.2217195" y1="27.239819" x2="11.2217195" y2="40.8144796" id="直线" stroke="#B3C4FF" stroke-width="4" stroke-linecap="round"></line>
                                        <path d="M10.855735,0 C2.62353556,8.64255993 -0.926638118,15.2153575 0.205213897,19.7183925 C1.90299192,26.472945 8.65953108,27.5114106 10.3295273,27.5114106 C11.9995235,27.5114106 21.719457,27.6395455 21.719457,18.6365724 C21.719457,12.6345903 18.0982163,6.42239953 10.855735,0 Z" id="路径-15" fill="#D5DFFF" fill-rule="nonzero"></path>
                                    </g>
                                    <g id="树2" transform="translate(184.615385, 5.067873)">
                                        <line x1="7.60180995" y1="19.1402715" x2="7.60180995" y2="28.6425339" id="直线" stroke="#B3C4FF" stroke-width="3" stroke-linecap="round"></line>
                                        <path d="M7.59901444,0 C1.8364749,6.14076628 -0.648646683,10.8109119 0.143649728,14.0104368 C1.33209434,18.8097241 6.06167175,19.5475812 7.2306691,19.5475812 C8.39966646,19.5475812 15.2036199,19.6386244 15.2036199,13.2417751 C15.2036199,8.9772089 12.6687514,4.56328388 7.59901444,0 Z" id="路径-15" fill="#D5DFFF" fill-rule="nonzero"></path>
                                    </g>
                                    <g id="树3" transform="translate(209.954751, 23.167421)">
                                        <line x1="5.42986425" y1="14.0045249" x2="5.42986425" y2="21.4705882" id="直线" stroke="#B3C4FF" stroke-width="3" stroke-linecap="round"></line>
                                        <path d="M5.7897253,0 C1.39921897,4.54871576 -0.494206997,8.0080829 0.109447412,10.3781013 C1.01492902,13.933129 4.61841658,14.4796898 5.50908122,14.4796898 C6.39974586,14.4796898 11.5837104,14.5471292 11.5837104,9.80872232 C11.5837104,6.64978438 9.65238204,3.38021028 5.7897253,0 Z" id="路径-15" fill="#D5DFFF" fill-rule="nonzero"></path>
                                    </g>
                                </g>
                            </g>
                        </g>
                        <g id="Box" transform="translate(56.470588, 0.000000)">
                            <polygon id="side" fill="#BFC9E8" transform="translate(38.548177, 76.558579) scale(-1, 1) translate(-38.548177, -76.558579) " points="15.2762099 39.6569227 61.8201448 55.5159901 61.8201448 113.460235 15.8029758 97.6011672"></polygon>
                            <polygon id="side" fill="#CDD6F7" opacity="0.85" points="61.6316055 39.6569227 123.356099 53.9356925 123.356099 111.879937 61.6316055 97.6011672"></polygon>
                            <polygon id="side" fill="#DEEAF4" points="15.2762099 55.4598985 77.0007036 69.7386683 77.0007036 130.316742 15.2762099 113.404143"></polygon>
                            <polygon id="side" fill="#D9E0F8" opacity="0.85" points="15.2762099 55.4598985 77.0007036 69.7386683 77.0007036 130.316742 15.2762099 113.404143"></polygon>
                            <polygon id="side" fill="#C4CCE7" transform="translate(100.443166, 92.098171) scale(-1, 1) translate(-100.443166, -92.098171) " points="76.9078154 53.8796009 123.978516 69.7386683 123.978516 130.316742 77.4345813 111.823845"></polygon>
                            <polygon id="lid" fill="url(#linearGradient-4)" transform="translate(108.510251, 74.709178) scale(-1, 1) translate(-108.510251, -74.709178) " points="93.2375222 53.8369485 76.7813887 76.7780161 124.416726 95.5814075 140.239114 69.3345185"></polygon>
                            <path d="M22.88488,30.1380385 C23.5347104,30.1380385 24.2773738,30.8807019 24.2773738,31.6233652 L24.277239,34.2220385 L26.9695285,34.222687 C27.7121918,34.222687 28.2691893,34.9653503 28.2691895,35.6151807 C28.3620224,36.3578441 27.5265261,37.0076745 26.7838626,37.0076745 L24.277239,37.0070385 L24.2773738,39.6998292 C24.0917079,40.4424925 23.5347104,41.1851559 22.88488,41.1851559 L23.2562118,41.6493206 C22.5135484,41.6493206 21.4923863,40.4424925 21.4923863,39.6998292 L21.492239,37.0070385 L18.7073986,37.0076745 C17.9647353,37.0076745 17.129239,36.3578441 17.129239,35.6151807 C17.129239,34.8725174 17.8719024,34.222687 18.7073986,34.222687 L21.492239,34.2220385 L21.4923863,31.6233652 C21.4923863,30.8807019 22.2350496,30.1380385 22.88488,30.1380385 Z" id="形状结合" fill="#D0D9FA"></path>
                            <path d="M131.186468,38.6511232 L126.916153,38.6511232 C126.266323,38.6511232 125.894991,38.1869587 125.894991,37.5371283 C125.894991,36.8872979 126.359156,36.4231332 126.916153,36.4231332 L131.186468,36.4231332 C131.650632,36.4231332 132.20763,37.0729636 132.20763,37.5371283 C132.300463,38.1869587 131.836298,38.6511232 131.186468,38.6511232 Z M121.996009,38.6511232 L117.725694,38.6511232 C117.075864,38.6511232 116.704532,38.1869587 116.704532,37.5371283 C116.704532,36.8872979 117.168697,36.4231332 117.725694,36.4231332 L121.996009,36.4231332 C122.645839,36.4231332 123.017171,37.0729636 123.017171,37.5371283 C123.110004,38.1869587 122.645839,38.6511232 121.996009,38.6511232 Z M123.481335,44.2210985 L123.481335,39.9507842 C123.481335,39.3009538 123.9455,38.8367891 124.502497,38.8367891 C125.059495,38.8367891 125.52366,39.3009536 125.52366,39.9507842 L125.52366,44.2210985 C125.337994,44.8709289 124.873829,45.3350934 124.502497,45.3350934 C123.9455,45.2422605 123.481335,44.8709289 123.481335,44.2210985 Z M123.481335,35.0306394 L123.481335,30.7603251 C123.481335,30.1104947 123.9455,29.64633 124.502497,29.64633 C125.059495,29.64633 125.52366,30.1104946 125.52366,30.7603251 L125.52366,35.0306394 C125.337994,35.6804699 124.873829,36.1446344 124.502497,36.1446344 C123.9455,36.0518014 123.481335,35.6804699 123.481335,35.0306394 Z" id="形状" fill="#D0D9FA"></path>
                            <polygon id="路径" fill="#D0D9FA" points="56.9372192 25.2831828 55.5447254 22.683861 52.9454037 21.1985343 55.5447254 19.5275417 56.9372192 16.92822 58.4225459 19.5275417 61.3003665 21.1985343 58.4225459 22.683861"></polygon>
                            <g id="编组" transform="translate(37.146991, 0.000000)" fill="#577CFF" fill-rule="nonzero">
                                <path d="M1.57730833,83.9002927 C2.88746598,83.2452372 4.18624003,82.5676569 5.47305224,81.8678533 C5.97330049,81.5662597 6.14735822,80.9242324 5.86794217,80.4112668 C5.58852612,79.8983013 4.95472964,79.696318 4.43002937,79.9530213 C3.16533041,80.6408853 1.88878127,81.3067344 0.600959326,81.9502675 C0.253120154,82.1253567 0.0248602123,82.4724501 0.00190473815,82.8611934 C-0.0210507359,83.2499367 0.164773259,83.6214819 0.489588716,83.8362917 C0.814698102,84.0504287 1.22937728,84.0747717 1.57730833,83.9001442 L1.57730833,83.9002927 Z M9.30063734,79.6826135 C10.5626447,78.9266198 11.8054386,78.1390053 13.0278404,77.3205171 C13.5273747,76.9853658 13.6607224,76.307787 13.3257197,75.8073617 C13.1649139,75.5672078 12.9151975,75.400869 12.6316255,75.3450181 C12.3480535,75.2891673 12.0539115,75.3483906 11.8140493,75.509631 C10.6215101,76.3072154 9.40947879,77.0752627 8.17906106,77.8130722 C7.69391168,78.1360016 7.54812488,78.7831533 7.84794271,79.2829159 C8.14776054,79.7826784 8.78736178,79.9586597 9.30063734,79.6826135 L9.30063734,79.6826135 Z M16.6427819,74.7341945 C17.8211571,73.8362094 18.9644235,72.8930641 20.0700268,71.906866 C20.5093978,71.5040402 20.5433494,70.8228597 20.1462119,70.3783404 C19.7490744,69.9338212 19.0683873,69.8911052 18.6187935,70.2824885 C17.5549995,71.2310625 16.4549251,72.1381484 15.3210355,73.0017133 C14.9919787,73.2307873 14.8151576,73.6219494 14.8605897,74.0203074 C14.9060219,74.4186655 15.1663795,74.759968 15.5385663,74.9090662 C15.9107531,75.0581643 16.3347386,74.9910098 16.6426334,74.7341945 L16.6427819,74.7341945 Z M23.2604235,68.7694817 C24.2775873,67.6662303 25.2239019,66.4997042 26.0936918,65.2768994 C26.3395751,64.960434 26.391956,64.53456 26.2300892,64.1679429 C26.0682225,63.8013257 25.718221,63.5531094 25.3187013,63.5215987 C24.9191815,63.490088 24.5345953,63.6803664 24.3172563,64.0170751 C23.500737,65.1645733 22.6120359,66.2589583 21.6565382,67.2935984 C21.4604662,67.5063116 21.3572771,67.7884102 21.3698191,68.0774324 C21.382361,68.3664546 21.5095992,68.638554 21.7233606,68.8334827 C21.935245,69.0296582 22.2166261,69.1332164 22.5051317,69.1212023 C22.7936373,69.1091882 23.0654343,68.9825942 23.260275,68.7694817 L23.2604235,68.7694817 Z M28.4675192,61.2766156 C28.2017683,61.8111807 27.5554389,62.0324963 27.017796,61.7730287 C26.4801531,61.5135611 26.2512779,60.8698698 26.5044266,60.329223 C27.10884,59.0836796 27.5875765,57.7809832 27.9335342,56.4404583 C28.1007553,55.8793376 28.6812338,55.5504008 29.2485296,55.6952966 C29.8158254,55.8401924 30.1674648,56.407206 30.045121,56.979789 C29.6633974,58.4609464 29.1349151,59.9003443 28.4675192,61.2766156 L28.4675192,61.2766156 Z M30.590837,52.3911714 C30.5021134,50.7131686 29.9482112,49.0929545 28.9911095,47.7118239 C28.6386198,47.2435789 27.9789483,47.1379143 27.4978412,47.4726357 C27.0167342,47.8073571 26.8864589,48.4626126 27.202943,48.9559078 C27.91423,49.980369 28.3306076,51.170698 28.4165857,52.5267466 C28.4742022,53.1105639 28.9835789,53.5440447 29.5690952,53.5075349 C30.1546114,53.4710251 30.6061925,52.9776239 30.590837,52.3911714 L30.590837,52.3911714 Z M25.2343562,44.4822247 C23.8273125,43.7583442 22.3112217,43.2697681 20.7462691,43.0358917 C20.358657,42.9712014 19.9662322,43.1201728 19.7191945,43.4257874 C19.4721567,43.7314021 19.4087592,44.1463364 19.5532671,44.5117751 C19.6971118,44.8769529 20.0259782,45.1367573 20.4145332,45.1921752 C21.7420274,45.3878489 23.0283747,45.8002105 24.2222201,46.4127971 C24.5687487,46.6129475 24.9970918,46.6071067 25.3380342,46.3975821 C25.6789766,46.1880575 25.8776832,45.8085478 25.8556557,45.4089767 C25.8345126,45.0093861 25.5959673,44.6535637 25.2343562,44.4822247 L25.2343562,44.4822247 Z M15.9099633,43.0620267 C14.0494801,43.3896048 12.4629687,44.0900517 11.3730216,45.1260953 C10.9617617,45.5447126 10.9557611,46.2137937 11.3594468,46.6397198 C11.7631326,47.0656459 12.4315742,47.0955017 12.8716246,46.707261 C13.620926,45.9973105 14.8188283,45.4673349 16.2890688,45.2080641 C16.869169,45.0911559 17.2500114,44.5327319 17.1470681,43.9499914 C17.0441248,43.3672509 16.4950079,42.9731078 15.9099633,43.0620267 L15.9099633,43.0620267 Z M10.0491963,50.320866 C10.4337962,51.6371181 11.2671453,53.0207866 12.5468679,54.4629617 C12.9466141,54.912899 13.6345875,54.9528439 14.0839308,54.5530977 C14.533274,54.1533514 14.5738129,53.4646356 14.1740667,53.0146983 C13.0918414,51.7961554 12.4230237,50.6855677 12.1388059,49.7107036 C12.029433,49.337775 11.7297631,49.0512961 11.3522919,48.9588104 C10.9748206,48.8663247 10.5766601,48.9818256 10.3072792,49.2619543 C10.0388886,49.543818 9.94059398,49.9471199 10.0491963,50.320866 L10.0491963,50.320866 Z M16.1432476,57.6376181 C17.4476927,58.5197394 18.8828885,59.190984 20.3961199,59.6266972 C20.7700679,59.7334646 21.1725632,59.6322037 21.4514678,59.3611896 C21.7298829,59.0898644 21.8429345,58.6909134 21.7482511,58.3138625 C21.6535678,57.9368116 21.3654479,57.6386009 20.9918784,57.5309993 C19.6974803,57.1573835 18.4700985,56.5819794 17.3549598,55.8259895 C16.8564475,55.5246186 16.2090773,55.6685077 15.8851647,56.1526766 C15.5609912,56.6371866 15.6746065,57.2908993 16.1432476,57.6376181 L16.1432476,57.6376181 Z M25.1167488,60.1661764 C24.5248043,60.177522 24.0319332,59.7144956 24.0063298,59.1229962 C23.9807264,58.5314969 24.4317442,58.0276136 25.022455,57.9877673 C26.38666,57.9196361 27.736661,57.6782776 29.0399641,57.2695011 C29.4146503,57.1482552 29.8255998,57.2384395 30.115084,57.5054399 C30.4045683,57.7724402 30.527612,58.1747745 30.4369892,58.558021 C30.3463664,58.9412674 30.0561565,59.2458834 29.6777465,59.3549529 C28.1981894,59.8185939 26.6654361,60.0912109 25.1167488,60.1661764 L25.1167488,60.1661764 Z M34.1301949,57.4766504 C35.4521627,56.7652029 36.725921,55.9676033 37.9432276,55.089013 C38.3934886,54.725861 38.4821583,54.0744624 38.1453472,53.6041725 C37.808536,53.1338826 37.1632735,53.0081098 36.6744936,53.3174779 C35.5340442,54.140578 34.3406942,54.8877797 33.10217,55.5542452 C32.7445325,55.730234 32.5112118,56.0871216 32.493466,56.4853198 C32.4757203,56.8835179 32.6763695,57.2597455 33.0169343,57.4668498 C33.3583789,57.6732 33.7851704,57.6769573 34.1301949,57.4766504 L34.1301949,57.4766504 Z M41.2864248,52.4324528 C42.4010503,51.4554071 43.4764026,50.4344466 44.5099357,49.3719884 C44.9122384,48.9378918 44.8954443,48.2623069 44.4720697,47.8487355 C44.0486293,47.4353495 43.3725963,47.4356791 42.9495592,47.849478 C41.9569343,48.8704149 40.9240315,49.8514025 39.8533078,50.7901075 C39.4356692,51.1940027 39.4077041,51.854298 39.7896965,52.2920595 C40.1716889,52.7298209 40.8296878,52.7915413 41.2864248,52.4324528 L41.2864248,52.4324528 Z M47.5628269,46.0047352 C48.5143416,44.878848 49.4336929,43.7261679 50.3197692,42.5480885 C50.6509476,42.0666822 50.5438433,41.4097938 50.0768982,41.0585198 C49.6099531,40.7072458 48.9491173,40.7864275 48.5783783,41.2380731 C47.719565,42.3832065 46.8270208,43.5026502 45.9019198,44.5949318 C45.5470638,45.0561581 45.6168721,45.7147502 46.0605333,46.0913366 C46.5041945,46.4679231 47.1653783,46.4298084 47.5628269,46.0047352 L47.5628269,46.0047352 Z M52.9467791,38.8373683 C53.7651163,37.6149458 54.5522898,36.3719464 55.307539,35.1095712 C55.5076241,34.7758751 55.5144855,34.3607831 55.3255387,34.0206563 C55.1365919,33.6805295 54.7805424,33.4670413 54.3915105,33.4606106 C54.0024787,33.4541799 53.6395677,33.6557838 53.4394827,33.9894799 C52.7020555,35.2210421 51.9339523,36.4339748 51.135893,37.627141 C50.8944678,37.9502128 50.8510611,38.3801526 51.0230379,38.7449615 C51.1950146,39.1097704 51.5542925,39.3498782 51.9571412,39.369229 C52.3599899,39.3885798 52.7406277,39.1840138 52.9467791,38.8373683 L52.9467791,38.8373683 Z M57.4382815,31.360391 C57.870056,30.5572225 58.2896004,29.7475389 58.6967694,28.9316208 C58.8882676,28.5819475 58.8734237,28.1555903 58.6580704,27.8200819 C58.4427172,27.4845734 58.0612688,27.2935291 57.6636115,27.3220179 C57.2659542,27.3505066 56.9156349,27.5939758 56.7503081,27.9567567 C56.3520955,28.7535117 55.9422075,29.5443777 55.5207766,30.3290992 C55.3210737,30.6729495 55.3246188,31.0983016 55.5300253,31.4387755 C55.7354318,31.7792493 56.1100537,31.9807323 56.5073546,31.9644126 C56.9046555,31.9480929 57.2614908,31.7165642 57.4382815,31.360391 L57.4382815,31.360391 Z" id="形状"></path>
                                <polygon id="路径" points="59.8954827 26.1300693 75.1378128 32.6615843 83.8464004 0.000742470728 59.8954827 26.1299208"></polygon>
                                <polygon id="路径" points="83.845658 0 42.4756345 19.5963269 55.5401494 26.1300693"></polygon>
                            </g>
                            <g id="lid" transform="translate(0.000000, 54.933133)">
                                <mask id="mask-7" fill="white">
                                    <use xlink:href="#path-6"></use>
                                </mask>
                                <use id="Mask" fill="url(#linearGradient-5)" xlink:href="#path-6"></use>
                            </g>
                        </g>
                    </g>
                </g>
            </g>
        </g>
    </g>
</svg>