<?xml version="1.0" encoding="UTF-8"?>
<svg width="254px" height="135px" viewBox="0 0 254 135" version="1.1" xmlns="http://www.w3.org/2000/svg" xmlns:xlink="http://www.w3.org/1999/xlink">
    <title>表格暂无数据</title>
    <defs>
        <rect id="path-1" x="0" y="0" width="253.393665" height="64"></rect>
        <linearGradient x1="50%" y1="0%" x2="50%" y2="92.1298574%" id="linearGradient-3">
            <stop stop-color="#E2E8FF" offset="0%"></stop>
            <stop stop-color="#FFFFFF" stop-opacity="0" offset="100%"></stop>
        </linearGradient>
        <linearGradient x1="50%" y1="0%" x2="50%" y2="100%" id="linearGradient-4">
            <stop stop-color="#F4F6FF" offset="0%"></stop>
            <stop stop-color="#D0D7E9" offset="100%"></stop>
        </linearGradient>
    </defs>
    <g id="缺省页面" stroke="none" stroke-width="1" fill="none" fill-rule="evenodd">
        <g id="2-表格无数据" transform="translate(-718.000000, -326.000000)">
            <g id="main" transform="translate(106.000000, 136.000000)">
                <g id="表格" transform="translate(20.000000, 76.000000)">
                    <g id="暂无数据" transform="translate(592.000000, 113.000000)">
                        <g id="表格暂无数据" transform="translate(0.000000, 1.000000)">
                            <g id="bg" transform="translate(0.000000, 71.000000)">
                                <mask id="mask-2" fill="white">
                                    <use xlink:href="#path-1"></use>
                                </mask>
                                <g id="矩形"></g>
                                <path d="M252.669683,66.1719457 C252.669683,31.9852699 196.269717,4.27149321 126.696833,4.27149321 C57.1239482,4.27149321 0.7239819,31.9852699 0.7239819,66.1719457 C0.7239819,100.358622 252.669683,100.358622 252.669683,66.1719457 Z" id="椭圆形" fill="url(#linearGradient-3)" fill-rule="nonzero" mask="url(#mask-2)"></path>
                                <g id="树" opacity="0.8" mask="url(#mask-2)">
                                    <g transform="translate(20.995475, 2.461538)">
                                        <g id="树1">
                                            <line x1="11.2217195" y1="27.239819" x2="11.2217195" y2="40.8144796" id="直线" stroke="#B3C4FF" stroke-width="4" stroke-linecap="round"></line>
                                            <path d="M10.855735,0 C2.62353556,8.64255993 -0.926638118,15.2153575 0.205213897,19.7183925 C1.90299192,26.472945 8.65953108,27.5114106 10.3295273,27.5114106 C11.9995235,27.5114106 21.719457,27.6395455 21.719457,18.6365724 C21.719457,12.6345903 18.0982163,6.42239953 10.855735,0 Z" id="路径-15" fill="#D5DFFF" fill-rule="nonzero"></path>
                                        </g>
                                        <g id="树2" transform="translate(184.615385, 5.067873)">
                                            <line x1="7.60180995" y1="19.1402715" x2="7.60180995" y2="28.6425339" id="直线" stroke="#B3C4FF" stroke-width="3" stroke-linecap="round"></line>
                                            <path d="M7.59901444,0 C1.8364749,6.14076628 -0.648646683,10.8109119 0.143649728,14.0104368 C1.33209434,18.8097241 6.06167175,19.5475812 7.2306691,19.5475812 C8.39966646,19.5475812 15.2036199,19.6386244 15.2036199,13.2417751 C15.2036199,8.9772089 12.6687514,4.56328388 7.59901444,0 Z" id="路径-15" fill="#D5DFFF" fill-rule="nonzero"></path>
                                        </g>
                                        <g id="树3" transform="translate(209.954751, 23.167421)">
                                            <line x1="5.42986425" y1="14.0045249" x2="5.42986425" y2="21.4705882" id="直线" stroke="#B3C4FF" stroke-width="3" stroke-linecap="round"></line>
                                            <path d="M5.7897253,0 C1.39921897,4.54871576 -0.494206997,8.0080829 0.109447412,10.3781013 C1.01492902,13.933129 4.61841658,14.4796898 5.50908122,14.4796898 C6.39974586,14.4796898 11.5837104,14.5471292 11.5837104,9.80872232 C11.5837104,6.64978438 9.65238204,3.38021028 5.7897253,0 Z" id="路径-15" fill="#D5DFFF" fill-rule="nonzero"></path>
                                        </g>
                                    </g>
                                </g>
                            </g>
                            <g id="未查询到数据-icon" transform="translate(56.000000, 0.000000)">
                                <path d="M62.8556233,10.7540594 L62.8556233,7.50930013 C62.8556233,3.52288158 59.7035715,0.370829545 55.7171528,0.370829545 L26.4216115,0.370829545 C22.5279004,0.370829545 19.2831411,3.61558884 19.2831411,7.50930013 L19.2831411,10.9394741 C16.3165041,11.6811334 13.9061113,14.3696483 13.9061113,17.8925298 L13.9061113,50.7109527 C13.9061113,54.6973712 17.0581632,57.8494231 21.0445819,57.8494231 L103.276054,57.8494231 C107.169765,57.8494231 110.414524,54.6046638 110.414524,50.7109527 L110.414524,17.6144076 C110.414524,13.9061111 107.262472,10.6613518 103.276054,10.661352 L62.8556233,10.7540594 L62.8556233,10.7540594 Z" id="路径" fill="#FFFFFF" fill-rule="nonzero"></path>
                                <path d="M62.8556233,10.7540594 L62.8556233,7.50930013 C62.8556233,3.52288158 59.7035715,0.370829545 55.7171528,0.370829545 L26.4216115,0.370829545 C22.5279004,0.370829545 19.2831411,3.61558884 19.2831411,7.50930013 L19.2831411,10.9394741 C16.3165041,11.6811334 13.9061113,14.3696483 13.9061113,17.8925298 L13.9061113,50.7109527 C13.9061113,54.6973712 17.0581632,57.8494231 21.0445819,57.8494231 L103.276054,57.8494231 C107.169765,57.8494231 110.414524,54.6046638 110.414524,50.7109527 L110.414524,17.6144076 C110.414524,13.9061111 107.262472,10.6613518 103.276054,10.661352 L62.8556233,10.7540594 L62.8556233,10.7540594 Z" id="路径" fill="#E8EDF9"></path>
                                <path d="M19.8393855,97.7136089 C16.4092113,97.7136089 13.4425743,95.2105089 12.9790372,92.2438718 L6.58222602,28.5538818 C6.11868905,24.5674633 9.08532606,21.6008263 12.9790372,21.6008263 L113.195746,21.6008263 C117.089457,21.6008263 120.056095,24.8455856 119.592558,28.5538818 L112.917624,92.2438718 C112.917624,95.2105089 109.950987,97.7136089 106.520813,97.7136089 L19.8393855,97.7136089 Z" id="路径" fill="#FFFFFF" fill-rule="nonzero"></path>
                                <path d="M19.8393855,97.7136089 C16.4092113,97.7136089 13.4425743,95.2105089 12.9790372,92.2438718 L6.58222602,28.5538818 C6.11868905,24.5674633 9.08532606,21.6008263 12.9790372,21.6008263 L113.195746,21.6008263 C117.089457,21.6008263 120.056095,24.8455856 119.592558,28.5538818 L112.917624,92.2438718 C112.917624,95.2105089 109.950987,97.7136089 106.520813,97.7136089 L19.8393855,97.7136089 Z" id="路径" fill="url(#linearGradient-4)"></path>
                                <path d="M82.3241791,76.4836123 C79.0794198,69.4378492 71.5701197,64.8951862 63.3191603,64.8951862 C55.0682009,64.8951862 47.8370231,69.3451419 44.4068489,76.4836123 C44.1287266,77.2252716 43.3870674,77.4106864 42.6454081,77.2252716 C41.9037489,76.9471493 41.6256266,76.2981975 41.9037489,75.5565382 C45.6120453,67.6764084 53.8630047,62.4847936 63.1337454,62.4847936 C72.4044864,62.4847936 80.6554457,67.6764086 84.3637422,75.5565382 C84.6418645,76.2981975 84.3637422,76.7617346 83.6220829,77.2252716 C83.0658385,77.2252716 82.6023014,76.9471493 82.3241791,76.4836123 L82.3241791,76.4836123 Z" id="路径" fill="#577CFF" opacity="0.6"></path>
                                <path d="M5.74785934,-1.59872116e-14 C6.39681116,-1.59872116e-14 7.13847042,0.741659254 7.13847042,1.48331851 L7.138,4.079 L9.82698531,4.07912598 C10.5686446,4.07912598 11.124889,4.82078523 11.1248891,5.46973706 C11.2175966,6.21139631 10.3832299,6.86034814 9.64157046,6.86034814 L7.138,6.86 L7.13847042,9.54886303 C6.95305556,10.2905223 6.39681116,11.0321815 5.74785934,11.0321815 L6.11868905,11.4957187 C5.37702979,11.4957187 4.35724826,10.2905223 4.35724826,9.54886303 L4.357,6.86 L1.57602593,6.86034814 C0.834366681,6.86034814 1.58095759e-13,6.21139631 1.58095759e-13,5.46973706 C1.58095759e-13,4.7280778 0.741659254,4.07912598 1.57602593,4.07912598 L4.357,4.079 L4.35724826,1.48331851 C4.35724826,0.741659254 5.09890751,-1.59872116e-14 5.74785934,-1.59872116e-14 Z" id="形状结合" fill="#E6E9F3"></path>
                                <path d="M138.968406,28.5538818 L134.703865,28.5538818 C134.054913,28.5538818 133.684084,28.0903449 133.684084,27.441393 C133.684084,26.7924412 134.147621,26.3289041 134.703865,26.3289041 L138.968406,26.3289041 C139.431943,26.3289041 139.988187,26.9778559 139.988187,27.441393 C140.080895,28.0903449 139.617358,28.5538818 138.968406,28.5538818 Z M129.790372,28.5538818 L125.525832,28.5538818 C124.87688,28.5538818 124.50605,28.0903449 124.50605,27.441393 C124.50605,26.7924412 124.969587,26.3289041 125.525832,26.3289041 L129.790372,26.3289041 C130.439324,26.3289041 130.810154,26.9778559 130.810154,27.441393 C130.902861,28.0903449 130.439324,28.5538818 129.790372,28.5538818 Z M131.273691,34.1163265 L131.273691,29.8517856 C131.273691,29.2028338 131.737228,28.7392967 132.293473,28.7392967 C132.849717,28.7392967 133.313254,29.2028337 133.313254,29.8517856 L133.313254,34.1163265 C133.127839,34.7652783 132.664302,35.2288153 132.293473,35.2288153 C131.737228,35.1361079 131.273691,34.7652783 131.273691,34.1163265 Z M131.273691,24.938293 L131.273691,20.6737522 C131.273691,20.0248003 131.737228,19.5612632 132.293473,19.5612632 C132.849717,19.5612632 133.313254,20.0248002 133.313254,20.6737522 L133.313254,24.938293 C133.127839,25.5872448 132.664302,26.0507818 132.293473,26.0507818 C131.737228,25.9580744 131.273691,25.5872448 131.273691,24.938293 Z" id="形状" fill="#E6E9F3"></path>
                                <polygon id="路径" fill="#E6E9F3" points="119.963387 15.2040149 118.572776 12.6082075 115.976969 11.124889 118.572776 9.45615561 119.963387 6.86034814 121.446706 9.45615561 124.320635 11.124889 121.446706 12.6082075"></polygon>
                                <path d="M36.2485968,43.4797747 C36.2485968,41.2547969 38.1954525,39.3079413 40.4204302,39.3079413 C42.645408,39.3079413 44.5922636,41.2547969 44.5922636,43.4797747 C44.5922636,45.7047524 42.645408,47.6516081 40.4204302,47.6516081 C38.1954525,47.6516081 36.2485968,45.7047524 36.2485968,43.4797747 Z M81.6752273,43.4797747 C81.6752273,41.2547969 83.6220829,39.3079413 85.8470607,39.3079413 C88.0720384,39.3079413 90.0188941,41.2547969 90.0188941,43.4797747 C90.0188941,45.7047524 88.2574533,47.6516081 85.8470607,47.6516081 C83.6220829,47.6516081 81.6752273,45.7047524 81.6752273,43.4797747 Z" id="形状" fill="#577CFF" opacity="0.6"></path>
                                <g id="编组" transform="translate(76.715976, 52.144957)">
                                    <path d="M26.9220787,26.2165346 C28.111571,27.4060269 28.111571,29.3345749 26.9220787,30.5240672 L6.4612989,50.9848471 C5.27180662,52.1743393 3.34325858,52.1743393 2.1537663,50.9848471 C0.964274018,49.7953548 0.964274018,47.8668067 2.1537663,46.6773145 L22.6145461,26.2165346 C23.8040384,25.0270423 25.7325865,25.0270423 26.9220787,26.2165346 Z" id="矩形" fill="#577CFF"></path>
                                    <path d="M33.0863064,41.1072292 C44.7366968,41.1072292 54.1412287,31.9103576 54.1412287,20.5536145 C54.1412287,9.19687144 44.7366968,0 33.0863064,0 C21.435916,0 12.0313842,9.19687156 12.0313842,20.5536145 C12.0313842,31.9103575 21.4359161,41.1072292 33.0863064,41.1072292 Z" id="路径" fill="#F4F6FF"></path>
                                    <path d="M33.0863064,0 C44.7366968,0 54.1412287,9.19687144 54.1412287,20.5536146 C54.1412287,31.9103576 44.7366968,41.1072292 33.0863064,41.1072292 C21.4359161,41.1072292 12.0313842,31.9103575 12.0313842,20.5536146 C12.0313842,9.19687156 21.435916,0 33.0863064,0 Z M33.0863064,4.01046139 C23.6357215,4.01046139 16.0418455,11.4275839 16.0418455,20.5536146 C16.0418455,29.6796452 23.6357216,37.0967678 33.0863064,37.0967678 C42.5368913,37.0967678 50.1307673,29.6796453 50.1307673,20.5536146 C50.1307673,11.4275838 42.5368913,4.01046139 33.0863064,4.01046139 Z" id="路径" fill="#577CFF" fill-rule="nonzero"></path>
                                    <path d="M19.9747853,17.9348939 C20.1890145,16.6842493 20.5460629,15.3641244 21.3315696,14.1134797 C21.5457988,13.5576377 22.2598958,13.4186771 22.8311733,13.5576377 C23.4024509,13.7660785 23.6166801,14.4608811 23.4024509,15.0167231 C22.8311733,15.9199665 22.4741248,17.0316506 22.2598958,18.0738544 C22.0456666,18.6296965 21.474389,19.1855385 20.9031115,18.9770977 C20.6888823,18.9770977 20.546063,18.9770977 20.3318339,18.768657 C20.1176047,18.5602162 19.9747853,18.2822953 19.9747853,17.9348939 L19.9747853,17.9348939 Z M25.4930919,8.96745666 C30.8371954,5.23589061 37.9858016,5.77866384 42.7746735,10.1886964 C43.1216932,10.5279297 43.1216932,11.2742429 42.7746735,11.7491695 C42.4276539,12.0884027 41.6642105,12.0884027 41.108979,11.7491695 C37.2223582,8.01760342 31.1842152,7.67837019 26.7423629,10.663623 C26.1871314,11.0028562 25.6318998,11.0028562 25.2848801,10.4600831 C24.7990525,9.98515656 24.9378604,9.30669 25.4930919,8.96745666 L25.4930919,8.96745666 Z" id="形状" fill="#577CFF"></path>
                                </g>
                            </g>
                        </g>
                    </g>
                </g>
            </g>
        </g>
    </g>
</svg>