<?xml version="1.0" encoding="UTF-8"?>
<svg width="254px" height="160px" viewBox="0 0 254 160" version="1.1" xmlns="http://www.w3.org/2000/svg" xmlns:xlink="http://www.w3.org/1999/xlink">
    <title>错误请求</title>
    <defs>
        <rect id="path-1" x="0" y="0" width="253.393665" height="62"></rect>
        <linearGradient x1="50%" y1="0%" x2="50%" y2="92.1298574%" id="linearGradient-3">
            <stop stop-color="#E2E8FF" offset="0%"></stop>
            <stop stop-color="#FFFFFF" stop-opacity="0" offset="100%"></stop>
        </linearGradient>
        <linearGradient x1="50%" y1="0%" x2="50%" y2="100%" id="linearGradient-4">
            <stop stop-color="#F4F6FF" offset="0%"></stop>
            <stop stop-color="#D0D7E9" offset="100%"></stop>
        </linearGradient>
        <linearGradient x1="50%" y1="100%" x2="50%" y2="0%" id="linearGradient-5">
            <stop stop-color="#577CFF" stop-opacity="0" offset="0%"></stop>
            <stop stop-color="#577CFF" offset="100%"></stop>
        </linearGradient>
    </defs>
    <g id="缺省页面" stroke="none" stroke-width="1" fill="none" fill-rule="evenodd">
        <g id="4-Http异常处理1" transform="translate(-720.000000, -353.000000)">
            <g id="main" transform="translate(108.000000, 76.000000)">
                <g transform="translate(612.000000, 277.000000)" id="错误请求">
                    <g id="bg" transform="translate(0.000000, 97.918552)">
                        <mask id="mask-2" fill="white">
                            <use xlink:href="#path-1"></use>
                        </mask>
                        <g id="矩形"></g>
                        <path d="M252.669683,64.1719457 C252.669683,29.9852699 196.269717,2.27149321 126.696833,2.27149321 C57.1239482,2.27149321 0.7239819,29.9852699 0.7239819,64.1719457 C0.7239819,98.3586215 252.669683,98.3586215 252.669683,64.1719457 Z" id="椭圆形" fill="url(#linearGradient-3)" fill-rule="nonzero" mask="url(#mask-2)"></path>
                        <g id="树" opacity="0.8" mask="url(#mask-2)">
                            <g transform="translate(20.995475, 0.461538)">
                                <g id="树1">
                                    <line x1="11.2217195" y1="27.239819" x2="11.2217195" y2="40.8144796" id="直线" stroke="#B3C4FF" stroke-width="4" stroke-linecap="round"></line>
                                    <path d="M10.855735,0 C2.62353556,8.64255993 -0.926638118,15.2153575 0.205213897,19.7183925 C1.90299192,26.472945 8.65953108,27.5114106 10.3295273,27.5114106 C11.9995235,27.5114106 21.719457,27.6395455 21.719457,18.6365724 C21.719457,12.6345903 18.0982163,6.42239953 10.855735,0 Z" id="路径-15" fill="#D5DFFF" fill-rule="nonzero"></path>
                                </g>
                                <g id="树2" transform="translate(184.615385, 5.067873)">
                                    <line x1="7.60180995" y1="19.1402715" x2="7.60180995" y2="28.6425339" id="直线" stroke="#B3C4FF" stroke-width="3" stroke-linecap="round"></line>
                                    <path d="M7.59901444,0 C1.8364749,6.14076628 -0.648646683,10.8109119 0.143649728,14.0104368 C1.33209434,18.8097241 6.06167175,19.5475812 7.2306691,19.5475812 C8.39966646,19.5475812 15.2036199,19.6386244 15.2036199,13.2417751 C15.2036199,8.9772089 12.6687514,4.56328388 7.59901444,0 Z" id="路径-15" fill="#D5DFFF" fill-rule="nonzero"></path>
                                </g>
                                <g id="树3" transform="translate(209.954751, 23.167421)">
                                    <line x1="5.42986425" y1="14.0045249" x2="5.42986425" y2="21.4705882" id="直线" stroke="#B3C4FF" stroke-width="3" stroke-linecap="round"></line>
                                    <path d="M5.7897253,0 C1.39921897,4.54871576 -0.494206997,8.0080829 0.109447412,10.3781013 C1.01492902,13.933129 4.61841658,14.4796898 5.50908122,14.4796898 C6.39974586,14.4796898 11.5837104,14.5471292 11.5837104,9.80872232 C11.5837104,6.64978438 9.65238204,3.38021028 5.7897253,0 Z" id="路径-15" fill="#D5DFFF" fill-rule="nonzero"></path>
                                </g>
                            </g>
                        </g>
                    </g>
                    <g id="网络获取失败-icon" transform="translate(56.000000, 0.000000)">
                        <g id="编组">
                            <circle id="椭圆形" fill="#577CFF" opacity="0.4" cx="70.7971185" cy="3.30827656" r="3.30827656"></circle>
                            <rect id="矩形" fill="#E8EDF9" x="33.0827656" y="3.30827656" width="75.4287057" height="75.4287057" rx="37.7143528"></rect>
                            <ellipse id="椭圆形" fill="url(#linearGradient-4)" cx="70.697417" cy="50.4398879" rx="70.697417" ry="28.2789668"></ellipse>
                            <polygon id="路径" fill="url(#linearGradient-5)" fill-rule="nonzero" opacity="0.2" points="28.2789668 55.5790463 113.115867 55.5790463 141.394834 130 0 130"></polygon>
                            <ellipse id="椭圆形" fill="#577CFF" cx="70.8696286" cy="58.8873228" rx="42.4184502" ry="15.2180722"></ellipse>
                            <ellipse id="椭圆形" fill="#FFFFFF" opacity="0.1" cx="70.7843302" cy="61.599437" rx="23.6821705" ry="8.56589147"></ellipse>
                            <ellipse id="椭圆形" fill="#577CFF" opacity="0.4" cx="70.7971185" cy="33.0827656" rx="5.95489782" ry="3.96993188"></ellipse>
                            <ellipse id="椭圆形" fill="#577CFF" opacity="0.4" transform="translate(110.496437, 39.699319) rotate(10.000000) translate(-110.496437, -39.699319) " cx="110.496437" cy="39.6993188" rx="5.95489782" ry="3.96993188"></ellipse>
                            <ellipse id="椭圆形" fill="#577CFF" opacity="0.4" transform="translate(31.097800, 40.360974) rotate(-10.000000) translate(-31.097800, -40.360974) " cx="31.0977997" cy="40.3609741" rx="5.95489782" ry="3.96993188"></ellipse>
                        </g>
                        <path d="M21.5341671,8.68729359 C22.1864436,8.68729359 22.9319026,9.43275251 22.9319026,10.1782114 L22.9318604,12.7872936 L25.6341912,12.7873177 C26.3796501,12.7873177 26.9387443,13.5327766 26.9387445,14.1850532 C27.0319268,14.9305121 26.1932855,15.5827886 25.4478265,15.5827886 L22.9318604,15.5822936 L22.9319026,18.2850773 C22.7455378,19.0305362 22.1864436,19.7759951 21.5341671,19.7759951 L21.9068966,20.241907 C21.1614377,20.241907 20.1364317,19.0305362 20.1364317,18.2850773 L20.1358604,15.5822936 L17.3409606,15.5827886 C16.5955017,15.5827886 15.7568604,14.9305121 15.7568604,14.1850532 C15.7568604,13.4395942 16.5023193,12.7873177 17.3409606,12.7873177 L20.1358604,12.7872936 L20.1364317,10.1782114 C20.1364317,9.43275251 20.8818906,8.68729359 21.5341671,8.68729359 Z" id="形状结合" fill="#E6E9F3"></path>
                        <path d="M135.282189,24.2866873 L130.995801,24.2866873 C130.343524,24.2866873 129.970795,23.8207755 129.970795,23.168499 C129.970795,22.5162224 130.436706,22.0503105 130.995801,22.0503105 L135.282189,22.0503105 C135.748101,22.0503105 136.307196,22.702587 136.307196,23.168499 C136.400378,23.8207755 135.934466,24.2866873 135.282189,24.2866873 Z M126.057135,24.2866873 L121.770746,24.2866873 C121.11847,24.2866873 120.74574,23.8207755 120.74574,23.168499 C120.74574,22.5162224 121.211652,22.0503105 121.770746,22.0503105 L126.057135,22.0503105 C126.709412,22.0503105 127.082141,22.702587 127.082141,23.168499 C127.175324,23.8207755 126.709412,24.2866873 126.057135,24.2866873 Z M127.548053,29.8776294 L127.548053,25.5912405 C127.548053,24.938964 128.013965,24.473052 128.573059,24.473052 C129.132153,24.473052 129.598065,24.9389638 129.598065,25.5912405 L129.598065,29.8776294 C129.4117,30.5299059 128.945789,30.9958177 128.573059,30.9958177 C128.013965,30.9026353 127.548053,30.5299059 127.548053,29.8776294 Z M127.548053,20.6525751 L127.548053,16.3661862 C127.548053,15.7139096 128.013965,15.2479977 128.573059,15.2479977 C129.132153,15.2479977 129.598065,15.7139095 129.598065,16.3661862 L129.598065,20.6525751 C129.4117,21.3048516 128.945789,21.7707634 128.573059,21.7707634 C128.013965,21.677581 127.548053,21.3048516 127.548053,20.6525751 Z" id="形状" fill="#E6E9F3"></path>
                        <polygon id="路径" fill="#E6E9F3" points="114.1643 13.3878063 112.766565 10.7787 110.157459 9.28778216 112.766565 7.61049955 114.1643 5.00139326 115.655218 7.61049955 118.543872 9.28778216 115.655218 10.7787"></polygon>
                    </g>
                </g>
            </g>
        </g>
    </g>
</svg>