<?xml version="1.0" encoding="UTF-8"?>
<svg width="254px" height="160px" viewBox="0 0 254 160" version="1.1" xmlns="http://www.w3.org/2000/svg" xmlns:xlink="http://www.w3.org/1999/xlink">
    <title>网络错误</title>
    <defs>
        <rect id="path-1" x="0" y="0" width="253.393665" height="64"></rect>
        <linearGradient x1="50%" y1="0%" x2="50%" y2="92.1298574%" id="linearGradient-3">
            <stop stop-color="#E2E8FF" offset="0%"></stop>
            <stop stop-color="#FFFFFF" stop-opacity="0" offset="100%"></stop>
        </linearGradient>
        <linearGradient x1="50%" y1="0%" x2="50%" y2="100%" id="linearGradient-4">
            <stop stop-color="#F4F6FF" offset="0%"></stop>
            <stop stop-color="#D0D7E9" offset="100%"></stop>
        </linearGradient>
    </defs>
    <g id="缺省页面" stroke="none" stroke-width="1" fill="none" fill-rule="evenodd">
        <g id="3-网络错误" transform="translate(-720.000000, -342.000000)">
            <g id="main" transform="translate(108.000000, 76.000000)">
                <g transform="translate(612.000000, 266.000000)" id="网络错误">
                    <g id="bg" transform="translate(0.000000, 95.918552)">
                        <mask id="mask-2" fill="white">
                            <use xlink:href="#path-1"></use>
                        </mask>
                        <g id="矩形"></g>
                        <path d="M252.669683,66.1719457 C252.669683,31.9852699 196.269717,4.27149321 126.696833,4.27149321 C57.1239482,4.27149321 0.7239819,31.9852699 0.7239819,66.1719457 C0.7239819,100.358622 252.669683,100.358622 252.669683,66.1719457 Z" id="椭圆形" fill="url(#linearGradient-3)" fill-rule="nonzero" mask="url(#mask-2)"></path>
                        <g id="树" opacity="0.8" mask="url(#mask-2)">
                            <g transform="translate(20.995475, 2.461538)">
                                <g id="树1">
                                    <line x1="11.2217195" y1="27.239819" x2="11.2217195" y2="40.8144796" id="直线" stroke="#B3C4FF" stroke-width="4" stroke-linecap="round"></line>
                                    <path d="M10.855735,0 C2.62353556,8.64255993 -0.926638118,15.2153575 0.205213897,19.7183925 C1.90299192,26.472945 8.65953108,27.5114106 10.3295273,27.5114106 C11.9995235,27.5114106 21.719457,27.6395455 21.719457,18.6365724 C21.719457,12.6345903 18.0982163,6.42239953 10.855735,0 Z" id="路径-15" fill="#D5DFFF" fill-rule="nonzero"></path>
                                </g>
                                <g id="树2" transform="translate(184.615385, 5.067873)">
                                    <line x1="7.60180995" y1="19.1402715" x2="7.60180995" y2="28.6425339" id="直线" stroke="#B3C4FF" stroke-width="3" stroke-linecap="round"></line>
                                    <path d="M7.59901444,0 C1.8364749,6.14076628 -0.648646683,10.8109119 0.143649728,14.0104368 C1.33209434,18.8097241 6.06167175,19.5475812 7.2306691,19.5475812 C8.39966646,19.5475812 15.2036199,19.6386244 15.2036199,13.2417751 C15.2036199,8.9772089 12.6687514,4.56328388 7.59901444,0 Z" id="路径-15" fill="#D5DFFF" fill-rule="nonzero"></path>
                                </g>
                                <g id="树3" transform="translate(209.954751, 23.167421)">
                                    <line x1="5.42986425" y1="14.0045249" x2="5.42986425" y2="21.4705882" id="直线" stroke="#B3C4FF" stroke-width="3" stroke-linecap="round"></line>
                                    <path d="M5.7897253,0 C1.39921897,4.54871576 -0.494206997,8.0080829 0.109447412,10.3781013 C1.01492902,13.933129 4.61841658,14.4796898 5.50908122,14.4796898 C6.39974586,14.4796898 11.5837104,14.5471292 11.5837104,9.80872232 C11.5837104,6.64978438 9.65238204,3.38021028 5.7897253,0 Z" id="路径-15" fill="#D5DFFF" fill-rule="nonzero"></path>
                                </g>
                            </g>
                        </g>
                    </g>
                    <g id="网络错误-icon" transform="translate(67.000000, 0.000000)">
                        <polygon id="Path-8" fill="#D4DBF3" points="58.4874835 107.822761 58.4874835 115.70621 64.6086479 115.70621 64.6086479 106.891923"></polygon>
                        <path d="M90.8994146,17.6044736 C101.255481,32.2735489 106.433514,45.3987613 106.433514,56.9801108 C106.433514,74.3521352 99.0590573,85.3933895 87.6097051,94.6855608 C71.0973941,108.086775 58.1061331,110.65429 41.8311031,107.207674 C30.9810831,104.909929 20.9847052,99.0411889 11.8419693,89.6014531 L90.8994146,17.6044736 Z" id="Path-5" fill="url(#linearGradient-4)"></path>
                        <path d="M98.2112351,124.689276 C92.4264555,100.907001 86.4337409,89.5156349 80.233091,90.5151783 C73.802882,91.5517266 70.5834599,99.9477093 70.5748247,115.703127 L58.4860086,115.703127 L58.4860086,108.362036 C57.2333211,108.47949 56.1470576,108.549689 55.2272181,108.572632 C54.285689,108.592479 53.5093678,108.595239 52.8982545,108.580911 L52.8982545,123.406209 L74.7848262,130 L98.2112351,124.689276 Z" id="Path-7" fill="#E9EEFD"></path>
                        <path d="M75.1142969,129.834429 L98.2292855,124.755621 C92.8683117,101.316814 87.3401825,90.6481879 81.6448979,92.7497421 C75.524566,95.0081384 73.347699,107.369701 75.1142969,129.834429 Z" id="Path-6" fill="#D4DBF3"></path>
                        <circle id="Oval-4" fill="#577CFF" opacity="0.4" cx="83.8498618" cy="101.683261" r="2.59556503"></circle>
                        <path d="M90.5850828,17.1626388 C85.9858726,13.1045326 62.7413013,28.3391645 43.0492213,46.479163 C23.3571413,64.6191615 8.13366599,83.9580146 11.8871951,89.6577518 C15.6407242,95.357489 39.1042122,79.6698205 58.8150393,61.5125525 C78.5258664,43.3552845 95.1842929,21.220745 90.5850828,17.1626388 Z" id="Path-4" fill="#E8EDF9"></path>
                        <polygon id="Combined-Shape" fill="#577CFF" opacity="0.6" points="60.656275 59.9187079 36.7915269 40.3290339 34.390207 42.4478685 52.7517517 66.8055048"></polygon>
                        <path d="M31.5677663,31.6030051 C34.8443171,31.6030051 37.5004863,34.2591744 37.5004863,37.5357252 C37.5004863,40.812276 34.8443171,43.4684453 31.5677663,43.4684453 C28.2912154,43.4684453 25.6350462,40.812276 25.6350462,37.5357252 C25.6350462,34.2591744 28.2912154,31.6030051 31.5677663,31.6030051 Z M32.9000331,20.4268914 C34.2141369,20.394501 35.3056861,21.433535 35.3380766,22.7476389 C35.370467,24.0617427 34.3314329,25.1532919 33.0173291,25.1856824 C28.4082341,25.2992887 24.7636175,26.7571 21.9517711,29.5657065 C19.1665993,32.3476691 17.8095138,35.9849912 17.8790924,40.6322262 C17.898771,41.9465818 16.8492279,43.0280302 15.5348722,43.0477088 C14.2205166,43.0673874 13.1390682,42.0178443 13.1193896,40.7034886 C13.0312043,34.8134891 14.854454,29.9267323 18.5877166,26.1977714 C22.2943045,22.4954544 27.1089795,20.569631 32.9000331,20.4268914 Z M30.5192775,9.23776292 C30.8603709,10.6300817 30.0081844,12.03529 28.6158656,12.3763834 C21.3194553,14.1638747 15.9154489,16.9609788 12.3522708,20.7149862 C8.79030638,24.4677149 6.37724872,29.7650628 5.15158558,36.6669578 C4.90094259,38.0783665 3.55358349,39.019353 2.14217446,38.7687119 C0.730766109,38.518067 -0.210220412,37.1707079 0.0404206399,35.7592989 C1.4332018,27.9163482 4.26927764,21.6903551 8.58713781,17.141248 C12.9037844,12.5934194 19.1854826,9.3420236 27.380657,7.33435103 C28.7729758,6.99325758 30.178184,7.84544411 30.5192775,9.23776292 Z" id="形状结合" fill="#577CFF"></path>
                        <path d="M119.083691,38.366761 L114.813266,38.366761 C114.163419,38.366761 113.792078,37.9025845 113.792078,37.2527372 C113.792078,36.6028899 114.256254,36.1387132 114.813266,36.1387132 L119.083691,36.1387132 C119.547868,36.1387132 120.10488,36.7885605 120.10488,37.2527372 C120.197715,37.9025845 119.733539,38.366761 119.083691,38.366761 Z M109.892994,38.366761 L105.622569,38.366761 C104.972721,38.366761 104.60138,37.9025845 104.60138,37.2527372 C104.60138,36.6028899 105.065557,36.1387132 105.622569,36.1387132 L109.892994,36.1387132 C110.542841,36.1387132 110.914182,36.7885605 110.914182,37.2527372 C111.007018,37.9025845 110.542841,38.366761 109.892994,38.366761 Z M111.378359,43.9368809 L111.378359,39.6664557 C111.378359,39.0166085 111.842536,38.5524317 112.399548,38.5524317 C112.95656,38.5524317 113.420736,39.0166083 113.420736,39.6664557 L113.420736,43.9368809 C113.235066,44.5867282 112.770889,45.0509047 112.399548,45.0509047 C111.842536,44.9580694 111.378359,44.5867282 111.378359,43.9368809 Z M111.378359,34.7461833 L111.378359,30.4757582 C111.378359,29.8259109 111.842536,29.3617342 112.399548,29.3617342 C112.95656,29.3617342 113.420736,29.8259107 113.420736,30.4757582 L113.420736,34.7461833 C113.235066,35.3960306 112.770889,35.8602072 112.399548,35.8602072 C111.842536,35.7673718 111.378359,35.3960306 111.378359,34.7461833 Z" id="形状" fill="#E6E9F3"></path>
                        <path d="M10.7792932,54.953425 C11.4291405,54.953425 12.1718231,55.6961076 12.1718231,56.4387902 L12.1715028,59.037425 L14.8640477,59.0381794 C15.6067303,59.0381794 16.1637422,59.780862 16.1637424,60.4307093 C16.2565777,61.1733919 15.4210598,61.8232392 14.678377,61.8232392 L12.1715028,61.822425 L12.1718231,64.5154637 C11.9861524,65.2581464 11.4291405,66.000829 10.7792932,66.000829 L11.1506346,66.4650057 C10.407952,66.4650057 9.38676334,65.2581464 9.38676334,64.5154637 L9.38650285,61.822425 L6.60170342,61.8232392 C5.85902081,61.8232392 5.02350285,61.1733919 5.02350285,60.4307093 C5.02350285,59.6880267 5.76618546,59.0381794 6.60170342,59.0381794 L9.38650285,59.037425 L9.38676334,56.4387902 C9.38676334,55.6961076 10.129446,54.953425 10.7792932,54.953425 Z" id="形状结合" fill="#E6E9F3"></path>
                        <g id="Group" transform="translate(35.646438, 0.000000)" fill="#577CFF">
                            <path d="M6.92557434,5.22898319 L9.6001978,0.817603601 C10.0941485,0.00290795222 11.1442575,-0.245494467 11.9413909,0.266440162 C12.7321791,0.774299775 12.9731981,1.83794057 12.4830999,2.64628216 L9.8330089,7.01719922 L14.0333679,9.60062773 C14.8291289,10.0900601 15.0714944,11.1248249 14.5720662,11.9094073 C14.0750553,12.6901924 13.0320657,12.9262319 12.2400943,12.4391303 L8.0923878,9.88808573 L5.35470485,14.4034722 C4.86075414,15.2181679 3.81064518,15.4665703 3.01351175,14.9546357 C2.22272353,14.4467761 1.98170453,13.3831353 2.47180277,12.5747937 L5.18495324,8.09986971 L0.798577996,5.40203203 C0.00281704191,4.91259969 -0.239548448,3.87783484 0.259879696,3.09325243 C0.756890615,2.31246739 1.79988027,2.07642788 2.59185166,2.56352944 L6.92557434,5.22898319 Z" id="Combined-Shape"></path>
                        </g>
                    </g>
                </g>
            </g>
        </g>
    </g>
</svg>