<?xml version="1.0" encoding="UTF-8"?>
<svg width="254px" height="142px" viewBox="0 0 254 142" version="1.1" xmlns="http://www.w3.org/2000/svg" xmlns:xlink="http://www.w3.org/1999/xlink">
    <title>暂无消息</title>
    <defs>
        <rect id="path-1" x="0" y="0" width="253.393665" height="57.918552"></rect>
        <linearGradient x1="50%" y1="0%" x2="50%" y2="92.1298574%" id="linearGradient-3">
            <stop stop-color="#E2E8FF" offset="0%"></stop>
            <stop stop-color="#FFFFFF" stop-opacity="0" offset="100%"></stop>
        </linearGradient>
        <linearGradient x1="50%" y1="0%" x2="50%" y2="100%" id="linearGradient-4">
            <stop stop-color="#F4F6FF" offset="0%"></stop>
            <stop stop-color="#D0D7E9" offset="100%"></stop>
        </linearGradient>
    </defs>
    <g id="我的消息" stroke="none" stroke-width="1" fill="none" fill-rule="evenodd">
        <g id="2-消息中心入口-无未读消息" transform="translate(-1154.000000, -143.000000)">
            <g id="未读消息" transform="translate(1101.000000, 51.605339)">
                <g id="暂无消息" transform="translate(53.000000, 91.394661)">
                    <g id="bg" transform="translate(0.000000, 84.000000)">
                        <mask id="mask-2" fill="white">
                            <use xlink:href="#path-1"></use>
                        </mask>
                        <g id="矩形"></g>
                        <path d="M252.669683,60.0904977 C252.669683,25.9038219 196.269717,-1.80995475 126.696833,-1.80995475 C57.1239482,-1.80995475 0.7239819,25.9038219 0.7239819,60.0904977 C0.7239819,94.2771736 252.669683,94.2771736 252.669683,60.0904977 Z" id="椭圆形" fill="url(#linearGradient-3)" fill-rule="nonzero" mask="url(#mask-2)"></path>
                        <g id="树" opacity="0.8" mask="url(#mask-2)">
                            <g transform="translate(20.995475, -3.619910)">
                                <g id="树1">
                                    <line x1="11.2217195" y1="27.239819" x2="11.2217195" y2="40.8144796" id="直线" stroke="#B3C4FF" stroke-width="4" stroke-linecap="round"></line>
                                    <path d="M10.855735,0 C2.62353556,8.64255993 -0.926638118,15.2153575 0.205213897,19.7183925 C1.90299192,26.472945 8.65953108,27.5114106 10.3295273,27.5114106 C11.9995235,27.5114106 21.719457,27.6395455 21.719457,18.6365724 C21.719457,12.6345903 18.0982163,6.42239953 10.855735,0 Z" id="路径-15" fill="#D5DFFF" fill-rule="nonzero"></path>
                                </g>
                                <g id="树2" transform="translate(184.615385, 5.067873)">
                                    <line x1="7.60180995" y1="19.1402715" x2="7.60180995" y2="28.6425339" id="直线" stroke="#B3C4FF" stroke-width="3" stroke-linecap="round"></line>
                                    <path d="M7.59901444,0 C1.8364749,6.14076628 -0.648646683,10.8109119 0.143649728,14.0104368 C1.33209434,18.8097241 6.06167175,19.5475812 7.2306691,19.5475812 C8.39966646,19.5475812 15.2036199,19.6386244 15.2036199,13.2417751 C15.2036199,8.9772089 12.6687514,4.56328388 7.59901444,0 Z" id="路径-15" fill="#D5DFFF" fill-rule="nonzero"></path>
                                </g>
                                <g id="树3" transform="translate(209.954751, 23.167421)">
                                    <line x1="5.42986425" y1="14.0045249" x2="5.42986425" y2="21.4705882" id="直线" stroke="#B3C4FF" stroke-width="3" stroke-linecap="round"></line>
                                    <path d="M5.7897253,0 C1.39921897,4.54871576 -0.494206997,8.0080829 0.109447412,10.3781013 C1.01492902,13.933129 4.61841658,14.4796898 5.50908122,14.4796898 C6.39974586,14.4796898 11.5837104,14.5471292 11.5837104,9.80872232 C11.5837104,6.64978438 9.65238204,3.38021028 5.7897253,0 Z" id="路径-15" fill="#D5DFFF" fill-rule="nonzero"></path>
                                </g>
                            </g>
                        </g>
                    </g>
                    <g transform="translate(47.000000, 0.000000)">
                        <path d="M7.22872887,3 C8.04487564,3 8.97761483,3.90322579 8.97761483,4.80645157 L8.977,7.967 L12.3587945,7.96774193 C13.2915337,7.96774193 13.991088,8.87096772 13.9910883,9.66129026 C14.1076807,10.564516 13.0583491,11.3548386 12.1256097,11.3548386 L8.977,11.354 L8.97761483,14.6290322 C8.74442998,15.532258 8.04487564,16.4354838 7.22872887,16.4354838 L7.69509857,17 C6.76235938,17 5.47984292,15.532258 5.47984292,14.6290322 L5.479,11.354 L1.9820708,11.3548386 C1.04933161,11.3548386 0,10.564516 0,9.66129026 C0,8.75806447 0.932739189,7.96774193 1.9820708,7.96774193 L5.479,7.967 L5.47984292,4.80645157 C5.47984292,3.90322579 6.41258211,3 7.22872887,3 Z" id="形状结合" fill="#D0D9FA"></path>
                        <path d="M158.734972,37.9053254 L153.505429,37.9053254 C152.709629,37.9053254 152.254886,37.3431953 152.254886,36.5562131 C152.254886,35.7692309 152.823314,35.2071006 153.505429,35.2071006 L158.734972,35.2071006 C159.3034,35.2071006 159.985515,35.9940828 159.985515,36.5562131 C160.0992,37.3431953 159.530772,37.9053254 158.734972,37.9053254 Z M147.480086,37.9053254 L142.250543,37.9053254 C141.454743,37.9053254 141,37.3431953 141,36.5562131 C141,35.7692309 141.568428,35.2071006 142.250543,35.2071006 L147.480086,35.2071006 C148.275886,35.2071006 148.730629,35.9940828 148.730629,36.5562131 C148.844314,37.3431953 148.275886,37.9053254 147.480086,37.9053254 Z M149.299057,44.6508877 L149.299057,39.47929 C149.299057,38.6923078 149.867486,38.1301775 150.5496,38.1301775 C151.231714,38.1301775 151.800143,38.6923076 151.800143,39.47929 L151.800143,44.6508877 C151.572771,45.4378699 151.004343,46 150.5496,46 C149.867486,45.8875739 149.299057,45.4378699 149.299057,44.6508877 Z M149.299057,33.5207102 L149.299057,28.3491125 C149.299057,27.5621303 149.867486,27 150.5496,27 C151.231714,27 151.800143,27.5621301 151.800143,28.3491125 L151.800143,33.5207102 C151.572771,34.3076924 151.004343,34.8698225 150.5496,34.8698225 C149.867486,34.7573964 149.299057,34.3076924 149.299057,33.5207102 Z" id="形状" fill="#D0D9FA"></path>
                        <polygon id="路径" fill="#D0D9FA" points="134.777778 10 133.111111 6.88888887 130 5.11111113 133.111111 3.11111113 134.777778 0 136.555555 3.11111113 140 5.11111113 136.555555 6.88888887"></polygon>
                        <g transform="translate(14.000000, 9.000000)" id="路径">
                            <path d="M110.697914,94.4531655 L70.6909338,94.4531655 C69.9331336,94.4531655 69.2170473,94.7855276 68.7234343,95.3636992 L63.4466426,101.574717 C61.8441386,103.37155 59.3135033,103.357701 58.2776113,102.15635 L54.1409959,95.3498508 C53.6508591,94.7820655 52.9382489,94.4531655 52.1874011,94.4531655 L12.3020857,94.4531655 C5.50969365,94.4531655 0.00347614741,88.9068723 0.00347614741,82.0657516 L0.00347614741,12.3874139 C0.00347614741,5.5462932 5.50969365,0 12.3020857,0 L110.70139,0 C117.493783,0 123,5.5462932 123,12.3874139 L123,82.0657516 C123,88.9068723 117.490306,94.4531655 110.697914,94.4531655 Z" fill="#E8EDF9"></path>
                            <path d="M107.180053,94.7924518 L68.4453425,94.7924518 C67.7118754,94.7924518 67.0166459,95.1109655 66.5404137,95.6649024 L61.4339532,101.6128 C60.439775,102.772605 58.6426068,102.779529 57.6380002,101.626648 L52.4237791,95.651054 C51.9475469,95.1040413 51.2592697,94.7924518 50.5327549,94.7924518 L11.909281,94.7924518 C5.33241013,94.7924518 0,89.4815818 0,82.931278 L0,16.2165027 C0,9.66619888 5.33241013,4.35532887 11.909281,4.35532887 L107.180053,4.35532887 C113.756924,4.35532887 119.089334,9.66619888 119.089334,16.2165027 L119.089334,82.9347401 C119.089334,89.4850439 113.7604,94.7924518 107.180053,94.7924518 Z" fill="url(#linearGradient-4)"></path>
                            <path d="M22.1048214,60.2925693 L97.3182229,60.2925693 C99.1014865,60.2925693 100.547564,58.8523334 100.547564,57.0762732 L100.547564,57.0762732 C100.547564,55.300213 99.1014865,53.8599771 97.3182229,53.8599771 L22.1048214,53.8599771 C20.3215578,53.8599771 18.8754804,55.300213 18.8754804,57.0762732 L18.8754804,57.0762732 C18.8754804,58.8523334 20.3215578,60.2925693 22.1048214,60.2925693 Z" fill="#577CFF" opacity="0.4"></path>
                            <path d="M50.5605641,73.590517 L97.3182229,73.590517 C99.1014865,73.590517 100.547564,72.1502811 100.547564,70.3742209 L100.547564,70.3742209 C100.547564,68.5981607 99.1014865,67.1579248 97.3182229,67.1579248 L50.5605641,67.1579248 C48.7773005,67.1579248 47.3312169,68.5981607 47.3312169,70.3742209 L47.3312169,70.3742209 C47.327747,72.1502811 48.7773005,73.590517 50.5605641,73.590517 Z" fill="#577CFF" opacity="0.4"></path>
                            <path d="M61.3261926,46.9946217 L97.3182229,46.9946217 C99.1014865,46.9946217 100.547564,45.5543857 100.547564,43.7783255 L100.547564,43.7783255 C100.547564,42.0022654 99.1014865,40.5620294 97.3182229,40.5620294 L61.3261926,40.5620294 C59.542929,40.5620294 58.0968517,42.0022654 58.0968517,43.7783255 L58.0968517,43.7783255 C58.0968517,45.5543857 59.542929,46.9946217 61.3261926,46.9946217 Z" fill="#577CFF" opacity="0.4"></path>
                            <path d="M74.2470326,33.7001361 L97.3182229,33.7001361 C99.1014865,33.7001361 100.547564,32.2599001 100.547564,30.48384 L100.547564,30.48384 C100.547564,28.7077798 99.1014865,27.2675438 97.3182229,27.2675438 L74.2470326,27.2675438 C72.4637689,27.2675438 71.0176916,28.7077798 71.0176916,30.48384 L71.0176916,30.48384 C71.0176916,32.2599001 72.4637689,33.7001361 74.2470326,33.7001361 Z" fill="#577CFF" opacity="0.4"></path>
                            <path d="M42.7218517,32.3637633 L50.8212752,24.2970572 C52.1769726,22.946836 52.1769726,20.748399 50.8212752,19.3981778 C50.1642833,18.7438398 49.2917703,18.3837808 48.3601628,18.3837808 C47.4320314,18.3837808 46.5560423,18.7438398 45.8990504,19.3981778 L37.799627,27.4648839 L29.7002035,19.3981778 C28.344506,18.0479566 26.1371524,18.0479566 24.7814549,19.3981778 C23.4257574,20.748399 23.4257574,22.946836 24.7814549,24.2970572 L32.8808784,32.3637633 L24.7814549,40.4304694 C23.4257574,41.7806906 23.4257574,43.9791277 24.7814549,45.3293489 C25.4593036,46.0044594 26.3491974,46.3437458 27.2425673,46.3437458 C28.132461,46.3437458 29.0258309,46.0044594 29.7036796,45.3293489 L37.8031031,37.2626428 L45.9025266,45.3293489 L45.9025266,45.3293489 C46.5595184,45.9836868 47.4320314,46.3437458 48.3636389,46.3437458 C49.2917703,46.3437458 50.1677594,45.9836868 50.8247513,45.3293489 C52.1804488,43.9791277 52.1804488,41.7806906 50.8247513,40.4304694 L42.7218517,32.3637633 Z" fill="#577CFF"></path>
                        </g>
                    </g>
                </g>
            </g>
        </g>
    </g>
</svg>