<?xml version="1.0" encoding="UTF-8"?>
<svg width="36px" height="36px" viewBox="0 0 36 36" version="1.1" xmlns="http://www.w3.org/2000/svg" xmlns:xlink="http://www.w3.org/1999/xlink">
    <title>坪效</title>
    <defs>
        <linearGradient x1="50%" y1="0%" x2="50%" y2="99.4958411%" id="linearGradient-1">
            <stop stop-color="#52EDFF" offset="0%"></stop>
            <stop stop-color="#00C7DF" offset="100%"></stop>
        </linearGradient>
    </defs>
    <g id="客流分析" stroke="none" stroke-width="1" fill="none" fill-rule="evenodd">
        <g id="6-客流分析-客流统计-修改数据总览" transform="translate(-549.000000, -690.000000)" fill="url(#linearGradient-1)" fill-rule="nonzero">
            <g id="10" transform="translate(500.000000, 21.000000)">
                <g transform="translate(30.000000, 662.000000)">
                    <g id="坪效" transform="translate(19.000000, 7.000000)">
                        <g transform="translate(4.000000, 3.000000)" id="形状结合">
                            <path d="M27.8571429,22.879721 L27.8571429,25.7142857 C27.8571429,28.0812054 24.2594196,30 19.8214286,30 C15.3834375,30 11.7857143,28.0812054 11.7857143,25.7142857 L11.7857143,25.7142857 L11.7857143,22.879721 C13.3192299,24.5665179 16.3422656,25.7142857 19.8214286,25.7142857 C23.3005915,25.7142857 26.3236272,24.5665179 27.8571429,22.879721 L27.8571429,22.879721 Z M0,18.5940067 C1.53351563,20.2808036 4.55655134,21.4285714 8.03571429,21.4285714 C8.96795759,21.4285714 9.86742188,21.3460714 10.7142857,21.1929576 L10.7142857,21.1929576 L10.7142857,25.470067 C9.87639509,25.6280357 8.97502232,25.7142857 8.03571429,25.7142857 C3.59772321,25.7142857 0,23.7954911 0,21.4285714 L0,21.4285714 Z M27.8571429,17.5225781 L27.8571429,20.3571429 C27.8571429,22.7240625 24.2594196,24.6428571 19.8214286,24.6428571 C15.3834375,24.6428571 11.7857143,22.7240625 11.7857143,20.3571429 L11.7857143,20.3571429 L11.7857143,17.5225781 C13.3192299,19.209375 16.3422656,20.3571429 19.8214286,20.3571429 C23.3005915,20.3571429 26.3236272,19.209375 27.8571429,17.5225781 L27.8571429,17.5225781 Z M0,13.2368638 C1.53351563,14.9236607 4.55655134,16.0714286 8.03571429,16.0714286 C8.96795759,16.0714286 9.86742188,15.9889286 10.7142857,15.8358147 L10.7142857,15.8358147 L10.7142857,20.1129241 C9.87639509,20.2708929 8.97502232,20.3571429 8.03571429,20.3571429 C3.59772321,20.3571429 0,18.4383482 0,16.0714286 L0,16.0714286 Z M19.8214286,9.64285714 C24.2594196,9.64285714 27.8571429,11.5616183 27.8571429,13.9285714 L27.8571429,13.9285714 L27.8571429,15 C27.8571429,17.3669196 24.2594196,19.2857143 19.8214286,19.2857143 C15.3834375,19.2857143 11.7857143,17.3669196 11.7857143,15 L11.7857143,15 L11.7857143,13.9285714 C11.7857143,11.5616183 15.3834375,9.64285714 19.8214286,9.64285714 Z M16.0714286,7.87972098 L16.0714286,9.09261161 C12.9122879,10.0174554 10.7142857,12.0747656 10.7142857,14.4642857 L10.7142857,14.4642857 L10.7142857,14.7557813 C9.87639509,14.91375 8.97502232,15 8.03571429,15 C3.59772321,15 0,13.0812054 0,10.7142857 L0,10.7142857 L0,7.87972098 C1.53351563,9.56651786 4.55655134,10.7142857 8.03571429,10.7142857 C11.5148772,10.7142857 14.5379129,9.56651786 16.0714286,7.87972098 L16.0714286,7.87972098 Z M8.03571429,0 C12.4737054,0 16.0714286,1.91876116 16.0714286,4.28571429 L16.0714286,4.28571429 L16.0714286,5.35714286 C16.0714286,7.7240625 12.4737054,9.64285714 8.03571429,9.64285714 C3.59772321,9.64285714 0,7.7240625 0,5.35714286 L0,5.35714286 L0,4.28571429 C0,1.91876116 3.59772321,0 8.03571429,0 Z"></path>
                        </g>
                    </g>
                </g>
            </g>
        </g>
    </g>
</svg>