<?xml version="1.0" encoding="UTF-8"?>
<svg width="36px" height="36px" viewBox="0 0 36 36" version="1.1" xmlns="http://www.w3.org/2000/svg" xmlns:xlink="http://www.w3.org/1999/xlink">
    <title>驻留时长</title>
    <defs>
        <linearGradient x1="50%" y1="0%" x2="50%" y2="100%" id="linearGradient-1">
            <stop stop-color="#FEC807" offset="0%"></stop>
            <stop stop-color="#FFA300" offset="100%"></stop>
        </linearGradient>
    </defs>
    <g id="工作台" stroke="none" stroke-width="1" fill="none" fill-rule="evenodd">
        <g id="5-工作台-设置-修改数据总览数据" transform="translate(-549.000000, -473.000000)" fill="url(#linearGradient-1)">
            <g id="5" transform="translate(500.000000, 114.000000)">
                <g transform="translate(30.000000, 352.000000)">
                    <g id="驻留时长" transform="translate(19.000000, 7.000000)">
                        <g transform="translate(5.000000, 3.000000)" id="形状">
                            <path d="M25.7005119,27.3638904 C26.4215851,27.3638904 26.9985036,27.9541643 26.9985036,28.685299 C27.0017975,29.0307434 26.8642905,29.3661263 26.6228148,29.6109558 C26.3779853,29.8591392 26.0459563,29.9966462 25.7005119,30 L1.2980524,30 C0.95260802,29.9966462 0.620578953,29.8591392 0.375749439,29.6109558 C0.130919926,29.3627725 -0.00323323241,29.0307434 5.91972634e-05,28.685299 C5.91972634e-05,27.9575182 0.583686835,27.3705981 1.2980524,27.3705981 L2.99173602,27.3705981 L2.99173602,23.9765232 C2.99173602,23.9195081 2.99844368,23.862493 3.00515134,23.8054779 C3.14601216,20.1397429 7.34835984,16.9569592 10.2594834,15.1693684 C7.34165218,13.3784237 3.14265833,10.1855785 3.00179751,6.51313583 C2.99508985,6.4628284 2.99173602,6.41587479 2.99173602,6.36556736 L2.99173602,2.6294019 L1.2980524,2.6294019 C0.95260802,2.62604807 0.620578953,2.48854108 0.375749439,2.24035774 C0.130919926,1.9921744 -0.00323323241,1.66014533 5.91972634e-05,1.31470095 C5.91972634e-05,0.586920067 0.583686835,0 1.2980524,0 L25.7005119,0 C26.4215851,0 26.9985036,0.590273896 26.9985036,1.31470095 C27.0017975,1.66014533 26.8642905,1.99552823 26.6228148,2.24035774 C26.3779853,2.48854108 26.0459563,2.62604807 25.7005119,2.6294019 L23.8995057,2.6294019 L23.8995057,6.36221353 C23.8995057,6.41252096 23.8961519,6.45947457 23.8894442,6.509782 C23.7485834,10.1822247 19.8682033,13.3750699 16.9503721,15.1626607 C19.8849725,16.9636669 23.7754141,20.1833426 23.8894442,23.882616 C23.8927981,23.9161543 23.8927981,23.9429849 23.8927981,23.9765232 L23.8927981,23.9899385 C23.8961519,24.0670766 23.8961519,24.1475685 23.8961519,24.2314142 L23.8961519,27.3672443 L25.7005119,27.3638904 Z M21.0923654,25.7272219 C21.0957047,25.0061487 20.5154923,24.4192286 19.7944191,24.412521 L7.07669969,24.412521 C6.73125531,24.4158748 6.39922624,24.5533818 6.15439673,24.8015651 C5.90956721,25.0497485 5.77541406,25.3817775 5.77870649,25.7272219 C5.77870649,26.4550028 6.36233412,27.0419229 7.07669969,27.0419229 L19.7944191,27.0419229 C20.5121385,27.0419229 21.0923654,26.451649 21.0923654,25.7272219 L21.0923654,25.7272219 Z M13.4355594,16.7356065 C12.7144862,16.7389603 12.1342738,17.3292342 12.1376131,18.0503074 L12.1376131,20.6193404 C12.1376131,21.3471213 12.7211938,21.9340414 13.4355594,21.9340414 C14.1532788,21.9340414 14.7334912,21.3437675 14.7334912,20.6193404 L14.7334912,18.0536613 C14.736845,17.7082169 14.599338,17.372834 14.3578624,17.1246506 C14.1130328,16.8798211 13.7810038,16.7389603 13.4355594,16.7356065 Z M13.4355594,11.0240358 C12.7144862,11.0307434 12.1342738,11.6176635 12.1376131,12.3387367 C12.1376131,13.0665176 12.7211938,13.6534377 13.4355594,13.6534377 C14.1532788,13.6534377 14.7334912,13.0631638 14.7334912,12.3387367 C14.736845,11.9932923 14.599338,11.6579094 14.3578624,11.4130799 C14.1130328,11.1648966 13.7810038,11.0240358 13.4355594,11.0240358 L13.4355594,11.0240358 Z"></path>
                        </g>
                    </g>
                </g>
            </g>
        </g>
    </g>
</svg>