<?xml version="1.0" encoding="UTF-8"?>
<svg width="36px" height="36px" viewBox="0 0 36 36" version="1.1" xmlns="http://www.w3.org/2000/svg" xmlns:xlink="http://www.w3.org/1999/xlink">
    <title>开业门店数</title>
    <defs>
        <linearGradient x1="50%" y1="0%" x2="50%" y2="100%" id="linearGradient-1">
            <stop stop-color="#AB9EFF" offset="0%"></stop>
            <stop stop-color="#8E7CFF" offset="100%"></stop>
        </linearGradient>
    </defs>
    <g id="工作台" stroke="none" stroke-width="1" fill="none" fill-rule="evenodd">
        <g id="5-工作台-设置-修改数据总览数据" transform="translate(-549.000000, -597.000000)" fill="url(#linearGradient-1)" fill-rule="nonzero">
            <g id="7" transform="translate(500.000000, 114.000000)">
                <g transform="translate(30.000000, 476.000000)">
                    <g id="开业门店数" transform="translate(19.000000, 7.000000)">
                        <g transform="translate(2.000000, 3.000000)" id="形状">
                            <path d="M31.5995285,14.6702172 C26.4005006,9.45803515 17.7462296,0.783971047 17.7462296,0.783971047 C17.2260848,0.261344351 16.5435616,0 15.8609763,0 C15.178453,0 14.4952472,0.261282311 13.9726205,0.783971047 L0.257501647,14.5345812 C-0.0877930685,14.8793175 -0.084690689,15.4361324 0.259983523,15.7814892 C0.602237933,16.1237436 1.16221723,16.1237436 1.50689151,15.7790072 L3.18776016,14.0941055 L3.18776016,25.9880662 C3.18776016,28.2037228 4.98124518,30 7.18945613,30 L24.5302007,30 C26.740211,30 28.2782462,27.8041985 28.2782462,25.5886039 L28.2782462,13.8371044 L30.3502627,15.9139607 C30.693696,16.2592554 31.2524344,16.2592554 31.5971086,15.9164426 C31.7629368,15.7516358 31.8563852,15.5276268 31.8568409,15.2938319 C31.8572932,15.060037 31.7647154,14.8356667 31.5995285,14.6702172 M21.8440373,17.9573113 C21.8378325,17.9573113 21.8323103,17.9554498 21.8260435,17.9554498 C21.4981841,20.9681696 18.9526826,23.3144364 15.8609763,23.3144364 C12.7683392,23.3144364 10.2223413,20.9668666 9.89535065,17.9535884 C9.88256886,17.9535884 9.87109004,17.9573733 9.85830825,17.9573733 C9.1188253,17.9573733 8.52242408,17.3656877 8.52242408,16.6364426 C8.52242408,15.9047777 9.1188253,15.3136505 9.85830825,15.3136505 C10.3725585,15.3136505 10.8146475,15.6048397 11.0377084,16.029183 C11.2442648,16.206453 11.5136753,16.5673837 11.6225688,17.2966288 C11.6225688,19.6429576 13.5220932,21.5506101 15.8609763,21.5506101 C18.1992389,21.5506101 20.1000042,19.6430196 20.1000042,17.2966288 L20.1037891,17.2966288 C20.2045543,16.6240331 20.4410176,16.2656463 20.6395078,16.0740434 C20.8535099,15.6254395 21.3108005,15.3136505 21.8440373,15.3136505 C22.583272,15.3136505 23.1799215,15.9047777 23.1799215,16.6364426 C23.1799215,17.3656257 22.583272,17.9573113 21.8440373,17.9573113"></path>
                        </g>
                    </g>
                </g>
            </g>
        </g>
    </g>
</svg>