<?xml version="1.0" encoding="UTF-8"?>
<svg width="36px" height="36px" viewBox="0 0 36 36" version="1.1" xmlns="http://www.w3.org/2000/svg" xmlns:xlink="http://www.w3.org/1999/xlink">
    <title>离线设备</title>
    <defs>
        <linearGradient x1="50%" y1="0%" x2="50%" y2="100%" id="linearGradient-1">
            <stop stop-color="#FF8B83" offset="0%"></stop>
            <stop stop-color="#F86459" offset="100%"></stop>
        </linearGradient>
    </defs>
    <g id="工作台" stroke="none" stroke-width="1" fill="none" fill-rule="evenodd">
        <g id="14-工作台-运维视图-单一设备" transform="translate(-1094.000000, -290.000000)" fill="url(#linearGradient-1)" fill-rule="nonzero">
            <g id="main" transform="translate(106.000000, 182.000000)">
                <g id="数据" transform="translate(1.000000, 76.000000)">
                    <g id="3" transform="translate(714.000000, 0.000000)">
                        <g id="ICON" transform="translate(261.000000, 20.000000)">
                            <g id="离线设备" transform="translate(12.000000, 12.000000)">
                                <g transform="translate(4.000000, 4.000000)" id="形状结合">
                                    <path d="M22.0578778,15.2154341 C25.5691318,15.2154341 28.4501608,18.096463 28.4501608,21.607717 C28.4501608,25.1189711 25.5691318,28 22.0578778,28 C18.5466238,28 15.6655949,25.1189711 15.6655949,21.607717 C15.6655949,18.096463 18.5466238,15.2154341 22.0578778,15.2154341 Z M14.4051447,19.1768489 C14.2250804,19.9871383 14.0450161,20.7073955 14.0450161,21.5176849 C14.0450161,23.5884244 14.7652733,25.3890675 16.0257235,26.829582 L16.0257235,26.829582 L1.89067524,26.829582 C0.900321543,26.829582 0,26.0192926 0,24.9389068 L0,24.9389068 L0,21.0675241 C0,20.0771704 0.810289389,19.1768489 1.89067524,19.1768489 L1.89067524,19.1768489 Z M7.74276527,21.1575563 L3.87138264,21.1575563 L3.87138264,25.0289389 L7.74276527,25.0289389 L7.74276527,21.1575563 Z M24.5787781,18.9067524 C24.3987138,18.7266881 24.1286174,18.7266881 23.9485531,18.9067524 L23.9485531,18.9067524 L21.9678457,20.8874598 L19.9871383,18.9067524 C19.807074,18.7266881 19.5369775,18.7266881 19.3569132,18.9067524 C19.1768489,19.0868167 19.1768489,19.3569132 19.3569132,19.5369775 L19.3569132,19.5369775 L21.3376206,21.5176849 L19.3569132,23.4983923 C19.1768489,23.6784566 19.1768489,23.9485531 19.3569132,24.1286174 C19.5369775,24.3086817 19.807074,24.3086817 19.9871383,24.1286174 L19.9871383,24.1286174 L21.9678457,22.14791 L23.9485531,24.1286174 C24.1286174,24.3086817 24.3987138,24.3086817 24.5787781,24.1286174 C24.7588424,23.9485531 24.7588424,23.6784566 24.5787781,23.4983923 L24.5787781,23.4983923 L22.5980707,21.5176849 L24.5787781,19.5369775 C24.7588424,19.3569132 24.7588424,19.0868167 24.5787781,18.9067524 Z M25.0289389,9.63344051 C26.0192926,9.63344051 26.9196141,10.4437299 26.9196141,11.5241158 L26.9196141,11.5241158 L26.9196141,15.2154341 C25.5691318,14.2250804 23.8585209,13.5948553 22.0578778,13.5948553 C19.1768489,13.5948553 16.7459807,15.0353698 15.3054662,17.2861736 L15.3054662,17.2861736 L1.89067524,17.2861736 C0.900321543,17.2861736 0,16.3858521 0,15.3954984 L0,15.3954984 L0,11.5241158 C0,10.5337621 0.810289389,9.63344051 1.89067524,9.63344051 L1.89067524,9.63344051 Z M7.74276527,11.5241158 L3.87138264,11.5241158 L3.87138264,15.3954984 L7.74276527,15.3954984 L7.74276527,11.5241158 Z M25.0289389,0 C26.0192926,0 26.9196141,0.810289389 26.9196141,1.89067524 L26.9196141,1.89067524 L26.9196141,5.76205788 C26.9196141,6.75241158 26.1093248,7.65273312 25.0289389,7.65273312 L25.0289389,7.65273312 L1.89067524,7.65273312 C0.900321543,7.65273312 0,6.84244373 0,5.76205788 L0,5.76205788 L0,1.89067524 C0,0.900321543 0.810289389,0 1.89067524,0 L1.89067524,0 Z M7.74276527,1.89067524 L3.87138264,1.89067524 L3.87138264,5.76205788 L7.74276527,5.76205788 L7.74276527,1.89067524 Z"></path>
                                </g>
                            </g>
                        </g>
                    </g>
                </g>
            </g>
        </g>
    </g>
</svg>