<?xml version="1.0" encoding="UTF-8"?>
<svg width="36px" height="36px" viewBox="0 0 36 36" version="1.1" xmlns="http://www.w3.org/2000/svg" xmlns:xlink="http://www.w3.org/1999/xlink">
    <title>待办事项</title>
    <defs>
        <linearGradient x1="50%" y1="0%" x2="50%" y2="100%" id="linearGradient-1">
            <stop stop-color="#FF8A81" offset="0%"></stop>
            <stop stop-color="#F86459" offset="100%"></stop>
        </linearGradient>
    </defs>
    <g id="工作台" stroke="none" stroke-width="1" fill="none" fill-rule="evenodd">
        <g id="5-工作台-设置-修改数据总览数据" transform="translate(-550.000000, -659.000000)" fill="url(#linearGradient-1)" fill-rule="nonzero">
            <g id="8" transform="translate(500.000000, 114.000000)">
                <g transform="translate(30.000000, 538.000000)">
                    <g id="待办事项" transform="translate(20.000000, 7.000000)">
                        <g transform="translate(3.000000, 5.000000)" id="形状">
                            <path d="M27.0067114,27 L3,27 C1.34228188,27 0,25.6577181 0,24 L0,7.4966443 L30.0067114,7.4966443 L30.0067114,24 C30.0067114,25.6577181 28.6577181,27 27.0067114,27 Z M12.8120805,19.7315436 L18.4026846,19.738255 C20.2684564,19.738255 20.2684564,16.3691275 18.4026846,16.3691275 L13.557047,16.3557047 L13.557047,12.2281879 C13.557047,11.4026846 12.885906,10.7248322 12.0536913,10.7248322 C11.2281879,10.7248322 10.5503356,11.3959732 10.5503356,12.2281879 L10.5503356,18.2281879 C10.5503356,19.0536913 11.2214765,19.7315436 12.0536913,19.7315436 L12.8120805,19.7315436 Z M0,4.4966443 C0,2.83892617 1.34228188,1.4966443 3,1.4966443 L6.15436242,1.4966443 C6.46308725,0.624161074 7.27516779,0 8.25503356,0 C9.23489933,0 10.0402685,0.630872483 10.3557047,1.4966443 L19.6577181,1.4966443 C19.966443,0.624161074 20.7785235,0 21.7583893,0 C22.738255,0 23.5436242,0.630872483 23.8590604,1.4966443 L27.0134228,1.4966443 C28.6711409,1.4966443 30.0134228,2.83892617 30.0134228,4.4966443 L30.0134228,6 L0,6 L0,4.4966443 Z M21,4.4966443 L22.5033557,4.4966443 L22.5033557,1.4966443 L21,1.4966443 L21,4.4966443 Z M7.5033557,4.4966443 L9.00671141,4.4966443 L9.00671141,1.4966443 L7.5033557,1.4966443 L7.5033557,4.4966443 Z"></path>
                        </g>
                    </g>
                </g>
            </g>
        </g>
    </g>
</svg>