<?xml version="1.0" encoding="UTF-8"?>
<svg width="36px" height="36px" viewBox="0 0 36 36" version="1.1" xmlns="http://www.w3.org/2000/svg" xmlns:xlink="http://www.w3.org/1999/xlink">
    <title>快递人次</title>
    <defs>
        <linearGradient x1="50%" y1="0%" x2="50%" y2="100%" id="linearGradient-1">
            <stop stop-color="#9BCB60" offset="0%"></stop>
            <stop stop-color="#82BD39" offset="100%"></stop>
        </linearGradient>
    </defs>
    <g id="客群分析" stroke="none" stroke-width="1" fill="none" fill-rule="evenodd">
        <g id="4-客群分析-修改数据总览" transform="translate(-549.000000, -659.000000)" fill="url(#linearGradient-1)" fill-rule="nonzero">
            <g id="8" transform="translate(500.000000, 114.000000)">
                <g transform="translate(30.000000, 538.000000)">
                    <g id="快递人次" transform="translate(19.000000, 7.000000)">
                        <g transform="translate(6.000000, 3.000000)" id="形状结合">
                            <path d="M12.0579276,12.4087517 C14.5929326,12.4087517 15.658955,12.6348285 15.9768346,13.8892828 L15.9768346,13.8892828 L15.8389063,13.8562572 C15.4498735,13.763041 14.8354532,13.8134412 14.4666908,13.9689509 L14.4666908,13.9689509 L8.43790545,16.5100576 C8.06921197,16.6653605 7.77029271,17.1157561 7.77029271,17.5157859 L7.77029271,17.5157859 L7.77029271,23.8752061 C7.77029268,23.981212 7.79259699,24.0871834 7.83241384,24.1875011 L7.83241384,24.1875011 L7.72823509,24.1539929 C6.47798659,23.7527909 5.39096987,23.3052566 4.74000777,22.9231874 C4.6477568,22.870512 4.56812315,22.8203531 4.5015894,22.7756755 C4.54175097,22.5103334 4.93619613,19.8952467 5.25838498,17.9585284 C4.91678763,18.9943866 4.5548509,20.1756192 4.29567953,21.2307135 C4.12500149,21.9142186 4.00348261,22.556321 3.9521861,23.0077508 C4.0662932,23.1021391 4.24927824,23.2342069 4.48504214,23.3688946 C5.19974567,23.7885399 6.35798452,24.2533798 7.57138091,24.6428953 C10.0093776,25.4327509 12.6924459,25.9772935 13.2560523,26.085747 C13.331687,26.1005361 13.3650229,26.1068447 13.3650229,26.1068447 C14.4309418,26.3056876 15.1338209,27.3306865 14.9349781,28.3965021 C14.7590601,29.3406609 13.9343173,30 13.0077056,30 C12.8882206,30 12.7671154,29.9891064 12.6455275,29.9664573 C12.5886119,29.9516682 8.37671507,29.1802214 4.91240946,27.8714715 C3.7483446,27.4242819 2.66515443,26.9355519 1.73878397,26.2592518 C1.21416704,25.8641172 0.705270026,25.4067579 0.331302062,24.6798853 C0.13694078,24.2950238 -0.00105640325,23.8172907 6.09318434e-06,23.3088074 C6.09318434e-06,23.2583038 0.00149460963,23.2182801 0.00259776672,23.1865645 L0.00259776672,23.1865645 L0.00304592218,23.1767396 L0.003,23.186 L0.0280963519,22.8018099 C0.0859599708,22.1363247 0.215378618,21.4474819 0.380320999,20.7282462 L0.483261025,20.2930013 C0.733469289,19.2755175 1.0479016,18.2212506 1.35685263,17.2579935 C1.97465129,15.3337891 2.56924929,13.7764512 2.57900529,13.7563187 C3.17294033,12.5123059 4.11080519,12.4147078 5.74650698,12.4087475 Z M24.215885,24.0906996 L24.2433259,24.0921475 C24.2994486,24.0952846 24.3213392,24.0960086 24.3216495,24.0960086 C25.4047363,24.1465811 26.2418895,25.0650227 26.1912825,26.1485576 C26.1425715,27.2002045 25.2740819,28.0202244 24.2317428,28.0202244 C24.2010269,28.0202244 24.1701387,28.0195349 24.139285,28.0179492 C24.1110857,28.0165702 23.1636175,27.9727545 21.8612107,27.8301378 C20.555391,27.685832 18.9082152,27.4524467 17.3991401,27.0273892 C17.0537161,26.9256925 16.7162556,26.8188593 16.3856207,26.6962717 L16.3856207,26.6962717 L16.3775195,26.6626946 L16.783203,26.7599097 C17.1723048,26.852988 17.786725,26.8027602 18.1554186,26.6472504 L18.1554186,26.6472504 L24.1838247,24.1059714 C24.1946493,24.1014209 24.2051982,24.0957328 24.215885,24.0906996 L24.215885,24.0906996 Z M8.74551184,17.5206967 L8.82555939,17.533264 L16.3942391,19.3471534 C16.6668207,19.4124116 16.8877265,19.6925428 16.8877265,19.9728119 L16.8877265,19.9728119 L16.8877265,25.6603101 C16.8877265,25.9404759 16.6668207,26.1147391 16.3942391,26.0494809 L16.3942391,26.0494809 L8.82555939,24.235557 C8.55297782,24.170092 8.33203751,23.8899952 8.33203751,23.6098985 L8.33203751,23.6098985 L8.33203751,17.9224347 C8.33203751,17.642269 8.55301231,17.4678334 8.82555939,17.533264 Z M23.756216,16.9065367 C24.0136982,16.7980833 24.2224694,16.9365286 24.2224694,17.215798 L24.2224694,17.215798 L24.2224694,22.8677886 C24.2224694,23.1473338 24.0136982,23.4616627 23.756216,23.5701161 L23.756216,23.5701161 L18.3204774,25.8615661 C18.0630642,25.9698817 17.8542585,25.8314019 17.8542585,25.5519256 L17.8542585,25.5519256 L17.8542585,19.9001074 C17.8542585,19.6208725 18.0630987,19.3062334 18.3204774,19.1977799 L18.3204774,19.1977799 Z M14.7124865,14.4378243 C14.9752431,14.3270266 15.4131938,14.2910708 15.6906016,14.3576735 L15.6906016,14.3576735 L23.1750282,16.1511201 C23.4524705,16.2174815 23.464226,16.3612702 23.2013659,16.4721368 L23.2013659,16.4721368 L17.8423307,18.7312852 C17.5795052,18.8420484 17.141589,18.8780042 16.8641811,18.811436 L16.8641811,18.811436 L9.37937531,17.0179549 C9.10196745,16.9515246 9.09017756,16.8077703 9.35310652,16.6969727 L9.35310652,16.6969727 Z M10.0039307,0 C12.9059055,0 15.258339,2.35239905 15.258339,5.2542359 C15.258339,8.15624512 12.9059055,10.5086442 10.0039307,10.5086442 C7.10212835,10.5086442 4.7496948,8.15621066 4.7496948,5.2542359 C4.7496948,2.35243352 7.10212835,0 10.0039307,0 Z"></path>
                        </g>
                    </g>
                </g>
            </g>
        </g>
    </g>
</svg>