<?xml version="1.0" encoding="UTF-8"?>
<svg width="36px" height="36px" viewBox="0 0 36 36" version="1.1" xmlns="http://www.w3.org/2000/svg" xmlns:xlink="http://www.w3.org/1999/xlink">
    <title>成单率</title>
    <defs>
        <linearGradient x1="50%" y1="0%" x2="50%" y2="100%" id="linearGradient-1">
            <stop stop-color="#51E8AE" offset="0%"></stop>
            <stop stop-color="#32C98F" offset="100%"></stop>
        </linearGradient>
    </defs>
    <g id="收银巡检" stroke="none" stroke-width="1" fill="none" fill-rule="evenodd">
        <g id="20-收银巡检-收银统计-修改数据总览" transform="translate(-549.000000, -437.000000)" fill="url(#linearGradient-1)">
            <g id="6" transform="translate(500.000000, 16.000000)">
                <g transform="translate(30.000000, 414.000000)">
                    <g id="成单率" transform="translate(19.000000, 7.000000)">
                        <g transform="translate(3.000000, 3.000000)" id="形状结合">
                            <path d="M17.2222222,1.11111111 L19.718,3.607 L23.2495791,3.60772406 C25.3447103,3.60772406 26.3922759,4.65528967 26.3922759,6.75042089 L26.392,10.281 L28.8888889,12.7777778 C30.3703704,14.2592593 30.3703704,15.7407407 28.8888889,17.2222222 L26.392,19.718 L26.3922759,23.2495791 C26.3922759,25.3447103 25.3447103,26.3922759 23.2495791,26.3922759 L19.718,26.392 L17.2222222,28.8888889 C15.7407407,30.3703704 14.2592593,30.3703704 12.7777778,28.8888889 L10.281,26.392 L6.75042089,26.3922759 C4.65528967,26.3922759 3.6077241,25.3447103 3.6077241,23.2495791 L3.607,19.718 L1.11111111,17.2222222 C-0.37037037,15.7407407 -0.37037037,14.2592593 1.11111111,12.7777778 L3.607,10.281 L3.6077241,6.75042089 C3.6077241,4.65528967 4.65528969,3.60772406 6.75042089,3.60772406 L10.281,3.607 L12.7777778,1.11111111 C14.2592593,-0.37037037 15.7407407,-0.37037037 17.2222222,1.11111111 Z M22.8765803,9.72543153 C22.5639851,9.72543153 22.2641959,9.84962316 22.0431764,10.0706801 L22.0431764,10.0706801 L13.709923,18.4039335 C13.5565201,18.55729 13.3078541,18.55729 13.1544513,18.4039335 L13.1544513,18.4039335 L8.98762818,14.2371103 C8.69070195,13.9353793 8.2547562,13.8160827 7.84556936,13.924586 C7.43638251,14.0330892 7.11682641,14.3527206 7.00841962,14.7619331 C6.90001283,15.1711455 7.01941214,15.6070631 7.3212132,15.9039182 L7.3212132,15.9039182 L12.8767155,21.4602061 C13.1835211,21.7669192 13.6808531,21.7669192 13.9876588,21.4602061 L13.9876588,21.4602061 L23.7099842,11.7374879 C24.1700537,11.2772794 24.1700537,10.5312814 23.7099842,10.0710729 L23.7099842,10.0710729 C23.4889647,9.84962316 23.1891755,9.72543153 22.8765803,9.72543153 Z"></path>
                        </g>
                    </g>
                </g>
            </g>
        </g>
    </g>
</svg>