<?xml version="1.0" encoding="UTF-8"?>
<svg width="36px" height="36px" viewBox="0 0 36 36" version="1.1" xmlns="http://www.w3.org/2000/svg" xmlns:xlink="http://www.w3.org/1999/xlink">
    <title>店员</title>
    <defs>
        <linearGradient x1="50%" y1="0.746831448%" x2="50%" y2="99.7355428%" id="linearGradient-1">
            <stop stop-color="#4FCDFF" offset="0%"></stop>
            <stop stop-color="#00AEF4" offset="100%"></stop>
        </linearGradient>
    </defs>
    <g id="客群分析" stroke="none" stroke-width="1" fill="none" fill-rule="evenodd">
        <g id="4-客群分析-修改数据总览" transform="translate(-549.000000, -659.000000)" fill="url(#linearGradient-1)" fill-rule="nonzero">
            <g id="9" transform="translate(500.000000, 114.000000)">
                <g transform="translate(30.000000, 538.000000)">
                    <g id="店员" transform="translate(19.000000, 7.000000)">
                        <g transform="translate(4.000000, 3.000000)" id="形状">
                            <path d="M7.14734813,6.59997957 C7.14734813,10.1999624 10.1473481,13.1999921 13.7473607,13.1999921 C17.3473765,13.1999921 20.3473732,10.1999624 20.3473732,6.59994661 C20.3473732,3 17.3473765,0 13.7473607,0 C10.1473481,0 7.14734813,2.99993079 7.14734813,6.59997957 Z M1.74734088,17.5499576 C1.14735472,19.049989 0.547335604,21.8999891 0.0973459857,24.5999927 C-0.502673131,27.2999964 1.74734088,30 4.74733758,30 L11.1973536,30 L7.89736378,14.6999904 C5.94734285,14.6999904 3.09734269,14.2499679 1.74734088,17.5499576 L1.74734088,17.5499576 Z M13.7473607,14.7000234 L10.5973674,19.049989 L13.1473745,30 L14.3473468,30 L16.8973869,19.049989 L13.7473607,14.7000234 Z M27.3973753,24.4499962 C26.9473857,21.8999891 26.3473666,19.049989 25.7473804,17.3999941 C24.3973786,14.0999713 21.697375,14.6999904 19.5973575,14.6999904 L16.2974007,29.999967 L22.7474167,29.999967 C25.7474134,29.999967 27.9974274,27.2999634 27.3974083,24.4499633 L27.3973753,24.4499962 Z M24.0973855,22.9499995 L21.0973559,22.9499995 C20.6473663,22.9499995 20.3473732,22.6500048 20.3473732,22.1999822 C20.3473732,21.7499596 20.6473663,21.4499995 21.0973559,21.4499995 L24.0973855,21.4499995 C24.5473752,21.4499995 24.8473732,21.7499926 24.8473732,22.1999822 C24.8473732,22.5000082 24.3973786,22.9499995 24.0973855,22.9499995 Z"></path>
                        </g>
                    </g>
                </g>
            </g>
        </g>
    </g>
</svg>