<?xml version="1.0" encoding="UTF-8"?>
<svg width="36px" height="36px" viewBox="0 0 36 36" version="1.1" xmlns="http://www.w3.org/2000/svg" xmlns:xlink="http://www.w3.org/1999/xlink">
    <title>滞留量</title>
    <defs>
        <linearGradient x1="50%" y1="0%" x2="50%" y2="100%" id="linearGradient-1">
            <stop stop-color="#9BCB60" offset="0%"></stop>
            <stop stop-color="#82BD39" offset="100%"></stop>
        </linearGradient>
    </defs>
    <g id="工作台" stroke="none" stroke-width="1" fill="none" fill-rule="evenodd">
        <g id="5-工作台-设置-修改数据总览数据" transform="translate(-549.000000, -411.000000)" fill="url(#linearGradient-1)" fill-rule="nonzero">
            <g id="4" transform="translate(500.000000, 114.000000)">
                <g transform="translate(30.000000, 290.000000)">
                    <g id="滞留量" transform="translate(19.000000, 7.000000)">
                        <g id="周边客流" transform="translate(4.000000, 3.000000)">
                            <path d="M20.5074366,21.0848644 C25.2274716,21.8503937 28.4733158,23.4514436 28.4776903,25.3062117 C28.4776903,27.895888 22.0997375,30 14.2388451,30 C6.3735783,30 0,27.9002625 0,25.3018373 C0,23.4514436 3.25459318,21.8503937 7.97462817,21.0848644 C8.2297707,21.3404138 8.487298,21.5983481 8.74455856,21.856012 L9.12991792,22.2419734 C9.19400066,22.3061559 9.25798387,22.3702385 9.32182611,22.4341798 L9.89148179,23.0047149 C9.95410541,23.0674348 10.0164638,23.1298888 10.0785155,23.1920356 L10.6275817,23.7419396 C10.6874204,23.8018693 10.7468282,23.8613673 10.8057635,23.920392 L11.3223084,24.4377173 C11.3780366,24.4935293 11.433168,24.5487436 11.4876613,24.6033188 L11.8066322,24.9227679 C12.1172828,25.2338833 12.4019782,25.5190019 12.6517695,25.769163 L13.3693036,26.487754 C13.5254717,26.6441508 13.6362954,26.755136 13.6928259,26.8117486 L13.735783,26.8547682 C14.0113736,27.1303587 14.4663167,27.1303587 14.7419073,26.8547682 C14.7419073,26.8547682 14.8741345,26.7223493 15.1084268,26.487754 L15.8261462,25.769163 C15.8677922,25.7274695 15.9104086,25.6848049 15.953954,25.6412108 L16.2260446,25.3688233 C16.4615257,25.1330913 16.7181647,24.8761946 16.9907896,24.6033188 L17.6731346,23.920392 C17.7321131,23.8613673 17.7915655,23.8018693 17.8514505,23.7419396 L18.5881857,23.0047149 C19.0269705,22.565676 19.4788414,22.1136129 19.929607,21.6627549 Z M14.2388451,0 C19.5319335,0 23.8232721,4.28696413 23.8232721,9.58442695 C23.8232721,11.9641295 22.9527559,14.1382327 21.5179353,15.8180227 C21.5147456,15.8224883 21.3649357,15.973481 21.1113378,16.2281688 L20.8695497,16.4708682 C20.6485433,16.6926151 20.3808276,16.9610238 20.0820118,17.2604851 L19.5139271,17.8296805 C19.4478238,17.8959015 19.3808511,17.96299 19.313134,18.0308211 L18.6869496,18.6579795 C18.544829,18.8003051 18.4012288,18.9441027 18.2571482,19.0883732 L17.3948903,19.9516792 C17.323887,20.0227623 17.253263,20.0934641 17.1831433,20.1636597 L16.7694749,20.577761 C16.5666651,20.7807758 16.3706414,20.9769876 16.1847752,21.1630246 L15.8275852,21.5205336 C15.5998195,21.7484967 15.3941077,21.9543756 15.2184418,22.1301782 L14.5889328,22.7601428 L14.5889328,22.7601428 L14.5800525,22.7690289 C14.391951,22.9571304 14.0813648,22.9571304 13.8932633,22.7690289 C13.8938101,22.7690289 13.7862259,22.6608979 13.5974922,22.4716088 L13.2569022,22.1301782 C13.0814769,21.9543756 12.8759811,21.7484967 12.6484092,21.5205336 L12.2914937,21.1630246 C12.1057567,20.9769876 11.9098504,20.7807758 11.7071474,20.577761 L11.2936787,20.1636597 C11.22359,20.0934641 11.1529959,20.0227623 11.0820214,19.9516792 L10.4363517,19.3050087 C10.219953,19.0882683 10.003503,18.871468 9.79037441,18.6579795 L9.36954514,18.2364173 C9.16234411,18.028843 8.96071295,17.8268284 8.76802437,17.6337449 L8.39556993,17.2604851 C8.09679294,16.9610238 7.82910213,16.6926151 7.60811179,16.4708682 L7.36633892,16.2281688 C7.33011259,16.1917848 7.2960041,16.1575171 7.26413837,16.1254904 L7.10085646,15.9612228 C7.05606641,15.9160973 7.02124673,15.8809353 6.99739672,15.8567356 L6.95975503,15.8180227 C5.52055993,14.1426072 4.6544182,11.9641295 4.6544182,9.58442695 C4.6544182,4.29133858 8.94575678,0 14.2388451,0 Z M14.2388451,5.20997375 C11.9641295,5.20997375 10.1181102,7.05161855 10.1181102,9.33070866 C10.1181102,11.6097988 11.9641295,13.4514436 14.2388451,13.4514436 C16.5179353,13.4514436 18.3595801,11.6054243 18.3595801,9.33070866 C18.3595801,7.05161855 16.5179353,5.20997375 14.2388451,5.20997375 Z" id="形状结合"></path>
                        </g>
                    </g>
                </g>
            </g>
        </g>
    </g>
</svg>