<?xml version="1.0" encoding="UTF-8"?>
<svg width="36px" height="36px" viewBox="0 0 36 36" version="1.1" xmlns="http://www.w3.org/2000/svg" xmlns:xlink="http://www.w3.org/1999/xlink">
    <title>外卖人次</title>
    <defs>
        <linearGradient x1="50%" y1="0%" x2="50%" y2="100%" id="linearGradient-1">
            <stop stop-color="#FEC807" offset="0%"></stop>
            <stop stop-color="#FFA300" offset="100%"></stop>
        </linearGradient>
    </defs>
    <g id="客群分析" stroke="none" stroke-width="1" fill="none" fill-rule="evenodd">
        <g id="4-客群分析-修改数据总览" transform="translate(-549.000000, -597.000000)" fill="url(#linearGradient-1)">
            <g id="7" transform="translate(500.000000, 114.000000)">
                <g transform="translate(30.000000, 476.000000)">
                    <g id="外卖人次" transform="translate(19.000000, 7.000000)">
                        <g transform="translate(3.000000, 6.000000)" id="形状">
                            <path d="M1.89359191,19.7316073 L28.1064081,19.7316073 C28.6046257,19.7316073 29.0031998,19.5323203 29.4021389,19.1333812 C29.801078,18.7344421 29.9003565,18.336233 30,17.8376504 C30,17.3394328 29.800713,16.8412152 29.4021389,16.5419196 C29.0031998,16.1433455 28.6046257,15.9440585 28.1064081,15.9440585 L27.907121,15.9440585 C27.508182,13.4522405 26.5113817,10.1632742 24.8174419,8.26968233 C23.123502,6.37609042 21.0298931,4.98071612 18.6377185,4.28430645 C18.6377185,4.08501941 18.7377271,3.88573236 18.7377271,3.78608884 C18.7377271,2.78928863 18.338788,1.89249693 17.6427433,1.09498376 C16.9452386,0.397479104 16.048082,0 14.9516382,0 C13.954838,0 13.0580463,0.398939082 12.3601767,1.09498376 C11.5630285,1.89249693 11.2651929,2.78928863 11.2651929,3.78608884 L11.2651929,4.28430645 C8.86936844,4.98071612 6.77721947,6.2760819 5.0832796,8.26968233 C3.38860974,10.1632742 2.39180952,13.4526055 1.99323543,15.9440585 L1.89359191,15.9440585 C1.69430487,15.9440585 1.3953743,16.043702 1.19608726,16.1433455 C0.996800214,16.2429891 0.797148176,16.3426326 0.597861132,16.5419196 C0.398574088,16.7412067 0.298930566,16.9408587 0.199287044,17.1401458 C0.099643522,17.3394328 0.099643522,17.6383634 1.77635684e-15,17.9372939 C1.77635684e-15,18.4358765 0.199287044,18.9340941 0.597861132,19.2330247 C0.896791698,19.6319638 1.3953743,19.7316073 1.89359191,19.7316073 Z M14.9501782,1.59137639 C15.5480394,1.59137639 16.045162,1.79066344 16.5448396,2.18923753 C16.9437787,2.58781161 17.2427092,3.08639422 17.2427092,3.68571533 L17.2427092,3.78535885 C16.7441266,3.78535885 16.4451961,3.78535885 16.046622,3.68571533 L13.8537345,3.68571533 C13.5548039,3.78535885 13.1562298,3.78535885 12.7587507,3.78535885 L12.7587507,3.68571533 C12.7587507,3.0878542 12.9584028,2.59073157 13.4566204,2.18923753 C13.8551945,1.79066344 14.3540204,1.59137639 14.9530982,1.59137639 L14.9501782,1.59137639 Z M6.87686299,11.459005 C7.47508912,10.5622133 8.27260229,9.76470016 9.16939399,9.06573552 C10.0661857,8.36677089 11.0633509,7.97075177 12.2590732,7.67036122 L12.5580037,7.67036122 C12.8572993,7.67036122 13.0565863,7.77000474 13.2558734,7.96929179 C13.4551604,8.16857883 13.5548039,8.36786588 13.5548039,8.56715292 C13.5548039,8.66679644 13.5548039,8.86644848 13.4551604,8.966092 L13.1562298,9.26502257 C13.0565863,9.36466609 12.9569428,9.36466609 12.7572908,9.46430961 C12.1594296,9.66359666 11.5615685,9.8628837 11.0633509,10.1618143 C10.5651333,10.4607448 10.0665507,10.7596754 9.6676116,11.1586145 C9.26867251,11.5575536 8.87046342,11.9557627 8.57262784,12.4543453 C8.51605368,12.5459589 8.33355639,12.6861168 8.17843369,12.7284562 C8.04229071,12.7649557 7.77511467,12.7532758 7.67547115,12.7532758 C7.37654058,12.7532758 7.17725354,12.6536323 6.97796649,12.4543453 C6.77867945,12.2550582 6.71188544,12.0561362 6.70750551,11.9192632 C6.70312557,11.7823902 6.77831446,11.5571886 6.87795798,11.457545 L6.87686299,11.459005 Z M28.0067646,21.2266251 L1.89359191,21.2266251 C1.3953743,21.2266251 0.996800214,21.4259122 0.597861132,21.7248427 C0.199287044,22.1234168 0.099643522,22.5219909 0,23.0205735 C0,23.5187911 0.199287044,24.0170087 0.597861132,24.3159393 C0.996800214,24.7148784 1.3953743,24.8145219 1.89359191,24.8145219 L28.1064081,24.8145219 C28.6046257,24.8145219 29.0031998,24.6152349 29.4021389,24.3159393 C29.800713,23.9173652 29.9003565,23.5187911 30,23.0205735 C30,22.5219909 29.800713,22.0237733 29.4021389,21.7248427 C29.0035648,21.4259122 28.6046257,21.2266251 28.0067646,21.2266251 Z"></path>
                        </g>
                    </g>
                </g>
            </g>
        </g>
    </g>
</svg>