<?xml version="1.0" encoding="UTF-8"?>
<svg width="36px" height="36px" viewBox="0 0 36 36" version="1.1" xmlns="http://www.w3.org/2000/svg" xmlns:xlink="http://www.w3.org/1999/xlink">
    <title>客流批次</title>
    <defs>
        <linearGradient x1="50%" y1="0%" x2="50%" y2="100%" id="linearGradient-1">
            <stop stop-color="#51E8AE" offset="0%"></stop>
            <stop stop-color="#32C98F" offset="100%"></stop>
        </linearGradient>
    </defs>
    <g id="客群分析" stroke="none" stroke-width="1" fill="none" fill-rule="evenodd">
        <g id="4-客群分析-修改数据总览" transform="translate(-549.000000, -349.000000)" fill="url(#linearGradient-1)">
            <g id="3" transform="translate(500.000000, 114.000000)">
                <g transform="translate(30.000000, 228.000000)">
                    <g id="客流批次" transform="translate(19.000000, 7.000000)">
                        <g transform="translate(4.000000, 3.000000)" id="形状">
                            <path d="M0.000802194635,6.170151 L0.000802194635,23.829849 C-0.0248523011,24.7103967 0.567290749,25.4895323 1.42255756,25.7005797 L7.48372509,27.2158716 L7.48372509,2.84025031 L1.40385026,4.35554219 C0.576703811,4.56910907 -0.000696007026,5.3158795 0.000802194635,6.170151 Z M27.4818365,3.42017684 L10.64526,0.0341542126 C10.0911096,-0.0731853827 9.51811921,0.0754217864 9.08598823,0.438557067 C8.65385725,0.801692347 8.40879026,1.3405284 8.41909044,1.90488495 L8.41909044,28.0951151 C8.40879026,28.6594716 8.65385726,29.1983077 9.08598824,29.5614429 C9.51811922,29.9245782 10.0911096,30.0731854 10.64526,29.9658458 L27.4818365,26.6172378 C28.3743775,26.4446645 29.0136589,25.6554282 28.9971284,24.7465071 L28.9971284,5.30961486 C29.0229119,4.39369908 28.3814944,3.59390693 27.4818365,3.42017684 L27.4818365,3.42017684 Z M17.0959173,18.7414614 C17.0859648,19.2538704 16.6729609,19.6668743 16.1605519,19.6768268 C15.6439639,19.6768268 15.2251865,19.2580495 15.2251865,18.7414614 L15.2251865,11.2585386 C15.2251865,10.7419505 15.6439639,10.3231732 16.1605519,10.3231732 C16.4086262,10.3231732 16.6465401,10.4217203 16.8219551,10.5971354 C16.9973701,10.7725504 17.0959173,11.0104642 17.0959173,11.2585386 L17.0959173,18.7414614 Z M23.0959173,22.7414614 C23.0859648,23.2538704 22.6729609,23.6668743 22.1605519,23.6768268 C21.6439639,23.6768268 21.2251865,23.2580495 21.2251865,22.7414614 L21.2251865,7.25853855 C21.2251865,6.74195053 21.6439639,6.3231732 22.1605519,6.3231732 C22.4086262,6.3231732 22.6465401,6.42172033 22.8219551,6.59713536 C22.9973701,6.77255039 23.0959173,7.01046423 23.0959173,7.25853855 L23.0959173,22.7414614 Z"></path>
                        </g>
                    </g>
                </g>
            </g>
        </g>
    </g>
</svg>