<?xml version="1.0" encoding="UTF-8"?>
<svg width="36px" height="36px" viewBox="0 0 36 36" version="1.1" xmlns="http://www.w3.org/2000/svg" xmlns:xlink="http://www.w3.org/1999/xlink">
    <title>进店率</title>
    <defs>
        <linearGradient x1="50%" y1="0%" x2="50%" y2="99.4958411%" id="linearGradient-1">
            <stop stop-color="#61B1FF" offset="0%"></stop>
            <stop stop-color="#3791EA" offset="100%"></stop>
        </linearGradient>
    </defs>
    <g id="工作台" stroke="none" stroke-width="1" fill="none" fill-rule="evenodd">
        <g id="5-工作台-设置-修改数据总览数据" transform="translate(-549.000000, -349.000000)" fill="url(#linearGradient-1)" fill-rule="nonzero">
            <g id="3" transform="translate(500.000000, 114.000000)">
                <g transform="translate(30.000000, 228.000000)">
                    <g id="进店率" transform="translate(19.000000, 7.000000)">
                        <g transform="translate(4.000000, 4.000000)" id="形状结合">
                            <path d="M11.7880417,1.51140446 C12.5877397,1.42162547 13.2860208,2.06005385 13.2860208,2.86640221 L13.2860208,2.86640221 L13.2860208,13.352256 C13.2860208,14.1037394 13.8961854,14.713904 14.6476688,14.713904 L14.6476688,14.713904 L25.1335226,14.713904 C25.9398709,14.713904 26.5782993,15.4121851 26.4885203,16.2118831 C25.7320492,22.9486327 19.9396416,28.1608019 12.965144,27.9962071 C5.91749313,27.8316123 0.169975066,22.0824317 0.00371767292,15.0347808 C-0.159214572,8.06028316 5.05295469,2.2678756 11.7880417,1.51140446 Z M16.1644385,0.000121053685 L16.2969422,0.00843762933 C22.4368277,0.696743235 27.3098318,5.57140999 27.9998,11.7112955 C28.089579,12.5126561 27.4511506,13.2092746 26.6448023,13.2109372 L26.6448023,13.2109372 L16.1589485,13.2109372 C15.4074651,13.2109372 14.7973005,12.6007725 14.7973005,11.8492891 L14.7973005,11.8492891 L14.7973005,1.36343538 C14.7973005,0.557087025 15.4955815,-0.0813413627 16.2969422,0.00843762933 Z"></path>
                        </g>
                    </g>
                </g>
            </g>
        </g>
    </g>
</svg>