<?xml version="1.0" encoding="UTF-8"?>
<svg width="62px" height="62px" viewBox="0 0 62 62" version="1.1" xmlns="http://www.w3.org/2000/svg" xmlns:xlink="http://www.w3.org/1999/xlink">
    <title>巡检待整改</title>
    <defs>
        <linearGradient x1="50%" y1="0%" x2="50%" y2="100%" id="linearGradient-1">
            <stop stop-color="#FE8F4E" offset="0%"></stop>
            <stop stop-color="#FF6D18" offset="100%"></stop>
        </linearGradient>
        <linearGradient x1="50%" y1="0%" x2="50%" y2="100%" id="linearGradient-2">
            <stop stop-color="#FE8F4E" offset="0%"></stop>
            <stop stop-color="#FF6D18" offset="100%"></stop>
        </linearGradient>
    </defs>
    <g id="工作台" stroke="none" stroke-width="1" fill="none" fill-rule="evenodd">
        <g id="1-工作台-运营视图" transform="translate(-1254.000000, -475.000000)" fill-rule="nonzero">
            <g id="main" transform="translate(106.000000, 182.000000)">
                <g id="待办事项" transform="translate(1073.000000, 214.000000)">
                    <g id="1" transform="translate(20.000000, 58.000000)">
                        <g id="main" transform="translate(51.000000, 21.000000)">
                            <g id="巡检待整改" transform="translate(4.000000, 0.000000)">
                                <g id="任务整改" transform="translate(1.000000, 6.000000)">
                                    <path d="M57.5432498,27.4067048 L43.2668074,21.3505259 C41.4657385,20.6351621 39.4111914,21.3201875 38.3998099,22.9732761 L30.8298996,35.9515184 L31.9113153,38.4388999 L41.6453103,39.3035313 L39.6992632,34.2210025 C39.6992632,34.2210025 39.8070288,33.5719025 41.6453103,33.5719025 C43.3758261,33.5719025 44.9985763,38.4388999 45.6464233,40.0616501 C47.3003592,40.6605202 48.3286343,42.3145666 48.1338049,44.0627631 C48.1338049,47.4160291 46.078739,48.1728949 43.4835918,48.1728949 L41.3207603,48.1728949 L44.5650075,49.5788607 C46.3657753,50.2944524 48.4202352,49.6099851 49.432005,47.9573636 L58.84145,31.6271084 C59.3693372,30.9299592 59.5297382,30.0214765 59.2725018,29.1857065 C59.0152654,28.3499366 58.3717844,27.6888756 57.5432498,27.409211 L57.5432498,27.4067048 Z" id="路径" fill="url(#linearGradient-1)" opacity="0.5"></path>
                                    <path d="M13.6273423,9.98886986 C13.6417914,14.8135346 17.1156059,18.9325522 21.8686563,19.7608704 C26.6217066,20.5891885 31.2840721,17.88807 32.929701,13.3527085 C34.5753299,8.81734698 32.7299201,3.75492095 28.5516317,1.34255612 C25.4766697,-0.447518708 21.6770674,-0.447518708 18.6021054,1.34255612 C15.4788558,3.08935957 13.5678147,6.41081631 13.6273423,9.98886986 Z M44.6663556,42.1067927 C43.9145022,40.5266475 42.3957584,35.7887182 40.6652426,35.7887183 C38.9347267,35.7887183 38.7179423,36.4152628 38.7179423,36.4152627 L40.6652426,41.3649641 L30.9312476,40.5228883 L26.7133502,31.0457766 C22.7122372,21.4634054 18.6021055,20.4108107 14.7087581,20.4108107 C11.2496845,20.2373663 7.91518939,21.7235532 5.73162884,24.4119237 C2.70291286,28.0972583 0,50 0,50 L20.4403869,50 L12.7614578,36.2047438 L15.5733894,34.5193392 C15.5733894,34.5193392 16.1147239,35.5719339 19.3589711,42.3122993 C22.7122372,49.0514117 24.8725625,50 24.8725626,50 L42.3932522,50 C44.9883994,50 47.0434653,49.1579242 47.0434653,45.998887 C47.2900778,44.2971963 46.292079,42.6605203 44.6663556,42.1005273 L44.6663556,42.1067927 Z" id="形状" fill="url(#linearGradient-2)"></path>
                                </g>
                            </g>
                        </g>
                    </g>
                </g>
            </g>
        </g>
    </g>
</svg>