<?xml version="1.0" encoding="UTF-8"?>
<svg width="36px" height="36px" viewBox="0 0 36 36" version="1.1" xmlns="http://www.w3.org/2000/svg" xmlns:xlink="http://www.w3.org/1999/xlink">
    <title>游逛深度</title>
    <defs>
        <linearGradient x1="50%" y1="0%" x2="50%" y2="100%" id="linearGradient-1">
            <stop stop-color="#51E8AE" offset="0%"></stop>
            <stop stop-color="#32C98F" offset="100%"></stop>
        </linearGradient>
    </defs>
    <g id="工作台" stroke="none" stroke-width="1" fill="none" fill-rule="evenodd">
        <g id="5-工作台-设置-修改数据总览数据" transform="translate(-549.000000, -535.000000)" fill="url(#linearGradient-1)">
            <g id="6" transform="translate(500.000000, 114.000000)">
                <g transform="translate(30.000000, 414.000000)">
                    <g id="游逛深度" transform="translate(19.000000, 7.000000)">
                        <g transform="translate(5.000000, 4.000000)" id="形状">
                            <path d="M23.7335196,0 L2.70614526,0 C1.21229048,0 0,1.28659217 0,2.86648044 L0,25.1335196 C0,26.7173185 1.21229051,28 2.70614526,28 L23.7374302,28 C25.2312849,28 26.4435754,26.7134078 26.4435754,25.1335196 L26.4435754,2.86648044 C26.4396648,1.28268155 25.2273743,0 23.7335196,0 Z M21.6256983,8.56815642 C20.9217877,12.8972067 17.3592179,16.1078212 13.2256983,16.1078212 C9.08435755,16.1078212 5.51005587,12.8815643 4.81787708,8.57206705 C4.10614524,8.26703911 3.60558659,7.5357542 3.60558659,6.67541899 C3.60558659,5.54525137 4.47374302,4.62625699 5.54134078,4.62625699 C6.60893854,4.62625699 7.47709497,5.54134078 7.47709497,6.67541899 C7.47709497,6.98044692 7.41061452,7.26983239 7.29720671,7.52793296 C7.21899443,7.80949719 7.10167597,8.07541899 6.89050277,8.29832403 C7.4888268,11.5910614 10.1128492,13.8944134 13.2296089,13.8944134 C16.3581006,13.8944134 19.001676,11.5519553 19.5687151,8.30223465 C19.3653631,8.09497207 19.2480447,7.84078213 19.1698324,7.57094973 C19.0446927,7.29720671 18.9664804,6.9960894 18.9664804,6.67150839 C18.9664804,5.54134078 19.8346369,4.62234637 20.9022347,4.62234637 C21.9698324,4.62234637 22.8379888,5.54134078 22.8379888,6.67150839 C22.8340782,7.53184358 22.3335196,8.26312849 21.6256983,8.56815642 L21.6256983,8.56815642 Z"></path>
                        </g>
                    </g>
                </g>
            </g>
        </g>
    </g>
</svg>