<?xml version="1.0" encoding="UTF-8"?>
<svg width="36px" height="36px" viewBox="0 0 36 36" version="1.1" xmlns="http://www.w3.org/2000/svg" xmlns:xlink="http://www.w3.org/1999/xlink">
    <title>门店总数</title>
    <defs>
        <linearGradient x1="50%" y1="0%" x2="50%" y2="100%" id="linearGradient-1">
            <stop stop-color="#8FA8FF" offset="0%"></stop>
            <stop stop-color="#4772E9" offset="100%"></stop>
        </linearGradient>
    </defs>
    <g id="收银巡检" stroke="none" stroke-width="1" fill="none" fill-rule="evenodd">
        <g id="20-收银巡检-收银统计-修改数据总览" transform="translate(-549.000000, -127.000000)" fill="url(#linearGradient-1)">
            <g id="1" transform="translate(500.000000, 16.000000)">
                <g transform="translate(30.000000, 104.000000)">
                    <g id="门店总数" transform="translate(19.000000, 7.000000)">
                        <g transform="translate(3.000000, 3.000000)" id="形状结合">
                            <path d="M27.8197674,16.3081395 L27.8197674,27.6976744 C27.8197674,28.9709302 26.7906977,30 25.5174419,30 L25.5174419,30 L4.53488372,30 C3.26162791,30 2.23255814,28.9709302 2.23255814,27.6976744 L2.23255814,27.6976744 L2.23255814,16.3255814 C2.61627907,16.6744186 3.03488372,16.9883721 3.48837209,17.2325581 L3.48837209,17.2325581 L3.54069767,17.2674419 C4.51744186,17.7732558 5.59883721,18.0174419 6.68023256,18 C8.19767442,18 9.68023256,17.4593023 10.8662791,16.5 C13.2732558,18.4883721 16.7616279,18.4883721 19.1860465,16.5 C21.2790698,18.1744186 24.1744186,18.4534884 26.5639535,17.2151163 C27.0174419,16.9534884 27.4360465,16.6569767 27.8197674,16.3081395 L27.8197674,16.3081395 Z M24.8197674,0 C25.744186,0 26.5813953,0.558139535 26.9476744,1.4127907 C27.2093023,2.02325581 27.6104651,2.93023256 28.0465116,3.88953488 C29.8604651,7.90116279 30.0348837,8.4244186 30.0174419,8.87790698 C30,12.5581395 27,15.5232558 23.3197674,15.4883721 C21.8023256,15.4883721 20.3372093,14.9651163 19.1686047,14.005814 C16.7616279,15.994186 13.2732558,15.994186 10.8488372,14.005814 C9.68023256,14.9651163 8.19767442,15.505814 6.6627907,15.505814 L6.6627907,15.505814 L6.33423837,15.5031977 C5.35203488,15.4718023 4.40232558,15.2284884 3.52325581,14.7732558 L3.52325581,14.7732558 L3.47093023,14.7383721 C1.34302326,13.5697674 0,11.3372093 0,8.89534884 C0,8.44186047 0.191860465,7.91860465 2.04069767,3.88953488 C2.47674419,2.93023256 2.89534884,2.00581395 3.15697674,1.39534884 C3.52325581,0.540697674 4.36046512,0 5.28488372,0 L5.28488372,0 Z"></path>
                        </g>
                    </g>
                </g>
            </g>
        </g>
    </g>
</svg>