<?xml version="1.0" encoding="UTF-8"?>
<svg width="36px" height="36px" viewBox="0 0 36 36" version="1.1" xmlns="http://www.w3.org/2000/svg" xmlns:xlink="http://www.w3.org/1999/xlink">
    <title>销售额</title>
    <defs>
        <linearGradient x1="50%" y1="0.746831448%" x2="50%" y2="99.7355428%" id="linearGradient-1">
            <stop stop-color="#FF73C0" offset="0%"></stop>
            <stop stop-color="#FF4CAD" offset="100%"></stop>
        </linearGradient>
    </defs>
    <g id="客流分析" stroke="none" stroke-width="1" fill="none" fill-rule="evenodd">
        <g id="6-客流分析-客流统计-修改数据总览" transform="translate(-549.000000, -628.000000)" fill="url(#linearGradient-1)" fill-rule="nonzero">
            <g id="9" transform="translate(500.000000, 21.000000)">
                <g transform="translate(30.000000, 600.000000)">
                    <g id="销售额" transform="translate(19.000000, 7.000000)">
                        <g transform="translate(4.000000, 3.000000)" id="形状">
                            <path d="M10.273708,7.53063875 L17.341507,7.53063875 C19.5254449,7.53063875 21.1933975,2.67277686 21.1933975,2.67277686 C21.1933975,1.22081813 21.0534015,0.11884947 18.6254705,0.0428516113 C16.1955396,-0.0391460479 15.6155561,1.7808022 13.8716057,1.7808022 C12.0816565,1.7808022 11.1916819,0.350842836 8.99174438,0.0408516584 C6.79180692,-0.267139596 6.42181745,1.2208181 6.42181745,2.67277686 C6.42181745,2.67877669 8.08977004,7.53063875 10.273708,7.53063875 Z M17.7254961,9.03659594 L10.273708,9.03659594 C2.02194252,9.03659594 0,25.6301242 0,25.6301242 C0,27.8100623 1.72595093,30 3.85389045,30 L24.1453136,30 C26.2732531,30 27.9992173,27.8100623 27.9992173,25.6301242 C28.0052039,25.6301242 25.9772615,9.03659594 17.7254961,9.03659594 Z M18.573472,21.7922333 C19.0734578,21.7922333 19.4734464,22.2022217 19.4734464,22.7142071 C19.4734464,23.2261925 19.0734578,23.6361809 18.573472,23.6361809 L14.9175759,23.6361809 L14.9175759,26.0541122 C14.9175759,26.5660976 14.5175873,26.976086 14.0176015,26.976086 C13.7757364,26.9739838 13.5447066,26.8754656 13.3757532,26.7023822 C13.2067997,26.5292988 13.1138886,26.2959575 13.1176271,26.0541122 L13.1176271,23.6361809 L9.43773171,23.6361809 C9.19621822,23.6340742 8.96549628,23.5358309 8.79660088,23.3631823 C8.62770548,23.1905337 8.53455617,22.9577085 8.53767743,22.7162071 C8.53767743,22.2022217 8.93774591,21.7922333 9.43773171,21.7922333 L13.1176271,21.7922333 L13.1176271,20.6182667 L9.43773171,20.6182667 C9.19621822,20.61616 8.96549628,20.5179167 8.79660088,20.3452681 C8.62770548,20.1726195 8.53455617,19.9397943 8.53767743,19.6982929 C8.53767743,19.1843075 8.93774591,18.7743191 9.43773171,18.7743191 L11.925661,18.7743191 L9.37973337,14.1404508 C9.13302953,13.6995897 9.27980849,13.142537 9.71172391,12.8804867 C9.91919809,12.758802 10.1670224,12.7260648 10.3989772,12.7897018 C10.6309321,12.8533388 10.8273557,13.0079556 10.9436889,13.2184771 L14.0036019,18.7723192 L14.1635974,18.7723192 L17.2235104,13.2184771 C17.3391128,13.0082992 17.5346625,12.8536853 17.7658375,12.7896792 C17.9970125,12.7256731 18.2442365,12.7576949 18.4514755,12.8784867 C18.8814632,13.1344794 19.031459,13.6944635 18.7814661,14.1404508 L16.2395383,18.7743191 L18.5754719,18.7743191 C19.0754577,18.7743191 19.4754464,19.1903073 19.4754464,19.6962929 C19.4754464,20.2082784 19.0754577,20.6182667 18.5754719,20.6182667 L14.9175759,20.6182667 L14.9175759,21.7922333 L18.573472,21.7922333 L18.573472,21.7922333 Z"></path>
                        </g>
                    </g>
                </g>
            </g>
        </g>
    </g>
</svg>