<?xml version="1.0" encoding="UTF-8"?>
<svg width="36px" height="36px" viewBox="0 0 36 36" version="1.1" xmlns="http://www.w3.org/2000/svg" xmlns:xlink="http://www.w3.org/1999/xlink">
    <title>去重客流</title>
    <defs>
        <linearGradient x1="50%" y1="0%" x2="50%" y2="99.4958411%" id="linearGradient-1">
            <stop stop-color="#CC8FFF" offset="0%"></stop>
            <stop stop-color="#AF51FF" offset="100%"></stop>
        </linearGradient>
    </defs>
    <g id="客流分析" stroke="none" stroke-width="1" fill="none" fill-rule="evenodd">
        <g id="6-客流分析-客流统计-修改数据总览" transform="translate(-549.000000, -752.000000)" fill="url(#linearGradient-1)" fill-rule="nonzero">
            <g id="11" transform="translate(500.000000, 21.000000)">
                <g transform="translate(30.000000, 724.000000)">
                    <g id="去重客流" transform="translate(19.000000, 7.000000)">
                        <g transform="translate(1.000000, 3.000000)" id="形状">
                            <path d="M20.6027419,0 C24.8617533,0 28.3287768,3.53486869 28.3287768,7.87834033 C28.3358712,10.425406 27.1179453,12.8205571 25.0555964,14.3153182 C25.2854391,14.3859325 25.5152817,14.4676236 25.7437397,14.554853 C27.2612548,15.1363825 28.6652332,15.9740619 29.9224446,17.0540453 C32.4368675,19.2084737 34.2077633,22.2282734 34.9166755,25.54853 C35.1492873,26.6409748 34.887599,27.7638806 34.2036095,28.632021 C33.5280267,29.493587 32.4946596,29.9977681 31.3998065,30 L10.2653624,30 C9.17100288,29.9989849 8.13797699,29.494472 7.46432861,28.632021 C6.77590886,27.7633002 6.51412783,26.6312879 6.75126265,25.54853 C7.46017482,22.2282734 9.23107066,19.2070891 11.7454935,17.0540453 C12.9832031,15.9853424 14.3971133,15.1397135 15.9241985,14.554853 L16.2994235,14.4205474 C14.1494894,12.9381387 12.8685146,10.4911816 12.8753223,7.87972493 C12.8767069,3.53486869 16.3423459,0 20.6027419,0 Z M5.23651673,24.3757788 C5.11744163,24.7593114 5.01498167,25.1511515 4.93190603,25.54853 C4.73874823,26.4291455 4.87416751,27.3499966 5.3126694,28.137721 L3.17485614,28.137721 C2.22851813,28.1369462 1.3330859,27.7090721 0.73797055,26.9732773 L5.23651673,24.3757788 Z M8.56369631,18.3583329 C7.59586504,19.5532376 6.71803239,20.8782942 6.0381967,22.3141182 L0.107980242,25.739604 C-0.0237313816,25.2393876 -0.0351188183,24.715091 0.0747499839,24.2096275 C0.155056441,23.833018 0.250593432,23.4619467 0.361360959,23.0936447 L8.56369631,18.3583329 L8.56369631,18.3583329 Z M12.2785622,12.538884 C12.5984035,13.067799 12.9791668,13.5468685 13.4139294,13.9636313 L1.1699639,21.0292149 C1.79072395,19.7487173 2.6093647,18.5740239 3.59577274,17.5483454 L12.2771776,12.538884 L12.2785622,12.538884 Z M11.2027326,9.60631375 C11.3051926,10.1961508 11.4616517,10.7610652 11.6679562,11.2927493 L7.59309586,13.6465593 C7.18178373,13.2465289 6.82137666,12.7972989 6.52003544,12.3090414 L11.2027326,9.60631375 Z M11.3176539,5.83744865 C11.1459643,6.48820787 11.0545811,7.17358194 11.0545811,7.87972493 L11.0587348,8.09018323 L5.91219864,11.0615221 C5.69134633,10.4618653 5.55345794,9.83484585 5.50235879,9.19785849 L11.3176539,5.83744865 Z M12.296562,1.66705128 C12.8199385,1.66705128 13.3308537,1.72797342 13.821,1.84151013 C13.194207,2.37921007 12.6555294,3.01179421 12.2245631,3.71625052 L5.55635796,7.56542207 C6.05619642,4.22993492 8.88907592,1.66705128 12.296562,1.66705128 Z"></path>
                        </g>
                    </g>
                </g>
            </g>
        </g>
    </g>
</svg>