<?xml version="1.0" encoding="UTF-8"?>
<svg width="36px" height="36px" viewBox="0 0 36 36" version="1.1" xmlns="http://www.w3.org/2000/svg" xmlns:xlink="http://www.w3.org/1999/xlink">
    <title>总小票数</title>
    <defs>
        <linearGradient x1="50%" y1="0%" x2="50%" y2="99.4958411%" id="linearGradient-1">
            <stop stop-color="#CC8FFF" offset="0%"></stop>
            <stop stop-color="#AF51FF" offset="100%"></stop>
        </linearGradient>
    </defs>
    <g id="收银巡检" stroke="none" stroke-width="1" fill="none" fill-rule="evenodd">
        <g id="20-收银巡检-收银统计-修改数据总览" transform="translate(-549.000000, -251.000000)" fill="url(#linearGradient-1)" fill-rule="nonzero">
            <g id="3" transform="translate(500.000000, 16.000000)">
                <g transform="translate(30.000000, 228.000000)">
                    <g id="总小票数" transform="translate(19.000000, 7.000000)">
                        <g transform="translate(5.000000, 3.000000)" id="形状结合">
                            <path d="M23.6284628,3.6827811 C24.8669202,3.6827811 25.6491037,4.69310158 25.633058,5.70342205 L25.633058,5.70342205 L25.633058,27.6534492 C25.633058,28.7615426 24.4106464,30 23.2862575,30 L23.2862575,30 L2.34655079,30 C1.01032048,30 0,28.6637697 0,27.6534492 L0,27.6534492 L0,5.81749049 C0,4.57903313 0.684410646,3.6827811 2.1347094,3.79684954 L2.1347094,3.79684954 L2.68875611,3.79684954 C3.14502988,3.79684954 3.58500815,4.13905486 3.58500815,4.69310158 L3.58500815,4.69310158 L3.58500815,8.62031505 C3.58500815,9.07658881 3.92721347,9.51656708 4.48126018,9.51656708 L4.48126018,9.51656708 L21.1678436,9.40249864 C21.6241173,9.40249864 22.0640956,9.06029332 22.0640956,8.50624661 L22.0640956,8.50624661 L22.0640956,4.57903313 C22.0640956,4.02498642 22.5203694,3.6827811 23.0744161,3.6827811 L23.0744161,3.6827811 Z M20.6463878,21.6567083 L5.00271592,21.6567083 C4.82346551,21.6567083 4.67680608,21.8033677 4.67680608,21.9826181 L4.67680608,21.9826181 L4.67680608,23.7751222 C4.67680608,23.9543726 4.82346551,24.101032 5.00271592,24.101032 L5.00271592,24.101032 L20.6463878,24.101032 C20.8256382,24.101032 20.9722977,23.9543726 20.9722977,23.7751222 L20.9722977,23.7751222 L20.9722977,21.9826181 C20.9722977,21.8033677 20.8256382,21.6567083 20.6463878,21.6567083 L20.6463878,21.6567083 Z M17.3872895,15.3177621 L5.00271592,15.3177621 C4.82346551,15.3177621 4.67680608,15.4644215 4.67680608,15.6436719 L4.67680608,15.6436719 L4.67680608,17.436176 C4.67680608,17.6154264 4.82346551,17.7620858 5.00271592,17.7620858 L5.00271592,17.7620858 L17.3872895,17.7620858 C17.5665399,17.7620858 17.7131993,17.6154264 17.7131993,17.436176 L17.7131993,17.436176 L17.7131993,15.6436719 C17.7131993,15.4644215 17.5665399,15.3177621 17.3872895,15.3177621 L17.3872895,15.3177621 Z M15.4644215,0 C16.474742,0 17.2569256,0.782183596 17.2569256,1.67843563 C17.2569256,2.1347094 17.5991309,2.57468767 18.1531776,2.57468767 L18.1531776,2.57468767 L18.7072243,2.57468767 C19.1634981,2.57468767 19.6034764,2.91689299 19.6034764,3.47093971 L19.6034764,3.47093971 L19.6034764,6.15969582 C19.6034764,6.61596958 19.261271,7.05594785 18.7072243,7.05594785 L18.7072243,7.05594785 L6.82781097,7.05594785 C6.3878327,7.05594785 5.93155894,6.71374253 5.94785443,6.15969582 L5.94785443,6.15969582 L5.94785443,3.47093971 C5.94785443,3.01466594 6.29005975,2.57468767 6.84410646,2.57468767 L6.84410646,2.57468767 L7.51222162,2.57468767 C7.96849538,2.57468767 8.40847366,2.23248235 8.40847366,1.67843563 C8.40847366,0.782183596 9.19065725,0 10.2009777,0 L10.2009777,0 Z M12.8897338,1.67843563 C11.8794134,1.67843563 10.9831613,2.59098316 10.9831613,3.58500815 C10.9831613,4.57903313 11.8794134,5.49158066 12.8897338,5.49158066 C13.9000543,5.49158066 14.7963064,4.82346551 14.7963064,3.58500815 C14.7963064,2.57468767 14.0141228,1.67843563 12.8897338,1.67843563 Z"></path>
                        </g>
                    </g>
                </g>
            </g>
        </g>
    </g>
</svg>