<?xml version="1.0" encoding="UTF-8"?>
<svg width="36px" height="36px" viewBox="0 0 36 36" version="1.1" xmlns="http://www.w3.org/2000/svg" xmlns:xlink="http://www.w3.org/1999/xlink">
    <title>异常小票门店数</title>
    <defs>
        <linearGradient x1="50%" y1="0%" x2="50%" y2="100%" id="linearGradient-1">
            <stop stop-color="#FEC807" offset="0%"></stop>
            <stop stop-color="#FFA300" offset="100%"></stop>
        </linearGradient>
    </defs>
    <g id="收银巡检" stroke="none" stroke-width="1" fill="none" fill-rule="evenodd">
        <g id="20-收银巡检-收银统计-修改数据总览" transform="translate(-549.000000, -189.000000)" fill="url(#linearGradient-1)">
            <g id="2" transform="translate(500.000000, 16.000000)">
                <g transform="translate(30.000000, 166.000000)">
                    <g id="异常小票门店数" transform="translate(19.000000, 7.000000)">
                        <g transform="translate(3.000000, 3.000000)" id="形状结合">
                            <path d="M27.8197674,16.3081395 L27.8197674,27.6976744 C27.8197674,28.9178779 26.8746669,29.9138203 25.6752703,29.994697 L25.5174419,30 L4.53488372,30 C3.31468023,30 2.31873789,29.0548995 2.2378611,27.8555028 L2.23255814,27.6976744 L2.23255814,16.3255814 C2.53953488,16.6046512 2.86883721,16.8613953 3.22046512,17.0779535 L3.48837209,17.2325581 L3.54069767,17.2674419 C4.51744186,17.7732558 5.59883721,18.0174419 6.68023256,18 C8.19767442,18 9.68023256,17.4593023 10.8662791,16.5 C13.2732558,18.4883721 16.7616279,18.4883721 19.1860465,16.5 C21.2790698,18.1744186 24.1744186,18.4534884 26.5639535,17.2151163 C27.0174419,16.9534884 27.4360465,16.6569767 27.8197674,16.3081395 Z M15.1004668,26.7022583 C14.4926869,26.7022583 14,27.216616 14,27.8511292 C14,28.4856423 14.4926869,29 15.1004668,29 C15.7082468,29 16.2009336,28.4856423 16.2009336,27.8511292 C16.2009336,27.216616 15.7082468,26.7022583 15.1004668,26.7022583 Z M15.1004668,19.0000316 C14.5015718,19.0163682 14.0963825,19.4259716 14.0419081,19.8525652 L14.0356342,19.9511402 L14.299906,24.7067538 C14.299906,25.1668105 14.6602358,25.5429894 15.1006881,25.5429894 C15.5072595,25.5429894 15.8455608,25.2222613 15.8952015,24.8112533 L15.9014703,24.7067538 L16.1657417,19.9511402 C16.1657417,19.4913146 15.6354283,18.9954423 15.1004668,19.0000316 Z M24.8197674,0 C25.744186,0 26.5813953,0.558139535 26.9476744,1.4127907 C27.2093023,2.02325581 27.6104651,2.93023256 28.0465116,3.88953488 C29.8604651,7.90116279 30.0348837,8.4244186 30.0174419,8.87790698 C30,12.5581395 27,15.5232558 23.3197674,15.4883721 C21.8023256,15.4883721 20.3372093,14.9651163 19.1686047,14.005814 C16.7616279,15.994186 13.2732558,15.994186 10.8488372,14.005814 C9.75813953,14.9011628 8.39395349,15.4318605 6.96899225,15.4986408 L6.6627907,15.505814 L6.33423837,15.5031977 C5.4611686,15.4752907 4.61377326,15.2799419 3.81884302,14.9171512 L3.52325581,14.7732558 L3.47093023,14.7383721 C1.34302326,13.5697674 0,11.3372093 0,8.89534884 C0,8.44186047 0.191860465,7.91860465 2.04069767,3.88953488 C2.47674419,2.93023256 2.89534884,2.00581395 3.15697674,1.39534884 C3.50036337,0.594113372 4.25765352,0.0688135901 5.1126709,0.0062809434 L5.28488372,0 L24.8197674,0 Z M21.5,6 L8.5,6 C8.25454011,6 8.05039163,6.17687516 8.00805567,6.41012437 L8,6.5 L8,8 C8,8.24545989 8.17687516,8.44960837 8.41012437,8.49194433 L8.5,8.5 L21.5,8.5 C21.7454599,8.5 21.9496084,8.32312484 21.9919443,8.08987563 L22,8 L22,6.5 C22,6.22385763 21.7761424,6 21.5,6 Z"></path>
                        </g>
                    </g>
                </g>
            </g>
        </g>
    </g>
</svg>