<?xml version="1.0" encoding="UTF-8"?>
<svg width="36px" height="36px" viewBox="0 0 36 36" version="1.1" xmlns="http://www.w3.org/2000/svg" xmlns:xlink="http://www.w3.org/1999/xlink">
    <title>异常小票数</title>
    <defs>
        <linearGradient x1="50%" y1="0%" x2="50%" y2="99.4958411%" id="linearGradient-1">
            <stop stop-color="#FF8B9B" offset="0%"></stop>
            <stop stop-color="#FF5C72" offset="100%"></stop>
        </linearGradient>
    </defs>
    <g id="收银巡检" stroke="none" stroke-width="1" fill="none" fill-rule="evenodd">
        <g id="20-收银巡检-收银统计-修改数据总览" transform="translate(-549.000000, -313.000000)" fill="url(#linearGradient-1)" fill-rule="nonzero">
            <g id="4" transform="translate(500.000000, 16.000000)">
                <g transform="translate(30.000000, 290.000000)">
                    <g id="异常小票数" transform="translate(19.000000, 7.000000)">
                        <g transform="translate(5.000000, 3.000000)" id="形状结合">
                            <path d="M23.6284628,3.6827811 C24.8669202,3.6827811 25.6491037,4.69310158 25.633058,5.70342205 L25.633058,5.70342205 L25.633058,27.6534492 C25.633058,28.7615426 24.4106464,30 23.2862575,30 L23.2862575,30 L2.34655079,30 C1.01032048,30 0,28.6637697 0,27.6534492 L0,27.6534492 L0,5.81749049 C0,4.57903313 0.684410646,3.6827811 2.1347094,3.79684954 L2.1347094,3.79684954 L2.68875611,3.79684954 C3.14502988,3.79684954 3.58500815,4.13905486 3.58500815,4.69310158 L3.58500815,4.69310158 L3.58500815,8.62031505 C3.58500815,9.07658881 3.92721347,9.51656708 4.48126018,9.51656708 L4.48126018,9.51656708 L21.1678436,9.40249864 C21.6241173,9.40249864 22.0640956,9.06029332 22.0640956,8.50624661 L22.0640956,8.50624661 L22.0640956,4.57903313 C22.0640956,4.02498642 22.5203694,3.6827811 23.0744161,3.6827811 L23.0744161,3.6827811 Z M12.5001241,13.6827811 C12.1855988,13.6827811 11.8949622,13.8579435 11.737735,14.1423328 L6.11803213,24.3041261 C5.96065596,24.5884953 5.96065596,24.9388602 6.11803213,25.2232294 C6.2754083,25.5075986 6.56599985,25.6827811 6.88042122,25.6827811 L18.1196615,25.6827811 C18.4342483,25.6827811 18.7246744,25.5075986 18.8820506,25.2232294 C19.0394268,24.9388602 19.0392613,24.5884953 18.8818851,24.3041261 L13.2625132,14.1423328 C13.105256,13.8579748 12.8146384,13.6827811 12.5001241,13.6827811 Z M12.6138122,22.7399227 C13.0682339,22.7399227 13.4366033,23.1244949 13.4366033,23.5989043 C13.4366033,24.0733136 13.0682339,24.4578858 12.6138122,24.4578858 C12.1593906,24.4578858 11.7910212,24.0733136 11.7910212,23.5989043 C11.7910212,23.1244949 12.1593906,22.7399227 12.6138122,22.7399227 Z M12.6138122,16.9811634 C13.0137893,16.9777321 13.4102912,17.3484832 13.4102912,17.6922831 L13.2127022,21.2479346 C13.2127022,21.5917346 12.9432928,21.8731668 12.6139777,21.8731668 C12.2846627,21.8731668 12.0152532,21.5919073 12.0152532,21.2479346 L11.817664,17.6922831 C11.8173333,17.3484832 12.1315891,16.9943174 12.6138122,16.9811634 Z M15.4644215,0 C16.474742,0 17.2569256,0.782183596 17.2569256,1.67843563 C17.2569256,2.1347094 17.5991309,2.57468767 18.1531776,2.57468767 L18.1531776,2.57468767 L18.7072243,2.57468767 C19.1634981,2.57468767 19.6034764,2.91689299 19.6034764,3.47093971 L19.6034764,3.47093971 L19.6034764,6.15969582 C19.6034764,6.61596958 19.261271,7.05594785 18.7072243,7.05594785 L18.7072243,7.05594785 L6.82781097,7.05594785 C6.3878327,7.05594785 5.93155894,6.71374253 5.94785443,6.15969582 L5.94785443,6.15969582 L5.94785443,3.47093971 C5.94785443,3.01466594 6.29005975,2.57468767 6.84410646,2.57468767 L6.84410646,2.57468767 L7.51222162,2.57468767 C7.96849538,2.57468767 8.40847366,2.23248235 8.40847366,1.67843563 C8.40847366,0.782183596 9.19065725,0 10.2009777,0 L10.2009777,0 Z M12.8897338,1.67843563 C11.8794134,1.67843563 10.9831613,2.59098316 10.9831613,3.58500815 C10.9831613,4.57903313 11.8794134,5.49158066 12.8897338,5.49158066 C13.9000543,5.49158066 14.7963064,4.82346551 14.7963064,3.58500815 C14.7963064,2.57468767 14.0141228,1.67843563 12.8897338,1.67843563 Z"></path>
                        </g>
                    </g>
                </g>
            </g>
        </g>
    </g>
</svg>