<?xml version="1.0" encoding="UTF-8"?>
<svg width="36px" height="36px" viewBox="0 0 36 36" version="1.1" xmlns="http://www.w3.org/2000/svg" xmlns:xlink="http://www.w3.org/1999/xlink">
    <title>连带率</title>
    <defs>
        <linearGradient x1="50%" y1="0%" x2="50%" y2="99.4958411%" id="linearGradient-1">
            <stop stop-color="#52EDFF" offset="0%"></stop>
            <stop stop-color="#00C7DF" offset="100%"></stop>
        </linearGradient>
    </defs>
    <g id="收银巡检" stroke="none" stroke-width="1" fill="none" fill-rule="evenodd">
        <g id="20-收银巡检-收银统计-修改数据总览" transform="translate(-549.000000, -747.000000)" fill="url(#linearGradient-1)" fill-rule="nonzero">
            <g id="11" transform="translate(500.000000, 16.000000)">
                <g transform="translate(30.000000, 724.000000)">
                    <g id="连带率" transform="translate(19.000000, 7.000000)">
                        <g transform="translate(3.000000, 4.000000)" id="形状结合">
                            <path d="M12.8370521,0 C16.4546667,0 18.9018229,3.83414062 18.8981406,7.49185937 C18.9009479,11.346526 17.8051927,12.285474 16.401474,14.5908073 C14.8213333,17.3683854 17.4449479,18.626526 18.5406667,19.3246667 C23.2558594,22.2898594 25.3166667,23.401474 25.3166667,24.8443854 L25.3166667,24.8443854 L25.3166667,26.8165625 C25.3166667,27.4511927 24.8891927,28 24.2470521,28 L24.2470521,28 L1.06961458,28 C0.428385417,28 0,27.4511927 0,26.816526 L0,26.816526 L0,24.8443854 C0,23.4014375 2.06080729,22.2908073 6.77505208,19.3246667 C7.87171875,18.626526 10.4953333,17.3683854 8.91428125,14.5908073 C7.51147396,12.2863854 6.41571875,11.347474 6.4185625,7.49185937 C6.41571875,3.83414063 8.86294792,0 12.8370521,0 Z M19.733474,2.49105208 C20.0610521,2.40985937 20.8721406,2.49105208 20.8721406,2.49105208 C23.7496146,2.49105208 25.696526,5.54028125 25.6946667,8.45133333 C25.696526,11.5173333 24.8248073,12.264 23.709474,14.098 C22.4513333,16.3072292 24.5382812,17.3077187 25.41,17.864 C29.1610521,20.222526 30.8,21.1073333 30.8,22.2553333 L30.8,22.2553333 L30.8,23.8242812 C30.8,24.3301406 30.4593333,24.766 29.9488073,24.766 L29.9488073,24.7650521 L27.4064219,24.7650521 C27.4064219,24.7650521 27.3476146,23.9157187 27.2281406,23.2997187 C27.1095781,22.6818594 23.7776146,19.9070521 20.209474,18.1794375 C16.9267846,16.5892271 18.5261304,14.2698342 18.803035,13.9089087 L18.8311433,13.873159 C18.8376729,13.8650919 18.8411927,13.8609479 18.8411927,13.8609479 C23.750526,7.71119271 19.733474,2.49105208 19.733474,2.49105208 Z"></path>
                        </g>
                    </g>
                </g>
            </g>
        </g>
    </g>
</svg>