<?xml version="1.0" encoding="UTF-8"?>
<svg width="36px" height="36px" viewBox="0 0 36 36" version="1.1" xmlns="http://www.w3.org/2000/svg" xmlns:xlink="http://www.w3.org/1999/xlink">
    <title>店铺客流</title>
    <defs>
        <linearGradient x1="50%" y1="0.746831448%" x2="50%" y2="99.7355428%" id="linearGradient-1">
            <stop stop-color="#4FCDFF" offset="0%"></stop>
            <stop stop-color="#00AEF4" offset="100%"></stop>
        </linearGradient>
    </defs>
    <g id="工作台" stroke="none" stroke-width="1" fill="none" fill-rule="evenodd">
        <g id="5-工作台-设置-修改数据总览数据" transform="translate(-550.000000, -690.000000)" fill="url(#linearGradient-1)" fill-rule="nonzero">
            <g id="9" transform="translate(500.000000, 83.000000)">
                <g transform="translate(30.000000, 600.000000)">
                    <g id="店铺客流" transform="translate(20.000000, 7.000000)">
                        <g transform="translate(3.000000, 4.000000)" id="形状结合">
                            <path d="M9.97929155,16.2964578 C10.2234332,16.0980926 10.5743869,16.0980926 10.8032698,16.2964578 C12.0239782,17.3645777 13.5956403,17.9749319 15.2588556,17.9749319 C16.9373297,17.9749319 18.493733,17.3645777 19.7144414,16.3117166 C19.9433243,16.1133515 20.3400545,16.1286104 20.5689373,16.3269755 C22.4,17.9291553 25.0245232,18.493733 27.6185286,17.5019074 L27.6185286,17.5019074 L27.6185286,25.1313351 C27.6185286,26.9013624 26.1384196,28 24.3683924,28 L24.3683924,28 L6.17983651,28 C4.40980926,28 3.05177112,26.9013624 3.05177112,25.1313351 L3.05177112,25.1313351 L3.05177112,17.4866485 C3.05177112,17.5171662 3.20435967,17.5629428 3.31117166,17.5934605 C5.76784741,18.4021798 8.22452316,17.8223433 9.97929155,16.2964578 Z M9.38419619,18.9209809 C8.75858311,18.9209809 8.20926431,19.1346049 8.20926431,19.4245232 L8.20926431,19.4245232 L8.20926431,25.4365123 C8.20926431,25.7111717 8.75858311,25.9400545 9.38419619,25.9400545 C10.0098093,25.9400545 10.5591281,25.7264305 10.5591281,25.4365123 L10.5591281,25.4365123 L10.5591281,19.4245232 C10.5591281,19.1498638 10.0098093,18.9209809 9.38419619,18.9209809 Z M23.9258856,0 C24.9177112,0 25.8179837,0.579836512 26.2604905,1.46485014 L26.2604905,1.46485014 L30.2888283,9.6893733 L30.3498638,9.87247956 C30.4414169,10.2386921 30.5024523,10.5896458 30.5177112,10.9711172 C30.6245232,13.5040872 28.5493188,16.1438692 26.0621253,16.6168937 C23.8648501,17.0288828 21.8354223,16.1133515 20.6299728,14.5416894 C20.3705722,14.2059946 19.8822888,14.2212534 19.6228883,14.5416894 C18.6158038,15.853951 17.0288828,16.693188 15.2588556,16.693188 C13.4888283,16.693188 11.9019074,15.853951 10.8948229,14.5416894 C10.6354223,14.2212534 10.1318801,14.2212534 9.88773842,14.5416894 C8.60599455,16.2201635 6.37820163,17.1356948 3.99782016,16.4948229 C1.60217984,15.8386921 0,13.6566757 0,11.1694823 C0,10.7269755 0.0457765668,10.3455041 0.167847411,9.88773842 C0.183106267,9.84196185 0.213623978,9.76566757 0.228882834,9.71989101 L0.228882834,9.71989101 L4.19618529,1.46485014 C4.62343324,0.564577657 5.53896458,0 6.53079019,0 L6.53079019,0 Z"></path>
                        </g>
                    </g>
                </g>
            </g>
        </g>
    </g>
</svg>