<?xml version="1.0" encoding="UTF-8"?>
<svg width="36px" height="36px" viewBox="0 0 36 36" version="1.1" xmlns="http://www.w3.org/2000/svg" xmlns:xlink="http://www.w3.org/1999/xlink">
    <title>女顾客</title>
    <defs>
        <linearGradient x1="50%" y1="0%" x2="50%" y2="99.4958411%" id="linearGradient-1">
            <stop stop-color="#FF8B9B" offset="0%"></stop>
            <stop stop-color="#FF5C72" offset="100%"></stop>
        </linearGradient>
    </defs>
    <g id="客群分析" stroke="none" stroke-width="1" fill="none" fill-rule="evenodd">
        <g id="4-客群分析-修改数据总览" transform="translate(-549.000000, -535.000000)" fill="url(#linearGradient-1)" fill-rule="nonzero">
            <g id="6" transform="translate(500.000000, 114.000000)">
                <g transform="translate(30.000000, 414.000000)">
                    <g id="女顾客" transform="translate(19.000000, 7.000000)">
                        <g transform="translate(4.000000, 3.000000)" id="形状">
                            <path d="M18.15,18.9 C17.85,18.75 17.55,18.3 17.55,17.85 L17.55,17.55 C17.55,17.1 17.7,16.8 18,16.65 L21.9,16.65 C22.5,16.65 22.95,16.2 22.95,15.6 L21.3,10.5 C21.3,10.05 21.45,9.6 21.45,9 C21.45,4.05 18.3,0 14.25,0 C10.2,0 7.04999997,4.05 7.04999997,9 C7.04999997,9.44999999 7.04999997,9.89999999 7.19999999,10.5 L5.54999997,15.6 C5.54999997,16.2 5.99999997,16.65 6.59999998,16.65 L10.5,16.65 C10.8,16.95 10.95,17.25 10.95,17.55 L10.95,18 C10.95,18.45 10.8,18.75 10.35,19.05 C9.89999999,19.35 9.44999999,19.65 8.69999997,20.1 L14.1,23.4 L19.5,20.1 C19.05,19.65 18.45,19.2 18.15,18.9 L18.15,18.9 Z M28.05,26.25 C26.7,25.2 22.35,21.9 19.65,20.1 L18.6,26.7 L14.25,23.4 L9.89999999,26.7 L8.84999998,20.1 C6.14999998,22.05 1.94999998,25.2 0.45,26.25 C0.150000012,26.4 0,26.85 0,27.15 L0,28.8 C0,29.4 0.45,30 1.04999998,30 L27.3,30 C27.9,30 28.35,29.55 28.35,28.8 L28.35,27.15 C28.5,26.85 28.35,26.55 28.05,26.25 L28.05,26.25 Z"></path>
                        </g>
                    </g>
                </g>
            </g>
        </g>
    </g>
</svg>