<?xml version="1.0" encoding="UTF-8"?>
<svg width="36px" height="36px" viewBox="0 0 36 36" version="1.1" xmlns="http://www.w3.org/2000/svg" xmlns:xlink="http://www.w3.org/1999/xlink">
    <title>店铺客流</title>
    <defs>
        <linearGradient x1="50%" y1="0%" x2="50%" y2="100%" id="linearGradient-1">
            <stop stop-color="#FF8A81" offset="0%"></stop>
            <stop stop-color="#F86459" offset="100%"></stop>
        </linearGradient>
        <linearGradient x1="50%" y1="0%" x2="50%" y2="100%" id="linearGradient-2">
            <stop stop-color="#FF8A81" offset="0%"></stop>
            <stop stop-color="#F86459" offset="100%"></stop>
        </linearGradient>
    </defs>
    <g id="客流分析" stroke="none" stroke-width="1" fill="none" fill-rule="evenodd">
        <g id="6-客流分析-客流统计-修改数据总览" transform="translate(-549.000000, -566.000000)" fill-rule="nonzero">
            <g id="8" transform="translate(500.000000, 21.000000)">
                <g transform="translate(30.000000, 538.000000)">
                    <g id="店铺客流" transform="translate(19.000000, 7.000000)">
                        <g transform="translate(3.000000, 4.000000)">
                            <path d="M20.5689373,16.3269755 C20.3400545,16.1286104 19.9433243,16.1133515 19.7144414,16.3117166 C18.493733,17.3645777 16.9373297,17.9749319 15.2588556,17.9749319 C13.5956403,17.9749319 12.0239782,17.3645777 10.8032698,16.2964578 C10.5743869,16.0980926 10.2234332,16.0980926 9.97929155,16.2964578 C8.22452316,17.8223433 5.76784741,18.4021798 3.31117166,17.5934605 C3.20435967,17.5629428 3.05177112,17.5171662 3.05177112,17.4866485 L3.05177112,25.1313351 C3.05177112,26.9013624 4.40980926,28 6.17983651,28 L24.3683924,28 C26.1384196,28 27.6185286,26.9013624 27.6185286,25.1313351 L27.6185286,17.5019074 C25.0245232,18.493733 22.4,17.9291553 20.5689373,16.3269755 Z M10.5591281,25.4365123 C10.5591281,25.7264305 10.0098093,25.9400545 9.38419619,25.9400545 C8.75858311,25.9400545 8.20926431,25.7111717 8.20926431,25.4365123 L8.20926431,19.4245232 C8.20926431,19.1346049 8.75858311,18.9209809 9.38419619,18.9209809 C10.0098093,18.9209809 10.5591281,19.1498638 10.5591281,19.4245232 L10.5591281,25.4365123 Z" id="形状" fill="url(#linearGradient-1)"></path>
                            <path d="M30.3498638,9.87247956 L30.2888283,9.6893733 L26.2604905,1.46485014 C25.8179837,0.579836512 24.9177112,0 23.9258856,0 L6.53079019,0 C5.53896458,0 4.62343324,0.564577657 4.19618529,1.46485014 L0.228882834,9.71989101 C0.213623978,9.76566757 0.183106267,9.84196185 0.167847411,9.88773842 C0.0457765668,10.3455041 0,10.7269755 0,11.1694823 C0,13.6566757 1.60217984,15.8386921 3.99782016,16.4948229 C6.37820163,17.1356948 8.60599455,16.2201635 9.88773842,14.5416894 C10.1318801,14.2212534 10.6354223,14.2212534 10.8948229,14.5416894 C11.9019074,15.853951 13.4888283,16.693188 15.2588556,16.693188 C17.0288828,16.693188 18.6158038,15.853951 19.6228883,14.5416894 C19.8822888,14.2212534 20.3705722,14.2059946 20.6299728,14.5416894 C21.8354223,16.1133515 23.8648501,17.0288828 26.0621253,16.6168937 C28.5493188,16.1438692 30.6245232,13.5040872 30.5177112,10.9711172 C30.5024523,10.5896458 30.4414169,10.2386921 30.3498638,9.87247956 Z" id="路径" fill="url(#linearGradient-2)"></path>
                        </g>
                    </g>
                </g>
            </g>
        </g>
    </g>
</svg>