<?xml version="1.0" encoding="UTF-8"?>
<svg width="36px" height="36px" viewBox="0 0 36 36" version="1.1" xmlns="http://www.w3.org/2000/svg" xmlns:xlink="http://www.w3.org/1999/xlink">
    <title>全部设备</title>
    <defs>
        <linearGradient x1="50%" y1="0%" x2="50%" y2="100%" id="linearGradient-1">
            <stop stop-color="#8FA8FF" offset="0%"></stop>
            <stop stop-color="#4772E9" offset="100%"></stop>
        </linearGradient>
    </defs>
    <g id="工作台" stroke="none" stroke-width="1" fill="none" fill-rule="evenodd">
        <g id="14-工作台-运维视图-单一设备" transform="translate(-380.000000, -290.000000)" fill="url(#linearGradient-1)">
            <g id="main" transform="translate(106.000000, 182.000000)">
                <g id="数据" transform="translate(1.000000, 76.000000)">
                    <g id="ICON" transform="translate(261.000000, 20.000000)">
                        <g id="全部设备" transform="translate(12.000000, 12.000000)">
                            <g transform="translate(4.000000, 4.000000)" id="形状结合">
                                <path d="M25.8533333,19.9733333 C26.9733333,19.9733333 27.8133333,20.8133333 27.8133333,21.9333333 L27.8133333,21.9333333 L27.8133333,26.04 C27.8133333,27.0666667 26.9733333,28 25.8533333,28 L25.8533333,28 L1.96,28 C0.933333333,28 0,27.0666667 0,25.9466667 L0,25.9466667 L0,21.9333333 C0,20.9066667 0.84,19.9733333 1.96,19.9733333 L1.96,19.9733333 Z M8.02666667,21.9333333 L4.01333333,21.9333333 L4.01333333,25.9466667 L8.02666667,25.9466667 L8.02666667,21.9333333 Z M25.8533333,9.98666667 C26.9733333,9.98666667 27.8133333,10.8266667 27.8133333,11.9466667 L27.8133333,11.9466667 L27.8133333,16.0533333 C27.8133333,17.08 26.9733333,18.0133333 25.8533333,18.0133333 L25.8533333,18.0133333 L1.96,18.0133333 C0.933333333,18.0133333 0,17.08 0,15.96 L0,15.96 L0,11.9466667 C0,10.92 0.84,9.98666667 1.96,9.98666667 L1.96,9.98666667 Z M8.02666667,11.9466667 L4.01333333,11.9466667 L4.01333333,15.96 L8.02666667,15.96 L8.02666667,11.9466667 Z M25.8533333,0 C26.9733333,0 27.8133333,0.84 27.8133333,1.96 L27.8133333,1.96 L27.8133333,6.06666667 C27.8133333,7.09333333 26.9733333,8.02666667 25.8533333,8.02666667 L25.8533333,8.02666667 L1.96,8.02666667 C0.933333333,8.02666667 0,7.09333333 0,5.97333333 L0,5.97333333 L0,1.96 C0,0.933333333 0.84,0 1.96,0 L1.96,0 Z M8.02666667,1.96 L4.01333333,1.96 L4.01333333,5.97333333 L8.02666667,5.97333333 L8.02666667,1.96 Z"></path>
                            </g>
                        </g>
                    </g>
                </g>
            </g>
        </g>
    </g>
</svg>