<?xml version="1.0" encoding="UTF-8"?>
<svg width="62px" height="62px" viewBox="0 0 62 62" version="1.1" xmlns="http://www.w3.org/2000/svg" xmlns:xlink="http://www.w3.org/1999/xlink">
    <title>巡检待审核</title>
    <defs>
        <linearGradient x1="50%" y1="0%" x2="50%" y2="99.4958411%" id="linearGradient-1">
            <stop stop-color="#61B1FF" offset="0%"></stop>
            <stop stop-color="#3791EA" offset="100%"></stop>
        </linearGradient>
        <linearGradient x1="50%" y1="0%" x2="50%" y2="99.4958411%" id="linearGradient-2">
            <stop stop-color="#61B1FF" offset="0%"></stop>
            <stop stop-color="#3791EA" offset="100%"></stop>
        </linearGradient>
    </defs>
    <g id="工作台" stroke="none" stroke-width="1" fill="none" fill-rule="evenodd">
        <g id="1-工作台-运营视图" transform="translate(-1445.000000, -475.000000)" fill-rule="nonzero">
            <g id="main" transform="translate(106.000000, 182.000000)">
                <g id="待办事项" transform="translate(1073.000000, 214.000000)">
                    <g id="2" transform="translate(212.000000, 58.000000)">
                        <g id="main" transform="translate(51.000000, 21.000000)">
                            <g id="巡检待审核" transform="translate(3.000000, 0.000000)">
                                <g id="待审核" transform="translate(3.000000, 6.000000)">
                                    <path d="M33.13407,38.2408475 L33.700733,38.2408475 L35.9443485,35.3148194 C32.622292,31.6351919 32.9094944,25.9568546 36.585849,22.6318399 C37.3315813,21.9572862 38.1854622,21.4129694 39.1117574,21.0216685 C39.9288257,20.7241167 40.791834,20.5724916 41.6613948,20.5737133 C41.8880475,20.5737133 42.1147001,20.5830916 42.3411009,20.6019111 L42.3411009,3.90728722 C42.4146796,1.82826399 40.7946264,0.0815093422 38.717932,0 L3.63429697,0 C1.55414079,0.0769146071 -0.0708219061,1.82517985 0.00237914802,3.90728722 L0.00237914802,46.0097893 C-0.0628912674,48.0864837 1.55986847,49.8259371 3.63429697,49.9029283 L28.0405858,49.9029283 C28.090171,49.9038965 28.1393983,49.8942357 28.1849109,49.874528 C27.5995857,48.8640362 27.2926803,47.716404 27.2954834,46.5486321 L27.2954834,44.5157451 C27.1869721,41.1732326 29.7952082,38.3701295 33.13407,38.2408475 L33.13407,38.2408475 Z M7.01828791,11.9526055 C7.09174073,10.9894105 7.85635501,10.2243557 8.81860584,10.150777 L20.6435658,10.150777 C21.7199297,10.2328528 22.5260854,11.1729482 22.4440096,12.2501933 C22.3705568,13.2133882 21.6058166,13.978569 20.6435658,14.0521477 L8.8185429,14.0521477 C7.74217899,13.9701348 6.93608621,13.0300394 7.01828791,11.9526055 L7.01828791,11.9526055 Z M28.0915685,35.2637109 C28.0268016,36.2426412 27.2478996,37.0223615 26.2698504,37.0870025 L8.8185429,37.0870025 C7.74142369,37.0157526 6.9257638,36.0839655 6.99695072,35.0059022 C7.06159172,34.0269718 7.84049373,33.2472516 8.8185429,33.1826106 L26.2697875,33.1826106 C27.3470955,33.2537346 28.1627554,34.1855217 28.0915685,35.2637109 Z M8.8185429,25.5695751 C7.74217899,25.4873734 6.93602327,24.547278 7.01822497,23.469907 C7.09167779,22.5068379 7.85629207,21.7416572 8.8185429,21.6680785 L28.9950948,21.6680785 C30.0715846,21.7504061 30.8776145,22.6903756 30.7955386,23.7677465 C30.7220858,24.7308156 29.9573457,25.4961223 28.9950948,25.5695751 L8.8185429,25.5695751 Z" id="形状" fill="url(#linearGradient-1)"></path>
                                    <path d="M52.9365601,41.1585672 L52.9338536,41.1670643 L50.8769858,41.1670643 L45.3300076,34.5946419 C48.3617145,33.6409511 50.0464717,30.4082717 49.0937251,27.3742989 C49.0831196,27.3407016 49.0722303,27.3071945 49.0610584,27.2737812 C48.2214807,24.8991214 45.9714452,23.3175254 43.4546004,23.3324 C42.8134191,23.3331858 42.176484,23.4365438 41.5679895,23.6386534 C38.5373526,24.590393 36.8516513,27.8208065 37.8025097,30.8538981 C37.8135245,30.8891454 37.8250428,30.9245186 37.8370017,30.95964 C38.4404454,32.692646 39.8215826,34.0424218 41.5679895,34.6059085 L36.0322778,41.1897862 L33.9754101,41.1897862 C32.0880439,41.1677567 30.53987,42.6806204 30.5164557,44.569686 L30.5164557,46.6196302 C30.5399329,48.5086328 32.0880439,50.0215595 33.9754101,49.9997675 L52.9364972,49.9997675 C54.8227304,50.0183495 56.3692049,48.507311 56.3955774,46.6196302 L56.3955774,44.5611259 C56.3769467,42.6663327 54.8295281,41.1443424 52.9365601,41.1585672 L52.9365601,41.1585672 Z" id="路径" fill="url(#linearGradient-2)" opacity="0.5"></path>
                                </g>
                            </g>
                        </g>
                    </g>
                </g>
            </g>
        </g>
    </g>
</svg>