<?xml version="1.0" encoding="utf-8"?>
<!-- Generator: Adobe Illustrator 24.0.0, SVG Export Plug-In . SVG Version: 6.00 Build 0)  -->
<svg version="1.1" id="图层_1" xmlns="http://www.w3.org/2000/svg" xmlns:xlink="http://www.w3.org/1999/xlink" x="0px" y="0px"
	 viewBox="0 0 36 36" style="enable-background:new 0 0 36 36;" xml:space="preserve">
<style type="text/css">
	.st0{fill:url(#SVGID_1_);}
</style>
<title>去重客流</title>
<g id="客群分析">
	<g id="_x34_-客群分析-修改数据总览" transform="translate(-549.000000, -721.000000)">
		<g id="_x31_0" transform="translate(500.000000, 114.000000)">
			<g transform="translate(30.000000, 600.000000)">
				<g id="去重客流" transform="translate(19.000000, 7.000000)">
					<g id="形状" transform="translate(1.000000, 3.000000)">
						
							<linearGradient id="SVGID_1_" gradientUnits="userSpaceOnUse" x1="-914.6284" y1="538.5619" x2="-914.6284" y2="537.7048" gradientTransform="matrix(34.9997 0 0 -30 32028.752 16159)">
							<stop  offset="0" style="stop-color:#AB9EFF"/>
							<stop  offset="1" style="stop-color:#8E7CFF"/>
						</linearGradient>
						<path class="st0" d="M19.7,2.1c3.7,0,6.6,3,6.6,6.8c0,2.2-1,4.2-2.8,5.5c0.2,0.1,0.4,0.1,0.6,0.2c1.3,0.5,2.5,1.2,3.6,2.1
							c2.2,1.8,3.7,4.4,4.3,7.3c0.2,0.9,0,1.9-0.6,2.6c-0.6,0.7-1.5,1.2-2.4,1.2H10.8c-0.9,0-1.8-0.4-2.4-1.2
							C7.8,25.9,7.6,25,7.8,24c0.6-2.8,2.1-5.4,4.3-7.3c1.1-0.9,2.3-1.6,3.6-2.1l0.3-0.1c-1.8-1.3-2.9-3.4-2.9-5.6
							C13,5.2,16,2.1,19.7,2.1z M6.5,23c-0.1,0.3-0.2,0.7-0.3,1c-0.2,0.8,0,1.5,0.3,2.2H4.7c-0.8,0-1.6-0.4-2.1-1L6.5,23z M9.3,17.9
							c-0.8,1-1.6,2.2-2.2,3.4l-5.1,2.9c-0.1-0.4-0.1-0.9,0-1.3c0.1-0.3,0.2-0.6,0.2-1L9.3,17.9L9.3,17.9z M12.5,12.9
							c0.3,0.5,0.6,0.9,1,1.2L3,20.2c0.5-1.1,1.2-2.1,2.1-3L12.5,12.9L12.5,12.9z M11.6,10.4c0.1,0.5,0.2,1,0.4,1.4l-3.5,2
							c-0.4-0.3-0.7-0.7-0.9-1.1L11.6,10.4z M11.7,7.1c-0.1,0.6-0.2,1.1-0.2,1.8l0,0.2l-4.4,2.5c-0.2-0.5-0.3-1.1-0.4-1.6L11.7,7.1z
							 M12.5,3.6c0.4,0,0.9,0.1,1.3,0.1c-0.5,0.5-1,1-1.4,1.6L6.8,8.6C7.2,5.8,9.6,3.6,12.5,3.6z"/>
					</g>
				</g>
			</g>
		</g>
	</g>
</g>
</svg>
