<?xml version="1.0" encoding="UTF-8"?>
<svg width="36px" height="36px" viewBox="0 0 36 36" version="1.1" xmlns="http://www.w3.org/2000/svg" xmlns:xlink="http://www.w3.org/1999/xlink">
    <title>客单价</title>
    <defs>
        <linearGradient x1="50%" y1="0%" x2="50%" y2="100%" id="linearGradient-1">
            <stop stop-color="#9BCB60" offset="0%"></stop>
            <stop stop-color="#82BD39" offset="100%"></stop>
        </linearGradient>
    </defs>
    <g id="收银巡检" stroke="none" stroke-width="1" fill="none" fill-rule="evenodd">
        <g id="20-收银巡检-收银统计-修改数据总览" transform="translate(-549.000000, -499.000000)" fill="url(#linearGradient-1)" fill-rule="nonzero">
            <g id="7" transform="translate(500.000000, 16.000000)">
                <g transform="translate(30.000000, 476.000000)">
                    <g id="客单价" transform="translate(19.000000, 7.000000)">
                        <g transform="translate(3.000000, 4.000000)" id="形状">
                            <path d="M24.2888402,16.214442 C27.4398249,16.214442 30,18.7746171 30,21.9256017 C30,25.0765864 27.439825,27.6367615 24.2888402,27.6367615 C21.1378555,27.6367615 18.5776805,25.0765864 18.5776805,21.9256017 C18.5776805,18.7746171 21.1378556,16.214442 24.2888402,16.214442 Z M15.3610503,15.7549234 C16.9365426,15.7549234 18.380744,16.083151 19.6936543,16.7396061 C17.9868709,17.8555798 16.8708972,19.7592998 16.8708971,21.9256017 C16.8708971,24.4201313 18.380744,26.5864333 20.4814004,27.5054704 L0,27.5054704 L0,25.536105 C0,20.1531728 4.39824945,15.7549234 9.78118161,15.7549234 L15.3610503,15.7549234 Z M27.2428884,18.1181619 C27.0459519,17.9212254 26.7177243,17.9212254 26.5207877,18.1181619 L24.4201313,20.2188184 L22.3194748,18.1181619 C22.1225383,17.9212254 21.7943107,17.9212254 21.5973742,18.1181619 C21.4004376,18.3150985 21.4004376,18.6433261 21.5973742,18.8402626 L23.3041575,20.5470459 L21.7286652,20.5470459 C21.4004376,20.5470459 21.2035011,20.7439825 21.2035011,21.0722101 C21.2035011,21.4004376 21.4004376,21.5973742 21.7286652,21.5973742 L23.8949672,21.5973742 L23.8949672,22.8446389 L21.7943107,22.8446389 C21.4660831,22.8446389 21.2691466,23.0415755 21.2691466,23.3698031 C21.2691466,23.6980306 21.4660831,23.8949672 21.7943107,23.8949672 L23.8949672,23.8949672 L23.8949672,25.9299781 C23.8949672,26.2582057 24.0919037,26.4551422 24.4201313,26.4551422 C24.7483588,26.4551422 24.9452954,26.2582057 24.9452954,25.9299781 L24.9452954,23.8949672 L27.0459519,23.8949672 C27.3741794,23.8949672 27.571116,23.6980306 27.571116,23.3698031 C27.5711159,23.0415755 27.3741794,22.8446389 27.0459519,22.8446389 L24.9452954,22.8446389 L24.9452954,21.6630197 L27.1115974,21.6630197 C27.439825,21.6630197 27.6367615,21.4660831 27.6367615,21.1378556 C27.6367615,20.809628 27.4398249,20.6126915 27.1115974,20.6126915 L25.536105,20.6126915 L27.2428884,18.9059081 C27.439825,18.643326 27.439825,18.380744 27.2428884,18.1181619 L27.2428884,18.1181619 Z M12.3413567,0 C16.4113786,0 19.6936543,3.28227569 19.6936543,7.28665207 C19.6936543,11.2910285 16.4113786,14.5733041 12.4070022,14.5733041 C8.40262578,14.5733041 5.12035009,11.2910284 5.12035009,7.28665207 C5.12035009,3.28227572 8.33698029,0 12.3413567,0 Z"></path>
                        </g>
                    </g>
                </g>
            </g>
        </g>
    </g>
</svg>