<?xml version="1.0" encoding="UTF-8"?>
<svg width="36px" height="36px" viewBox="0 0 36 36" version="1.1" xmlns="http://www.w3.org/2000/svg" xmlns:xlink="http://www.w3.org/1999/xlink">
    <title>男顾客</title>
    <defs>
        <linearGradient x1="50%" y1="0%" x2="50%" y2="99.4958411%" id="linearGradient-1">
            <stop stop-color="#61B1FF" offset="0%"></stop>
            <stop stop-color="#3791EA" offset="100%"></stop>
        </linearGradient>
    </defs>
    <g id="客群分析" stroke="none" stroke-width="1" fill="none" fill-rule="evenodd">
        <g id="4-客群分析-修改数据总览" transform="translate(-549.000000, -473.000000)" fill="url(#linearGradient-1)" fill-rule="nonzero">
            <g id="5" transform="translate(500.000000, 114.000000)">
                <g transform="translate(30.000000, 352.000000)">
                    <g id="男顾客" transform="translate(19.000000, 7.000000)">
                        <g transform="translate(3.000000, 3.000000)" id="形状">
                            <path d="M19.3185,15.579 C19.0185,15.8085 18.801,16.4685 18.801,17.247 C18.801,17.811 18.915,18.312 19.092,18.633 C18.7095,19.6545 17.7255,21.678 15.3585,21.678 C12.2715,21.678 11.2065,19.032 10.8615,18.576 C11.0745,18.285 11.217,17.766 11.217,17.1735 C11.217,16.4535 11.007,15.84 10.7145,15.615 L10.7145,15.6075 C8.979,14.0265 7.857,11.508 7.857,8.6715 C7.857,3.882 11.055,0 15,0 C18.945,0 22.143,3.882 22.143,8.67 C22.143,11.49 21.0345,13.995 19.3185,15.579 Z M19.2855,18.888 L19.2855,18.921 L22.143,20.607 L29.262,24.534 C29.7175379,24.7854099 30,25.2646908 30,25.785 L30,28.572 C30,29.3606626 29.3606626,30 28.572,30 L1.428,30 C0.639337377,30 0,29.3606626 0,28.572 L0,25.785 C0,25.2645 0.2835,24.786 0.738,24.534 L7.857,20.607 L10.7145,18.921 L10.7145,18.906 C10.7745,20.583 13.095,28.1805 15.357,28.1805 C17.652,28.1805 19.1295,21.6255 19.281,18.885 L19.2855,18.888 L19.2855,18.888 Z M10.7462316,18.7341282 L10.7564716,18.729 L10.7462316,18.829 L10.7462316,18.7341282 Z"></path>
                        </g>
                    </g>
                </g>
            </g>
        </g>
    </g>
</svg>