<?xml version="1.0" encoding="UTF-8"?>
<svg width="36px" height="36px" viewBox="0 0 36 36" version="1.1" xmlns="http://www.w3.org/2000/svg" xmlns:xlink="http://www.w3.org/1999/xlink">
    <title>小票异常率</title>
    <defs>
        <linearGradient x1="50%" y1="0%" x2="50%" y2="100%" id="linearGradient-1">
            <stop stop-color="#AB9EFF" offset="0%"></stop>
            <stop stop-color="#8E7CFF" offset="100%"></stop>
        </linearGradient>
    </defs>
    <g id="收银巡检" stroke="none" stroke-width="1" fill="none" fill-rule="evenodd">
        <g id="20-收银巡检-收银统计-修改数据总览" transform="translate(-549.000000, -375.000000)" fill="url(#linearGradient-1)" fill-rule="nonzero">
            <g id="5" transform="translate(500.000000, 16.000000)">
                <g transform="translate(30.000000, 352.000000)">
                    <g id="小票异常率" transform="translate(19.000000, 7.000000)">
                        <g transform="translate(5.000000, 3.000000)" id="形状结合">
                            <path d="M23.6284628,3.6827811 C24.8669202,3.6827811 25.6491037,4.69310158 25.633058,5.70342205 L25.633058,5.70342205 L25.633058,27.6534492 C25.633058,28.7615426 24.4106464,30 23.2862575,30 L23.2862575,30 L2.34655079,30 C1.01032048,30 0,28.6637697 0,27.6534492 L0,27.6534492 L0,5.81749049 C0,4.57903313 0.684410646,3.6827811 2.1347094,3.79684954 L2.1347094,3.79684954 L2.68875611,3.79684954 C3.14502988,3.79684954 3.58500815,4.13905486 3.58500815,4.69310158 L3.58500815,4.69310158 L3.58500815,8.62031505 C3.58500815,9.07658881 3.92721347,9.51656708 4.48126018,9.51656708 L4.48126018,9.51656708 L21.1678436,9.40249864 C21.6241173,9.40249864 22.0640956,9.06029332 22.0640956,8.50624661 L22.0640956,8.50624661 L22.0640956,4.57903313 C22.0640956,4.02498642 22.5203694,3.6827811 23.0744161,3.6827811 L23.0744161,3.6827811 Z M16.375,20.4327811 C14.9252525,20.4327811 13.75,21.6080336 13.75,23.0577811 C13.75,24.5075286 14.9252525,25.6827811 16.375,25.6827811 C17.8247475,25.6827811 19,24.5075286 19,23.0577811 C19,21.6080336 17.8247475,20.4327811 16.375,20.4327811 Z M18.78025,13.9025311 C18.4873751,13.6097446 18.0126249,13.6097446 17.71975,13.9025311 L17.71975,13.9025311 L7.21974999,24.4025311 C6.9355209,24.6968153 6.93958581,25.1645946 7.22888613,25.453895 C7.51818646,25.7431953 7.98596582,25.7472602 8.28025,25.4630311 L8.28025,25.4630311 L18.78025,14.9630311 C19.0730365,14.6701562 19.0730365,14.195406 18.78025,13.9025311 Z M16.375,21.9327811 C16.9963203,21.9327811 17.5,22.4364608 17.5,23.0577811 C17.5,23.6791014 16.9963203,24.1827811 16.375,24.1827811 C15.7536797,24.1827811 15.25,23.6791014 15.25,23.0577811 C15.25,22.4364608 15.7536797,21.9327811 16.375,21.9327811 Z M9.625,13.6827811 C8.17525253,13.6827811 7,14.8580336 7,16.3077811 C7,17.7575285 8.17525255,18.9327811 9.625,18.9327811 C11.0747474,18.9327811 12.25,17.7575285 12.25,16.3077811 C12.25,14.8580336 11.0747475,13.6827811 9.625,13.6827811 Z M9.625,15.1827811 C10.2463203,15.1827811 10.75,15.6864607 10.75,16.3077811 C10.75,16.9291014 10.2463203,17.4327811 9.625,17.4327811 C9.00367965,17.4327811 8.5,16.9291014 8.5,16.3077811 C8.5,15.6864607 9.00367965,15.1827811 9.625,15.1827811 Z M15.4644215,0 C16.474742,0 17.2569256,0.782183596 17.2569256,1.67843563 C17.2569256,2.1347094 17.5991309,2.57468767 18.1531776,2.57468767 L18.1531776,2.57468767 L18.7072243,2.57468767 C19.1634981,2.57468767 19.6034764,2.91689299 19.6034764,3.47093971 L19.6034764,3.47093971 L19.6034764,6.15969582 C19.6034764,6.61596958 19.261271,7.05594785 18.7072243,7.05594785 L18.7072243,7.05594785 L6.82781097,7.05594785 C6.3878327,7.05594785 5.93155894,6.71374253 5.94785443,6.15969582 L5.94785443,6.15969582 L5.94785443,3.47093971 C5.94785443,3.01466594 6.29005975,2.57468767 6.84410646,2.57468767 L6.84410646,2.57468767 L7.51222162,2.57468767 C7.96849538,2.57468767 8.40847366,2.23248235 8.40847366,1.67843563 C8.40847366,0.782183596 9.19065725,0 10.2009777,0 L10.2009777,0 Z M12.8897338,1.67843563 C11.8794134,1.67843563 10.9831613,2.59098316 10.9831613,3.58500815 C10.9831613,4.57903313 11.8794134,5.49158066 12.8897338,5.49158066 C13.9000543,5.49158066 14.7963064,4.82346551 14.7963064,3.58500815 C14.7963064,2.57468767 14.0141228,1.67843563 12.8897338,1.67843563 Z"></path>
                        </g>
                    </g>
                </g>
            </g>
        </g>
    </g>
</svg>